<svg width="512" height="512" viewBox="0 0 512 512" fill="none" xmlns="http://www.w3.org/2000/svg">
<g clip-path="url(#clip0_127_288)">
<path d="M251.347 179.778C252.947 177.503 255.421 177.863 256.707 180.56L256.638 182.222C259.119 181.19 263.944 177.768 263.4 172.337C262.855 166.905 257.771 164.826 255.297 164.466C253.078 164.281 248.211 165.105 246.495 169.872C244.349 175.831 248.6 180.632 251.059 181.409L251.347 179.778Z" fill="#9396A8"/>
<path d="M249.585 223.005C247.282 222.835 245.297 223.087 243.598 223.612C238.412 225.215 235.904 229.362 235.229 231.783L249.25 237.208L264.394 233.945C263.569 231.3 260.647 226.465 254.885 224.192C253.33 223.579 251.568 223.152 249.585 223.005Z" fill="#9396A8"/>
<path d="M243.598 223.612C245.297 223.087 247.282 222.835 249.585 223.005C251.568 223.152 253.33 223.579 254.885 224.192L256.638 182.222L256.707 180.56C255.421 177.863 252.947 177.503 251.347 179.778L251.059 181.409L243.598 223.612Z" fill="#A7A9B8"/>
<path d="M243.598 223.612C245.297 223.087 247.282 222.835 249.585 223.005C251.568 223.152 253.33 223.579 254.885 224.192M243.598 223.612C238.412 225.215 235.904 229.362 235.229 231.783L249.25 237.208L264.394 233.945C263.569 231.3 260.647 226.465 254.885 224.192M243.598 223.612L251.059 181.409M254.885 224.192L256.638 182.222M256.638 182.222L256.707 180.56C255.421 177.863 252.947 177.503 251.347 179.778L251.059 181.409M256.638 182.222C259.119 181.19 263.944 177.768 263.4 172.337C262.855 166.905 257.771 164.826 255.297 164.466C253.078 164.281 248.211 165.105 246.495 169.872C244.349 175.831 248.6 180.632 251.059 181.409" stroke="black" stroke-width="2"/>
<path fill-rule="evenodd" clip-rule="evenodd" d="M42.2708 129.295C42.1383 129.098 42.041 129.021 41.9795 129.047C42.0776 129.135 42.1749 129.218 42.2708 129.295Z" fill="#68984C"/>
<path d="M121.181 434.84C116.396 420.057 122.077 398.319 135.591 391.662C132.893 388.545 129.292 383.463 125.408 376.592C112.025 373.201 88.4807 386.203 90.2763 394.645C98.6492 408.779 108.834 421.875 121.181 434.84Z" fill="#68984C"/>
<path d="M109.664 339.463C92.1896 335.526 83.7117 338.008 71.4221 352.067C76.3426 367.623 82.535 381.578 90.2763 394.645C88.4807 386.203 112.025 373.201 125.408 376.592C120.17 367.325 114.415 354.803 109.664 339.463Z" fill="#68984C"/>
<path d="M100.939 297.225C83.2344 293.525 74.2511 294.493 60.8874 304.719C63.4732 322.214 66.9138 337.813 71.4221 352.067C83.7117 338.008 92.1896 335.526 109.664 339.463C105.844 327.131 102.673 312.976 100.939 297.225Z" fill="#68984C"/>
<path d="M100.939 297.225C99.4976 284.129 98.3557 271.122 97.4576 258.734C80.883 253.844 71.8408 253.934 56.4842 262.822C57.5461 277.959 58.9855 291.852 60.8874 304.719C74.2511 294.493 83.2344 293.525 100.939 297.225Z" fill="#68984C"/>
<path d="M95.4553 224.331C80.9129 214.248 62.1443 218.994 54.5778 222.627C54.9874 236.957 55.6069 250.314 56.4842 262.822C71.8408 253.934 80.883 253.844 97.4576 258.734C96.5701 246.492 95.9206 234.854 95.4553 224.331Z" fill="#68984C"/>
<path d="M94.4205 180.73C90.189 178.232 76.1681 174.258 53.936 178.346C53.9832 194.085 54.1829 208.809 54.5778 222.627C62.1443 218.994 80.9129 214.248 95.4553 224.331C94.5985 204.954 94.3658 189.357 94.4205 180.73Z" fill="#68984C"/>
<path d="M53.936 178.346C76.1681 174.258 90.189 178.232 94.4205 180.73C105.948 162.745 109.288 149.619 109.516 145.304C105.295 143.495 101.033 142.13 96.8218 141.129C91.4131 139.843 86.088 139.156 81.0397 138.893C74.913 138.575 69.1941 138.883 64.2284 139.505C58.244 140.255 53.3536 141.461 50.162 142.579C49.0641 151.027 52.2205 169.943 53.936 178.346Z" fill="#68984C"/>
<path d="M96.8218 141.129L104.37 129.295H77.6089C77.1514 131.493 77.1972 135.945 81.0397 138.893C86.088 139.156 91.4131 139.843 96.8218 141.129Z" fill="#68984C"/>
<path d="M81.0397 138.893C77.1972 135.945 77.1514 131.493 77.6089 129.295C77.7477 128.054 78.7805 125.231 81.5365 121.801C83.3195 119.582 85.8238 117.11 89.2738 114.648C90.9893 108.971 90.7834 98.9789 76.2365 104.429C74.9476 105.068 73.5463 105.868 72.1185 106.813C68.07 109.495 63.8079 113.351 61.2893 118.054C59.7947 120.845 58.9139 123.933 59.0561 127.251C59.2196 131.067 60.7362 135.187 64.2284 139.505C69.1941 138.883 74.913 138.575 81.0397 138.893Z" fill="#68984C"/>
<path d="M50.162 142.579C53.3536 141.461 58.244 140.255 64.2284 139.505C60.7362 135.187 59.2196 131.067 59.0561 127.251C53.9184 128.614 43.3687 130.93 42.2708 129.295C42.1749 129.218 42.0776 129.135 41.9795 129.047C41.4039 129.296 43.9629 138.579 50.162 142.579Z" fill="#68984C"/>
<path d="M53.936 103.407C50.3907 106.359 43.1628 113.013 42.6139 116.01C46.9444 114.421 56.7422 112.604 61.2893 118.054C63.8079 113.351 68.07 109.495 72.1185 106.813C71.9534 104.517 70.9131 101.619 68.3456 100.207C66.6883 99.2952 64.3946 99.0022 61.2893 99.889C59.735 100.333 57.9774 101.072 55.9945 102.177C55.3336 102.546 54.6477 102.955 53.936 103.407Z" fill="#68984C"/>
<path d="M443.39 128.954C442.22 132.032 438.794 137.331 436.822 138.531C445.659 137.87 455.203 138.094 463.583 140.188C464.269 138.714 466.901 131.952 467.45 128.954C462.235 131.134 449.237 129.863 443.39 128.954Z" fill="#68984C"/>
<path d="M436.822 114.988C437.892 116.129 438.802 117.24 439.567 118.319C445.513 117.209 458.917 115.193 464.955 116.01C462.21 111.65 454.205 106.7 450.545 104.77C435.726 98.3491 435.124 108.474 436.73 114.648C436.76 114.763 436.791 114.876 436.822 114.988Z" fill="#68984C"/>
<path d="M450.545 104.77C454.205 106.7 462.21 111.65 464.955 116.01C467.077 116.298 468.63 117.473 469.621 119.076C471.575 109.277 471.684 90.9538 459.123 87.0918C457.42 86.5683 455.485 86.3105 453.29 86.3756C450.983 86.5474 447.512 88.5389 446.047 91.8257C444.607 95.0555 445.104 99.536 450.545 104.77Z" fill="#68984C"/>
<path d="M414.864 142.032C420.398 140.633 428.28 139.169 436.822 138.531C433.848 136.36 428.245 131.407 429.617 128.954H409.032C408.483 136.039 412.691 140.625 414.864 142.032Z" fill="#68984C"/>
<path d="M422.755 180.73C430.075 177.664 448.761 173.917 464.955 183.455C471.817 167.377 473.075 150.187 472.846 143.601C470.016 142.132 466.89 141.014 463.583 140.188C455.203 138.094 445.659 137.87 436.822 138.531C428.28 139.169 420.398 140.633 414.864 142.032C414.136 142.217 413.449 142.4 412.806 142.579C411.777 158.589 422.069 180.73 422.755 180.73Z" fill="#68984C"/>
<path d="M384.916 390.217C395.577 397.518 398.739 416.283 398.739 430.071C398.739 431.498 398.613 432.86 398.377 434.158C406.639 423.894 418.288 407.837 429.12 386.47C421.246 373.695 415.349 367.95 395.723 366.373C391.823 376.404 388.076 384.45 384.916 390.217Z" fill="#68984C"/>
<path d="M395.723 366.373C415.349 367.95 421.246 373.695 429.12 386.47C435.156 374.563 440.939 361.008 445.742 345.886C436.7 334.534 429.35 330.242 407.444 330.607C403.676 344.319 399.623 356.339 395.723 366.373Z" fill="#68984C"/>
<path d="M414.889 298.928C432.355 296.06 441.032 298.409 454.662 308.807C457.06 294.364 458.844 280.95 460.182 268.612C447.04 256.848 438.368 254.979 420.911 259.415C419.392 273.38 417.318 286.596 414.889 298.928Z" fill="#68984C"/>
<path d="M445.742 345.886C449.386 334.415 452.465 322.043 454.662 308.807C441.032 298.409 432.355 296.06 414.889 298.928C412.655 310.271 410.121 320.866 407.444 330.607C429.35 330.242 436.7 334.534 445.742 345.886Z" fill="#68984C"/>
<path d="M420.911 259.415C438.368 254.979 447.04 256.848 460.182 268.612C461.827 253.444 462.799 239.903 463.412 228.077C449.124 218.221 440.325 217.008 423.484 221.265C423.138 234.491 422.236 247.238 420.911 259.415Z" fill="#68984C"/>
<path d="M464.955 183.455C448.761 173.917 430.075 177.664 422.755 180.73C423.627 194.652 423.827 208.192 423.484 221.265C440.325 217.008 449.124 218.221 463.412 228.077C464.023 216.304 464.278 206.231 464.488 197.945L464.488 197.941L464.488 197.935C464.632 192.261 464.754 187.425 464.955 183.455Z" fill="#68984C"/>
<path d="M377.125 402.48C320.108 410.255 205.754 406.381 141.767 402.48C141.692 414.708 141.981 437.259 143.278 457.321C143.955 467.808 144.908 477.615 146.227 484.912C151.724 486.818 157.775 488.516 164.288 490.008C164.288 490.008 160.952 438.157 160.952 434.84C160.952 431.522 158.867 422.427 172.628 424.083C186.389 425.739 307.737 425.449 317.085 424.083C326.432 422.717 330.089 426.225 329.421 434.84C328.754 443.454 328.309 477.077 328.17 492.812C342.837 490.76 357.027 488.125 370.263 484.912C371.785 479.025 373.875 468.587 375.452 455.618C377.313 440.321 378.462 421.504 377.125 402.48Z" fill="#9396A8"/>
<path d="M160.952 434.84C160.952 438.157 164.288 490.008 164.288 490.008C207.655 499.944 271.472 500.743 328.17 492.812C328.309 477.077 328.754 443.454 329.421 434.84C330.089 426.225 326.432 422.717 317.085 424.083C307.737 425.449 186.389 425.739 172.628 424.083C158.867 422.427 160.952 431.522 160.952 434.84Z" fill="#9396A8"/>
<path d="M377.125 402.48C378.462 421.504 377.313 440.321 375.452 455.618C382.514 453.862 395.999 447.239 398.377 434.158C398.613 432.86 398.739 431.498 398.739 430.071C398.739 416.283 395.577 397.518 384.916 390.217C380.3 387.056 374.28 386.044 366.502 388.514C370.401 392.869 374.012 397.535 377.125 402.48Z" fill="#9396A8"/>
<path d="M143.278 457.321C141.981 437.259 141.692 414.708 141.767 402.48C143.376 399.253 145.907 394.973 149.281 390.217C144.1 389.067 139.515 389.729 135.591 391.662C122.077 398.319 116.396 420.057 121.181 434.84C126.122 450.1 137.971 456.186 143.278 457.321Z" fill="#9396A8"/>
<path d="M141.767 402.48C205.754 406.381 320.108 410.255 377.125 402.48C374.012 397.535 370.401 392.869 366.502 388.514C348.491 370.815 326.923 365.77 317.085 360.345H194.945C175.151 369.092 159.611 377.772 149.281 390.217C145.907 394.973 143.376 399.253 141.767 402.48Z" fill="#A7A9B8"/>
<path d="M443.39 128.954C449.237 129.863 462.235 131.134 467.45 128.954C472.136 126.995 472.154 123.174 469.621 119.076C468.63 117.473 467.077 116.298 464.955 116.01C458.917 115.193 445.513 117.209 439.567 118.319V121.801C439.928 124.805 440.345 126.874 441.248 128.954C442.801 128.898 443.362 128.92 443.39 128.954Z" fill="#FFD600"/>
<path d="M61.2893 118.054C56.7422 112.604 46.9444 114.421 42.6139 116.01C36.8166 121.766 39.621 126.936 41.9795 129.047C42.041 129.021 42.1383 129.098 42.2708 129.295C43.3687 130.93 53.9184 128.614 59.0561 127.251C58.9139 123.933 59.7947 120.845 61.2893 118.054Z" fill="#FFD600"/>
<path d="M76.2365 104.429C90.7834 98.9789 90.9893 108.971 89.2738 114.648H436.73C435.124 108.474 435.726 98.3491 450.545 104.77C445.104 99.536 444.607 95.0555 446.047 91.8257V29.4905H68.3456V100.207C70.9131 101.619 71.9534 104.517 72.1185 106.813C73.5463 105.868 74.9476 105.068 76.2365 104.429Z" fill="#C0A172"/>
<path d="M439.567 118.319C438.802 117.24 437.892 116.129 436.822 114.988C436.791 114.876 436.76 114.763 436.73 114.648H89.2738C85.8238 117.11 83.3195 119.582 81.5365 121.801H439.567V118.319Z" fill="#916421"/>
<path d="M77.6089 129.295H104.37L409.032 128.954H429.617H441.248C440.345 126.874 439.928 124.805 439.567 121.801H81.5365C78.7805 125.231 77.7477 128.054 77.6089 129.295Z" fill="#6B4305"/>
<path d="M446.047 91.8257C447.512 88.5389 450.983 86.5474 453.29 86.3756V22.3372H61.2893V99.889C64.3946 99.0022 66.6883 99.2952 68.3456 100.207V29.4905H446.047V91.8257Z" fill="#916421"/>
<path d="M61.2893 99.889V22.3372H453.29V86.3756C455.485 86.3105 457.42 86.5683 459.123 87.0918V15.5247H55.9945V102.177C57.9774 101.072 59.735 100.333 61.2893 99.889Z" fill="#6B4305"/>
<path d="M377.125 402.48C320.108 410.255 205.754 406.381 141.767 402.48M377.125 402.48C378.462 421.504 377.313 440.321 375.452 455.618M377.125 402.48C374.012 397.535 370.401 392.869 366.502 388.514M141.767 402.48C141.692 414.708 141.981 437.259 143.278 457.321M141.767 402.48C143.376 399.253 145.907 394.973 149.281 390.217M143.278 457.321C143.955 467.808 144.908 477.615 146.227 484.912C151.724 486.818 157.775 488.516 164.288 490.008M143.278 457.321C137.971 456.186 126.122 450.1 121.181 434.84M121.181 434.84C116.396 420.057 122.077 398.319 135.591 391.662M121.181 434.84C108.834 421.875 98.6492 408.779 90.2763 394.645M149.281 390.217C159.611 377.772 175.151 369.092 194.945 360.345H317.085C326.923 365.77 348.491 370.815 366.502 388.514M149.281 390.217C144.1 389.067 139.515 389.729 135.591 391.662M375.452 455.618C373.875 468.587 371.785 479.025 370.263 484.912C357.027 488.125 342.837 490.76 328.17 492.812M375.452 455.618C382.514 453.862 395.999 447.239 398.377 434.158M366.502 388.514C374.28 386.044 380.3 387.056 384.916 390.217M135.591 391.662C132.893 388.545 129.292 383.463 125.408 376.592M100.939 297.225C99.4976 284.129 98.3557 271.122 97.4576 258.734M100.939 297.225C83.2344 293.525 74.2511 294.493 60.8874 304.719M100.939 297.225C102.673 312.976 105.844 327.131 109.664 339.463M94.4205 180.73C90.189 178.232 76.1681 174.258 53.936 178.346M94.4205 180.73C105.948 162.745 109.288 149.619 109.516 145.304C105.295 143.495 101.033 142.13 96.8218 141.129M94.4205 180.73C94.3658 189.357 94.5985 204.954 95.4553 224.331M53.936 178.346C52.2205 169.943 49.0641 151.027 50.162 142.579M53.936 178.346C53.9832 194.085 54.1829 208.809 54.5778 222.627M50.162 142.579C53.3536 141.461 58.244 140.255 64.2284 139.505M50.162 142.579C43.9629 138.579 41.4039 129.296 41.9795 129.047M96.8218 141.129L104.37 129.295M96.8218 141.129C91.4131 139.843 86.088 139.156 81.0397 138.893M104.37 129.295H77.6089M104.37 129.295L409.032 128.954M77.6089 129.295C77.1514 131.493 77.1972 135.945 81.0397 138.893M77.6089 129.295C77.7477 128.054 78.7805 125.231 81.5365 121.801M81.0397 138.893C74.913 138.575 69.1941 138.883 64.2284 139.505M89.2738 114.648C90.9893 108.971 90.7834 98.9789 76.2365 104.429C74.9476 105.068 73.5463 105.868 72.1185 106.813M89.2738 114.648C85.8238 117.11 83.3195 119.582 81.5365 121.801M89.2738 114.648H436.73M64.2284 139.505C60.7362 135.187 59.2196 131.067 59.0561 127.251M72.1185 106.813C68.07 109.495 63.8079 113.351 61.2893 118.054M72.1185 106.813C71.9534 104.517 70.9131 101.619 68.3456 100.207M42.6139 116.01C43.1628 113.013 50.3907 106.359 53.936 103.407C54.6477 102.955 55.3336 102.546 55.9945 102.177M42.6139 116.01C46.9444 114.421 56.7422 112.604 61.2893 118.054M42.6139 116.01C36.8166 121.766 39.621 126.936 41.9795 129.047M61.2893 118.054C59.7947 120.845 58.9139 123.933 59.0561 127.251M59.0561 127.251C53.9184 128.614 43.3687 130.93 42.2708 129.295M42.2708 129.295C42.1749 129.218 42.0776 129.135 41.9795 129.047M42.2708 129.295C42.1383 129.098 42.041 129.021 41.9795 129.047M54.5778 222.627C62.1443 218.994 80.9129 214.248 95.4553 224.331M54.5778 222.627C54.9874 236.957 55.6069 250.314 56.4842 262.822M95.4553 224.331C95.9206 234.854 96.5701 246.492 97.4576 258.734M97.4576 258.734C80.883 253.844 71.8408 253.934 56.4842 262.822M56.4842 262.822C57.5461 277.959 58.9855 291.852 60.8874 304.719M60.8874 304.719C63.4732 322.214 66.9138 337.813 71.4221 352.067M71.4221 352.067C83.7117 338.008 92.1896 335.526 109.664 339.463M71.4221 352.067C76.3426 367.623 82.535 381.578 90.2763 394.645M109.664 339.463C114.415 354.803 120.17 367.325 125.408 376.592M90.2763 394.645C88.4807 386.203 112.025 373.201 125.408 376.592M384.916 390.217C395.577 397.518 398.739 416.283 398.739 430.071C398.739 431.498 398.613 432.86 398.377 434.158M384.916 390.217C388.076 384.45 391.823 376.404 395.723 366.373M422.755 180.73C430.075 177.664 448.761 173.917 464.955 183.455M422.755 180.73C423.627 194.652 423.827 208.192 423.484 221.265M422.755 180.73C422.069 180.73 411.777 158.589 412.806 142.579C413.449 142.4 414.136 142.217 414.864 142.032M464.955 183.455C471.817 167.377 473.075 150.187 472.846 143.601C470.016 142.132 466.89 141.014 463.583 140.188M464.955 183.455C464.754 187.425 464.632 192.261 464.488 197.935M398.377 434.158C406.639 423.894 418.288 407.837 429.12 386.47M454.662 308.807C452.465 322.043 449.386 334.415 445.742 345.886M454.662 308.807C441.032 298.409 432.355 296.06 414.889 298.928M454.662 308.807C457.06 294.364 458.844 280.95 460.182 268.612M395.723 366.373C415.349 367.95 421.246 373.695 429.12 386.47M395.723 366.373C399.623 356.339 403.676 344.319 407.444 330.607M429.12 386.47C435.156 374.563 440.939 361.008 445.742 345.886M445.742 345.886C436.7 334.534 429.35 330.242 407.444 330.607M407.444 330.607C410.121 320.866 412.655 310.271 414.889 298.928M414.889 298.928C417.318 286.596 419.392 273.38 420.911 259.415M460.182 268.612C447.04 256.848 438.368 254.979 420.911 259.415M460.182 268.612C461.827 253.444 462.799 239.903 463.412 228.077M420.911 259.415C422.236 247.238 423.138 234.491 423.484 221.265M423.484 221.265C440.325 217.008 449.124 218.221 463.412 228.077M463.412 228.077C464.023 216.304 464.278 206.231 464.488 197.945L464.488 197.941M436.822 138.531C438.794 137.331 442.22 132.032 443.39 128.954M436.822 138.531C445.659 137.87 455.203 138.094 463.583 140.188M436.822 138.531C428.28 139.169 420.398 140.633 414.864 142.032M436.822 138.531C433.848 136.36 428.245 131.407 429.617 128.954M450.545 104.77C454.205 106.7 462.21 111.65 464.955 116.01M450.545 104.77C435.726 98.3491 435.124 108.474 436.73 114.648M450.545 104.77C445.104 99.536 444.607 95.0555 446.047 91.8257M443.39 128.954C449.237 129.863 462.235 131.134 467.45 128.954M443.39 128.954C443.362 128.92 442.801 128.898 441.248 128.954M467.45 128.954C472.136 126.995 472.154 123.174 469.621 119.076M467.45 128.954C466.901 131.952 464.269 138.714 463.583 140.188M464.955 116.01C458.917 115.193 445.513 117.209 439.567 118.319M464.955 116.01C467.077 116.298 468.63 117.473 469.621 119.076M439.567 118.319C438.802 117.24 437.892 116.129 436.822 114.988C436.791 114.876 436.76 114.763 436.73 114.648M439.567 118.319C439.567 120.251 439.567 119.423 439.567 121.801M439.567 118.319V121.801M469.621 119.076C471.575 109.277 471.684 90.9538 459.123 87.0918M453.29 86.3756C450.983 86.5474 447.512 88.5389 446.047 91.8257M453.29 86.3756V22.3372H61.2893V99.889M453.29 86.3756C455.485 86.3105 457.42 86.5683 459.123 87.0918M414.864 142.032C412.691 140.625 408.483 136.039 409.032 128.954M409.032 128.954H429.617M441.248 128.954H429.617M441.248 128.954C440.345 126.874 439.928 124.805 439.567 121.801M439.567 121.801H81.5365M446.047 91.8257V29.4905H68.3456V100.207M68.3456 100.207C66.6883 99.2952 64.3946 99.0022 61.2893 99.889M61.2893 99.889C59.735 100.333 57.9774 101.072 55.9945 102.177M459.123 87.0918V15.5247H55.9945V102.177M464.488 197.941L464.488 197.935M464.488 197.941C464.488 197.939 464.488 197.937 464.488 197.935M164.288 490.008C164.288 490.008 160.952 438.157 160.952 434.84C160.952 431.522 158.867 422.427 172.628 424.083C186.389 425.739 307.737 425.449 317.085 424.083C326.432 422.717 330.089 426.225 329.421 434.84C328.754 443.454 328.309 477.077 328.17 492.812M164.288 490.008C207.655 499.944 271.472 500.743 328.17 492.812" stroke="black" stroke-width="2"/>
<path fill-rule="evenodd" clip-rule="evenodd" d="M210.843 383.61C182.021 375.587 168.632 358.806 165.134 347.642C179.853 343.435 196.278 344.81 203.402 346.233C245.844 354.501 264.202 355.944 268.076 355.633C276.414 355.311 292.921 351.555 292.254 339.105C291.586 326.655 274.81 321.756 266.81 322.416C260.638 321.626 250.619 323.71 242.715 325.354C239.223 326.081 236.143 326.721 233.991 326.99C225.238 328.082 205.067 325.681 197.008 323.879C194.616 323.546 191.667 322.803 188.442 321.991C180.609 320.018 171.145 317.634 164.07 319.714C164.2 313.559 166.546 299.382 174.892 291.909C173.211 290.768 169.455 287.601 167.882 284.061C164.669 282.13 159.272 277.314 163.378 273.499C170.097 282.843 195.542 284.848 218.886 281.049C219.081 281.518 219.3 281.991 219.544 282.468C221.374 286.882 241.259 295.481 282.101 287.37C259.948 264.945 221.613 272.456 217.497 273.338C192.7 264.293 167.877 265.045 161.097 264.068C161.476 261.169 163.125 258.4 167.131 256.71C166.493 253.608 168.113 249.941 175.145 249.203C177.722 245.189 183.204 240.429 191.458 238.708C196.785 228.378 215.849 212.772 249.489 232.994C258.069 227.933 268.729 227.496 274.693 228.3C308.314 231.167 319.32 263.588 320.621 279.44C337.815 285.776 348.747 307.523 352.064 317.604C362.414 362.079 310.529 381.101 283.293 385.053C252.373 390.182 228.659 388.569 210.843 383.61Z" fill="#68984C"/>
<path d="M218.886 281.049C195.542 284.848 170.097 282.843 163.378 273.499C162.041 271.287 160.637 267.581 161.097 264.068C167.877 265.045 192.7 264.293 217.497 273.338C217.393 275.5 217.688 277.984 218.713 280.62C218.769 280.763 218.826 280.906 218.886 281.049Z" fill="white"/>
<path d="M282.101 287.37C241.259 295.481 221.374 286.882 219.544 282.468C219.3 281.991 219.081 281.518 218.886 281.049C218.826 280.906 218.769 280.763 218.713 280.62C217.688 277.984 217.393 275.5 217.497 273.338C221.613 272.456 259.948 264.945 282.101 287.37Z" fill="white"/>
<path fill-rule="evenodd" clip-rule="evenodd" d="M158.474 334.634C155.357 332.375 151.261 326.582 159.811 321.488C161.005 320.776 162.447 320.191 164.07 319.714C171.145 317.634 180.609 320.018 188.442 321.991C191.667 322.803 194.616 323.546 197.008 323.879C205.067 325.681 225.238 328.082 233.991 326.99C236.143 326.721 239.223 326.081 242.715 325.354C250.619 323.71 260.638 321.626 266.81 322.416C274.81 321.756 291.586 326.655 292.254 339.105C292.921 351.555 276.414 355.311 268.076 355.633C264.202 355.944 245.844 354.501 203.402 346.233C196.278 344.81 179.853 343.435 165.134 347.642C163.036 348.241 160.973 348.954 158.977 349.796C154.621 346.315 148.422 338.408 158.474 334.634ZM230.886 339.023C231.327 339.124 231.766 339.225 232.202 339.325C237.082 340.445 241.798 341.972 246.35 343.445C246.431 343.472 246.512 343.498 246.593 343.524C250.169 344.682 253.642 345.801 257.012 346.658C260.749 347.608 264.359 348.236 267.839 348.236C271.431 348.237 274.885 347.569 278.201 345.898C280.304 344.661 281.868 342.17 281.867 339.534C281.866 335.961 278.991 332.119 270.691 330.769C270.015 330.659 269.359 330.56 268.722 330.472C264.279 329.859 260.766 329.77 257.841 329.99C253.353 330.326 250.252 331.388 247.307 332.397C247.252 332.415 247.198 332.434 247.144 332.453C246.469 332.683 245.802 332.911 245.127 333.125C239.918 334.779 234.898 336.188 219.185 336.464C223.274 337.289 227.165 338.17 230.886 339.023Z" fill="#AD683D"/>
<path d="M232.202 339.325C231.766 339.225 231.327 339.124 230.886 339.023C227.165 338.17 223.274 337.289 219.185 336.464L246.877 337.82L246.593 343.524L246.35 343.445C241.798 341.972 237.082 340.445 232.202 339.325Z" fill="white"/>
<path d="M219.185 336.464C234.898 336.188 239.918 334.779 245.127 333.125C245.802 332.911 246.469 332.683 247.144 332.453C247.165 334.247 247.141 337.83 246.878 337.803L246.877 337.82L219.185 336.464Z" fill="white"/>
<path d="M246.878 337.803C247.141 337.83 247.165 334.247 247.144 332.453L247.307 332.397C250.252 331.388 253.353 330.326 257.841 329.99L257.426 338.337L246.877 337.82L246.878 337.803Z" fill="white"/>
<path d="M257.012 346.658C253.642 345.801 250.169 344.682 246.593 343.524L246.877 337.82L257.426 338.337L257.012 346.658Z" fill="white"/>
<path d="M257.426 338.337L268.305 338.87L267.839 348.236C264.359 348.236 260.749 347.608 257.012 346.658L257.426 338.337Z" fill="white"/>
<path d="M257.426 338.337L257.841 329.99C260.766 329.77 264.279 329.859 268.722 330.472L268.305 338.87L257.426 338.337Z" fill="white"/>
<path d="M270.691 330.769C278.991 332.119 281.866 335.961 281.867 339.534L268.305 338.87L268.722 330.472C269.359 330.56 270.015 330.659 270.691 330.769Z" fill="white"/>
<path d="M281.867 339.534C281.868 342.17 280.304 344.661 278.201 345.898C274.885 347.569 271.431 348.237 267.839 348.236L268.305 338.87L281.867 339.534Z" fill="white"/>
<path d="M158.474 334.634C155.357 332.375 151.261 326.582 159.811 321.488C161.005 320.776 162.447 320.191 164.07 319.714M158.474 334.634C148.422 338.408 154.621 346.315 158.977 349.796C160.973 348.954 163.036 348.241 165.134 347.642M158.474 334.634C183.192 330.743 202.788 333.155 219.185 336.464M165.134 347.642C179.853 343.435 196.278 344.81 203.402 346.233C245.844 354.501 264.202 355.944 268.076 355.633C276.414 355.311 292.921 351.555 292.254 339.105C291.586 326.655 274.81 321.756 266.81 322.416C260.638 321.626 250.619 323.71 242.715 325.354C239.223 326.081 236.143 326.721 233.991 326.99C225.238 328.082 205.067 325.681 197.008 323.879C194.616 323.546 191.667 322.803 188.442 321.991C180.609 320.018 171.145 317.634 164.07 319.714M165.134 347.642C168.632 358.806 182.021 375.587 210.843 383.61C228.659 388.569 252.373 390.182 283.293 385.053C310.529 381.101 362.414 362.079 352.064 317.604C348.747 307.523 337.815 285.776 320.621 279.44M320.621 279.44L320.741 289.221M320.621 279.44C319.32 263.588 308.314 231.167 274.693 228.3C268.729 227.496 258.069 227.933 249.489 232.994M238.784 245.015C247.578 242.033 269.335 240.405 286.014 257.752M238.784 245.015C234.607 246.372 231.5 247.934 229.216 249.523M238.784 245.015C241.173 239.461 245.053 235.61 249.489 232.994M223.468 258.506C223.144 256.658 224.181 253.025 229.216 249.523M295.409 272.276C268.181 263.057 234.398 246.766 218.89 262.623C218.099 263.986 218.204 264.816 219.502 266.428M219.502 266.428C228.69 260.204 238.3 257.762 294.039 279.9M219.502 266.428C218.666 267.686 217.651 270.166 217.497 273.338M219.544 282.468C221.374 286.882 241.259 295.481 282.101 287.37C259.948 264.945 221.613 272.456 217.497 273.338M219.544 282.468C219.073 284.44 219.063 286.701 219.808 288.945M219.544 282.468C219.3 281.991 219.081 281.518 218.886 281.049M219.544 282.468C219.225 281.845 218.95 281.229 218.713 280.62M277.565 296.957C236.476 305.828 222.651 297.507 219.808 288.945M217.497 273.338C192.7 264.293 167.877 265.045 161.097 264.068M217.497 273.338C217.393 275.5 217.688 277.984 218.713 280.62M164.07 319.714C164.2 313.559 166.546 299.382 174.892 291.909M174.892 291.909C177.238 293.789 184.528 297.977 194.924 299.692M174.892 291.909C173.211 290.768 169.455 287.601 167.882 284.061M219.808 288.945C210.433 288.948 199.312 296.111 194.924 299.692M194.924 299.692C193.701 300.744 190.703 303.534 188.491 306.276M167.882 284.061C176.075 286.982 195.881 291.745 209.557 287.428M167.882 284.061C164.669 282.13 159.272 277.314 163.378 273.499M163.378 273.499C170.097 282.843 195.542 284.848 218.886 281.049M163.378 273.499C162.041 271.287 160.637 267.581 161.097 264.068M218.886 281.049C218.826 280.906 218.769 280.763 218.713 280.62M167.131 256.71C171.682 254.618 186.034 252.552 207.038 261.016M167.131 256.71C166.493 253.608 168.113 249.941 175.145 249.203M167.131 256.71C163.125 258.4 161.476 261.169 161.097 264.068M212.547 258.032C193.392 250.446 181.826 248.502 175.145 249.203M175.145 249.203C177.722 245.189 183.204 240.429 191.458 238.708M229.216 249.523C213.307 238.647 200.66 236.789 191.458 238.708M191.458 238.708C196.785 228.378 215.849 212.772 249.489 232.994M284.376 363.259C291.971 362.706 306.951 357.87 306.106 342.945M219.185 336.464C223.274 337.289 227.165 338.17 230.886 339.023C231.327 339.124 231.766 339.225 232.202 339.325C237.082 340.445 241.798 341.972 246.35 343.445M219.185 336.464C234.898 336.188 239.918 334.779 245.127 333.125C245.802 332.911 246.469 332.683 247.144 332.453M219.185 336.464L246.877 337.82M246.35 343.445C246.431 343.472 246.512 343.498 246.593 343.524M246.35 343.445L246.593 343.524M281.867 339.534C281.868 342.17 280.304 344.661 278.201 345.898C274.885 347.569 271.431 348.237 267.839 348.236M281.867 339.534C281.866 335.961 278.991 332.119 270.691 330.769C270.015 330.659 269.359 330.56 268.722 330.472M281.867 339.534L268.305 338.87M247.144 332.453C247.165 334.247 247.141 337.83 246.878 337.803L246.877 337.82M247.144 332.453L247.307 332.397M247.144 332.453C247.198 332.434 247.252 332.415 247.307 332.397M257.426 338.337L257.841 329.99M257.426 338.337L268.305 338.87M257.426 338.337L257.012 346.658M257.426 338.337L246.877 337.82M257.841 329.99C260.766 329.77 264.279 329.859 268.722 330.472M257.841 329.99C253.353 330.326 250.252 331.388 247.307 332.397M268.305 338.87L268.722 330.472M268.305 338.87L267.839 348.236M246.593 343.524C250.169 344.682 253.642 345.801 257.012 346.658M246.593 343.524L246.877 337.82M257.012 346.658C260.749 347.608 264.359 348.236 267.839 348.236M222.359 299.206C224.959 304.515 235.006 314.689 254.394 312.912" stroke="black" stroke-width="2"/>
<rect width="13.2024" height="6.55294" transform="matrix(0.998802 0.0489245 -0.0496498 0.998767 185.63 271.541)" fill="black"/>
<rect width="13.2024" height="6.55294" transform="matrix(0.998802 0.0489245 -0.0496498 0.998767 243.249 278.168)" fill="black"/>
<path d="M322.651 374.649C310.42 364.592 282.922 344.276 270.713 336.533C258.504 328.788 253.491 341.783 259.38 347.508C265.267 353.232 305.224 382.907 312.517 389.081C319.811 395.254 334.882 384.705 322.651 374.649Z" fill="#782B1A"/>
<path d="M301.623 380.521L307.071 374.098L258.122 337.176C256.227 340.177 256.502 344.71 259.378 347.508C262.843 350.875 278.095 362.529 291.552 372.812C295.119 375.539 298.561 378.169 301.623 380.521Z" fill="#782B1A"/>
<path fill-rule="evenodd" clip-rule="evenodd" d="M259.483 337.787C257.819 340.228 258.002 344.119 260.415 346.463C263.278 349.247 274.633 358.02 286.326 366.969C288.37 368.533 290.423 370.102 292.438 371.642C301.857 378.841 310.443 385.401 313.477 387.969C316.374 390.421 321.089 389.666 323.863 386.917C325.192 385.601 325.934 383.936 325.783 382.135C325.632 380.331 324.561 378.118 321.709 375.775C309.513 365.745 282.064 345.468 269.918 337.763C267.049 335.945 264.78 335.455 263.118 335.629C261.489 335.799 260.279 336.62 259.483 337.787ZM262.809 332.721C265.337 332.457 268.274 333.247 271.509 335.301C283.783 343.086 311.33 363.438 323.595 373.524C326.859 376.207 328.49 379.084 328.725 381.893C328.961 384.705 327.773 387.179 325.951 388.985C322.423 392.48 315.956 393.914 311.559 390.192C308.587 387.678 300.09 381.184 290.669 373.985C288.647 372.439 286.582 370.861 284.52 369.282C272.937 360.419 261.371 351.493 258.346 348.552C254.87 345.171 254.615 339.704 257.038 336.151C258.284 334.322 260.249 332.988 262.809 332.721Z" fill="black"/>
<path d="M275.035 349.439C275.035 349.439 269.147 343.715 273.77 339.046L295.153 354.334C290.075 360.393 283.258 355.14 283.258 355.14L278.655 362.121L271.135 356.644L275.035 349.439Z" fill="#EBA832"/>
<path d="M288.954 349.901C285.488 350.745 280.842 350.809 275.096 348.554C274.688 348.394 274.296 348.248 273.92 348.119C274.524 348.941 275.035 349.439 275.035 349.439L271.135 356.644L278.656 362.121L283.259 355.142C283.259 355.142 290.076 360.394 295.154 354.334L288.954 349.901Z" fill="#CC8316"/>
<path fill-rule="evenodd" clip-rule="evenodd" d="M273.607 337.125L297.299 354.063L296.29 355.266C294.838 356.999 293.203 357.985 291.536 358.428C289.886 358.867 288.298 358.75 286.957 358.431C285.625 358.116 284.492 357.59 283.696 357.151L279.038 364.214L269.229 357.071L273.248 349.648C273.176 349.561 273.101 349.469 273.024 349.371C272.496 348.702 271.829 347.735 271.318 346.582C270.808 345.433 270.422 344.031 270.547 342.521C270.674 340.978 271.326 339.428 272.719 338.022L273.607 337.125ZM276.071 348.396L276.86 349.163L273.042 356.216L278.274 360.027L282.9 353.011L284.162 353.983L284.163 353.986L284.166 353.988C284.174 353.994 284.187 354.003 284.206 354.017C284.244 354.045 284.306 354.088 284.389 354.144C284.556 354.255 284.805 354.415 285.123 354.591C285.765 354.945 286.646 355.35 287.647 355.588C288.644 355.825 289.714 355.885 290.771 355.604C291.452 355.422 292.167 355.09 292.887 354.516L274.051 341.049C273.694 341.639 273.534 342.213 273.489 342.759C273.417 343.635 273.637 344.54 274.02 345.404C274.404 346.266 274.92 347.022 275.352 347.572C275.565 347.844 275.753 348.057 275.884 348.201C275.949 348.272 276 348.325 276.032 348.357L276.067 348.392L276.071 348.396Z" fill="black"/>
<path d="M300.428 369.081C303.874 363.268 309.493 365.064 309.493 365.064L322.423 374.706C322.423 374.706 316.578 373.606 313.358 378.723C310.139 383.841 311.338 387.298 311.338 387.298L299.586 378.8C299.586 378.8 296.982 374.894 300.428 369.081Z" fill="#9E0507"/>
<path fill-rule="evenodd" clip-rule="evenodd" d="M310.182 363.747L323.31 373.536L322.148 376.137C322.147 376.142 322.147 376.142 322.147 376.142L322.151 376.143L322.125 376.139C322.098 376.134 322.051 376.128 321.985 376.12C321.855 376.104 321.655 376.084 321.4 376.075C320.889 376.055 320.176 376.074 319.383 376.23C317.813 376.537 315.952 377.363 314.61 379.495C313.128 381.851 312.699 383.763 312.613 385.027C312.569 385.663 312.612 386.148 312.659 386.456C312.683 386.61 312.708 386.72 312.724 386.782C312.731 386.81 312.736 386.828 312.738 386.836L314.26 391.22L298.499 379.826L298.353 379.606L299.585 378.8C298.353 379.606 298.352 379.605 298.352 379.605L298.351 379.603L298.348 379.599L298.343 379.591L298.329 379.57C298.319 379.553 298.306 379.533 298.291 379.508C298.262 379.461 298.224 379.396 298.181 379.316C298.094 379.157 297.983 378.936 297.867 378.657C297.635 378.099 297.378 377.303 297.249 376.306C296.988 374.289 297.262 371.532 299.154 368.34C301.125 365.016 303.8 363.783 306.029 363.447C307.117 363.283 308.072 363.333 308.758 363.425C309.102 363.47 309.383 363.527 309.585 363.574C309.687 363.6 309.769 363.62 309.829 363.637C309.859 363.647 309.884 363.653 309.904 363.659L309.929 363.667L309.938 363.669L309.942 363.67L309.944 363.672C309.945 363.672 309.946 363.672 309.492 365.064L309.946 363.672L310.182 363.747ZM308.837 366.405C308.72 366.38 308.559 366.349 308.362 366.323C307.886 366.26 307.222 366.224 306.474 366.338C305.032 366.556 303.175 367.332 301.7 369.821C300.145 372.443 299.998 374.546 300.177 375.934C300.269 376.64 300.448 377.185 300.596 377.541C300.641 377.647 300.682 377.738 300.717 377.808L309.715 384.313C309.908 382.629 310.533 380.448 312.105 377.95C313.839 375.193 316.252 373.974 318.311 373.47L308.837 366.405ZM322.151 376.143C322.152 376.143 322.154 376.143 322.153 376.143L322.151 376.143Z" fill="black"/>
<path d="M324.141 383.707C323.389 386.013 319.737 388.446 317.41 387.701C315.083 386.957 314.508 384.71 315.26 382.405C316.011 380.099 318.032 377.913 320.359 378.657C322.686 379.4 324.892 381.401 324.141 383.707Z" fill="#F86646"/>
<path fill-rule="evenodd" clip-rule="evenodd" d="M320.193 384.988C321.232 384.345 321.874 383.522 322.034 383.033C322.115 382.783 322.107 382.477 321.71 382.008C321.279 381.5 320.528 381.016 319.678 380.744C319.426 380.663 319.116 380.672 318.644 381.065C318.131 381.492 317.641 382.236 317.366 383.077C317.096 383.907 317.131 384.531 317.265 384.899C317.369 385.187 317.566 385.447 318.09 385.614C318.336 385.693 319.114 385.655 320.193 384.988ZM317.41 387.701C319.737 388.446 323.389 386.013 324.141 383.707C324.892 381.401 322.686 379.4 320.359 378.657C318.032 377.913 316.011 380.099 315.26 382.405C314.508 384.71 315.083 386.957 317.41 387.701Z" fill="black"/>
<path d="M317.745 488.416C320.331 488.416 322.081 485.902 322.081 483.276C322.081 480.65 320.331 478.137 317.745 478.137C315.16 478.137 313.409 480.65 313.409 483.276C313.409 485.902 315.16 488.416 317.745 488.416Z" stroke="black" stroke-width="2"/>
<path d="M370.288 485.346C354.72 488.243 323.25 494.039 321.916 494.039L309.822 495.28C311.336 476.249 309.289 446.235 307.179 424.497C306.498 417.488 305.811 411.34 305.235 406.697C305.569 401.068 298.98 388.346 295.644 382.689L284.385 385.173C287.149 383.448 293.832 376.152 294.393 375.652C295.635 374.546 300.231 379.791 301.482 381.033L316.494 390.968L324.835 387.656L326.086 383.724L327.337 379.791L321.916 372.34L308.154 363.234C319.795 355.787 337.935 332.594 324.273 296.59C323.253 293.901 322.055 291.141 320.665 288.311V280.032C328.032 282.516 344.601 293.526 351.94 317.7C359.279 341.874 341.376 360.612 331.507 366.959C348.072 372.504 359.689 381.076 367.19 388.898L372.373 387.656C394.474 402.144 375.128 442.296 397.393 414.562C413.1 392.623 445.227 331.092 450.77 260.991C456.319 190.813 456.355 150.343 456.191 138.879C457.581 136.947 460.194 132.587 459.527 130.6C462.168 127.702 465.448 120.831 457.442 116.526C455.496 112.524 449.769 104.19 442.43 102.866C443.035 102.917 442.904 102.183 443.681 102.326C445.572 102.673 448.739 104.137 451.187 105.156C452.618 105.752 454.088 106.479 455.532 107.355C455.893 107.574 456.252 107.802 456.608 108.039C459.446 109.933 462.119 112.436 464.114 115.698C465.226 109.489 463.53 94.2558 451.187 86.3082C452.854 85.7815 456.076 85.8292 459.527 87.3241C462.404 88.5704 465.44 90.8228 467.867 94.587C469.257 97.2086 471.62 105.681 469.952 118.596C471.481 121.215 473.038 127.034 467.033 129.358L464.114 140.713C468.424 141.812 472.47 143.049 472.871 143.846C473.705 145.502 470.369 174.063 464.948 183.584C464.531 214.353 460.856 282.255 454.94 309.008C447.434 342.951 434.507 393.037 398.644 432.776C398.674 438.157 394.012 450.244 375.128 455.542C373.572 467.366 371.709 478.186 370.288 485.346Z" fill="black" fill-opacity="0.29"/>
<path d="M436.592 138.879L421.997 140.948C417.326 136.643 416.992 131.152 417.409 128.944L429.503 129.358C428.502 131.676 433.812 136.671 436.592 138.879Z" fill="black" fill-opacity="0.29"/>
<path d="M440.762 138.465H437.843L443.264 129.358C444.316 129.01 446.312 128.545 447.118 128.996C447.271 129.082 447.381 129.2 447.434 129.358C447.767 130.351 443.125 135.843 440.762 138.465Z" fill="black" fill-opacity="0.29"/>
<path d="M444.098 117.354L439.928 118.182L436.175 114.042L436.592 109.903C437.146 111.737 438.749 113.487 440.424 114.87C441.773 115.984 443.168 116.861 444.098 117.354Z" fill="black" fill-opacity="0.29"/>
<path d="M151.361 486.588C150.388 486.312 146.607 485.594 145.94 484.932L143.021 457.612C140.686 456.95 136.488 454.3 134.681 453.059C127.351 449.623 123.377 442.209 121.392 435.259C120.503 435.259 92.9803 402.558 85.8912 387.242C78.8022 371.927 70.8791 359.094 61.288 307.352L57.1179 274.237C55.5917 250.519 55.2445 237.212 55.4499 213.388C57.8272 329.537 90.0612 398.419 119.669 421.599C125.673 434.514 137.739 441.744 143.021 442.71L142.604 422.634L142.187 402.558C142.604 399.385 138.517 394.445 132.179 393.451C132.497 393.516 133.851 392.686 135.868 391.796C139.129 390.357 144.123 388.764 149.276 390.554C151.277 384.593 170.404 372.892 179.717 367.787L182.219 370.271C164.538 375.238 152.334 393.865 147.608 402.558C144.605 420.44 148.859 466.029 151.361 486.588Z" fill="black" fill-opacity="0.29"/>
<path d="M50.4459 142.19C51.9749 153.366 55.4499 176.216 57.1179 178.203H53.7819C51.8359 168.13 48.4442 146.826 50.4459 142.19C45.7755 141.528 42.9398 133.635 42.1057 129.772C38.1025 126.129 39.6037 120.527 40.8547 118.182C43.9104 111.032 50.2266 105.973 55.786 102.866C58.724 101.224 61.4506 100.127 63.373 99.5543C55.0329 103.28 51.6968 108.661 44.6078 115.698C38.9365 121.328 41.9667 127.15 44.1907 129.358C45.1916 134.988 49.6118 139.982 51.6968 141.776L50.4459 142.19Z" fill="black" fill-opacity="0.29"/>
<path d="M96.3163 141.362C95.577 141.263 94.7281 141.148 93.8142 141.022C88.3704 140.275 80.6244 139.162 80.0531 138.879C76.7171 134.905 77.2731 130.876 77.9681 129.358H93.8142H104.239L96.3163 141.362Z" fill="black" fill-opacity="0.29"/>
<path d="M59.6199 139.706C59.8917 139.76 60.3337 139.823 60.8709 139.859C61.7072 139.915 62.7743 139.908 63.7899 139.706L59.6199 131.428V124.805C57.5349 118.596 71.713 107.005 71.713 105.349C71.7093 105.349 71.7055 105.349 71.7018 105.349C66.7 105.03 60.7301 112.665 58.3689 116.526C55.0329 118.844 55.0329 125.219 55.4499 128.116C55.4499 131.096 58.2299 137.085 59.6199 139.706Z" fill="black" fill-opacity="0.12"/>
<path d="M256.863 243.191C250.524 241.536 242.268 243.881 238.932 245.261C240.499 239.556 245.34 235.475 248.943 233.223C251.091 231.88 252.798 231.187 253.11 231.187C251.108 233.505 259.504 241.26 263.952 244.847L256.863 243.191Z" fill="black" fill-opacity="0.2"/>
<path d="M213.077 241.122C207.406 238.141 196.536 238.5 191.81 239.052C194.479 232.429 201.262 228.289 204.32 227.048C201.985 230.69 209.185 237.948 213.077 241.122Z" fill="black" fill-opacity="0.2"/>
<path d="M166.79 256.851C171.516 255.61 183.72 253.871 194.729 256.851C188.613 254.368 174.546 250.063 167.207 252.712L166.79 256.851Z" fill="black" fill-opacity="0.2"/>
<path d="M219.332 266.372C218.776 265.13 218.415 262.233 221.418 260.577C221.835 260.577 229.758 256.023 251.025 264.716C242.546 262.508 224.337 259.749 219.332 266.372Z" fill="black" fill-opacity="0.2"/>
<path d="M217.247 272.995C227.256 271.753 249.941 270.346 260.616 274.651C251.859 271.063 231.175 264.882 218.498 268.856L217.247 272.995Z" fill="black" fill-opacity="0.2"/>
<path d="M161.369 263.888C162.37 263.888 182.08 265.82 191.81 266.786C183.175 262.007 176.068 260.675 163.037 258.921L161.369 263.888Z" fill="black" fill-opacity="0.2"/>
<path d="M165.539 282.102C174.296 284.171 194.229 287.234 203.903 282.93C203.612 283.056 170.543 283.757 163.454 273.823C161.925 274.927 160.201 278.128 165.539 282.102Z" fill="black" fill-opacity="0.11"/>
<path d="M220.166 282.93C223.642 286.241 235.012 292.45 252.693 290.794C244.631 292.312 226.839 294.437 220.166 290.794C219.471 288.173 218.498 282.93 220.166 282.93Z" fill="black" fill-opacity="0.11"/>
<path d="M174.713 292.45C174.046 292.781 171.377 296.176 170.126 297.831C173.323 300.729 181.969 305.862 190.976 303.213C191.643 302.219 193.756 300.315 194.729 299.487C189.586 298.107 178.383 294.768 174.713 292.45Z" fill="black" fill-opacity="0.1"/>
<path d="M222.669 299.487C228.229 303.213 243.185 309.918 258.531 306.938C255.056 309.146 247.105 313.395 243.102 312.733C238.098 311.905 222.669 305.282 222.669 299.487Z" fill="black" fill-opacity="0.1"/>
<path d="M204.32 227.048C201.985 230.69 209.185 237.948 213.077 241.122C213.745 241.122 217.247 242.501 218.915 243.191C214.189 238.914 205.571 229.283 208.907 224.978L204.32 227.048Z" fill="black" fill-opacity="0.1"/>
<path d="M253.11 231.187C251.108 233.505 259.504 241.26 263.952 244.847L276.879 249.814C266.537 245.509 262.284 233.947 261.45 228.703C260.484 229.023 259.121 229.466 257.773 229.889C255.628 230.563 253.52 231.187 253.11 231.187Z" fill="black" fill-opacity="0.12"/>
<path d="M190.193 321.803C180.01 318.518 171.1 308.389 167.624 303.213C165.956 303.544 164.149 314.389 163.454 319.77C169.782 317.571 183.554 320.299 190.193 321.803Z" fill="black" fill-opacity="0.12"/>
<path d="M284.385 385.173C287.149 383.448 293.832 376.152 294.393 375.652L284.385 367.787L254.361 387.656L284.385 385.173Z" fill="black" fill-opacity="0.1"/>
<path d="M308.154 363.234C319.795 355.787 337.935 332.594 324.273 296.59C324.877 298.354 325.585 305.867 323.584 321.803C322.257 332.365 310.843 345.31 299.734 355.369L308.154 363.234Z" fill="black" fill-opacity="0.1"/>
<path d="M206.405 496.522C227.756 500.496 284.246 497.35 309.822 495.28C311.336 476.249 309.289 446.235 307.179 424.497C296.092 424.612 279.988 424.791 264.369 424.983C253.509 425.117 242.885 425.672 234.345 426.217C225.807 426.762 219.353 427.298 216.83 427.394C208.157 427.726 204.32 432.224 203.486 435.259L206.405 496.522Z" fill="black" fill-opacity="0.1"/>
<path d="M307.179 424.497C306.498 417.488 305.811 411.34 305.235 406.697H237.264H221.834C218.832 406.697 217.247 409.733 216.83 411.251V418.288C216.83 420.14 217.555 421.345 218.498 422.103C219.578 422.972 220.944 423.255 221.834 423.255C235.318 423.84 262.701 425.004 264.369 424.983C279.988 424.791 296.092 424.612 307.179 424.497Z" fill="black" fill-opacity="0.1"/>
<path d="M305.235 406.697C305.569 401.068 298.98 388.346 295.644 382.689L284.385 385.173L254.361 387.656H237.264C239.599 395.604 238.237 403.662 237.264 406.697H305.235Z" fill="black" fill-opacity="0.1"/>
<path d="M147.608 402.558C144.605 420.44 148.859 466.029 151.361 486.588L182.219 494.039C179.161 467.133 174.38 411.582 179.717 404.628C185.972 396.625 199.066 380.619 201.401 380.619L196.814 378.145L182.219 370.271C164.538 375.238 152.334 393.865 147.608 402.558Z" fill="black" fill-opacity="0.06"/>
<path d="M179.717 367.787L182.219 370.271L196.814 378.145C193.665 375.021 191.121 371.267 189.092 367.373C184.673 358.894 182.695 349.753 182.219 345.02C179.55 345.352 169.987 347.09 165.539 347.918C165.205 353.879 174.852 363.648 179.717 367.787Z" fill="black" fill-opacity="0.08"/>
<path d="M155.531 346.676C162.203 337.983 171.514 333.462 182.18 332.963C171.988 332.61 156.292 330.399 157.199 323.496C155.253 325.427 152.695 330.367 158.033 334.672C155.392 335.5 150.11 339.225 155.531 346.676Z" fill="black" fill-opacity="0.17"/>
<path d="M215.579 335.5C223.92 335.098 253.11 328.877 256.029 328.049C258.948 327.221 271.875 324.631 278.547 332.963L281.466 337.156C278.842 336.074 273.009 335.448 266.454 335.128C264.009 335.008 261.464 334.931 258.948 334.889C249.266 334.726 240.006 335.077 238.515 335.5C237.141 335.889 232.203 336.499 227.256 336.759C224.907 336.883 222.556 336.927 220.583 336.833C217.88 336.703 215.886 336.311 215.579 335.5Z" fill="black" fill-opacity="0.18"/>
<path d="M182.219 345.02C182.695 349.753 184.673 358.894 189.092 367.373C189.025 359.508 192.311 344.358 205.988 346.676C199.872 345.572 186.556 343.696 182.219 345.02Z" fill="black" fill-opacity="0.05"/>
<path d="M86.7251 178.203C87.3924 178.203 92.2852 179.859 94.6482 180.686C100.347 170.839 111.328 150.016 109.66 145.502L96.3163 141.362C95.577 141.263 94.7281 141.148 93.8142 141.022C96.1494 155.652 90.8952 172.043 86.7251 178.203Z" fill="black" fill-opacity="0.14"/>
<path d="M119.669 421.599C125.673 434.514 137.739 441.744 143.021 442.71L142.604 422.634C138.017 421.323 127.592 416.632 122.588 408.353C103.127 391.52 64.1235 321.923 63.7899 178.203C61.1489 168.922 56.8676 148.26 60.8709 139.859C60.3337 139.823 59.8917 139.76 59.6199 139.706L51.6968 141.776L50.4459 142.19C51.9749 153.366 55.4499 176.216 57.1179 178.203H53.7819L55.4499 213.388C57.8272 329.537 90.0612 398.419 119.669 421.599Z" fill="black" fill-opacity="0.13"/>
<path d="M421.997 140.948C417.326 136.643 416.992 131.152 417.409 128.944C415.185 128.944 410.487 129.027 409.486 129.358C407.485 132.338 411.988 139.154 414.49 142.19L418.243 140.948H421.997Z" fill="black" fill-opacity="0.12"/>
<path d="M428.669 178.617C424.777 171.442 417.243 153.863 418.243 140.948L414.49 142.19L413.239 142.604C413.378 151.159 415.491 170.835 422.831 181.1L424.125 216.062C426.081 206.033 429.662 184.862 428.669 178.617Z" fill="black" fill-opacity="0.12"/>
<path d="M372.373 387.656C394.474 402.144 375.128 442.296 397.393 414.562C413.1 392.623 445.227 331.092 450.77 260.991C456.319 190.813 456.355 150.343 456.191 138.879L449.936 138.583L447.434 138.465C443.764 146.081 445.905 168.13 447.434 178.203C454.94 305.282 396.142 418.288 393.64 402.558C391.639 389.974 378.628 387.38 372.373 387.656Z" fill="black" fill-opacity="0.12"/>
<path d="M446.183 92.1034C442.18 95.746 447.851 102.323 451.187 105.156C452.618 105.752 454.088 106.479 455.532 107.355C450.05 103.398 447.852 94.3167 447.434 90.0337L446.183 92.1034Z" fill="black" fill-opacity="0.12"/>
<path d="M436.592 109.903C437.146 111.737 438.749 113.487 440.424 114.87C439.477 111.283 438.152 103.859 440.424 102.866C440.022 102.997 439.562 103.189 439.094 103.442C437.103 104.517 434.971 106.685 436.592 109.903Z" fill="black" fill-opacity="0.12"/>
<path d="M447.434 129.358C447.767 130.351 443.125 135.843 440.762 138.465H447.434L449.936 138.583C447.601 137.684 449.241 132.334 450.353 129.772L447.434 129.358Z" fill="black" fill-opacity="0.12"/>
<path d="M80.0531 138.879C76.7171 134.905 77.2731 130.876 77.9681 129.358C77.9681 123.451 89.2272 114.042 89.6442 114.042C89.9778 114.042 89.7832 109.075 89.6442 106.591C68.9608 116.857 69.072 132.393 71.713 138.879H80.0531Z" fill="black" fill-opacity="0.15"/>
<path d="M89.6442 106.591C89.7832 109.075 89.9778 114.042 89.6442 114.042C89.2272 114.042 77.9681 123.451 77.9681 129.358H93.8142C92.0072 127.84 88.8102 124.142 90.4782 121.493C92.5632 118.182 98.4012 109.489 89.2272 104.935L89.6442 106.591Z" fill="black" fill-opacity="0.29"/>
<path d="M71.7018 105.349C71.7055 105.349 71.7093 105.349 71.713 105.349L72.547 106.177L78.8021 104.108C76.9951 101.21 71.3795 96.2428 63.373 99.5543C71.2493 98.3198 71.0739 105.267 71.7018 105.349Z" fill="black" fill-opacity="0.29"/>
<path d="M443.264 129.358C444.316 129.01 446.312 128.545 447.118 128.996C445.868 127.775 442.586 125.793 444.098 117.354L439.928 118.182C439.431 119.009 440.762 128.944 441.179 129.358H443.264Z" fill="black" fill-opacity="0.15"/>
<path d="M436.175 114.042L436.592 109.903C434.971 106.685 437.103 104.517 439.094 103.442C430.754 105.89 432.839 113.737 435.341 117.768C434.673 119.423 435.897 126.46 436.175 129.358H441.179C440.762 128.944 439.431 119.009 439.928 118.182L436.175 114.042Z" fill="black" fill-opacity="0.25"/>
<path d="M451.187 105.156C447.851 102.323 442.18 95.746 446.183 92.1034L447.434 90.0337C447.851 90.0337 449.102 86.3082 451.187 86.3082C441.512 86.3082 442.152 96.9866 443.681 102.326C445.572 102.673 448.739 104.137 451.187 105.156Z" fill="black" fill-opacity="0.25"/>
<path d="M417.409 128.944L429.503 129.358H436.175C435.897 126.46 434.673 119.423 435.341 117.768C432.839 113.737 430.754 105.89 439.094 103.442C439.562 103.189 440.022 102.997 440.424 102.866H442.43C443.035 102.917 442.904 102.183 443.681 102.326C442.152 96.9866 441.512 86.3082 451.187 86.3082C452.854 85.7815 456.076 85.8292 459.527 87.3241V15.9385H422.831C422.163 81.5065 402.258 118.63 392.389 128.996L409.486 129.358C410.487 129.027 415.185 128.944 417.409 128.944Z" fill="black" fill-opacity="0.1"/>
<path d="M93.8142 129.358H104.239H135.098C110.745 127.702 89.6442 53.0551 82.1381 15.9385H55.786V102.866C58.724 101.224 61.4506 100.127 63.373 99.5543C71.3795 96.2428 76.9951 101.21 78.8021 104.108C81.3041 103.004 86.892 101.624 89.2272 104.935C98.4012 109.489 92.5632 118.182 90.4782 121.493C88.8102 124.142 92.0072 127.84 93.8142 129.358Z" fill="black" fill-opacity="0.1"/>
<path d="M392.389 128.996C402.258 118.63 422.163 81.5065 422.831 15.9385H400.312C402.981 69.585 373.902 113.904 359.029 129.358L392.389 128.996Z" fill="black" fill-opacity="0.07"/>
<path d="M220.583 336.833C234.345 344.375 259.365 348.332 259.782 348.332L256.863 343.365L227.256 336.759C224.907 336.883 222.556 336.927 220.583 336.833Z" fill="black" fill-opacity="0.18"/>
<path d="M316.494 390.968L324.835 387.656L326.086 383.724C319.796 384.244 303.542 374.928 288.269 364.92C286.876 365.984 285.571 366.945 284.385 367.787L294.393 375.652C295.635 374.546 300.231 379.791 301.482 381.033L316.494 390.968Z" fill="black" fill-opacity="0.15"/>
<path d="M264.369 347.504C264.89 349.356 265.771 351.992 266.454 353.299L284.385 367.787C285.571 366.945 286.876 365.984 288.269 364.92C279.239 359.003 270.451 352.016 264.369 347.504Z" fill="black" fill-opacity="0.15"/>
<path d="M256.863 343.365L259.782 348.332L266.454 353.299C265.771 351.992 264.89 349.356 264.369 347.504C263.405 344.079 263.423 341.327 266.454 340.467C268.122 340.467 272.431 339.639 274.377 339.225L266.454 335.128C264.009 335.008 261.464 334.931 258.948 334.889L256.863 343.365Z" fill="black" fill-opacity="0.15"/>
<path d="M216.83 418.288V411.251C217.247 409.733 218.832 406.697 221.834 406.697H237.264C238.237 403.662 239.599 395.604 237.264 387.656C233.233 387.518 225.004 387.159 224.337 386.828C225.671 390.802 223.225 402.006 221.834 406.697C216.556 406.249 214.292 406.501 213.911 409.595V416.218C213.911 419.861 216.969 421.659 218.498 422.103C217.555 421.345 216.83 420.14 216.83 418.288Z" fill="black" fill-opacity="0.04"/>
<path d="M206.405 496.522L203.486 435.259C204.32 432.224 208.157 427.726 216.83 427.394C219.353 427.298 225.807 426.762 234.345 426.217L210.992 426.567C202.319 426.898 198.482 432.224 197.648 435.259L200.567 496.522H206.405Z" fill="black" fill-opacity="0.04"/>
<path d="M251.563 179.325L252.451 178.004C252.451 177.651 253.486 178.591 253.782 178.444C252.303 175.947 249.326 169.544 250.392 165.666C248.912 165.813 245.953 167.253 245.953 171.835C245.587 174.715 246.528 179.621 251.237 181.088L251.563 179.325Z" fill="black" fill-opacity="0.15"/>
<path d="M247.167 222.946H248.055L252.451 178.004L251.563 179.325L251.237 181.088L243.616 223.387C244.772 223.125 246.329 222.99 247.167 222.946Z" fill="black" fill-opacity="0.15"/>
<path d="M253.11 231.187C252.938 230.877 246.723 224.708 247.167 222.946C246.329 222.99 244.772 223.125 243.616 223.387C240.897 224.002 240.065 225.149 237.402 226.471C237.757 226.471 245.244 230.972 248.943 233.223C251.091 231.88 252.798 231.187 253.11 231.187Z" fill="black" fill-opacity="0.15"/>
<path d="M257.773 229.889C259.121 229.466 260.484 229.023 261.45 228.703C261.868 227.67 259.5 226.931 258.708 226.03C257.967 225.05 256.64 223.853 254.713 223.387C253.869 223.182 252.636 223.476 252.05 223.387C253.799 224.081 256.71 227.501 257.773 229.889Z" fill="black" fill-opacity="0.29"/>
<path d="M255.556 178.444C254.521 192.984 252.05 222.682 252.05 223.387C252.636 223.476 253.869 223.182 254.713 223.387L256.888 179.766L255.556 178.444Z" fill="black" fill-opacity="0.29"/>
<path d="M255.556 178.444L256.888 179.766L257.332 180.647C258.801 181.584 259.782 179.524 260.439 178.885C261.438 177.913 262.964 174.732 262.79 172.276C262.269 167.328 261.669 167.737 260.571 168.751C260.926 172.276 257.776 176.682 255.556 178.444Z" fill="black" fill-opacity="0.29"/>
<g filter="url(#filter0_d_127_288)">
<path d="M108.067 68.4437V68.646C111.776 68.6966 115.587 70.669 115.587 76.3333C115.587 82.0989 111.065 85.9425 103.951 85.9425H85V52.0575H103.901C110.303 52.0575 114.57 55.6483 114.57 61.0598C114.57 66.269 110.76 68.3931 108.067 68.4437ZM95.5173 60.0483V65.8138H100.903C102.935 65.8138 104.307 64.6 104.307 62.8805C104.307 61.1103 102.935 60.0483 100.954 60.0483H95.5173ZM95.5173 77.9517H101.411C103.494 77.9517 104.815 76.7379 104.815 74.7655C104.815 73.046 103.494 71.9333 101.411 71.9333H95.5173V77.9517Z" fill="white"/>
<path d="M150.949 52.0575V70.5678C150.949 80.531 144.649 86.7011 135.198 86.7011C125.494 86.7011 119.041 80.531 119.041 70.5678V52.0575H129.609V70.5678C129.609 74.9172 131.845 77.3448 135.198 77.3448C138.297 77.3448 140.381 74.9172 140.381 70.5678V52.0575H150.949Z" fill="white"/>
<path d="M190.113 52.0575L176.953 75.6759V85.9425H165.979V75.6759L153.277 52.0575H164.759L171.72 65.2575L178.579 52.0575H190.113Z" fill="white"/>
<path d="M231.132 74.8667C231.132 81.0874 226.407 84.1724 221.275 85.1839V91H212.892V85.0828C207.405 83.7172 203.34 80.0253 202.476 75.3218L212.13 73.5011C212.943 76.5862 214.823 77.7494 217.312 77.7494C219.141 77.7494 220.615 76.9908 220.615 75.777C220.615 74.9172 220.259 74.2598 218.837 73.8552L212.282 72.2368C206.541 70.7701 203.34 67.9885 203.34 62.9816C203.34 57.2161 207.354 53.8276 212.892 52.7655V47H221.275V52.9172C226.509 54.0805 230.167 57.4184 230.827 62.2736L221.58 63.8414C220.767 60.3011 218.278 59.846 216.804 59.846C215.128 59.846 213.908 60.6046 213.908 62.0207C213.908 62.7793 214.213 63.4874 215.432 63.7908L221.783 65.3586C227.83 66.8759 231.132 69.6575 231.132 74.8667Z" fill="white"/>
<path d="M234.497 52.0575H252.585C260.054 52.0575 264.982 56.9632 264.982 64.1448C264.982 71.6805 259.698 76.6368 251.721 76.6368H245.015V85.9425H234.497V52.0575ZM245.015 68.5448H250.197C252.687 68.5448 254.668 66.9264 254.668 64.4483C254.668 62.1724 252.687 60.554 250.197 60.554H245.015V68.5448Z" fill="white"/>
<path d="M295.624 77.2943V85.9425H268.188V52.0575H295.37V60.7057H278.705V65.1057H293.998V72.8943H278.705V77.2943H295.624Z" fill="white"/>
<path d="M333.238 52.0575V85.9425H324.651L309.815 69.6069V85.9425H299.298V52.0575H307.935L322.771 69.0506V52.0575H333.238Z" fill="white"/>
<path d="M337.404 52.0575H352.24C363.367 52.0575 370.785 58.9862 370.785 69C370.785 79.0138 363.367 85.9425 352.24 85.9425H337.404V52.0575ZM347.921 77.2437H351.376C356.66 77.2437 360.166 73.8552 360.166 69C360.166 64.1448 356.66 60.7563 351.376 60.7563H347.921V77.2437Z" fill="white"/>
<path d="M401.657 77.2943V85.9425H374.22V52.0575H401.403V60.7057H384.737V65.1057H400.031V72.8943H384.737V77.2943H401.657Z" fill="white"/>
<path d="M438 85.9425H425.4L416.559 75.5241H415.848V85.9425H405.33V52.0575H423.926C431.293 52.0575 436.222 56.7103 436.222 63.6391C436.222 69 433.224 73.046 428.346 74.7149L438 85.9425ZM415.848 60.554V67.4322H421.64C424.282 67.4322 425.908 66.0667 425.908 63.892C425.908 61.9195 424.282 60.554 421.64 60.554H415.848Z" fill="white"/>
</g>
</g>
<defs>
<filter id="filter0_d_127_288" x="85" y="47" width="356.6" height="48.6" filterUnits="userSpaceOnUse" color-interpolation-filters="sRGB">
<feFlood flood-opacity="0" result="BackgroundImageFix"/>
<feColorMatrix in="SourceAlpha" type="matrix" values="0 0 0 0 0 0 0 0 0 0 0 0 0 0 0 0 0 0 127 0" result="hardAlpha"/>
<feOffset dx="3" dy="4"/>
<feGaussianBlur stdDeviation="0.3"/>
<feComposite in2="hardAlpha" operator="out"/>
<feColorMatrix type="matrix" values="0 0 0 0 0 0 0 0 0 0 0 0 0 0 0 0 0 0 0.25 0"/>
<feBlend mode="normal" in2="BackgroundImageFix" result="effect1_dropShadow_127_288"/>
<feBlend mode="normal" in="SourceGraphic" in2="effect1_dropShadow_127_288" result="shape"/>
</filter>
<clipPath id="clip0_127_288">
<rect width="512" height="512" fill="white"/>
</clipPath>
</defs>
</svg>
