<svg width="512" height="512" viewBox="0 0 512 512" fill="none" xmlns="http://www.w3.org/2000/svg">
<g clip-path="url(#clip0_127_174)">
<rect width="19.4534" height="10.2671" transform="matrix(-0.999475 -0.032404 -0.0317985 0.999494 274.2 144.948)" fill="black"/>
<rect width="19.4534" height="10.2671" transform="matrix(-0.999475 -0.032404 -0.0317985 0.999494 204.902 139.769)" fill="black"/>
<path fill-rule="evenodd" clip-rule="evenodd" d="M404.284 283.591L403.935 263.585C332.324 303.919 210.119 294.899 157.969 285.347L159.3 295.129C155.416 299.054 148.882 310.051 148.358 326.561C148.332 327.401 148.321 328.255 148.326 329.124C148.345 332.05 148.554 335.136 148.996 338.374C151.108 353.847 157.5 365.165 163.274 372.161C166.114 375.602 168.804 377.997 170.764 379.327L183.605 467.137L196.143 473.715C251.964 493.79 285.714 488.699 346.067 478.576L406.282 467.137L407.091 444.638C402.395 443.954 397.965 443.224 393.939 442.561L393.934 442.56L393.933 442.56C391.5 442.159 389.214 441.783 387.105 441.455C379.252 442.744 361.612 444.834 346.476 444.324C344.046 444.242 341.681 444.093 339.431 443.863C339.049 443.851 338.538 443.959 337.94 444.085C335.494 444.601 331.596 445.424 329.191 439.577C321.234 440.704 308.689 441.428 301.678 439.709C300.255 438.639 293.221 430.719 298.933 419.113C295.119 416.879 288.76 409.139 293.839 396.044C295.441 393.383 304.664 389.224 321.611 389.125C321.605 386.335 321.684 383.548 321.86 380.791C312.942 381.117 300.94 380.294 294.366 379.488C292.123 378.731 288.02 374.36 289.55 362.925C291.126 351.14 316.344 352.669 327.701 354.514C330.119 354.906 331.996 355.316 333.009 355.619C335.86 356.471 338.825 358.408 341.119 360.222C342.542 361.347 343.707 362.425 344.427 363.168L347.717 365.389L391.499 394.943C395.685 396.077 400.788 397.243 406.282 398.21L405.826 372.08C395.353 375.585 373.886 371.506 371.8 327.142C369.715 282.778 392.587 279.623 404.284 283.591Z" fill="#A8ABC2"/>
<path d="M157.969 285.347C210.119 294.899 332.324 303.919 403.935 263.585C386.448 239.229 348.635 225.767 331.915 222.08C289.431 239.159 234.965 236.197 213.043 232.581C188.579 244.339 166.133 272.657 157.969 285.347Z" fill="#B3B6CD"/>
<path d="M163.274 372.161C157.5 365.165 151.108 353.847 148.996 338.374C148.554 335.136 148.345 332.05 148.326 329.124C140.936 336.711 134.11 342.774 127.818 347.535C141.476 357.907 143.232 379.936 142.403 389.654C149.51 384.876 156.565 379.104 163.274 372.161Z" fill="#68984C"/>
<path d="M104.555 407.026C116.128 403.853 129.352 398.429 142.403 389.654C143.232 379.936 141.476 357.907 127.818 347.535C117.323 355.478 108.316 359.8 100.66 361.539C108.352 376.242 106.462 397.99 104.555 407.026Z" fill="#68984C"/>
<path d="M75.7784 410.852C82.1826 411.198 92.4682 410.34 104.555 407.026C106.462 397.99 108.352 376.242 100.66 361.539C91.212 363.684 83.822 361.896 78.2317 358.126C77.6785 395.023 58.4419 402.075 48.8928 400.989C50.9542 402.664 53.1509 404.153 55.4903 405.435C61.3271 408.635 68.0517 410.548 75.7784 410.852Z" fill="#68984C"/>
<path d="M65.1237 338.218C57.268 356.83 35.151 358.096 25.0744 356.403C29.3401 374.888 36.7826 391.148 48.8928 400.989C58.4419 402.075 77.6785 395.023 78.2317 358.126C71.147 353.349 66.9528 345.388 65.1237 338.218Z" fill="#68984C"/>
<path d="M62.647 303.788C49.0133 316.47 28.6511 313.281 20.1742 310.101C20.2934 325.533 21.6754 341.674 25.0744 356.403C35.151 358.096 57.268 356.83 65.1237 338.218C63.2355 328.932 62.1784 317.523 62.647 303.788Z" fill="#68984C"/>
<path d="M66.7232 268.032C50.0958 277.746 30.6834 271.136 23.0556 266.616C21.2941 278.747 20.0502 294.039 20.1742 310.101C28.6511 313.281 49.0133 316.47 62.647 303.788C63.006 293.265 64.2606 281.376 66.7232 268.032Z" fill="#68984C"/>
<path d="M23.0556 266.616C30.6834 271.136 50.0958 277.746 66.7232 268.032C73.6878 256.772 84.5917 229.612 87.2517 217.224C65.9932 229.864 28.8706 226.302 11.8738 221.137C14.8833 238.324 17.0253 248.146 23.0556 266.616Z" fill="#68984C"/>
<path d="M24.2585 167.706C10.2458 168.482 6.82503 186.452 6.86619 195.34C6.49741 200.127 7.18193 208.202 11.1524 213.264C13.1206 215.774 15.8961 217.542 19.7509 217.803C30.1474 218.507 33.1284 210.32 33.8593 203.906C38.5187 205.697 41.3308 202.439 42.1544 200.586C42.48 197.32 42.6977 194.265 42.7711 191.435C42.7824 191.001 42.7903 190.572 42.7946 190.148C42.8085 188.793 42.7863 187.493 42.7237 186.249C42.095 173.761 37.3925 166.979 24.2585 167.706Z" fill="#68984C"/>
<path d="M46.3129 192.005C47.5562 196.069 53.9245 202.792 64.2106 202.326C67.1817 194.38 71.1334 184.42 74.2927 178.044C75.4686 173.98 74.2373 166.079 73.4746 162.636C72.1105 152.338 69.8696 141.841 68.5485 134.279C57.1483 126.219 46.7312 133.059 45.0149 141.207C43.6419 147.724 47.6207 155.988 50.1529 162.906C50.6635 165.783 49.0102 176.78 47.5167 185.379C47.345 186.367 47.1753 187.325 47.0113 188.234C46.8487 189.136 46.6917 189.99 46.5437 190.782C46.464 191.209 46.3869 191.617 46.3129 192.005Z" fill="#68984C"/>
<path d="M62.2824 208.211C66.8982 214.746 76.8347 219.701 85.4795 212.757C85.9503 211.579 86.4405 210.326 86.9443 209.011C95.099 187.719 106.534 159.123 97.5912 152.652C88.0959 145.782 79.2939 152.743 76.565 157.098C76.376 163.039 75.8743 169.551 75.0631 176.531C74.8125 177.008 74.5553 177.514 74.2927 178.044C71.1334 184.42 67.1817 194.38 64.2106 202.326C63.2985 204.766 62.9584 206.313 62.2824 208.211Z" fill="#68984C"/>
<path d="M298.933 419.113C293.221 430.719 300.255 438.639 301.678 439.709C308.689 441.428 321.234 440.704 329.191 439.577C332.173 439.155 334.783 438.685 336.693 438.281C343.98 429.084 338.59 419.373 334.984 415.667C318.504 414.62 300.438 417.623 298.933 419.113Z" fill="#68984C"/>
<path d="M298.933 419.113C300.438 417.623 318.504 414.62 334.984 415.667L339.383 414.785C345.143 404.718 341.011 394.159 338.225 390.138C331.869 389.393 326.36 389.097 321.611 389.125C304.664 389.224 295.441 393.383 293.839 396.044C288.76 409.139 295.119 416.879 298.933 419.113Z" fill="#68984C"/>
<path d="M289.55 362.925C288.02 374.36 292.123 378.731 294.366 379.488C300.94 380.294 312.942 381.117 321.86 380.791C330.915 380.459 338.79 379.008 340.638 375.348C340.649 375.008 340.716 374.391 340.806 373.568C341.122 370.672 341.717 365.217 341.119 360.222C338.825 358.408 335.86 356.471 333.009 355.619C331.996 355.316 330.119 354.906 327.701 354.514C316.344 352.669 291.126 351.14 289.55 362.925Z" fill="#68984C"/>
<path d="M339.431 443.863C344.867 430.759 353.476 396.273 344.427 363.168C343.707 362.425 342.542 361.347 341.119 360.222C341.717 365.217 341.122 370.672 340.806 373.568C340.716 374.391 340.649 375.008 340.638 375.348C338.79 379.008 330.915 380.459 321.86 380.791C321.684 383.548 321.605 386.335 321.611 389.125C326.36 389.097 331.869 389.393 338.225 390.138C341.011 394.159 345.143 404.718 339.383 414.785L334.984 415.667C338.59 419.373 343.98 429.084 336.693 438.281C334.783 438.685 332.173 439.155 329.191 439.577C331.596 445.424 335.494 444.601 337.94 444.085C338.538 443.959 339.049 443.851 339.431 443.863Z" fill="#68984C"/>
<path d="M387.105 441.455C390.951 432.522 397.214 410.714 391.499 394.943L347.717 365.389L344.427 363.168C353.476 396.273 344.867 430.759 339.431 443.863C341.681 444.093 344.046 444.242 346.476 444.324C361.612 444.834 379.252 442.744 387.105 441.455Z" fill="#68984C"/>
<path d="M391.499 394.943C397.214 410.714 390.951 432.522 387.105 441.455C389.214 441.783 391.5 442.159 393.933 442.56L393.934 442.56L393.939 442.561C397.965 443.224 402.395 443.954 407.091 444.638C412.255 445.391 417.741 446.089 423.369 446.585C427.555 437.14 433.225 414.642 422.416 400.213C416.986 399.854 411.461 399.121 406.282 398.21C400.788 397.243 395.685 396.077 391.499 394.943Z" fill="#68984C"/>
<path d="M466.025 444.014C472.47 420.434 457.448 403.985 448.673 398.334C442.124 401.071 431.96 400.845 422.416 400.213C433.225 414.642 427.555 437.14 423.369 446.585C437.211 447.783 452.344 447.712 466.025 444.014Z" fill="#68984C"/>
<path d="M500.976 400.03C495.25 381.388 469.145 384.13 456.808 387.832C455.789 392.497 453.39 396.364 448.673 398.334C457.448 403.985 472.47 420.434 466.025 444.014C483.962 438.466 498.227 425.943 500.976 400.03Z" fill="#68984C"/>
<path d="M446.246 370.058C453.711 374.866 458.347 380.787 456.808 387.832C469.145 384.13 495.25 381.388 500.976 400.03C501.081 398.864 501.161 397.67 501.218 396.449C502.219 374.773 492.012 357.174 477.238 343.378C459.366 341.503 450.654 360.643 447.475 367.629C446.879 368.94 446.477 369.822 446.246 370.058Z" fill="#68984C"/>
<path d="M440.054 319.085C424.009 322.653 422.455 348.092 423.684 360.366C431.877 362.832 440.039 366.06 446.246 370.058C446.477 369.822 446.879 368.94 447.475 367.629C450.654 360.643 459.366 341.503 477.238 343.378C466.423 333.278 453.159 325.216 440.054 319.085Z" fill="#68984C"/>
<path d="M402.583 306.094C387.545 317.228 393.052 344.74 401.019 355.262C405.762 355.974 411.558 357.109 417.604 358.669C419.613 359.188 421.649 359.753 423.684 360.366C422.455 348.092 424.009 322.653 440.054 319.085C434.181 316.337 428.339 313.977 422.764 311.996C415.391 309.375 408.483 307.415 402.583 306.094Z" fill="#68984C"/>
<path d="M371.8 327.142C373.886 371.506 395.353 375.585 405.826 372.08C409.072 370.835 415.971 366.409 417.604 358.669C411.558 357.109 405.762 355.974 401.019 355.262C393.052 344.74 387.545 317.228 402.583 306.094C408.483 307.415 415.391 309.375 422.764 311.996C421 294.153 409.709 285.625 404.284 283.591C392.587 279.623 369.715 282.778 371.8 327.142Z" fill="#A8ABC2"/>
<path d="M11.8738 221.137C28.8706 226.302 65.9932 229.864 87.2517 217.224C87.6211 215.861 88.8774 210.852 86.9443 209.011C86.4405 210.326 85.9503 211.579 85.4795 212.757C76.8347 219.701 66.8982 214.746 62.2824 208.211C62.9584 206.313 63.2985 204.766 64.2106 202.326C53.9245 202.792 47.5562 196.069 46.3129 192.005C46.3869 191.617 46.464 191.209 46.5437 190.782C45.1671 190.738 43.4551 191.199 42.7711 191.435C42.6977 194.265 42.48 197.32 42.1544 200.586C41.3308 202.439 38.5187 205.697 33.8593 203.906C33.1284 210.32 30.1474 218.507 19.7509 217.803C15.8961 217.542 13.1206 215.774 11.1524 213.264C10.8112 216.93 11.7741 220.023 11.8738 221.137Z" fill="#68984C"/>
<path d="M157.969 285.347C210.119 294.899 332.324 303.919 403.935 263.585M157.969 285.347L159.3 295.129M157.969 285.347C166.133 272.657 188.579 244.339 213.043 232.581C234.965 236.197 289.431 239.159 331.915 222.08C348.635 225.767 386.448 239.229 403.935 263.585M403.935 263.585L404.284 283.591M405.826 372.08C395.353 375.585 373.886 371.506 371.8 327.142C369.715 282.778 392.587 279.623 404.284 283.591M405.826 372.08L406.282 398.21M405.826 372.08C409.072 370.835 415.971 366.409 417.604 358.669M404.284 283.591C409.709 285.625 421 294.153 422.764 311.996M387.105 441.455C390.951 432.522 397.214 410.714 391.499 394.943M387.105 441.455C379.252 442.744 361.612 444.834 346.476 444.324M387.105 441.455C389.214 441.783 391.5 442.159 393.933 442.56L393.934 442.56L393.939 442.561C397.965 443.224 402.395 443.954 407.091 444.638M391.499 394.943C395.685 396.077 400.788 397.243 406.282 398.21M391.499 394.943L347.717 365.389M456.808 387.832C458.347 380.787 453.711 374.866 446.246 370.058M456.808 387.832C469.145 384.13 495.25 381.388 500.976 400.03M456.808 387.832C455.789 392.497 453.39 396.364 448.673 398.334M423.684 360.366C422.455 348.092 424.009 322.653 440.054 319.085M423.684 360.366C431.877 362.832 440.039 366.06 446.246 370.058M423.684 360.366C421.649 359.753 419.613 359.188 417.604 358.669M440.054 319.085C453.159 325.216 466.423 333.278 477.238 343.378M440.054 319.085C434.181 316.337 428.339 313.977 422.764 311.996M446.246 370.058C446.477 369.822 446.879 368.94 447.475 367.629C450.654 360.643 459.366 341.503 477.238 343.378M477.238 343.378C492.012 357.174 502.219 374.773 501.218 396.449C501.161 397.67 501.081 398.864 500.976 400.03M500.976 400.03C498.227 425.943 483.962 438.466 466.025 444.014M448.673 398.334C457.448 403.985 472.47 420.434 466.025 444.014M448.673 398.334C442.124 401.071 431.96 400.845 422.416 400.213M466.025 444.014C452.344 447.712 437.211 447.783 423.369 446.585M423.369 446.585C427.555 437.14 433.225 414.642 422.416 400.213M423.369 446.585C417.741 446.089 412.255 445.391 407.091 444.638M422.416 400.213C416.986 399.854 411.461 399.121 406.282 398.21M407.091 444.638L406.282 467.137L346.067 478.576M339.431 443.863C344.867 430.759 353.476 396.273 344.427 363.168M339.431 443.863C341.681 444.093 344.046 444.242 346.476 444.324M339.431 443.863C339.049 443.851 338.538 443.959 337.94 444.085C335.494 444.601 331.596 445.424 329.191 439.577M344.427 363.168C343.707 362.425 342.542 361.347 341.119 360.222M344.427 363.168L347.717 365.389M170.764 379.327L183.605 467.137L196.143 473.715M170.764 379.327L159.3 295.129M170.764 379.327C168.804 377.997 166.114 375.602 163.274 372.161M159.3 295.129C155.416 299.054 148.882 310.051 148.358 326.561C148.332 327.401 148.321 328.255 148.326 329.124M66.7232 268.032C50.0958 277.746 30.6834 271.136 23.0556 266.616M66.7232 268.032C64.2606 281.376 63.006 293.265 62.647 303.788M66.7232 268.032C73.6878 256.772 84.5917 229.612 87.2517 217.224M23.0556 266.616C21.2941 278.747 20.0502 294.039 20.1742 310.101M23.0556 266.616C17.0253 248.146 14.8833 238.324 11.8738 221.137M163.274 372.161C157.5 365.165 151.108 353.847 148.996 338.374C148.554 335.136 148.345 332.05 148.326 329.124M163.274 372.161C156.565 379.104 149.51 384.876 142.403 389.654M20.1742 310.101C28.6511 313.281 49.0133 316.47 62.647 303.788M20.1742 310.101C20.2934 325.533 21.6754 341.674 25.0744 356.403M62.647 303.788C62.1784 317.523 63.2355 328.932 65.1237 338.218M25.0744 356.403C35.151 358.096 57.268 356.83 65.1237 338.218M25.0744 356.403C29.3401 374.888 36.7826 391.148 48.8928 400.989M65.1237 338.218C66.9528 345.388 71.147 353.349 78.2317 358.126M104.555 407.026C92.4682 410.34 82.1826 411.198 75.7784 410.852C68.0517 410.548 61.3271 408.635 55.4903 405.435C53.1509 404.153 50.9542 402.664 48.8928 400.989M104.555 407.026C116.128 403.853 129.352 398.429 142.403 389.654M104.555 407.026C106.462 397.99 108.352 376.242 100.66 361.539M142.403 389.654C143.232 379.936 141.476 357.907 127.818 347.535M148.326 329.124C140.936 336.711 134.11 342.774 127.818 347.535M48.8928 400.989C58.4419 402.075 77.6785 395.023 78.2317 358.126M78.2317 358.126C83.822 361.896 91.212 363.684 100.66 361.539M100.66 361.539C108.316 359.8 117.323 355.478 127.818 347.535M298.933 419.113C293.221 430.719 300.255 438.639 301.678 439.709C308.689 441.428 321.234 440.704 329.191 439.577M298.933 419.113C300.438 417.623 318.504 414.62 334.984 415.667M298.933 419.113C295.119 416.879 288.76 409.139 293.839 396.044C295.441 393.383 304.664 389.224 321.611 389.125M334.984 415.667C338.59 419.373 343.98 429.084 336.693 438.281C334.783 438.685 332.173 439.155 329.191 439.577M334.984 415.667L339.383 414.785C345.143 404.718 341.011 394.159 338.225 390.138C331.869 389.393 326.36 389.097 321.611 389.125M341.119 360.222C338.825 358.408 335.86 356.471 333.009 355.619C331.996 355.316 330.119 354.906 327.701 354.514C316.344 352.669 291.126 351.14 289.55 362.925C288.02 374.36 292.123 378.731 294.366 379.488C300.94 380.294 312.942 381.117 321.86 380.791M341.119 360.222C341.717 365.217 341.122 370.672 340.806 373.568C340.716 374.391 340.649 375.008 340.638 375.348C338.79 379.008 330.915 380.459 321.86 380.791M321.613 389.599C321.612 389.441 321.611 389.283 321.611 389.125M321.86 380.791C321.684 383.548 321.605 386.335 321.611 389.125M11.8738 221.137C28.8706 226.302 65.9932 229.864 87.2517 217.224M11.8738 221.137C11.7741 220.023 10.8112 216.93 11.1524 213.264M87.2517 217.224C87.6211 215.861 88.8774 210.852 86.9443 209.011M36.2058 189.114C35.3537 190.453 33.7172 194.057 33.988 197.757C34.0845 199.075 34.1505 201.35 33.8593 203.906M33.8593 203.906C33.1284 210.32 30.1474 218.507 19.7509 217.803C15.8961 217.542 13.1206 215.774 11.1524 213.264M33.8593 203.906C38.5187 205.697 41.3308 202.439 42.1544 200.586C42.48 197.32 42.6977 194.265 42.7711 191.435M11.1524 213.264C7.18193 208.202 6.49741 200.127 6.86619 195.34C6.82503 186.452 10.2458 168.482 24.2585 167.706C37.3925 166.979 42.095 173.761 42.7237 186.249C42.7863 187.493 42.8085 188.793 42.7946 190.148C42.7903 190.572 42.7824 191.001 42.7711 191.435M75.0631 176.531C75.8743 169.551 76.376 163.039 76.565 157.098C79.2939 152.743 88.0959 145.782 97.5912 152.652C106.534 159.123 95.099 187.719 86.9443 209.011M75.0631 176.531C74.8125 177.008 74.5553 177.514 74.2927 178.044M75.0631 176.531C74.9749 178.682 74.9707 183.501 75.659 185.574M64.2106 202.326C63.2985 204.766 62.9584 206.313 62.2824 208.211C66.8982 214.746 76.8347 219.701 85.4795 212.757C85.9503 211.579 86.4405 210.326 86.9443 209.011M64.2106 202.326C53.9245 202.792 47.5562 196.069 46.3129 192.005C46.3869 191.617 46.464 191.209 46.5437 190.782M64.2106 202.326C67.1817 194.38 71.1334 184.42 74.2927 178.044M50.1529 162.906C47.6207 155.988 43.6419 147.724 45.0149 141.207C46.7312 133.059 57.1483 126.219 68.5485 134.279C69.8696 141.841 72.1105 152.338 73.4746 162.636C74.2373 166.079 75.4686 173.98 74.2927 178.044M50.1529 162.906C50.6635 165.783 49.0102 176.78 47.5167 185.379C47.345 186.367 47.1753 187.325 47.0113 188.234C46.8487 189.136 46.6917 189.99 46.5437 190.782M50.1529 162.906C50.5764 164.561 51.8957 168.295 53.7843 169.997M48.8639 142.356C53.4364 143.53 63.0728 144.253 65.0381 137.754M80.3325 160.808C82.7585 160.887 90.9578 162.691 95.4875 157.711M196.143 473.715L174.85 333.88C174.328 329.933 174.467 322.589 183.942 322.896C195.017 323.255 280.42 329.967 338.038 319.689C342.104 318.795 349.97 319.256 348.907 328.244C348.523 331.496 348.111 346.002 347.717 365.389M196.143 473.715C251.964 493.79 285.714 488.699 346.067 478.576M346.067 478.576C346.173 468.876 346.312 457.047 346.476 444.324M417.604 358.669C411.558 357.109 405.762 355.974 401.019 355.262C393.052 344.74 387.545 317.228 402.583 306.094C408.483 307.415 415.391 309.375 422.764 311.996M42.7711 191.435C43.4551 191.199 45.1671 190.738 46.5437 190.782" stroke="black" stroke-width="2"/>
<path d="M274.138 41.2011C273.364 38.9136 271.306 38.6462 269.679 40.6218L269.365 42.0388C267.61 40.596 264.512 36.5974 266.154 32.1454C267.796 27.6935 272.323 27.1153 274.382 27.3826C276.197 27.74 279.907 29.5582 280.22 33.9725C280.611 39.4905 276.146 42.5552 274.007 42.6418L274.138 41.2011Z" fill="#9396A8"/>
<path d="M265.943 78.0417C267.822 78.4296 269.354 79.1008 270.595 79.9357C274.386 82.4846 275.47 86.5591 275.472 88.7558L263.055 90.0893L251.67 83.8416C252.918 81.8032 256.328 78.4033 261.441 77.8182C262.82 77.6604 264.324 77.7075 265.943 78.0417Z" fill="#9396A8"/>
<path d="M270.595 79.9357C269.354 79.1008 267.822 78.4296 265.943 78.0417C264.324 77.7075 262.82 77.6604 261.441 77.8182L269.365 42.0388L269.679 40.6218C271.306 38.6462 273.364 38.9136 274.138 41.2011L274.007 42.6418L270.595 79.9357Z" fill="#A7A9B8"/>
<path d="M270.595 79.9357C269.354 79.1008 267.822 78.4296 265.943 78.0417C264.324 77.7075 262.82 77.6604 261.441 77.8182M270.595 79.9357C274.386 82.4846 275.47 86.5591 275.472 88.7558L263.055 90.0893L251.67 83.8416C252.918 81.8032 256.328 78.4033 261.441 77.8182M270.595 79.9357L274.007 42.6418M261.441 77.8182L269.365 42.0388M269.365 42.0388L269.679 40.6218C271.306 38.6462 273.364 38.9136 274.138 41.2011L274.007 42.6418M269.365 42.0388C267.61 40.596 264.512 36.5974 266.154 32.1454C267.796 27.6935 272.323 27.1153 274.382 27.3826C276.197 27.74 279.907 29.5582 280.22 33.9725C280.611 39.4905 276.146 42.5552 274.007 42.6418" stroke="black" stroke-width="2"/>
<path d="M178.228 246.192C169.484 243.724 154.599 233.01 165.006 209.894C167.94 211.442 172.668 213.185 179.227 214.788C175.496 219.1 168.079 236.551 226.31 234.3C284.541 232.049 305.836 219.978 311.517 216.024C316.061 212.86 308.217 213.617 303.727 214.392C300.497 214.882 297.324 215.336 294.208 215.756C255.701 220.949 225.831 220.935 204.257 218.831C194.08 217.839 185.748 216.382 179.227 214.788C172.668 213.185 167.94 211.442 165.006 209.894C160.491 208.023 151.98 202.367 154.053 194.708C154.543 193 156.426 189.957 160.038 191.453C160.515 191.651 161.131 191.945 161.903 192.314C168.448 195.443 186.258 203.957 226.273 204.638C262.065 205.246 285.266 202.411 292.393 200.918C303.799 198.414 326.725 196.03 327.175 206.529C327.738 219.654 322.623 226.386 308.607 235.589C294.591 244.791 219.209 262.352 178.228 246.192Z" fill="#AD683D"/>
<path d="M303.727 214.392C308.217 213.617 316.061 212.86 311.517 216.024C305.836 219.978 284.541 232.049 226.31 234.3C168.079 236.551 175.496 219.1 179.227 214.788C185.748 216.382 194.08 217.839 204.257 218.831C205.529 226.797 216.448 240.298 249.953 230.583C283.459 220.868 293.417 216.651 294.208 215.756C297.324 215.336 300.497 214.882 303.727 214.392Z" fill="black"/>
<path d="M249.953 230.583C216.448 240.298 205.529 226.797 204.257 218.831C225.831 220.935 255.701 220.949 294.208 215.756C293.417 216.651 283.459 220.868 249.953 230.583Z" fill="#7D0000"/>
<path fill-rule="evenodd" clip-rule="evenodd" d="M347.789 133.734C363.845 145.981 391.489 181.505 373.618 225.625C355.747 269.744 276.737 275.368 239.466 272.665C223.607 271.347 189.156 264.205 178.228 246.192C219.209 262.352 294.591 244.791 308.607 235.589C322.623 226.386 327.738 219.654 327.175 206.529C326.725 196.03 303.799 198.414 292.393 200.918C285.266 202.411 262.065 205.246 226.273 204.638C186.258 203.957 168.448 195.443 161.903 192.314C161.131 191.945 160.515 191.651 160.038 191.453C161.417 185.781 165.708 173.441 171.847 169.464C169.542 167.651 167.664 165.286 166.523 162.205C159.342 159.005 154.549 153.872 156.273 145.805C157.241 147.517 158.613 149.248 160.342 151.11C175.165 167.08 225.112 159.148 227.232 153.968C227.442 154.195 227.653 154.418 227.864 154.639C254.387 182.277 291.027 160.999 302.776 154.176C304.309 153.286 305.419 152.641 306.026 152.384C307.672 151.688 308.319 151.004 308.395 150.392C308.514 149.426 307.212 148.636 306.158 148.25L298.804 143.183C267.137 121.807 245.789 125.254 237.553 127.401C232.127 128.815 228.9 133.061 227.455 136.041C227.146 136.68 226.918 137.261 226.768 137.743C204.173 118.411 173.758 121.001 161.153 125.614C158.778 118.087 167.397 114.205 172.003 113.204C176.435 105.346 187.147 102.773 191.949 102.469C203.446 64.8055 250.284 76.4237 262.292 89.2294C312.13 59.1145 340.056 106.351 347.789 133.734Z" fill="#68984C"/>
<path d="M227.232 153.968C226.468 150.61 225.305 142.662 226.768 137.743C226.918 137.261 227.146 136.68 227.455 136.041C228.9 133.061 232.127 128.815 237.553 127.401C245.789 125.254 267.137 121.807 298.804 143.183L306.158 148.25C307.212 148.636 308.514 149.426 308.395 150.392C308.319 151.004 307.672 151.688 306.026 152.384C305.419 152.641 304.309 153.286 302.776 154.176C291.027 160.999 254.387 182.277 227.864 154.639C227.653 154.418 227.442 154.195 227.232 153.968Z" fill="white"/>
<path d="M161.153 125.614C173.758 121.001 204.173 118.411 226.768 137.743C225.305 142.662 226.468 150.61 227.232 153.968C225.112 159.148 175.165 167.08 160.342 151.11C158.613 149.248 157.241 147.517 156.273 145.805C150.876 136.249 156.81 128.593 161.153 125.614Z" fill="white"/>
<path d="M337.059 208.229C338.698 200.695 330.176 190.011 321.71 192.199M347.789 133.734C363.845 145.981 391.489 181.505 373.618 225.625C355.747 269.744 276.737 275.368 239.466 272.665C223.607 271.347 189.156 264.205 178.228 246.192M347.789 133.734C349.145 140.4 349.127 146.424 348.949 148.602M347.789 133.734C340.056 106.351 312.13 59.1145 262.292 89.2294M178.228 246.192C169.484 243.724 154.599 233.01 165.006 209.894M178.228 246.192C219.209 262.352 294.591 244.791 308.607 235.589C322.623 226.386 327.738 219.654 327.175 206.529C326.725 196.03 303.799 198.414 292.393 200.918C285.266 202.411 262.065 205.246 226.273 204.638C186.258 203.957 168.448 195.443 161.903 192.314C161.131 191.945 160.515 191.651 160.038 191.453M165.006 209.894C160.491 208.023 151.98 202.367 154.053 194.708C154.543 193 156.426 189.957 160.038 191.453M165.006 209.894C167.94 211.442 172.668 213.185 179.227 214.788M160.038 191.453C161.417 185.781 165.708 173.441 171.847 169.464M179.227 214.788C175.496 219.1 168.079 236.551 226.31 234.3C284.541 232.049 305.836 219.978 311.517 216.024C316.061 212.86 308.217 213.617 303.727 214.392C300.497 214.882 297.324 215.336 294.208 215.756M179.227 214.788C185.748 216.382 194.08 217.839 204.257 218.831M204.257 218.831C205.529 226.797 216.448 240.298 249.953 230.583C283.459 220.868 293.417 216.651 294.208 215.756M204.257 218.831C225.831 220.935 255.701 220.949 294.208 215.756M262.292 89.2294C250.284 76.4237 203.446 64.8055 191.949 102.469M262.292 89.2294C262.27 89.9185 252.983 94.2752 248.883 110.178M191.949 102.469C187.147 102.773 176.435 105.346 172.003 113.204M191.949 102.469C223.136 99.8935 242.429 106.98 248.177 110.845M172.003 113.204C167.397 114.205 158.778 118.087 161.153 125.614M172.003 113.204C181.223 110.974 205.506 109.738 228.882 122.636M161.153 125.614C173.758 121.001 204.173 118.411 226.768 137.743M161.153 125.614C156.81 128.593 150.876 136.249 156.273 145.805M226.768 137.743C225.305 142.662 226.468 150.61 227.232 153.968M226.768 137.743C226.918 137.261 227.146 136.68 227.455 136.041M227.232 153.968C225.112 159.148 175.165 167.08 160.342 151.11C158.613 149.248 157.241 147.517 156.273 145.805M227.232 153.968C227.442 154.195 227.653 154.418 227.864 154.639M225.12 158.729C222.615 159.388 218.391 161.258 213.82 164.727M200.243 180.685C204.164 173.439 209.171 168.256 213.82 164.727M213.82 164.727C212.295 164.741 212.531 164.184 204.947 166.352C197.363 168.521 180.077 168.242 166.523 162.205M156.273 145.805C154.549 153.872 159.342 159.005 166.523 162.205M200.418 175.173C199.369 174.859 181.707 177.218 171.847 169.464M166.523 162.205C167.664 165.286 169.542 167.651 171.847 169.464M225.095 128.722C216.889 123.052 195.337 113.064 174.776 118.468M228.882 122.636C228.052 124.334 226.605 129.391 227.455 136.041M228.882 122.636C230.557 120.06 235.498 116.307 244.479 115.088M295.401 178.252C283.425 181.543 255.711 185.174 240.664 173.373M304.044 163.357C293.8 170.382 265.898 181.296 236.237 168.746C232.264 166.981 225.026 161.688 227.864 154.639M227.864 154.639C254.387 182.277 291.027 160.999 302.776 154.176C304.309 153.286 305.419 152.641 306.026 152.384C307.672 151.688 308.319 151.004 308.395 150.392M308.395 150.392C308.514 149.426 307.212 148.636 306.158 148.25L298.804 143.183C267.137 121.807 245.789 125.254 237.553 127.401C232.127 128.815 228.9 133.061 227.455 136.041M308.395 150.392C311.917 152.46 319.138 155.155 319.845 149.383C319.856 149.039 320.618 145.614 313.851 142.636C308.438 140.253 304.982 137.29 303.93 136.106C299.724 131.371 285.86 120.758 264.048 116.188C256.101 114.523 249.627 114.389 244.479 115.088M296.749 135.873C286.408 128.87 259.531 116.456 234.758 122.827M248.883 110.178C256.486 103.987 280.693 96.2411 316.698 114.791M248.883 110.178C248.689 110.355 248.448 110.582 248.177 110.845M244.479 115.088C245.368 113.701 247.036 111.952 248.177 110.845" stroke="black" stroke-width="2"/>
<rect width="19.5944" height="10.3415" transform="matrix(-0.999475 -0.032404 -0.0317985 0.999494 274.333 142.411)" fill="black"/>
<rect width="19.5944" height="10.3415" transform="matrix(-0.999475 -0.032404 -0.0317985 0.999494 204.533 137.194)" fill="black"/>
<path d="M422.594 312.721L402.903 306.96C403.01 292.962 397.813 285.309 395.201 283.233L387.966 284.706C387.975 284.405 387.761 282.875 387.498 281.003C387.017 277.567 386.374 272.978 386.656 272.711C383.439 267.484 372.139 255.849 352.669 251.12C353.977 249.882 364.795 242.122 368.378 235.835C376.572 239.658 394.883 250.696 404.26 264.318L403.627 284.215C416.868 288.358 421.802 304.079 422.594 312.721Z" fill="black" fill-opacity="0.25"/>
<path fill-rule="evenodd" clip-rule="evenodd" d="M384.587 390.885L391.619 395.809L406.323 398.846L405.869 373.22C415.134 369.081 417.623 362.645 417.709 359.944L403.864 356.507C398.883 364.2 389.417 367.564 385.306 368.285L384.587 390.885ZM151.205 350.023C151.482 351.056 151.781 352.062 152.099 353.04C153.362 356.93 154.923 360.392 156.616 363.432C158.701 367.172 160.986 370.273 163.167 372.743C166.056 376.014 168.762 378.177 170.572 379.251L164.433 332.951C162.789 342.118 154.929 348.152 151.205 350.023Z" fill="black" fill-opacity="0.25"/>
<path d="M385.306 368.285C389.417 367.564 398.883 364.2 403.864 356.507L401.357 355.572C397.356 353.735 393.983 339.255 392.796 332.244C390.922 337.989 378.626 339.041 372.712 338.85C372.965 352.176 381.214 364.026 385.306 368.285Z" fill="black" fill-opacity="0.15"/>
<path d="M386.656 272.711C383.439 267.484 372.139 255.849 352.669 251.12C346.935 256.693 330.266 263.161 320.922 265.458C326.558 269.055 328.995 281.94 329.905 288.799C341.969 286.62 380.327 277.425 386.656 272.711Z" fill="black" fill-opacity="0.14"/>
<path d="M352.669 251.12C353.977 249.882 364.795 242.122 368.378 235.835C379.785 218.419 392.095 173.514 348.333 134.872L348.744 148.545C357.839 163.923 371.358 205.966 352.669 251.12Z" fill="black" fill-opacity="0.25"/>
<path d="M320.922 265.458C330.266 263.161 346.935 256.693 352.669 251.12C371.358 205.966 357.839 163.923 348.744 148.545C359.165 225.036 334.538 258.358 320.922 265.458Z" fill="black" fill-opacity="0.15"/>
<path d="M164.433 332.951L170.572 379.251L183.225 467.522L186.271 469.06L164.195 287.269C169.268 278.469 180.96 260.066 187.151 256.852L184.698 254.211C176.705 261.778 160.147 278.942 157.859 287.063L159.211 296.498L161.146 310.007L164.433 332.951Z" fill="black" fill-opacity="0.15"/>
<path d="M152.071 309.499C154.083 308.284 158.715 306.684 161.146 310.007L159.211 296.498C156.443 297.433 153.298 305.555 152.071 309.499Z" fill="black" fill-opacity="0.1"/>
<path fill-rule="evenodd" clip-rule="evenodd" d="M385.306 368.285L384.587 390.885L347.342 365.395C347.813 355.007 348.729 332.437 348.619 325.263C348.509 318.088 337.799 319.647 332.458 321.324L329.905 288.799C341.969 286.62 380.327 277.425 386.656 272.711C386.374 272.978 387.017 277.567 387.498 281.003C387.761 282.875 387.975 284.405 387.966 284.706C370.154 291.641 370.375 323.691 372.712 338.85C372.965 352.176 381.214 364.026 385.306 368.285Z" fill="black" fill-opacity="0.14"/>
<path d="M332.458 321.324L329.905 288.799C322.925 290.125 315.179 291.213 298.489 292.722C293.863 293.141 288.551 293.591 282.377 294.088C237.016 297.74 231.183 294.99 231.02 300.107C228.797 306.182 230.26 319.576 231.46 326.16C243.605 326.664 255.443 326.531 269.071 326.867C270.597 326.905 272.145 326.949 273.719 327C298.36 325.711 320.996 323.046 332.458 321.324Z" fill="black" fill-opacity="0.14"/>
<path d="M296.452 485.974L300.602 438.959C299.085 437.235 297.045 433.606 296.743 429.016C296.557 426.196 297.027 423.013 298.678 419.688C298.001 419.318 297.225 418.729 296.452 417.908C294.349 415.676 292.263 411.731 292.211 405.818C292.188 403.229 292.556 400.261 293.483 396.896C295.514 395.59 298.862 393.966 303.229 392.578C304.468 392.185 305.79 391.81 307.187 391.467C311.381 390.437 316.255 389.693 321.624 389.579L321.878 381.595L295.28 380.306C293.177 379.953 289.033 377.286 289.282 369.44C289.29 369.205 289.225 368.221 289.296 366.879C289.484 363.356 290.613 357.369 296.475 356.014C301.247 354.91 311.031 353.375 321.054 354.317C325.937 354.776 330.877 355.822 335.321 357.793C337.226 358.638 339.041 359.652 340.72 360.863L344.031 363.129L347.342 365.395C347.813 355.007 348.729 332.437 348.619 325.263C348.509 318.088 337.799 319.647 332.458 321.324C320.996 323.046 298.36 325.711 273.719 327C252.868 331.122 213.596 329.422 200.502 328.998C190.004 328.657 188.112 337.418 188.294 340.554L207.211 477.517C241.748 486.476 261.231 489.376 296.452 485.974Z" fill="black" fill-opacity="0.14"/>
<path d="M164.195 287.269L186.271 469.06L193.124 472.519C188.413 447.802 173.98 354.518 167.997 287.392C172.779 278.867 184.048 261.361 190.872 259.534L187.151 256.852C180.96 260.066 169.268 278.469 164.195 287.269Z" fill="black" fill-opacity="0.07"/>
<path d="M207.211 477.517L188.294 340.554C188.112 337.418 190.004 328.657 200.502 328.998C213.596 329.422 252.868 331.122 273.719 327C272.145 326.949 270.597 326.905 269.071 326.867C261.825 328.682 206.02 328.323 191.658 327.857C180.168 327.485 178.169 335.388 178.606 339.386L200.502 475.21L207.211 477.517Z" fill="black" fill-opacity="0.08"/>
<path d="M231.46 326.16C230.26 319.576 228.797 306.182 231.02 300.107C231.183 294.99 237.016 297.74 282.377 294.088L257.414 294.56C251.037 295.633 212.992 295.254 203.263 295.365C195.48 295.454 191.736 298.833 190.836 300.511L191.77 324.343L231.46 326.16Z" fill="black" fill-opacity="0.07"/>
<path d="M329.905 288.799C328.995 281.94 326.558 269.055 320.922 265.458C317.118 268.06 301.46 270.231 294.106 270.991C297.715 274.523 298.532 286.95 298.489 292.722C315.179 291.213 322.925 290.125 329.905 288.799Z" fill="black" fill-opacity="0.06"/>
<path d="M156.616 363.432C89.3665 426.229 44.3384 400.963 31.4879 378.157C36.9134 393.7 58.2669 421.626 100.278 408.987C100.318 407.708 128.68 406.762 163.167 372.743C160.986 370.273 158.701 367.172 156.616 363.432Z" fill="black" fill-opacity="0.25"/>
<path d="M31.4879 378.157C44.3384 400.963 89.3665 426.229 156.616 363.432C154.923 360.392 153.362 356.93 152.099 353.04C89.9696 408.673 55.6099 399.425 37.4366 373.654C36.014 371.637 34.6906 369.518 33.4607 367.321C26.7738 355.377 22.8552 341.125 20.8115 328.294C18.7203 340.862 27.0578 366.772 31.4879 378.157Z" fill="black" fill-opacity="0.12"/>
<path d="M89.4785 362.962C66.8286 359.974 61.2213 332.987 61.9502 306.578C59.5486 325.993 61.6729 365.049 89.3836 365.947C102.901 366.386 114.365 362.262 128.011 348.007C108.635 362.109 94.8723 364.213 89.4785 362.962Z" fill="black" fill-opacity="0.13"/>
<path d="M67.1358 268.349C70.0965 261.662 85.7761 230.553 87.3055 218.612C85.404 219.555 82.9488 220.581 80.0224 221.585C80.7247 230.368 72.0128 255.646 67.1358 268.349Z" fill="black" fill-opacity="0.17"/>
<path d="M67.1358 268.349C72.0128 255.646 80.7247 230.368 80.0224 221.585C76.6314 222.749 72.6076 223.883 68.0793 224.825C72.0086 228.708 68.7799 256.203 66.6651 269.53C66.7059 269.355 66.8694 268.951 67.1358 268.349Z" fill="black" fill-opacity="0.1"/>
<path d="M80.0224 221.585C82.9488 220.581 85.404 219.555 87.3055 218.612C88.8092 213.88 87.5587 210.652 86.7455 209.63C86.2613 212.41 84.7954 214.038 83.1966 215.064C81.3786 216.231 79.3889 216.621 78.4754 217.045C77.7761 217.332 77.0632 217.497 76.3448 217.559C80.3635 218.839 80.471 220.776 80.0224 221.585Z" fill="black" fill-opacity="0.17"/>
<path d="M68.0793 224.825C72.6076 223.883 76.6314 222.749 80.0224 221.585C80.471 220.776 80.3635 218.839 76.3448 217.559C72.6431 217.877 68.7927 215.45 65.8762 212.795C64.365 211.419 63.1046 209.983 62.2454 208.835L64.5745 202.081C64.0573 202.183 63.5516 202.264 63.0574 202.326C56.8058 203.107 52.3786 200.781 49.4872 197.825C47.9488 196.252 46.8451 194.502 46.1326 192.946C45.8513 192.332 45.6309 191.748 45.4689 191.217L42.4849 191.974L42.1864 201.355C41.7399 204.756 36.5593 205.441 34.0248 205.359L31.655 213.393C46.6925 208.581 62.2035 219.009 68.0793 224.825Z" fill="black" fill-opacity="0.1"/>
<path d="M31.655 213.393L34.0248 205.359C36.5593 205.441 41.7399 204.756 42.1864 201.355L42.4849 191.974C43.2367 189.608 41.9611 181.855 41.2293 178.274C37.0937 176.136 34.4578 177.956 32.8531 181.844C31.5715 184.949 30.9476 189.374 30.7429 194.154C30.6114 197.224 30.6527 200.44 30.8036 203.547C30.9758 207.097 31.291 210.505 31.655 213.393Z" fill="black" fill-opacity="0.21"/>
<path d="M86.7455 209.63C102.416 174.281 101.491 158.173 99.0696 154.537C91.3494 148.229 84.7426 150.196 80.4934 153.615C96.1225 151.475 95.8927 156.924 93.8242 159.916C99.352 166.925 89.0424 199.602 83.1966 215.064C84.7954 214.038 86.2613 212.41 86.7455 209.63Z" fill="black" fill-opacity="0.2"/>
<path d="M63.0574 202.326C63.5516 202.264 64.0573 202.183 64.5745 202.081L70.5815 186.055C70.6053 184.707 70.6045 183.122 70.5704 181.359C67.1795 185.006 64.1488 196.856 63.0574 202.326Z" fill="black" fill-opacity="0.2"/>
<path d="M48.5134 135.397C63.8398 132.137 64.9198 138.063 63.544 141.433C68.776 151.641 70.3528 170.11 70.5704 181.359C70.6045 183.122 70.6053 184.707 70.5815 186.055C72.0146 183.54 74.9364 177.83 75.1584 175.105L68.8165 135.201C56.8649 125.423 49.3646 135.222 48.5134 135.397Z" fill="black" fill-opacity="0.2"/>
<path d="M49.4872 197.825C49.2292 197.207 50.3611 187.281 51.5622 179.462C52.1905 175.372 53.696 171.46 54.1732 170.156C52.2436 168.049 51.5901 166.779 50.5478 164.489L46.1326 192.946C46.8451 194.502 47.9488 196.252 49.4872 197.825Z" fill="black" fill-opacity="0.1"/>
<path d="M64.5745 202.081L62.2454 208.835C63.1046 209.983 64.365 211.419 65.8762 212.795C66.8275 209.139 68.4334 203.456 70.1971 198.135C72.0407 192.574 74.4655 187.848 76.0864 185.807C75.8671 182.954 75.0474 176.467 75.1584 175.105C74.9364 177.83 72.0146 183.54 70.5815 186.055L64.5745 202.081Z" fill="black" fill-opacity="0.1"/>
<path d="M32.8531 181.844C34.4578 177.956 37.0937 176.136 41.2293 178.274C29.2216 156.968 12.568 175.363 12.1368 175.623C26.9719 166.542 32.129 175.987 32.8531 181.844Z" fill="black" fill-opacity="0.1"/>
<path d="M76.0864 185.807C74.4655 187.848 72.0407 192.574 70.1971 198.135C71.2747 195.278 74.1929 189.502 78.8263 192.725C76.8363 188.819 76.2922 187.936 76.0864 185.807Z" fill="black" fill-opacity="0.1"/>
<path d="M54.1732 170.156C53.696 171.46 52.1905 175.372 51.5622 179.462C52.2093 177.491 55.2046 174.117 62.0092 176.386C59.5063 175.309 55.1219 172.236 54.1732 170.156Z" fill="black" fill-opacity="0.1"/>
<path d="M22.7244 268.169C21.1557 286.473 18.5768 324.124 20.8115 328.294C22.8552 341.125 26.7738 355.377 33.4607 367.321C22.1827 343.942 26.0619 294.634 29.8269 270.855C27.5263 270.13 25.1551 269.243 22.7244 268.169Z" fill="black" fill-opacity="0.05"/>
<path d="M11.9253 222.144C14.7301 235.895 20.8167 264.35 22.7244 268.169C25.1551 269.243 27.5263 270.13 29.8269 270.855C25.4737 257.052 17.3077 228.408 19.4696 224.254C16.973 223.656 14.4557 222.956 11.9253 222.144Z" fill="black" fill-opacity="0.05"/>
<path d="M11.9253 222.144C14.4557 222.956 16.973 223.656 19.4696 224.254C18.5037 223.601 16.2638 221.346 15.0315 217.549L12.156 214.895L10.8702 215.436L11.9253 222.144Z" fill="black" fill-opacity="0.05"/>
<path d="M403.864 356.507L417.709 359.944C420.927 359.72 432.138 364.26 440.603 368C426.094 360.512 400.132 342.424 392.796 332.244C393.983 339.255 397.356 353.735 401.357 355.572L403.864 356.507Z" fill="black" fill-opacity="0.1"/>
<path d="M329.433 416.416L335.563 416.615C337.816 416.688 342.409 414.105 342.757 403.189C342.163 402.55 341.871 401.19 341.522 399.567C340.91 396.717 340.123 393.055 337.223 391.057C336.233 390.846 335.252 390.661 334.281 390.498C329.84 389.754 325.597 389.494 321.624 389.579C337.993 406.747 311.663 415.619 296.452 417.908C297.225 418.729 298.001 419.318 298.678 419.688C298.693 419.226 305.683 417.987 313.189 417.12C313.735 417.057 314.284 416.996 314.833 416.938C320.664 416.315 326.524 415.964 329.433 416.416Z" fill="black" fill-opacity="0.15"/>
<path d="M295.28 380.306L321.878 381.595C322.51 381.301 329.322 381.671 334.613 380.064C336.501 379.49 338.195 378.664 339.346 377.466C340.586 373.949 342.596 365.705 340.72 360.863C339.041 359.652 337.226 358.638 335.321 357.793C341.819 376.86 311.334 380.746 295.28 380.306Z" fill="black" fill-opacity="0.15"/>
<path d="M296.475 356.014C290.613 357.369 289.484 363.356 289.296 366.879C292.846 362.344 304.167 353.482 321.054 354.317C311.031 353.375 301.247 354.91 296.475 356.014Z" fill="black" fill-opacity="0.1"/>
<path d="M293.483 396.896C292.556 400.261 292.188 403.229 292.211 405.818C293.745 402.101 297.763 395.272 303.229 392.578C298.862 393.966 295.514 395.59 293.483 396.896Z" fill="black" fill-opacity="0.1"/>
<path d="M298.678 419.688C297.027 423.013 296.557 426.196 296.743 429.016C298.825 425.462 304.88 418.442 313.189 417.12C305.683 417.987 298.693 419.226 298.678 419.688Z" fill="black" fill-opacity="0.1"/>
<path d="M262.751 90.2251L273.74 84.2521L270.359 80.4124L274.162 43.2939C277.826 42.0141 283.546 37.4066 277.122 29.2151C278.108 32.4859 278.559 39.2837 272.473 40.3076L267.401 79.1322C265.57 80.8387 261.062 84.5079 257.681 85.5318C258.357 86.2144 261.343 88.9451 262.751 90.2251Z" fill="black" fill-opacity="0.25"/>
<path d="M264.02 78.2789L271.205 40.3076C269.937 39.5966 267.317 36.9798 266.979 32.2014C265.57 33.7658 264.02 38.0038 269.092 42.4408L261.484 78.2789C259.09 78.99 254.131 80.9241 253.454 82.972L254.3 84.2521C256.32 82.6876 261.093 79.3028 264.02 78.2789Z" fill="black" fill-opacity="0.15"/>
<path d="M176.112 220.655C173.436 230.793 186.678 247.23 261.062 231.87C233.95 236.51 179.002 240.762 176.112 220.655Z" fill="black" fill-opacity="0.25"/>
<path d="M180.761 219.924L180.761 216.085L165.124 210.538L163.011 216.085C165.662 217.797 171.122 220.461 176.112 220.655C177.752 220.718 179.34 220.515 180.761 219.924Z" fill="black" fill-opacity="0.15"/>
<path d="M184.698 254.211L187.151 256.852L190.872 259.534C195.672 261.974 206.542 267.111 211.614 268.135C204.97 264.011 191.521 254.739 190.872 250.643L178.648 247.23C180.287 249.557 183.79 254.211 184.698 254.211Z" fill="black" fill-opacity="0.1"/>
<path d="M171.886 170.86C166.476 172.226 162.024 185.935 160.475 192.619L164.932 194.419C165.836 194.615 166.75 194.97 167.66 195.52L173.154 197.739C169.435 187.158 174.704 177.118 177.803 173.42L171.886 170.86Z" fill="black" fill-opacity="0.1"/>
<path d="M160.475 192.619C158.221 191.482 153.713 191.169 153.713 199.019C155.61 196.816 160.123 193.376 164.932 194.419L160.475 192.619Z" fill="black" fill-opacity="0.25"/>
<path d="M320.922 226.751C323.932 217.507 325.64 199.19 308.397 199.872C314.877 199.019 327.669 199.872 326.993 210.112C326.317 220.351 322.664 225.471 320.922 226.751Z" fill="black" fill-opacity="0.1"/>
<path d="M337.559 208.405C339.954 202.432 340.264 190.913 322.344 192.619C326.993 192.477 336.544 195.435 337.559 208.405Z" fill="black" fill-opacity="0.1"/>
<path d="M171.886 170.86L177.803 173.42C182.029 175.554 196.399 175.89 197.244 175.98C183.382 174.615 177.38 168.869 176.112 166.167L167.66 164.034C168.211 166.163 170.985 170.512 171.886 170.86Z" fill="black" fill-opacity="0.12"/>
<path d="M156.671 147.395C161.038 154.364 178.141 166.594 211.614 159.768C202.316 163.181 178.395 167.106 157.094 155.501C157.094 153.795 154.981 149.528 156.671 147.395Z" fill="black" fill-opacity="0.12"/>
<path d="M242.466 172.14C245.988 172.994 254.131 174.7 258.526 174.7C260.217 175.98 266.133 181.953 279.235 181.953C270.219 182.807 249.989 182.551 241.198 174.7C239.648 173.278 236.295 170.093 235.281 168.727L242.466 172.14Z" fill="black" fill-opacity="0.12"/>
<path d="M227.251 161.048C235.14 167.021 256.075 176.407 276.699 166.167C266.274 169.723 241.79 172.396 227.251 154.648L227.251 161.048Z" fill="black" fill-opacity="0.12"/>
<path d="M245.002 115.823C250.778 115.112 266.894 115.738 285.152 123.93C278.813 119.521 262.583 110.874 248.383 111.557C247.256 112.695 245.002 115.141 245.002 115.823Z" fill="black" fill-opacity="0.12"/>
<path d="M248.383 111.557C262.583 110.874 278.813 119.521 285.152 123.93C270.275 112.666 256.131 109.461 250.919 109.267C250.462 109.468 250.038 109.664 249.651 109.85L248.383 111.557Z" fill="black" fill-opacity="0.05"/>
<path d="M283.462 104.731C276.136 102.598 259.371 99.2697 250.919 103.024L249.651 109.85C250.038 109.664 250.462 109.468 250.919 109.267C257.767 106.246 272.051 101.851 283.462 104.731Z" fill="black" fill-opacity="0.12"/>
<path d="M172.309 113.69C182.029 112.268 204.598 111.13 217.108 117.957C211.05 113.975 194.117 106.779 174.844 109.85L172.309 113.69Z" fill="black" fill-opacity="0.12"/>
<path d="M174.844 109.85C194.117 106.779 211.05 113.975 217.108 117.957C209.67 111.13 190.623 107.148 182.029 106.011C179.324 107.035 176.112 108.997 174.844 109.85Z" fill="black" fill-opacity="0.05"/>
<path d="M192.595 103.024C199.78 102.455 217.023 101.915 228.519 104.304C219.362 101.602 199.526 96.6245 193.44 98.3311L192.595 103.024Z" fill="black" fill-opacity="0.12"/>
<path fill-rule="evenodd" clip-rule="evenodd" d="M406.175 451.76L386.159 448.3C382.063 451.144 361.538 450.565 347.108 449.623C347.11 449.538 347.113 449.453 347.116 449.368C346.953 454.654 346.779 459.56 346.627 463.88C346.627 463.881 346.627 463.883 346.627 463.885C346.388 470.633 346.201 475.951 346.181 479.055L405.869 467.137L406.175 451.76Z" fill="black" fill-opacity="0.25"/>
<path fill-rule="evenodd" clip-rule="evenodd" d="M296.452 485.974L300.602 438.959C313.548 439.521 337.438 435.799 329.433 416.416L335.563 416.615C337.816 416.688 342.409 414.105 342.757 403.189C342.163 402.55 341.871 401.19 341.522 399.567C340.91 396.717 340.123 393.055 337.223 391.057C336.233 390.846 335.252 390.661 334.281 390.498C335.484 388.114 337.236 382.691 334.613 380.064C336.501 379.49 338.195 378.664 339.346 377.466C340.586 373.949 342.596 365.705 340.72 360.863L344.031 363.129C346.541 373.324 347.486 389.934 347.681 407.551L339.346 444.072C332.678 446.532 329.959 441.688 329.433 438.959C322.758 441.447 313.088 440.957 306.204 439.977L326.383 444.072C328.552 446.506 334.182 450.914 339.346 449.069C344.51 447.224 341.739 448.3 339.709 449.069C341.854 449.253 344.371 449.445 347.108 449.623C346.947 454.812 346.777 459.629 346.627 463.88L346.627 463.885C346.388 470.633 346.201 475.951 346.181 479.055L296.452 485.974Z" fill="black" fill-opacity="0.15"/>
<path d="M347.25 444.84L339.346 444.072C332.678 446.532 329.959 441.688 329.433 438.959C322.758 441.447 313.088 440.957 306.204 439.977L326.383 444.072C328.552 446.506 334.182 450.914 339.346 449.069C344.51 447.224 341.739 448.3 339.709 449.069C341.854 449.253 344.371 449.445 347.108 449.623L347.116 449.368C347.161 447.887 347.206 446.376 347.25 444.84Z" fill="black" fill-opacity="0.36"/>
<path fill-rule="evenodd" clip-rule="evenodd" d="M402.903 306.96L422.594 312.721C478.192 330.232 497.037 365.219 499.51 380.525C500.555 387.531 502.56 401.625 502.211 401.955C502.09 402.07 501.817 402.899 501.35 404.317C500.132 408.016 497.596 415.716 493.016 425.135C487.949 435.557 473.865 442.3 467.456 444.369C441.648 448.678 428.514 448.118 406.323 444.369L387.301 440.996C383.847 443.457 359.161 444.584 347.25 444.84L339.346 444.072L347.681 407.551C347.486 389.934 346.541 373.324 344.031 363.129L347.342 365.395L384.587 390.885C410.146 427.157 478.879 442.727 485.152 400.247C489.856 368.39 430.676 324.508 398.543 311.087C399.147 309.826 400.864 307.235 402.903 306.96Z" fill="black" fill-opacity="0.16"/>
<path d="M406.175 451.76L406.323 444.369L387.301 440.996C383.847 443.457 359.161 444.584 347.25 444.84C347.206 446.376 347.161 447.887 347.116 449.368L347.108 449.623C361.538 450.565 382.063 451.144 386.159 448.3L406.175 451.76Z" fill="black" fill-opacity="0.36"/>
</g>
<defs>
<clipPath id="clip0_127_174">
<rect width="512" height="512" fill="white"/>
</clipPath>
</defs>
</svg>
