<svg width="512" height="512" viewBox="0 0 512 512" fill="none" xmlns="http://www.w3.org/2000/svg">
<path d="M36.503 208.22C38.4994 209.257 79.9908 258.663 100.487 283.236L103.916 287.393L149.843 279.657L471.557 225.466L384.164 175.216L345.636 178.912C361.686 182.137 396.915 190.119 409.433 196.246C421.951 202.372 445.988 218.022 454.4 224.111L138.99 277.272C136.072 276.509 133.232 275.722 131.298 275.167L106.354 263.08L59.1164 213.488L124.886 205.251L132.941 199.317L105.678 201.932L36.503 208.22Z" fill="#6A8343"/>
<path d="M59.1164 213.488L106.354 263.08L131.298 275.167C133.232 275.722 136.072 276.509 138.99 277.272L454.4 224.111C445.988 218.022 421.951 202.372 409.433 196.246C396.915 190.119 361.686 182.137 345.636 178.912L132.941 199.317L124.886 205.251L59.1164 213.488Z" fill="#DCEBC2"/>
<path fill-rule="evenodd" clip-rule="evenodd" d="M97.9685 198.264C63.5729 204.475 29.812 201.45 17.231 199.161C17.8524 201.064 19.3189 203.761 21.4472 207.062C29.8865 220.155 48.732 242.768 66.5635 263.191L93.8359 293.687L253.921 268.159L260.901 267.046L270.357 265.538L355.466 251.966L364.697 250.494L371.902 249.345L501.591 228.665L393.592 171.137L97.9685 198.264ZM100.487 283.236C79.9908 258.663 38.4994 209.257 36.503 208.22L105.678 201.932L132.941 199.317L345.636 178.912L384.164 175.216L471.557 225.466L149.843 279.657L103.916 287.393L100.487 283.236Z" fill="#DCEBC2"/>
<path d="M485.006 340.268L497.492 286.333L488.503 289.303C457.305 296.559 417.266 305.852 375.341 315.554L369.382 371.21L485.006 340.268Z" fill="#DCEBC2"/>
<path d="M501.591 228.665L371.902 249.345C369.735 270.995 365.41 315.004 365.442 317.845L370.166 316.752L372.596 316.189L375.341 315.554C417.266 305.852 457.305 296.559 488.503 289.303L490.557 279.787L501.591 228.665Z" fill="#DCEBC2"/>
<path d="M250.478 344.348C187.427 358.818 137.884 370.04 131.907 370.978L127.504 371.84C115.057 374.714 100.912 381.35 94.8415 384.636L84.8192 371.501L84.484 447.453L88.3071 446.429L281.484 394.733L286.475 336.072C279.554 337.665 272.719 339.238 266.001 340.782C263.053 341.46 260.127 342.132 257.227 342.798C254.961 343.318 252.711 343.835 250.478 344.348Z" fill="#DCEBC2"/>
<path d="M131.907 370.978C137.884 370.04 187.427 358.818 250.478 344.348L253.921 268.159L93.8359 293.687L93.6456 378.468L127.504 371.84C129.002 371.494 130.475 371.203 131.907 370.978Z" fill="#DCEBC2"/>
<path d="M11.0086 268.776L11.98 356.635L84.484 447.453L84.8192 371.501L61.2667 340.633L18.1707 284.151L18.0877 276.645L11.0086 268.776Z" fill="#DCEBC2"/>
<path d="M18.0877 276.645L18.1707 284.151L61.2667 340.633L93.6456 378.468L93.8359 293.687C86.4592 285.649 76.6743 274.772 66.5635 263.191L16.4168 207.118L16.517 211.29L17.8543 266.933L18.0877 276.645Z" fill="#DCEBC2"/>
<path d="M93.6456 378.468L61.2667 340.633L84.8192 371.501L94.8415 384.636C100.912 381.35 115.057 374.714 127.504 371.84L93.6456 378.468Z" fill="#6A8343"/>
<path d="M88.3071 446.429L92.4189 451.118L285.032 393.784L281.484 394.733L88.3071 446.429Z" fill="#6A8343"/>
<path d="M488.503 289.303L497.492 286.333L490.557 279.787L488.503 289.303Z" fill="#6A8343"/>
<path d="M358.692 319.405C355.846 320.064 352.996 320.723 350.143 321.382C332.744 325.403 315.261 329.439 298.173 333.377L292.954 391.664L357.946 374.271L363.867 318.209C362.144 318.607 360.419 319.006 358.692 319.405Z" fill="url(#paint0_linear_127_332)"/>
<path d="M281.484 394.733L285.032 393.784L290.749 335.087L288.779 335.541L286.475 336.072L281.484 394.733Z" fill="url(#paint1_linear_127_332)"/>
<path d="M253.921 268.159L250.478 344.348C252.711 343.835 254.961 343.318 257.227 342.798C257.189 339.325 259.66 290.85 260.901 267.046L253.921 268.159Z" fill="url(#paint2_linear_127_332)"/>
<path d="M270.357 265.538L266.001 340.782C272.719 339.238 279.554 337.665 286.475 336.072L288.779 335.541L290.749 335.087C293.215 334.52 295.69 333.949 298.173 333.377C315.261 329.439 332.744 325.403 350.143 321.382C350.825 317.782 353.976 273.605 355.466 251.966L270.357 265.538Z" fill="url(#paint3_linear_127_332)"/>
<path d="M364.697 250.494L358.692 319.405C360.419 319.006 362.144 318.607 363.867 318.209L365.442 317.845C365.41 315.004 369.735 270.995 371.902 249.345L364.697 250.494Z" fill="url(#paint4_linear_127_332)"/>
<path d="M370.166 316.752L364.467 372.526L369.382 371.21L375.341 315.554L372.596 316.189L370.166 316.752Z" fill="url(#paint5_linear_127_332)"/>
<path d="M290.749 335.087L285.032 393.784L292.954 391.664L298.173 333.377C295.69 333.949 293.215 334.52 290.749 335.087Z" fill="url(#paint6_linear_127_332)"/>
<path d="M260.901 267.046C259.66 290.85 257.189 339.325 257.227 342.798C260.127 342.132 263.053 341.46 266.001 340.782L270.357 265.538L260.901 267.046Z" fill="url(#paint7_linear_127_332)"/>
<path d="M355.466 251.966C353.976 273.605 350.825 317.782 350.143 321.382C352.996 320.723 355.846 320.064 358.692 319.405L364.697 250.494L355.466 251.966Z" fill="url(#paint8_linear_127_332)"/>
<path d="M365.442 317.845L363.867 318.209L357.946 374.271L364.467 372.526L370.166 316.752L365.442 317.845Z" fill="url(#paint9_linear_127_332)"/>
<path fill-rule="evenodd" clip-rule="evenodd" d="M131.907 370.978L127.504 371.84C129.002 371.494 130.475 371.203 131.907 370.978ZM66.5635 263.191L93.8359 293.687C86.4592 285.649 76.6743 274.772 66.5635 263.191Z" fill="#D9D9D9"/>
<path d="M21.4472 207.062L16.4168 207.118L66.5635 263.191C48.732 242.768 29.8865 220.155 21.4472 207.062Z" fill="#6A8343"/>
<path d="M11.0086 268.776L18.0877 276.645L17.8543 266.933L11.0086 268.776Z" fill="#6A8343"/>
<path d="M11.0086 268.776L11.98 356.635L84.484 447.453M11.0086 268.776L18.0877 276.645M11.0086 268.776L17.8543 266.933M18.0877 276.645L18.1707 284.151L61.2667 340.633M18.0877 276.645L17.8543 266.933M131.907 370.978C137.884 370.04 187.427 358.818 250.478 344.348M131.907 370.978L127.504 371.84M131.907 370.978C130.475 371.203 129.002 371.494 127.504 371.84M488.503 289.303L497.492 286.333M488.503 289.303L490.557 279.787M488.503 289.303C457.305 296.559 417.266 305.852 375.341 315.554M501.591 228.665L393.592 171.137L97.9685 198.264C63.5729 204.475 29.812 201.45 17.231 199.161C17.8524 201.064 19.3189 203.761 21.4472 207.062M501.591 228.665L371.902 249.345M501.591 228.665L490.557 279.787M93.8359 293.687L253.921 268.159M93.8359 293.687L93.6456 378.468M93.8359 293.687L66.5635 263.191M93.8359 293.687C86.4592 285.649 76.6743 274.772 66.5635 263.191M16.4168 207.118L21.4472 207.062M16.4168 207.118L66.5635 263.191M16.4168 207.118L16.517 211.29L17.8543 266.933M21.4472 207.062C29.8865 220.155 48.732 242.768 66.5635 263.191M93.6456 378.468L61.2667 340.633M93.6456 378.468L127.504 371.84M61.2667 340.633L84.8192 371.501M250.478 344.348L253.921 268.159M250.478 344.348C252.711 343.835 254.961 343.318 257.227 342.798M253.921 268.159L260.901 267.046M257.227 342.798C257.189 339.325 259.66 290.85 260.901 267.046M257.227 342.798C260.127 342.132 263.053 341.46 266.001 340.782M260.901 267.046L270.357 265.538M266.001 340.782L270.357 265.538M266.001 340.782C272.719 339.238 279.554 337.665 286.475 336.072M270.357 265.538L355.466 251.966M350.143 321.382C350.825 317.782 353.976 273.605 355.466 251.966M350.143 321.382C352.996 320.723 355.846 320.064 358.692 319.405M350.143 321.382C332.744 325.403 315.261 329.439 298.173 333.377M355.466 251.966L364.697 250.494M358.692 319.405L364.697 250.494M358.692 319.405C360.419 319.006 362.144 318.607 363.867 318.209M364.697 250.494L371.902 249.345M365.442 317.845C365.41 315.004 369.735 270.995 371.902 249.345M365.442 317.845C364.917 317.966 364.392 318.087 363.867 318.209M365.442 317.845C367.018 317.48 368.593 317.115 370.166 316.752M365.442 317.845L370.166 316.752M365.442 317.845L363.867 318.209M84.484 447.453L88.3071 446.429M84.484 447.453L84.8192 371.501M497.492 286.333L485.006 340.268L369.382 371.21M497.492 286.333L490.557 279.787M88.3071 446.429L92.4189 451.118L285.032 393.784M88.3071 446.429L281.484 394.733M285.032 393.784L281.484 394.733M285.032 393.784L290.749 335.087M285.032 393.784L292.954 391.664M281.484 394.733L286.475 336.072M286.475 336.072L288.779 335.541M286.475 336.072C287.242 335.895 288.01 335.718 288.779 335.541M290.749 335.087C293.215 334.52 295.69 333.949 298.173 333.377M290.749 335.087L288.779 335.541M290.749 335.087C290.092 335.239 289.435 335.39 288.779 335.541M292.954 391.664L298.173 333.377M292.954 391.664L357.946 374.271M357.946 374.271L363.867 318.209M357.946 374.271L364.467 372.526M370.166 316.752L364.467 372.526M370.166 316.752L372.596 316.189M370.166 316.752C370.977 316.564 371.787 316.377 372.596 316.189M364.467 372.526L369.382 371.21M369.382 371.21L375.341 315.554M375.341 315.554L372.596 316.189M375.341 315.554C374.427 315.766 373.512 315.977 372.596 316.189M84.8192 371.501L94.8415 384.636C100.912 381.35 115.057 374.714 127.504 371.84M132.941 199.317L105.678 201.932L36.503 208.22C38.4994 209.257 79.9908 258.663 100.487 283.236L103.916 287.393L149.843 279.657L471.557 225.466L384.164 175.216L345.636 178.912M132.941 199.317L124.886 205.251L59.1164 213.488L106.354 263.08L131.298 275.167C133.232 275.722 136.072 276.509 138.99 277.272L454.4 224.111C445.988 218.022 421.951 202.372 409.433 196.246C396.915 190.119 361.686 182.137 345.636 178.912M132.941 199.317L345.636 178.912" stroke="black" stroke-width="2"/>
<path d="M250.405 344.106C187.354 358.577 137.811 369.799 131.834 370.736L127.431 371.598C114.984 374.473 100.839 381.109 94.7687 384.395L84.7464 371.259L84.4112 447.211L88.2343 446.188L281.412 394.491L299.404 330.59C292.483 332.183 285.648 333.756 278.93 335.3C275.982 335.977 260.054 341.89 257.154 342.556C254.889 343.077 252.638 343.593 250.405 344.106Z" fill="black" fill-opacity="0.2"/>
<path d="M131.834 370.736C137.811 369.799 187.354 358.577 250.405 344.106L253.848 267.917L93.7631 293.445L93.5728 378.226L127.431 371.598C128.929 371.252 130.402 370.961 131.834 370.736Z" fill="black" fill-opacity="0.2"/>
<path d="M10.9358 268.534L11.9072 356.393L84.4112 447.211L84.7464 371.259L61.1939 340.391L18.0979 283.909L18.0149 276.403L10.9358 268.534Z" fill="black" fill-opacity="0.2"/>
<path d="M18.0149 276.403L18.0979 283.909L61.1939 340.391L93.5728 378.226L93.7631 293.445C86.3864 285.407 76.6016 274.53 66.4907 262.95L16.344 206.877L16.4442 211.049L17.7815 266.692L18.0149 276.403Z" fill="black" fill-opacity="0.2"/>
<path d="M93.5728 378.226L61.1939 340.391L84.7464 371.259L94.7687 384.395C100.839 381.109 114.984 374.473 127.431 371.598L93.5728 378.226Z" fill="black" fill-opacity="0.2"/>
<path d="M88.2343 446.188L92.3461 450.876L284.959 393.542L281.412 394.491L88.2343 446.188Z" fill="black" fill-opacity="0.2"/>
<path d="M281.412 394.491L284.959 393.542L303.678 329.605L301.708 330.059L299.404 330.59L281.412 394.491Z" fill="black" fill-opacity="0.2"/>
<path d="M253.848 267.917L250.405 344.106C252.638 343.593 254.889 343.077 257.154 342.556C257.116 339.083 259.587 290.608 260.828 266.804L253.848 267.917Z" fill="black" fill-opacity="0.2"/>
<path d="M303.678 329.605L284.959 393.542L292.881 391.422L311.102 327.895C308.619 328.467 306.144 329.037 303.678 329.605Z" fill="black" fill-opacity="0.2"/>
<path d="M260.828 266.804C259.587 290.608 257.116 339.083 257.154 342.556C260.054 341.89 275.982 335.977 278.93 335.3L283.286 260.056L260.828 266.804Z" fill="black" fill-opacity="0.2"/>
<path fill-rule="evenodd" clip-rule="evenodd" d="M131.834 370.736L127.431 371.598C128.929 371.252 130.402 370.961 131.834 370.736ZM66.4907 262.95L93.7631 293.445C86.3864 285.407 76.6016 274.53 66.4907 262.95Z" fill="black" fill-opacity="0.2"/>
<path d="M21.3744 206.821L16.344 206.877L66.4907 262.95C48.6592 242.526 29.8137 219.913 21.3744 206.821Z" fill="black" fill-opacity="0.2"/>
<path d="M10.9358 268.534L18.0149 276.403L17.7815 266.692L10.9358 268.534Z" fill="black" fill-opacity="0.2"/>
<path d="M97.8958 198.023C63.5001 204.233 29.7392 201.208 17.1582 198.92C17.7796 200.823 19.2461 203.519 21.3744 206.821C29.8137 219.913 48.6592 242.526 66.4907 262.95L93.7631 293.445L253.848 267.917L260.828 266.804L283.286 260.056L294.413 257.598C248.508 252.169 177.764 213.414 138.918 194.259L97.8958 198.023Z" fill="black" fill-opacity="0.2"/>
<path d="M283.286 260.056L278.93 335.3C285.648 333.756 292.483 332.183 299.404 330.59L301.708 330.059L303.678 329.605C306.144 329.037 308.619 328.467 311.102 327.895L351.786 320.574C378.15 275.966 405.403 280.07 401.679 278.808C359.164 264.39 294.45 261.337 294.413 257.598L283.286 260.056Z" fill="black" fill-opacity="0.2"/>
<path d="M311.102 327.895L292.881 391.422L315.217 385.639C311.238 386.378 328.838 362.751 351.786 320.574L311.102 327.895Z" fill="black" fill-opacity="0.2"/>
<path d="M84.4986 233.773C90.4771 233.706 95.3481 233.266 98.76 231.81C100.531 231.055 102.049 229.969 103.096 228.401C104.147 226.826 104.57 224.993 104.548 223.014C104.522 220.661 103.437 218.437 101.934 216.54C100.412 214.62 98.3175 212.846 95.9035 211.344C91.0859 208.344 84.6748 206.225 78.1562 206.298C72.0906 206.365 66.8787 206.991 63.1126 208.605C61.1982 209.425 59.5234 210.556 58.3323 212.125C57.114 213.73 56.5251 215.633 56.5484 217.743C56.5757 220.208 57.8598 222.433 59.5233 224.246C61.2151 226.091 63.5165 227.757 66.1106 229.15C71.2903 231.932 78.0415 233.844 84.4986 233.773Z" fill="#4A5C2F" stroke="#9AA588" stroke-width="5"/>
<path d="M119.368 281.16C123.17 281.117 126.729 280.848 129.402 279.688C130.845 279.062 132.234 278.093 133.218 276.593C134.206 275.088 134.549 273.409 134.531 271.779C134.507 269.559 133.51 267.626 132.364 266.154C131.188 264.646 129.628 263.32 127.91 262.232C124.491 260.067 119.949 258.529 115.267 258.581C111.324 258.625 107.595 259.03 104.732 260.277C103.247 260.924 101.794 261.882 100.717 263.326C99.6007 264.822 99.0902 266.573 99.1105 268.407C99.137 270.803 100.352 272.779 101.618 274.182C102.925 275.632 104.631 276.868 106.451 277.862C110.075 279.843 114.787 281.211 119.368 281.16Z" fill="#4A5C2F" stroke="#9AA588" stroke-width="8"/>
<path d="M133.962 270.629C139.054 277.559 147.749 285.493 158.841 289.66C158.077 287.314 157.455 283.616 157.918 279.811C158.459 275.358 160.484 270.758 165.504 268.006C160.849 265.577 157.305 261.684 155.314 258.505C151.406 257.91 144.352 258.32 139.208 262.564C136.947 264.431 135.054 267.039 133.962 270.629Z" fill="#68984C"/>
<path d="M124.079 253.429C124.725 259.625 130.937 267.477 133.962 270.629C135.054 267.039 136.947 264.431 139.208 262.564C144.352 258.32 151.406 257.91 155.314 258.505L154.657 250.885C152.451 253.675 144.074 254.327 136.043 254.181C131.574 254.1 127.211 253.772 124.079 253.429Z" fill="#68984C"/>
<path d="M158.841 289.66C165.505 292.164 173.034 293.308 181.166 292.056C182.159 290.215 183.314 287.266 183.894 283.894C184.701 279.209 184.4 273.708 181.017 269.229C175.122 271.256 169.833 270.264 165.504 268.006C160.484 270.758 158.459 275.358 157.918 279.811C157.455 283.616 158.077 287.314 158.841 289.66Z" fill="#68984C"/>
<path d="M196.23 265.45C194.188 264.947 192.173 264.379 190.205 263.761C187.022 266.472 183.945 268.223 181.017 269.229C184.4 273.708 184.701 279.209 183.894 283.894C183.314 287.266 182.159 290.215 181.166 292.056C189.074 290.839 197.553 287.356 206.361 280.656C206.186 277.544 205.14 270.403 202.36 266.733C200.302 266.381 198.252 265.947 196.23 265.45Z" fill="#68984C"/>
<path d="M206.361 280.656C210.984 277.14 215.698 272.736 220.468 267.308C214.667 268.112 208.474 267.779 202.36 266.733C205.14 270.403 206.186 277.544 206.361 280.656Z" fill="#68984C"/>
<path d="M182.431 236.925C179.442 238.552 174.732 242.355 172.711 247.597C171.717 250.173 171.373 253.096 172.201 256.278C177.141 258.901 183.398 261.625 190.205 263.761C192.173 264.379 194.188 264.947 196.23 265.45C195.427 263.94 194.662 261.153 194.902 257.607C195.16 253.777 196.591 249.061 200.409 244.112C195.358 242.809 189.414 240.476 182.431 236.925Z" fill="#68984C"/>
<path d="M154.657 250.885L172.201 256.278C171.373 253.096 171.717 250.173 172.711 247.597C174.732 242.355 179.442 238.552 182.431 236.925L169.196 221.442L160.718 222.147L157.158 239.027L154.657 250.885Z" fill="#68984C"/>
<path d="M227.393 210.159C227.904 219.332 227.646 228.105 225.175 234.603C226.912 234.32 228.539 234.184 230.059 234.171C240.599 234.077 246.017 239.852 247.503 243.162C247.779 242.379 248.066 241.365 248.344 240.124C249.271 235.988 250.098 229.335 250.101 220.331C250.102 214.624 249.773 207.972 248.927 200.419C243.341 196.09 238.382 195.395 234.49 196.246C230.815 197.05 228.092 199.232 226.689 201.035C226.973 204.075 227.224 207.139 227.393 210.159Z" fill="#68984C"/>
<path d="M248.268 195.128C247.78 191.564 247.18 187.821 246.452 183.903C243.775 180.724 238.293 176.832 232.584 178.93C232.25 179.053 231.915 179.196 231.58 179.362C229.413 180.43 227.235 182.412 225.186 185.672C225.495 189.246 225.901 193.056 226.292 196.956C226.428 198.307 226.562 199.669 226.689 201.035C228.092 199.232 230.815 197.05 234.49 196.246C238.382 195.395 243.341 196.09 248.927 200.419C248.847 199.702 248.762 198.977 248.672 198.244C248.547 197.221 248.412 196.182 248.268 195.128Z" fill="#68984C"/>
<path d="M305.91 228.435C307.363 230.736 309.318 233.531 311.629 236.457C312.237 234.15 313.753 230.556 316.28 227.617C318.46 225.082 321.392 223.036 325.142 222.724C321.401 217.358 318.685 212.093 317.363 208.98C316.261 212.24 314.818 215.478 312.984 218.664C311.07 221.99 308.73 225.259 305.91 228.435Z" fill="#68984C"/>
<path d="M327.647 226.119C326.768 224.996 325.932 223.858 325.142 222.724C321.392 223.036 318.46 225.082 316.28 227.617C313.753 230.556 312.237 234.15 311.629 236.457C315.683 241.587 320.834 247.115 326.299 251.072C328.012 249.421 330.4 246.621 332.141 243.466C334.035 240.036 335.165 236.187 333.835 232.939C332.853 232.025 331.902 231.062 330.985 230.065C330.748 229.808 330.514 229.548 330.282 229.286C329.367 228.255 328.487 227.194 327.647 226.119Z" fill="#68984C"/>
<path d="M326.299 251.072C331.479 254.821 336.941 257.159 342.018 256.407C345.263 255.926 347.26 253.916 348.341 250.947C349.519 247.71 349.61 243.333 349.045 238.553C348.831 236.747 348.524 234.885 348.146 233.004C347.214 228.358 345.853 223.604 344.412 219.339C343.507 216.659 342.571 214.173 341.69 212.027C340.353 211.543 338.651 210.91 336.772 210.189C334.681 209.386 332.371 208.473 330.104 207.535C326.482 206.035 322.969 204.47 320.629 203.181C321.276 205.165 322.118 207.771 322.993 210.517C324.127 214.076 325.317 217.87 326.212 220.853C326.996 223.465 327.553 225.455 327.647 226.119C328.487 227.194 329.367 228.255 330.282 229.286C330.514 229.548 330.748 229.808 330.985 230.065C331.902 231.062 332.853 232.025 333.835 232.939C335.165 236.187 334.035 240.036 332.141 243.466C330.4 246.621 328.012 249.421 326.299 251.072Z" fill="#68984C"/>
<path d="M319.153 202.299C319.566 202.573 320.063 202.869 320.629 203.181C322.969 204.47 326.482 206.035 330.104 207.535C329.729 205.461 329.574 202.057 330.252 198.333C331.027 194.07 332.893 189.387 336.769 185.805C334.998 185.08 333.174 184.265 331.379 183.37C329.002 182.184 326.676 180.857 324.598 179.407C321.622 177.332 319.153 175.006 317.764 172.489C319.16 177.717 320.073 183.23 320.245 188.867C320.38 193.294 320.058 197.798 319.153 202.299Z" fill="#68984C"/>
<path d="M350.735 190.29C349.215 189.957 347.661 189.547 346.147 189.042C343.702 188.373 340.346 187.271 336.769 185.805C332.893 189.387 331.027 194.07 330.252 198.333C329.574 202.057 329.729 205.461 330.104 207.535C332.371 208.473 334.681 209.386 336.772 210.189C338.651 210.91 340.353 211.543 341.69 212.027C344.094 212.587 346.806 213.087 349.652 213.448C348.232 211.743 346.582 208.559 346.226 204.527C345.865 200.435 346.837 195.469 350.735 190.29Z" fill="#68984C"/>
<path d="M331.379 183.37C330.266 177.494 331.14 164.359 343.542 158.832C340.897 155.649 334.468 151.092 325.193 150.599C320.772 150.364 315.705 151.053 310.093 153.254C313.106 158.874 315.876 165.42 317.764 172.489C319.153 175.006 321.622 177.332 324.598 179.407C326.676 180.857 329.002 182.184 331.379 183.37Z" fill="#68984C"/>
<path d="M370.589 178.645C375.553 183.306 378.312 188.407 379.209 190.952C381.651 198.105 381.118 203.202 378.727 206.754C389.113 197.557 391.591 185.919 391.532 181.25C391.834 177.721 389.549 168.327 377.992 158.982C370.966 153.301 362.215 153.051 354.935 154.592C350.24 155.586 346.156 157.325 343.542 158.832C331.14 164.359 330.266 177.494 331.379 183.37C333.174 184.265 334.998 185.08 336.769 185.805C340.346 187.271 343.702 188.373 346.147 189.042C344.919 180.19 350.739 176.143 356.658 174.564C359.291 173.861 361.943 173.646 364.004 173.714C366.525 175.187 368.714 176.885 370.589 178.645Z" fill="#68984C"/>
<path d="M361.626 191.592C364.48 189.512 371.992 186.471 379.209 190.952C378.312 188.407 375.553 183.306 370.589 178.645C365.659 177.874 361.739 178.822 358.713 180.537C354.143 183.128 351.614 187.47 350.735 190.29C355.351 191.301 359.66 191.591 361.626 191.592Z" fill="#68984C"/>
<path d="M346.147 189.042C347.661 189.547 349.215 189.957 350.735 190.29C351.614 187.47 354.143 183.128 358.713 180.537C361.739 178.822 365.659 177.874 370.589 178.645C368.714 176.885 366.525 175.187 364.004 173.714C361.943 173.646 359.291 173.861 356.658 174.564C350.739 176.143 344.919 180.19 346.147 189.042Z" fill="#68984C"/>
<path d="M361.626 191.592C359.66 191.591 355.351 191.301 350.735 190.29C346.837 195.469 345.865 200.435 346.226 204.527C346.582 208.559 348.232 211.743 349.652 213.448C354.174 214.021 359.035 214.244 363.541 213.797C364.314 212.279 365.149 209.86 365.515 206.98C366.094 202.423 365.499 196.712 361.626 191.592Z" fill="#68984C"/>
<path d="M379.209 190.952C371.992 186.471 364.48 189.512 361.626 191.592C365.499 196.712 366.094 202.423 365.515 206.98C365.149 209.86 364.314 212.279 363.541 213.797C370.032 213.154 375.786 211.123 378.727 206.754C381.118 203.202 381.651 198.105 379.209 190.952Z" fill="#68984C"/>
<path d="M169.196 221.442L182.431 236.925C189.414 240.476 195.358 242.809 200.409 244.112C201.807 244.472 203.137 244.754 204.402 244.961C211.68 236.636 226.466 218.021 227.393 210.159C227.224 207.139 226.973 204.075 226.689 201.035C226.562 199.669 226.428 198.307 226.292 196.956C217.747 192.733 215.682 184.818 215.718 181.389C215.774 173.541 218.569 168.495 222.175 165.358C218.558 156.432 208.005 137.405 194.72 132.699C187.483 135.359 172.061 143.634 168.265 155.458C174.439 155.629 186.811 156.245 186.905 157.334C187.023 158.694 207.742 174.925 187.111 216.525C185.792 218.554 188.613 227.447 179.738 221.935L169.196 221.442Z" fill="#717680"/>
<path d="M248.927 200.419C249.773 207.972 250.102 214.624 250.101 220.331C250.098 229.335 249.271 235.988 248.344 240.124L293.811 231.473C307.594 218.575 309.241 199.908 308.342 192.187C289.034 194.478 250.07 198.897 248.672 198.244C248.762 198.977 248.847 199.702 248.927 200.419Z" fill="#A2A9B7"/>
<path d="M254.121 173.809C256.709 184.339 251.297 192.409 248.268 195.128C248.412 196.182 248.547 197.221 248.672 198.244C250.07 198.897 289.034 194.478 308.342 192.187C309.241 199.908 307.594 218.575 293.811 231.473L305.105 229.324C305.378 229.029 305.646 228.732 305.91 228.435C308.73 225.259 311.07 221.99 312.984 218.664C314.818 215.478 316.261 212.24 317.363 208.98C318.113 206.76 318.704 204.53 319.153 202.299C320.058 197.798 320.38 193.294 320.245 188.867C320.073 183.23 319.16 177.717 317.764 172.489C315.876 165.42 313.106 158.874 310.093 153.254C307.527 148.468 304.785 144.354 302.261 141.159L194.72 132.699C208.005 137.405 218.558 156.432 222.175 165.358C223.633 164.089 225.225 163.132 226.822 162.429C229.718 161.153 232.63 160.712 234.796 160.751C240.159 160.716 251.533 163.279 254.121 173.809Z" fill="#A2A9B7"/>
<path d="M246.452 183.903C247.18 187.821 247.78 191.564 248.268 195.128C251.297 192.409 256.709 184.339 254.121 173.809C251.533 163.279 240.159 160.716 234.796 160.751C232.63 160.712 229.718 161.153 226.822 162.429C225.225 163.132 223.633 164.089 222.175 165.358C218.569 168.495 215.774 173.541 215.718 181.389C215.682 184.818 217.747 192.733 226.292 196.956C225.901 193.056 225.495 189.246 225.186 185.672C227.235 182.412 229.413 180.43 231.58 179.362C231.915 179.196 232.25 179.053 232.584 178.93C238.293 176.832 243.775 180.724 246.452 183.903Z" fill="#A2A9B7"/>
<path d="M210.736 245.367C208.833 245.468 206.728 245.341 204.402 244.961C203.137 244.754 201.807 244.472 200.409 244.112C196.591 249.061 195.16 253.777 194.902 257.607C194.662 261.153 195.427 263.94 196.23 265.45C198.252 265.947 200.302 266.381 202.36 266.733C208.474 267.779 214.667 268.112 220.468 267.308C221.352 267.186 222.226 267.037 223.089 266.861C223.958 265.239 224.866 262.724 225.22 259.804C225.799 255.021 222.995 248.27 217.991 243.457C215.983 244.55 213.586 245.215 210.736 245.367Z" fill="#68984C"/>
<path d="M242.826 253.857C244.762 250.877 246.349 247.336 247.503 243.162C246.017 239.852 240.599 234.077 230.059 234.171C228.539 234.184 226.912 234.32 225.175 234.603C223.697 238.489 221.428 241.562 218.058 243.42C218.036 243.432 218.013 243.445 217.991 243.457C222.995 248.27 225.799 255.021 225.22 259.804C224.866 262.724 223.958 265.239 223.089 266.861C230.993 265.244 237.997 261.292 242.826 253.857Z" fill="#68984C"/>
<path d="M227.393 210.159C226.466 218.021 211.68 236.636 204.402 244.961C206.728 245.341 208.833 245.468 210.736 245.367C213.586 245.215 215.983 244.55 217.991 243.457C218.013 243.445 218.036 243.432 218.058 243.42C221.428 241.562 223.697 238.489 225.175 234.603C227.646 228.105 227.904 219.332 227.393 210.159Z" fill="#A2A9B7"/>
<path d="M172.201 256.278L154.657 250.885M172.201 256.278C171.373 253.096 171.717 250.173 172.711 247.597C174.732 242.355 179.442 238.552 182.431 236.925M172.201 256.278C177.141 258.901 183.398 261.625 190.205 263.761M154.657 250.885L157.158 239.027L160.718 222.147L169.196 221.442M154.657 250.885L155.314 258.505M154.657 250.885C152.451 253.675 144.074 254.327 136.043 254.181C131.574 254.1 127.211 253.772 124.079 253.429C124.725 259.625 130.937 267.477 133.962 270.629M169.196 221.442L182.431 236.925M169.196 221.442L179.738 221.935C188.613 227.447 185.792 218.554 187.111 216.525C207.742 174.925 187.023 158.694 186.905 157.334C186.811 156.245 174.439 155.629 168.265 155.458C172.061 143.634 187.483 135.359 194.72 132.699M182.431 236.925C189.414 240.476 195.358 242.809 200.409 244.112M247.503 243.162C246.349 247.336 244.762 250.877 242.826 253.857C237.997 261.292 230.993 265.244 223.089 266.861M247.503 243.162C247.779 242.379 248.066 241.365 248.344 240.124M247.503 243.162C246.017 239.852 240.599 234.077 230.059 234.171C228.539 234.184 226.912 234.32 225.175 234.603M248.268 195.128C247.78 191.564 247.18 187.821 246.452 183.903C243.775 180.724 238.293 176.832 232.584 178.93C232.25 179.053 231.915 179.196 231.58 179.362C229.413 180.43 227.235 182.412 225.186 185.672C225.495 189.246 225.901 193.056 226.292 196.956M248.268 195.128C251.297 192.409 256.709 184.339 254.121 173.809C251.533 163.279 240.159 160.716 234.796 160.751C232.63 160.712 229.718 161.153 226.822 162.429C225.225 163.132 223.633 164.089 222.175 165.358M248.268 195.128C248.412 196.182 248.547 197.221 248.672 198.244M226.292 196.956C217.747 192.733 215.682 184.818 215.718 181.389C215.774 173.541 218.569 168.495 222.175 165.358M226.292 196.956C226.428 198.307 226.562 199.669 226.689 201.035M204.402 244.961C211.68 236.636 226.466 218.021 227.393 210.159M204.402 244.961C206.728 245.341 208.833 245.468 210.736 245.367M204.402 244.961C203.137 244.754 201.807 244.472 200.409 244.112M227.393 210.159C227.904 219.332 227.646 228.105 225.175 234.603M227.393 210.159C227.224 207.139 226.973 204.075 226.689 201.035M210.736 245.367C213.586 245.215 215.983 244.55 217.991 243.457M210.736 245.367C213.618 245.213 216.036 244.535 218.058 243.42M196.23 265.45C194.188 264.947 192.173 264.379 190.205 263.761M196.23 265.45C198.252 265.947 200.302 266.381 202.36 266.733M196.23 265.45C195.427 263.94 194.662 261.153 194.902 257.607C195.16 253.777 196.591 249.061 200.409 244.112M223.089 266.861C222.226 267.037 221.352 267.186 220.468 267.308M223.089 266.861C223.958 265.239 224.866 262.724 225.22 259.804C225.799 255.021 222.995 248.27 217.991 243.457M217.991 243.457C218.013 243.445 218.036 243.432 218.058 243.42M225.175 234.603C223.697 238.489 221.428 241.562 218.058 243.42M250.101 220.331C250.102 214.624 249.773 207.972 248.927 200.419M250.101 220.331C250.098 229.335 249.271 235.988 248.344 240.124M250.101 220.331C247.796 217.595 242.069 213.542 234.608 214.469C232.523 214.729 230.302 215.377 227.982 216.552M226.689 201.035C228.092 199.232 230.815 197.05 234.49 196.246C238.382 195.395 243.341 196.09 248.927 200.419M248.927 200.419C248.847 199.702 248.762 198.977 248.672 198.244M222.175 165.358C218.558 156.432 208.005 137.405 194.72 132.699M194.72 132.699L302.261 141.159C304.785 144.354 307.527 148.468 310.093 153.254M248.344 240.124L293.811 231.473M248.672 198.244C250.07 198.897 289.034 194.478 308.342 192.187C309.241 199.908 307.594 218.575 293.811 231.473M293.811 231.473L305.105 229.324C305.378 229.029 305.646 228.732 305.91 228.435M305.91 228.435C307.363 230.736 309.318 233.531 311.629 236.457M305.91 228.435C308.73 225.259 311.07 221.99 312.984 218.664C314.818 215.478 316.261 212.24 317.363 208.98M341.69 212.027C342.571 214.173 343.507 216.659 344.412 219.339M341.69 212.027C344.094 212.587 346.806 213.087 349.652 213.448M341.69 212.027C340.353 211.543 338.651 210.91 336.772 210.189C334.681 209.386 332.371 208.473 330.104 207.535M319.153 202.299C318.704 204.53 318.113 206.76 317.363 208.98M319.153 202.299C319.566 202.573 320.063 202.869 320.629 203.181M319.153 202.299C320.058 197.798 320.38 193.294 320.245 188.867C320.073 183.23 319.16 177.717 317.764 172.489M317.363 208.98C318.685 212.093 321.401 217.358 325.142 222.724M337.454 235.953C336.207 235.036 334.999 234.022 333.835 232.939M320.629 203.181C322.969 204.47 326.482 206.035 330.104 207.535M320.629 203.181C321.276 205.165 322.118 207.771 322.993 210.517M327.647 226.119C326.768 224.996 325.932 223.858 325.142 222.724M327.647 226.119C328.487 227.194 329.367 228.255 330.282 229.286C330.514 229.548 330.748 229.808 330.985 230.065M327.647 226.119C327.553 225.455 326.996 223.465 326.212 220.853M311.629 236.457C315.683 241.587 320.834 247.115 326.299 251.072M311.629 236.457C312.237 234.15 313.753 230.556 316.28 227.617C318.46 225.082 321.392 223.036 325.142 222.724M326.299 251.072C331.479 254.821 336.941 257.159 342.018 256.407C345.263 255.926 347.26 253.916 348.341 250.947C349.519 247.71 349.61 243.333 349.045 238.553C348.831 236.747 348.524 234.885 348.146 233.004M326.299 251.072C328.012 249.421 330.4 246.621 332.141 243.466C334.035 240.036 335.165 236.187 333.835 232.939M333.835 232.939C332.853 232.025 331.902 231.062 330.985 230.065M344.412 219.339C337.154 216.242 328.478 216.279 326.212 220.853M344.412 219.339C345.853 223.604 347.214 228.358 348.146 233.004M326.212 220.853C325.317 217.87 324.127 214.076 322.993 210.517M379.209 190.952C371.992 186.471 364.48 189.512 361.626 191.592M379.209 190.952C378.312 188.407 375.553 183.306 370.589 178.645M379.209 190.952C381.651 198.105 381.118 203.202 378.727 206.754M346.147 189.042C347.661 189.547 349.215 189.957 350.735 190.29M346.147 189.042C343.702 188.373 340.346 187.271 336.769 185.805M346.147 189.042C344.919 180.19 350.739 176.143 356.658 174.564C359.291 173.861 361.943 173.646 364.004 173.714C366.525 175.187 368.714 176.885 370.589 178.645M317.764 172.489C315.876 165.42 313.106 158.874 310.093 153.254M317.764 172.489C319.153 175.006 321.622 177.332 324.598 179.407C326.676 180.857 329.002 182.184 331.379 183.37M361.626 191.592C359.66 191.591 355.351 191.301 350.735 190.29M361.626 191.592C365.499 196.712 366.094 202.423 365.515 206.98C365.149 209.86 364.314 212.279 363.541 213.797M350.735 190.29C351.614 187.47 354.143 183.128 358.713 180.537C361.739 178.822 365.659 177.874 370.589 178.645M350.735 190.29C346.837 195.469 345.865 200.435 346.226 204.527C346.582 208.559 348.232 211.743 349.652 213.448M349.652 213.448C354.174 214.021 359.035 214.244 363.541 213.797M363.541 213.797C370.032 213.154 375.786 211.123 378.727 206.754M330.104 207.535C329.729 205.461 329.574 202.057 330.252 198.333C331.027 194.07 332.893 189.387 336.769 185.805M330.104 207.535C326.766 206.188 323.973 208.962 322.993 210.517M336.769 185.805C334.998 185.08 333.174 184.265 331.379 183.37M378.727 206.754C389.113 197.557 391.591 185.919 391.532 181.25C391.834 177.721 389.549 168.327 377.992 158.982C370.966 153.301 362.215 153.051 354.935 154.592C350.24 155.586 346.156 157.325 343.542 158.832M331.379 183.37C330.266 177.494 331.14 164.359 343.542 158.832M343.542 158.832C340.897 155.649 334.468 151.092 325.193 150.599C320.772 150.364 315.705 151.053 310.093 153.254M155.314 258.505C157.305 261.684 160.849 265.577 165.504 268.006M155.314 258.505C151.406 257.91 144.352 258.32 139.208 262.564C136.947 264.431 135.054 267.039 133.962 270.629M133.962 270.629C139.054 277.559 147.749 285.493 158.841 289.66M220.468 267.308C215.698 272.736 210.984 277.14 206.361 280.656M220.468 267.308C214.667 268.112 208.474 267.779 202.36 266.733M190.205 263.761C187.022 266.472 183.945 268.223 181.017 269.229M158.841 289.66C165.505 292.164 173.034 293.308 181.166 292.056M158.841 289.66C158.077 287.314 157.455 283.616 157.918 279.811C158.459 275.358 160.484 270.758 165.504 268.006M165.504 268.006C169.833 270.264 175.122 271.256 181.017 269.229M181.166 292.056C189.074 290.839 197.553 287.356 206.361 280.656M181.166 292.056C182.159 290.215 183.314 287.266 183.894 283.894C184.701 279.209 184.4 273.708 181.017 269.229M206.361 280.656C206.186 277.544 205.14 270.403 202.36 266.733M348.146 233.004C340.982 226.295 333.721 228.249 330.985 230.065" stroke="black" stroke-width="2"/>
<path d="M133.962 270.629C135.055 267.039 136.947 264.431 139.209 262.564C137.946 260.057 136.878 257.272 136.043 254.181C131.574 254.1 127.212 253.772 124.079 253.428C124.726 259.625 130.937 267.477 133.962 270.629Z" fill="black" fill-opacity="0.3"/>
<path d="M133.962 270.629C139.054 277.559 147.75 285.493 158.842 289.66C158.078 287.314 157.456 283.616 157.918 279.811C150.354 276.638 143.599 271.278 139.209 262.564C136.947 264.431 135.055 267.039 133.962 270.629Z" fill="black" fill-opacity="0.3"/>
<path d="M158.842 289.66C165.506 292.164 173.035 293.307 181.166 292.056C182.16 290.215 183.314 287.266 183.895 283.894C175.649 284.156 166.288 283.322 157.918 279.811C157.456 283.616 158.078 287.314 158.842 289.66Z" fill="black" fill-opacity="0.3"/>
<path d="M181.166 292.056C189.075 290.839 197.553 287.356 206.361 280.656C205.965 280.689 196.164 283.505 183.895 283.894C183.314 287.266 182.16 290.215 181.166 292.056Z" fill="black" fill-opacity="0.3"/>
<path d="M154.657 250.885L172.201 256.278C171.373 253.096 171.718 250.173 172.711 247.597L157.158 239.027L154.657 250.885Z" fill="black" fill-opacity="0.3"/>
<path d="M172.711 247.597C171.718 250.173 171.373 253.096 172.201 256.278C177.142 258.901 183.398 261.625 190.205 263.761C192.174 264.379 194.188 264.947 196.23 265.45C195.427 263.94 194.663 261.153 194.902 257.607C185.438 254.92 177.553 250.893 172.711 247.597Z" fill="black" fill-opacity="0.3"/>
<path d="M223.09 266.86C223.958 265.239 224.867 262.724 225.22 259.804C214.522 261.528 203.985 260.185 194.902 257.607C194.663 261.153 195.427 263.94 196.23 265.45C198.253 265.947 200.302 266.381 202.361 266.733C208.474 267.779 214.667 268.112 220.469 267.308C221.352 267.186 222.226 267.037 223.09 266.86Z" fill="black" fill-opacity="0.3"/>
<path d="M223.09 266.86C230.994 265.244 237.998 261.292 242.827 253.857C237.053 256.974 231.112 258.854 225.22 259.804C224.867 262.724 223.958 265.239 223.09 266.86Z" fill="black" fill-opacity="0.3"/>
<path d="M230.06 234.171C232.288 229.622 233.984 223.283 234.608 214.469C234.975 209.294 234.972 203.266 234.491 196.246C230.816 197.049 228.092 199.232 226.69 201.035C226.973 204.075 227.225 207.139 227.393 210.159C227.904 219.332 227.646 228.105 225.176 234.603C226.913 234.32 228.539 234.184 230.06 234.171Z" fill="black" fill-opacity="0.3"/>
<path d="M210.737 245.367C212.223 245.507 215.868 245.92 219.888 244.338C223.387 242.96 227.17 240.07 230.06 234.171C228.539 234.184 226.913 234.32 225.176 234.603C222.811 240.821 218.42 244.956 210.737 245.367Z" fill="black" fill-opacity="0.3"/>
<path d="M225.187 185.672C225.495 189.246 225.421 192.274 225.813 196.174C225.948 197.524 226.562 199.668 226.69 201.035C228.092 199.232 230.816 197.049 234.491 196.246C234.134 191.039 233.513 185.286 232.585 178.93C232.251 179.053 231.916 179.196 231.581 179.361C229.414 180.43 227.236 182.412 225.187 185.672Z" fill="black" fill-opacity="0.3"/>
<path d="M305.91 228.435C307.363 230.736 309.318 233.531 311.63 236.457C312.237 234.15 313.754 230.556 316.281 227.617C314.747 224.871 313.599 221.887 312.985 218.664C311.07 221.99 308.73 225.259 305.91 228.435Z" fill="black" fill-opacity="0.3"/>
<path d="M311.63 236.457C315.684 241.587 320.835 247.115 326.3 251.072C328.013 249.421 330.4 246.621 332.142 243.466C326.016 239.57 320.011 234.297 316.281 227.617C313.754 230.556 312.237 234.15 311.63 236.457Z" fill="black" fill-opacity="0.3"/>
<path d="M326.3 251.072C331.479 254.821 336.941 257.159 342.019 256.406C345.264 255.926 347.26 253.916 348.341 250.946C344.143 249.732 338.086 247.247 332.142 243.466C330.4 246.621 328.013 249.421 326.3 251.072Z" fill="black" fill-opacity="0.3"/>
<path d="M310.093 153.254C313.107 158.874 315.877 165.42 317.764 172.489C319.154 175.006 321.623 177.332 324.599 179.407C322.193 172.616 318.944 157.346 325.194 150.599C320.773 150.364 315.706 151.053 310.093 153.254Z" fill="black" fill-opacity="0.3"/>
<path d="M336.769 185.805C340.346 187.271 343.703 188.373 346.148 189.042C344.919 180.19 350.739 176.143 356.658 174.563C353.096 172.22 347.765 164.945 354.936 154.592C350.24 155.586 346.157 157.325 343.542 158.832C331.14 164.359 330.266 177.494 331.38 183.37C333.174 184.265 334.999 185.08 336.769 185.805Z" fill="black" fill-opacity="0.3"/>
<path d="M346.148 189.042C347.662 189.546 349.215 189.957 350.735 190.29C351.615 187.47 354.144 183.128 358.713 180.537C357.878 180.054 356.298 178.183 356.658 174.563C350.739 176.143 344.919 180.19 346.148 189.042Z" fill="black" fill-opacity="0.3"/>
<path d="M350.735 190.29C355.351 191.301 359.661 191.591 361.627 191.592C359.525 190.494 356.001 186.746 358.713 180.537C354.144 183.128 351.615 187.47 350.735 190.29Z" fill="black" fill-opacity="0.3"/>
<path d="M365.515 206.98C365.149 209.86 364.314 212.279 363.542 213.797C370.032 213.154 375.786 211.123 378.728 206.753C373.997 207.053 369.598 207.115 365.515 206.98Z" fill="black" fill-opacity="0.3"/>
<path d="M346.227 204.527C346.583 208.559 348.232 211.743 349.653 213.448C354.174 214.021 359.035 214.244 363.542 213.797C364.314 212.279 365.149 209.86 365.515 206.98C358.07 206.733 351.675 205.833 346.227 204.527Z" fill="black" fill-opacity="0.3"/>
<path d="M341.691 212.027C344.094 212.587 346.806 213.087 349.653 213.448C348.232 211.743 346.583 208.559 346.227 204.527C339.533 202.922 334.27 200.704 330.252 198.333C329.575 202.057 329.73 205.461 330.104 207.534C334.407 209.316 338.864 211.004 341.691 212.027Z" fill="black" fill-opacity="0.3"/>
<path d="M319.153 202.299C319.567 202.573 320.064 202.869 320.629 203.181C322.97 204.47 326.482 206.035 330.104 207.534C329.73 205.461 329.575 202.057 330.252 198.333C324.716 195.067 321.544 191.51 320.245 188.867C320.38 193.294 320.058 197.798 319.153 202.299Z" fill="black" fill-opacity="0.3"/>
<path d="M227.393 210.159C226.467 218.021 211.68 236.636 204.402 244.961C206.729 245.341 208.834 245.468 210.737 245.367C218.42 244.956 222.811 240.821 225.176 234.603C227.646 228.105 227.904 219.332 227.393 210.159Z" fill="black" fill-opacity="0.29"/>
<path d="M225.813 196.174C225.421 192.274 225.495 189.246 225.187 185.672C227.236 182.412 229.414 180.43 231.581 179.361C227.68 178.268 221.172 173.852 226.725 162.93C225.129 163.633 223.415 164.799 221.956 166.068C218.351 169.205 216.602 173.777 216.006 179.857C215.641 183.588 217.267 191.95 225.813 196.174Z" fill="black" fill-opacity="0.3"/>
<path d="M264.788 209.834C266.114 209.723 267.327 209.253 268.213 208.53C269.093 207.811 269.726 206.763 269.622 205.55C269.517 204.337 268.714 203.409 267.722 202.845C266.726 202.279 265.45 202.016 264.123 202.126C262.797 202.236 261.584 202.706 260.698 203.43C259.818 204.149 259.185 205.197 259.289 206.41C259.394 207.623 260.197 208.551 261.189 209.114C262.185 209.681 263.461 209.944 264.788 209.834Z" stroke="black" stroke-width="2"/>
<path d="M81.4723 147.822L80.516 148.137L79.3834 144.793L82.1223 147.063L81.4723 147.822ZM81.4723 147.822C82.1223 147.063 82.1224 147.063 82.1225 147.063L82.1229 147.064L82.1247 147.065L82.1316 147.071L82.1588 147.093L82.2654 147.182L82.6727 147.52C83.0251 147.812 83.5319 148.233 84.15 148.747C85.386 149.774 87.0668 151.172 88.846 152.657C92.3986 155.623 96.3605 158.947 97.9441 160.341L97.2728 161.079L97.9441 160.341C98.5232 160.851 98.8427 161.491 98.9183 162.188C98.9913 162.861 98.8323 163.529 98.567 164.135C98.0409 165.338 97.0078 166.506 95.8583 167.419C94.7075 168.334 93.326 169.085 92.0135 169.355C90.6973 169.625 89.1861 169.435 88.3199 168.071L88.3198 168.071C87.7169 167.121 86.9308 165.376 86.1099 163.375C85.2782 161.348 84.3792 158.978 83.5518 156.724C82.7239 154.468 81.9651 152.322 81.4135 150.74C81.1376 149.949 80.9134 149.299 80.7581 148.846C80.6804 148.62 80.62 148.443 80.5789 148.322L80.5321 148.185L80.5201 148.15L80.517 148.14L80.5163 148.138L80.5161 148.138C80.516 148.137 80.516 148.137 81.4723 147.822Z" fill="#717680" stroke="black" stroke-width="2"/>
<path d="M106.913 167.288L106.913 167.288C105.722 168.691 103.339 170.55 100.73 172.4C98.0889 174.273 95.1111 176.208 92.6458 177.768C91.9032 178.238 91.1316 178.491 90.3649 178.488C89.5906 178.484 88.8941 178.218 88.3196 177.771C87.1991 176.898 86.5848 175.386 86.457 173.751C86.1969 170.424 87.8783 166.054 92.6004 163.119C97.2481 160.229 101.4 160.175 104.179 161.366C105.548 161.953 106.615 162.861 107.171 163.908C107.738 164.978 107.783 166.263 106.913 167.288Z" fill="#A2A9B7" stroke="black" stroke-width="2"/>
<path d="M98.4465 172.773C96.3752 171.474 92.9657 168.678 92.7486 164.259L92.7224 164.223C84.375 169.723 87.2684 179.993 92.0806 176.948C94.0276 175.715 96.2912 174.251 98.4465 172.773Z" fill="#717680"/>
<path d="M87.7569 155.975L87.7569 155.975C84.2296 158.573 79.2338 157.859 76.5984 154.387C73.9633 150.915 74.6807 145.995 78.2079 143.397L78.2079 143.397C81.7359 140.799 86.731 141.514 89.3663 144.986C92.0015 148.457 91.2841 153.378 87.7569 155.975ZM78.8108 144.191L78.8108 144.191L78.8108 144.191Z" fill="#A2A9B7" stroke="black" stroke-width="2"/>
<path d="M80.355 143.37C80.4389 145.453 80.6973 148.591 81.4861 150.221C82.7316 152.797 86.1017 154.959 86.1017 154.959L86.5555 155.585C83.5797 157.418 79.5902 156.676 77.4075 153.793C75.1075 150.755 75.6844 146.49 78.6962 144.266C79.2164 143.882 79.775 143.584 80.355 143.37Z" fill="#717680"/>
<path fill-rule="evenodd" clip-rule="evenodd" d="M171.42 247.347C156.46 260.815 141.921 262.475 134.18 260.523C136.992 250.721 143.659 241.921 147.031 238.395C166.999 217.315 174.396 207.446 175.599 205.147C178.39 200.321 182.102 189.667 174.625 185.662C167.148 181.656 160.332 190.164 157.859 194.919C155.92 199.661 150.987 210.183 146.77 214.33C142.552 218.477 133.644 227.356 129.718 231.277C126.125 235.511 119.424 244.613 117.563 251.293C114.031 249.052 106.626 242.735 105.263 235.387C103.999 235.935 100.815 236.943 98.1953 236.587C95.9251 237.723 91.1969 239.078 90.4459 235.414C88.6819 235.391 86.026 234.88 84.1476 233.384C82.5972 232.149 81.5766 230.242 82.0245 227.382C79.9936 226.651 78.4397 224.445 80.5229 220.21C79.1093 217.34 78.3003 212.566 80.248 207.294C76.1445 200.646 73.8811 184.377 97.655 172.48C97.7776 165.848 101.331 159.669 103.929 156.58C117.606 138.585 140.387 143.777 150.068 148.623C159.894 141.134 176.443 142.61 183.489 144.284C213.045 154.09 205.571 190.115 198.139 206.902C190.076 226.186 180.668 239.022 171.42 247.347Z" fill="#68984C"/>
<path d="M124.239 259.708C121.812 260.675 116.981 260.951 117.073 254.325C117.086 253.399 117.26 252.378 117.563 251.293C119.424 244.613 126.125 235.511 129.718 231.277C133.644 227.356 142.552 218.477 146.77 214.33C150.987 210.183 155.92 199.661 157.859 194.919C160.332 190.164 167.148 181.656 174.625 185.662C182.102 189.667 178.39 200.321 175.599 205.147C174.396 207.446 166.999 217.315 147.031 238.395C143.659 241.921 136.992 250.721 134.18 260.523C133.78 261.92 133.457 263.337 133.234 264.762C129.654 265.998 122.842 266.719 124.239 259.708Z" fill="#AD683D"/>
<path d="M169.448 194.791C167.686 215.166 140.403 221.946 124.239 259.708M124.239 259.708C121.812 260.675 116.981 260.951 117.073 254.325C117.086 253.399 117.26 252.378 117.563 251.293M124.239 259.708C122.842 266.719 129.654 265.998 133.234 264.762C133.457 263.337 133.78 261.92 134.18 260.523M134.18 260.523C136.992 250.721 143.659 241.921 147.031 238.395C166.999 217.315 174.396 207.446 175.599 205.147C178.39 200.321 182.102 189.667 174.625 185.662C167.148 181.656 160.332 190.164 157.859 194.919C155.92 199.661 150.987 210.183 146.77 214.33C142.552 218.477 133.644 227.356 129.718 231.277C126.125 235.511 119.424 244.613 117.563 251.293M134.18 260.523C141.921 262.475 156.46 260.815 171.42 247.347C180.668 239.022 190.076 226.186 198.139 206.902C205.571 190.115 213.045 154.09 183.489 144.284C176.443 142.61 159.894 141.134 150.068 148.623M150.068 148.623L155.798 151.997M150.068 148.623C140.387 143.777 117.606 138.585 103.929 156.58C101.331 159.669 97.7776 165.848 97.655 172.48M100.82 182.763C102.228 176.742 109.053 163.87 125.097 160.549M100.82 182.763C100.117 185.601 99.9152 187.908 100.023 189.758M100.82 182.763C98.4449 179.457 97.5916 175.908 97.655 172.48M103.193 196.169C102.003 195.702 100.261 193.837 100.023 189.758M142.515 160.617C128.489 167.283 101.161 184.6 104.06 200.54L106.382 201.2M106.382 201.2C104.942 196.554 110.902 182.061 146.265 161.264M106.382 201.2C106.815 202.116 107.894 203.563 109.684 204.766M115.723 206.824C122.463 206.928 137.34 200.777 142.925 175.339M115.723 206.824C113.186 206.614 111.185 205.776 109.684 204.766M115.723 206.824C116.701 207.784 118.012 208.585 119.583 208.954M144.873 179.127C135.354 205.476 125.577 210.361 119.583 208.954M109.684 204.766C110.191 200.755 117.036 189.428 140.366 176.206M117.563 251.293C114.031 249.052 106.626 242.735 105.263 235.387M105.263 235.387C107.193 234.723 112.232 232.076 116.943 226.804M105.263 235.387C103.999 235.935 100.815 236.943 98.1953 236.587M119.583 208.954C116.236 214.255 116.428 223.062 116.943 226.804M116.943 226.804C117.118 227.865 117.669 230.542 118.473 232.758M98.1953 236.587C102.82 232.984 112.664 223.465 115.04 214.214M98.1953 236.587C95.9251 237.723 91.1969 239.078 90.4459 235.414M90.4459 235.414C102.311 233.913 109.874 219.736 112.172 212.835M90.4459 235.414C88.6819 235.391 86.026 234.88 84.1476 233.384M82.0245 227.382C82.4343 224.074 86.3597 215.233 98.7832 206.341M82.0245 227.382C79.9936 226.651 78.4397 224.445 80.5229 220.21M82.0245 227.382C81.5766 230.242 82.5972 232.149 84.1476 233.384M99.0162 202.176C87.7633 210.333 82.5019 216.187 80.5229 220.21M80.5229 220.21C79.1093 217.34 78.3003 212.566 80.248 207.294M100.023 189.758C88.0171 194.922 82.4194 201.417 80.248 207.294M80.248 207.294C76.1445 200.646 73.8811 184.377 97.655 172.48M84.1476 233.384C85.6034 227.842 92.128 214.98 106.58 207.859M160.24 184.009C164.648 177.403 173.843 175.796 181.361 181.284" stroke="black" stroke-width="2"/>
<path d="M117.016 254.317C116.919 260.985 121.779 260.704 124.221 259.73C122.812 266.785 129.663 266.056 133.265 264.809C133.491 263.375 133.816 261.949 134.22 260.544C142.004 262.504 155.872 262.342 170.928 248.783C165.661 245.22 158.921 240.215 151.661 234.185C149.531 232.416 147.356 230.558 145.161 228.623L138.811 222.852C130.228 214.805 121.683 205.743 114.587 196.284L110.268 190.199C109.49 189.035 108.739 187.868 108.015 186.698L102.76 177.057C100.924 173.134 99.4772 169.213 98.5122 165.335C97.5286 167.83 97.5902 169.103 97.5353 171.979C73.6153 183.964 75.882 200.332 80.0053 207.019C78.0429 212.324 78.8537 217.127 80.2739 220.014C78.1759 224.276 79.7375 226.496 81.7798 227.23C81.3275 230.107 82.3529 232.025 83.9116 233.267C85.8 234.772 88.4712 235.284 90.2454 235.306C90.9985 238.993 95.7552 237.626 98.0394 236.481C100.675 236.839 103.877 235.823 105.149 235.27C106.516 242.663 113.96 249.015 117.511 251.266C117.206 252.358 117.03 253.386 117.016 254.317Z" fill="black" fill-opacity="0.3"/>
<path d="M403.937 280.859C404.887 227.272 339.119 164.037 309.53 139.417C307.144 139.005 304.8 138.605 302.498 138.219C374.936 205.217 393.436 255.407 393.631 272.127C355.945 276.927 326.182 308.451 260.025 322.402C260.957 292.567 255.937 237.458 234.904 190.114C232.021 183.626 228.838 177.284 225.329 171.173C216.203 155.283 204.869 140.953 190.872 129.68C182.838 131.534 181.281 134.674 182.763 137.623C240.238 172.789 251.441 288.932 250.451 337.974C326.452 322.125 360.644 286.312 403.937 280.859Z" fill="#DCEBC2"/>
<path d="M260.025 322.402C326.182 308.451 355.945 276.927 393.631 272.127C393.436 255.407 374.936 205.217 302.498 138.219C300.385 137.864 298.307 137.52 296.264 137.186C349.227 188.527 367.811 224.642 370.483 236.281C350.77 241.305 353.165 256.914 356.827 264.091L295.67 291.004C289.938 277.825 278.71 278.982 269.841 283.827C265.57 247.872 255.412 217.315 243.639 192.81C239.935 192.051 236.987 191.079 234.904 190.114C255.937 237.458 260.957 292.567 260.025 322.402Z" fill="#6A8343"/>
<path d="M197.997 128.569C195.199 128.848 192.841 129.225 190.872 129.68C204.869 140.953 216.203 155.283 225.329 171.173C225.929 169.159 227.101 167.413 228.724 165.903C217.238 147.848 205.859 135.229 197.997 128.569Z" fill="#6A8343"/>
<path d="M269.841 283.827C278.71 278.982 289.938 277.825 295.67 291.004L356.827 264.091C353.165 256.914 350.77 241.305 370.483 236.281C367.811 224.642 349.227 188.527 296.264 137.186C243.5 128.576 213.765 127.001 197.997 128.569C205.859 135.229 217.238 147.848 228.724 165.903C239.317 156.049 269.124 156.253 284.633 157.888C308.088 158.599 345.904 164.381 309.53 181.821C280.952 195.522 257.215 195.592 243.639 192.81C255.412 217.315 265.57 247.872 269.841 283.827Z" fill="#DCEBC2"/>
<path d="M261.57 189.403C247.45 187.796 224.528 180.845 245.803 165.903L261.099 170.684C260.472 171.158 259.405 172.105 260.158 172.105C260.911 172.105 265.492 172.579 267.689 172.816C266.041 171.158 267.783 167.793 287.928 167.603L290.752 164.76C306.362 166.261 328.405 170.779 291.693 176.845L290.752 178.266L274.984 176.845L264.629 179.451L267.689 180.873L261.57 189.403Z" fill="#DCEBC2"/>
<path fill-rule="evenodd" clip-rule="evenodd" d="M309.53 181.821C345.904 164.381 308.088 158.599 284.633 157.888C269.124 156.253 239.317 156.049 228.724 165.903C227.101 167.413 225.929 169.159 225.329 171.173C228.838 177.284 232.021 183.626 234.904 190.114C236.987 191.079 239.935 192.051 243.639 192.81C257.215 195.592 280.952 195.522 309.53 181.821ZM245.803 165.903C224.528 180.845 247.45 187.796 261.57 189.403L267.689 180.873L264.629 179.451L274.984 176.845L290.752 178.266L291.693 176.845C328.405 170.779 306.362 166.261 290.752 164.76L287.928 167.603C267.783 167.793 266.041 171.158 267.689 172.816C265.492 172.579 260.911 172.105 260.158 172.105C259.405 172.105 260.472 171.158 261.099 170.684L245.803 165.903Z" fill="#6A8343"/>
<path d="M190.872 129.68C182.838 131.534 181.281 134.674 182.763 137.623C240.238 172.789 251.441 288.932 250.451 337.974C326.452 322.125 360.644 286.312 403.937 280.859C404.887 227.272 339.119 164.037 309.53 139.417C307.144 139.005 304.8 138.605 302.498 138.219M190.872 129.68C192.841 129.225 195.199 128.848 197.997 128.569M190.872 129.68C204.869 140.953 216.203 155.283 225.329 171.173M302.498 138.219C374.936 205.217 393.436 255.407 393.631 272.127C355.945 276.927 326.182 308.451 260.025 322.402C260.957 292.567 255.937 237.458 234.904 190.114M302.498 138.219C300.385 137.864 298.307 137.52 296.264 137.186M197.997 128.569C213.765 127.001 243.5 128.576 296.264 137.186M197.997 128.569C205.859 135.229 217.238 147.848 228.724 165.903M296.264 137.186C349.227 188.527 367.811 224.642 370.483 236.281C350.77 241.305 353.165 256.914 356.827 264.091L295.67 291.004C289.938 277.825 278.71 278.982 269.841 283.827C265.57 247.872 255.412 217.315 243.639 192.81M234.904 190.114C232.021 183.626 228.838 177.284 225.329 171.173M234.904 190.114C236.987 191.079 239.935 192.051 243.639 192.81M225.329 171.173C225.929 169.159 227.101 167.413 228.724 165.903M243.639 192.81C257.215 195.592 280.952 195.522 309.53 181.821C345.904 164.381 308.088 158.599 284.633 157.888C269.124 156.253 239.317 156.049 228.724 165.903M261.57 189.403C247.45 187.796 224.528 180.845 245.803 165.903L261.099 170.684C260.472 171.158 259.405 172.105 260.158 172.105C260.911 172.105 265.492 172.579 267.689 172.816C266.041 171.158 267.783 167.793 287.928 167.603L290.752 164.76C306.362 166.261 328.405 170.779 291.693 176.845L290.752 178.266L274.984 176.845L264.629 179.451L267.689 180.873L261.57 189.403Z" stroke="black" stroke-width="2"/>
<path d="M281.017 261.919C279.194 252.376 273.704 230.688 266.334 220.278" stroke="#6A8343" stroke-width="5"/>
<path d="M288.503 259.317C286.679 249.774 281.19 228.086 273.82 217.675" stroke="#6A8343" stroke-width="5"/>
<path d="M295.988 257.003C294.165 247.46 288.675 225.772 281.305 215.362" stroke="#6A8343" stroke-width="5"/>
<path d="M337.968 237.374C335.793 229.394 329.705 211.345 322.763 202.997" stroke="#6A8343" stroke-width="4"/>
<path d="M344.152 234.668C341.976 226.687 335.889 208.639 328.947 200.29" stroke="#6A8343" stroke-width="4"/>
<path d="M350.355 232.207C348.179 224.226 342.092 206.178 335.15 197.829" stroke="#6A8343" stroke-width="4"/>
<path d="M268.945 136.321C268.474 135.338 268.387 135.156 266.717 133.819" stroke="#6A8343"/>
<path d="M266.551 136.589C265.842 135.297 265.712 135.057 263.311 133.267" stroke="#6A8343"/>
<path d="M263.862 137.33C263.104 135.418 262.965 135.064 260.474 132.781" stroke="#6A8343"/>
<path d="M295.871 233.425L296.441 230.815L293.973 228.391L296.441 226.341L294.922 224.477L298.15 223.358V220.935L302.706 219.817L303.846 217.766H307.643L310.491 215.716L314.478 216.648L317.326 214.783L319.984 216.648L323.021 215.716L324.35 217.766L327.768 218.512L326.439 220.935L329.097 222.426L326.439 224.477L327.768 226.341L324.35 228.391V230.815H319.984C319.376 230.815 318.591 233.176 318.275 234.357L315.427 233.425L312.389 236.034L308.972 235.289L305.744 237.339L303.846 235.289L300.048 236.034L299.099 233.425H295.871Z" fill="#6A8343"/>
<path d="M313.197 230.75C315.682 229.89 317.752 228.51 319.083 226.949C320.405 225.398 321.056 223.585 320.486 221.925C319.916 220.264 318.291 219.24 316.299 218.837C314.293 218.431 311.817 218.625 309.331 219.485C306.845 220.346 304.775 221.726 303.445 223.287C302.123 224.838 301.471 226.65 302.041 228.311C302.611 229.971 304.236 230.995 306.229 231.399C308.234 231.805 310.711 231.611 313.197 230.75Z" fill="#6A8343" stroke="#DCEBC2"/>
<path d="M226.192 152.513C224.486 148.488 219.646 139.434 213.932 135.418" stroke="#6A8343" stroke-width="3"/>
<path d="M231.296 149.488C229.524 145.366 224.491 136.097 218.537 131.992" stroke="#6A8343" stroke-width="3"/>
<path d="M236.4 147.759C234.56 143.509 229.333 133.951 223.144 129.722" stroke="#6A8343" stroke-width="3"/>
<path d="M236.449 138.759L237.206 137.061L236.036 135.057L237.895 134.011L237.232 132.524L239.422 132.221L239.795 130.569C246.46 131.162 250.189 131.579 256.829 132.465L258.684 133.135L257.48 134.598L258.912 135.993L256.935 137.012L257.479 138.472L255.027 139.383L254.654 141.035L251.924 140.413C251.544 140.327 250.69 141.825 250.311 142.585L248.674 141.544L246.373 142.89L244.351 141.895L242.018 142.833L241.147 141.165L238.658 141.133L238.466 139.218L236.449 138.759Z" fill="#6A8343" stroke="#6A8343"/>
<path d="M247.692 140.184C249.41 139.947 250.953 139.288 252.056 138.388C253.153 137.492 253.875 136.301 253.77 135.029C253.664 133.756 252.763 132.789 251.544 132.213C250.318 131.634 248.702 131.411 246.984 131.648C245.266 131.885 243.724 132.544 242.621 133.444C241.523 134.34 240.801 135.531 240.907 136.803C241.013 138.076 241.913 139.043 243.133 139.619C244.359 140.198 245.974 140.421 247.692 140.184Z" fill="#6A8343" stroke="#DCEBC2"/>
<path d="M277.987 283.388C285.22 282.239 292.082 287.628 293.316 295.426C294.549 303.223 289.686 310.475 282.453 311.625C275.221 312.774 268.358 307.385 267.125 299.587C265.892 291.789 270.755 284.537 277.987 283.388ZM287.837 299.477L276.079 301.346C275.952 301.367 275.839 301.44 275.763 301.55L273.833 304.403C273.805 304.444 273.789 304.493 273.788 304.545C273.786 304.597 273.799 304.648 273.825 304.692C273.85 304.736 273.888 304.772 273.932 304.794C273.976 304.816 274.024 304.823 274.072 304.815L285.83 302.947C285.957 302.926 286.07 302.853 286.146 302.743L288.076 299.889C288.103 299.848 288.119 299.798 288.12 299.747C288.121 299.696 288.108 299.644 288.083 299.6C288.057 299.556 288.02 299.521 287.976 299.499C287.933 299.477 287.884 299.47 287.837 299.477ZM284.605 295.204L272.847 297.072L272.792 297.087C272.753 297.104 272.718 297.132 272.692 297.169C272.666 297.205 272.65 297.249 272.645 297.295C272.64 297.341 272.647 297.388 272.665 297.43C272.683 297.473 272.711 297.51 272.746 297.538L275.464 299.653L275.529 299.697C275.621 299.746 275.725 299.765 275.826 299.749L287.584 297.881L287.639 297.866C287.679 297.849 287.714 297.821 287.739 297.785C287.765 297.748 287.782 297.705 287.786 297.659C287.791 297.613 287.784 297.566 287.766 297.523C287.749 297.48 287.72 297.443 287.685 297.416L284.968 295.3L284.902 295.256C284.81 295.207 284.706 295.188 284.605 295.204ZM286.369 290.197L274.611 292.065C274.484 292.086 274.371 292.16 274.295 292.269L272.365 295.123C272.337 295.165 272.322 295.214 272.321 295.265C272.319 295.317 272.332 295.368 272.358 295.412C272.384 295.456 272.421 295.491 272.464 295.513C272.508 295.535 272.557 295.543 272.604 295.535L284.362 293.667C284.489 293.646 284.602 293.573 284.678 293.463L286.608 290.61C286.636 290.569 286.652 290.519 286.653 290.467C286.655 290.416 286.642 290.365 286.616 290.32C286.59 290.276 286.553 290.241 286.509 290.219C286.465 290.197 286.416 290.189 286.369 290.197Z" fill="#DCEBC2"/>
<path d="M367.862 240.761C374.762 238.304 382.493 242.343 385.13 249.783C387.766 257.222 384.31 265.244 377.409 267.701C370.509 270.158 362.778 266.119 360.141 258.679C357.505 251.239 360.961 243.217 367.862 240.761ZM380.483 254.771L369.265 258.765C369.144 258.809 369.046 258.902 368.992 259.024L367.615 262.183C367.595 262.228 367.589 262.28 367.597 262.331C367.605 262.382 367.627 262.43 367.66 262.469C367.694 262.508 367.737 262.535 367.784 262.549C367.831 262.562 367.881 262.561 367.926 262.544L379.144 258.55C379.265 258.507 379.363 258.414 379.417 258.292L380.793 255.132C380.813 255.087 380.819 255.035 380.811 254.984C380.803 254.934 380.781 254.886 380.748 254.847C380.714 254.808 380.671 254.781 380.624 254.767C380.577 254.754 380.528 254.755 380.483 254.771ZM376.526 251.163L365.307 255.157L365.256 255.182C365.22 255.205 365.191 255.24 365.173 255.28C365.154 255.321 365.146 255.367 365.15 255.413C365.153 255.459 365.169 255.504 365.194 255.542C365.219 255.581 365.254 255.612 365.293 255.633L368.351 257.214L368.424 257.245C368.523 257.276 368.628 257.277 368.725 257.242L379.943 253.248L379.994 253.224C380.031 253.2 380.06 253.166 380.078 253.125C380.097 253.084 380.105 253.039 380.101 252.992C380.098 252.946 380.082 252.902 380.057 252.863C380.032 252.824 379.997 252.793 379.958 252.772L376.9 251.191L376.827 251.16C376.727 251.128 376.622 251.129 376.526 251.163ZM377.345 245.917L366.127 249.911C366.006 249.955 365.908 250.048 365.854 250.17L364.478 253.329C364.458 253.375 364.452 253.426 364.46 253.477C364.468 253.528 364.49 253.576 364.523 253.614C364.557 253.653 364.599 253.681 364.647 253.694C364.694 253.708 364.743 253.706 364.788 253.69L376.006 249.696C376.127 249.652 376.225 249.56 376.279 249.438L377.655 246.279C377.675 246.233 377.682 246.182 377.674 246.131C377.666 246.08 377.644 246.032 377.611 245.993C377.577 245.954 377.534 245.926 377.487 245.913C377.44 245.899 377.39 245.901 377.345 245.917Z" fill="#DCEBC2"/>
<defs>
<linearGradient id="paint0_linear_127_332" x1="255.459" y1="172.671" x2="258.531" y2="449.273" gradientUnits="userSpaceOnUse">
<stop stop-color="#FBF6D6"/>
<stop offset="1" stop-color="#FCFBE9"/>
</linearGradient>
<linearGradient id="paint1_linear_127_332" x1="255.459" y1="172.671" x2="258.531" y2="449.273" gradientUnits="userSpaceOnUse">
<stop stop-color="#FBF6D6"/>
<stop offset="1" stop-color="#FCFBE9"/>
</linearGradient>
<linearGradient id="paint2_linear_127_332" x1="255.459" y1="172.671" x2="258.531" y2="449.273" gradientUnits="userSpaceOnUse">
<stop stop-color="#FBF6D6"/>
<stop offset="1" stop-color="#FCFBE9"/>
</linearGradient>
<linearGradient id="paint3_linear_127_332" x1="255.459" y1="172.671" x2="258.531" y2="449.273" gradientUnits="userSpaceOnUse">
<stop stop-color="#FBF6D6"/>
<stop offset="1" stop-color="#FCFBE9"/>
</linearGradient>
<linearGradient id="paint4_linear_127_332" x1="255.459" y1="172.671" x2="258.531" y2="449.273" gradientUnits="userSpaceOnUse">
<stop stop-color="#FBF6D6"/>
<stop offset="1" stop-color="#FCFBE9"/>
</linearGradient>
<linearGradient id="paint5_linear_127_332" x1="255.459" y1="172.671" x2="258.531" y2="449.273" gradientUnits="userSpaceOnUse">
<stop stop-color="#FBF6D6"/>
<stop offset="1" stop-color="#FCFBE9"/>
</linearGradient>
<linearGradient id="paint6_linear_127_332" x1="340.71" y1="161.789" x2="302.766" y2="426.754" gradientUnits="userSpaceOnUse">
<stop stop-color="#C6EE7B"/>
<stop offset="1" stop-color="#19391B"/>
</linearGradient>
<linearGradient id="paint7_linear_127_332" x1="340.71" y1="161.789" x2="302.766" y2="426.754" gradientUnits="userSpaceOnUse">
<stop stop-color="#C6EE7B"/>
<stop offset="1" stop-color="#19391B"/>
</linearGradient>
<linearGradient id="paint8_linear_127_332" x1="340.71" y1="161.789" x2="302.766" y2="426.754" gradientUnits="userSpaceOnUse">
<stop stop-color="#C6EE7B"/>
<stop offset="1" stop-color="#19391B"/>
</linearGradient>
<linearGradient id="paint9_linear_127_332" x1="340.71" y1="161.789" x2="302.766" y2="426.754" gradientUnits="userSpaceOnUse">
<stop stop-color="#C6EE7B"/>
<stop offset="1" stop-color="#19391B"/>
</linearGradient>
</defs>
</svg>
