<svg width="512" height="512" viewBox="0 0 512 512" fill="none" xmlns="http://www.w3.org/2000/svg">
<g clip-path="url(#clip0_127_152)">
<path d="M270.581 24.5597L268.117 57.4939C265.657 55.4738 259.087 54.7103 255.353 55.416L264.724 22.7879C268.477 17.7777 270.059 20.9921 270.489 23.7795C270.53 24.046 270.56 24.3086 270.581 24.5597Z" fill="#9A9DAE"/>
<path d="M264.724 22.7879C263.425 21.8473 261.036 18.8121 261.872 14.1962C262.917 8.42627 268.383 8.50381 269.878 8.70467C271.374 8.90553 276.076 10.1939 276.228 16.1244C276.349 20.8689 272.452 23.2047 270.489 23.7795C270.059 20.9921 268.477 17.7777 264.724 22.7879Z" fill="#A7A9B8"/>
<path d="M255.353 55.416C259.087 54.7103 265.657 55.4738 268.117 57.4939C269.951 58.9363 270.806 59.7966 271.88 61.4916C266.026 62.1692 264.074 62.3951 258.714 66.3795C256.798 64.9333 253.254 62.5797 247.264 59.8231C249.516 57.7555 251.986 56.4839 255.353 55.416Z" fill="#9A9DAE"/>
<path d="M268.117 57.4939L270.581 24.5597C270.56 24.3086 270.53 24.046 270.489 23.7795M268.117 57.4939C265.657 55.4738 259.087 54.7103 255.353 55.416M268.117 57.4939C269.951 58.9363 270.806 59.7966 271.88 61.4916C266.026 62.1692 264.074 62.3951 258.714 66.3795C256.798 64.9333 253.254 62.5797 247.264 59.8231C249.516 57.7555 251.986 56.4839 255.353 55.416M264.724 22.7879L255.353 55.416M264.724 22.7879C263.425 21.8473 261.036 18.8121 261.872 14.1962C262.917 8.42627 268.383 8.50381 269.878 8.70467C271.374 8.90553 276.076 10.1939 276.228 16.1244C276.349 20.8689 272.452 23.2047 270.489 23.7795M264.724 22.7879C268.477 17.7777 270.059 20.9921 270.489 23.7795" stroke="black" stroke-width="2"/>
<path fill-rule="evenodd" clip-rule="evenodd" d="M216.15 231.357C205.999 228.401 197.641 224.406 190.864 219.936C177.034 210.814 169.784 199.713 167.299 191.426C183.098 186.842 200.701 188.432 208.332 190.034C253.798 199.351 273.474 201.026 277.628 200.698C286.568 200.378 304.281 196.3 303.619 182.544C302.956 168.787 285.632 166.739 277.053 167.435C268.931 168.856 250.391 171.139 241.208 168.908C232.025 166.677 212.464 162.068 203.832 160.042C195.045 158.745 176.998 157.369 166.277 160.569C166.443 153.77 169.019 138.119 177.998 129.9C176.2 128.632 172.187 125.116 170.515 121.199C167.08 119.052 161.313 113.708 165.732 109.512C172.553 124.598 199.891 125.991 225.209 118.092C225.416 118.611 225.649 119.135 225.908 119.662C231.327 129.037 252.063 144.223 291.651 129.968C269.204 99.1969 229.776 100.742 223.753 109.568C200.423 86.0848 169.238 92.8985 163.326 99.0835C163.745 95.8819 165.525 92.8303 169.827 90.9803C169.156 87.5516 170.908 83.5068 178.451 82.7222C181.23 78.2985 187.128 73.0642 195.984 71.1985C201.739 59.8094 222.243 42.6524 258.222 65.137C267.443 59.5831 278.872 59.1466 285.264 60.0605C321.295 63.3728 332.957 99.2356 334.284 116.753C352.691 123.827 364.319 147.898 367.832 159.049C374.465 188.954 356.464 208.362 334.767 219.936C320.784 227.395 305.266 231.6 293.816 233.264C260.646 238.797 235.23 236.913 216.15 231.357Z" fill="#68984C"/>
<path d="M225.209 118.092C199.891 125.991 172.553 124.598 165.732 109.512C164.308 107.062 162.818 102.963 163.326 99.0835C169.238 92.8985 200.423 86.0848 223.753 109.568C223.632 111.956 223.938 114.7 225.026 117.618C225.085 117.775 225.146 117.934 225.209 118.092Z" fill="white"/>
<path d="M291.651 129.968C252.063 144.223 231.327 129.037 225.908 119.662C225.649 119.135 225.416 118.611 225.209 118.092C225.146 117.934 225.085 117.775 225.026 117.618C223.938 114.7 223.632 111.956 223.753 109.568C229.776 100.742 269.204 99.1969 291.651 129.968Z" fill="white"/>
<path fill-rule="evenodd" clip-rule="evenodd" d="M161.703 162.51C152.515 168.101 156.882 174.518 160.214 177.028C149.422 181.153 156.034 189.914 160.689 193.78C162.833 192.858 165.048 192.079 167.299 191.426C183.098 186.842 200.701 188.432 208.332 190.034C253.798 199.351 273.474 201.026 277.628 200.698C286.568 200.378 304.281 196.3 303.619 182.544C302.956 168.787 285.632 166.739 277.053 167.435C268.931 168.856 250.391 171.139 241.208 168.908C232.025 166.677 212.464 162.068 203.832 160.042C195.045 158.745 176.998 157.369 166.277 160.569C164.535 161.088 162.987 161.729 161.703 162.51Z" fill="#AD683D"/>
<path d="M323.206 320.601C326.712 313.339 333.798 298.74 334.099 298.44C334.474 298.064 343.114 279.283 366.778 287.923C372.662 290.427 382.854 299.266 376.544 314.591C374.543 319.914 371.153 327.262 366.394 335.626C364.693 338.615 362.817 341.733 360.768 344.936C357.638 336.449 345.743 319.7 323.206 320.601Z" fill="#68984C"/>
<path d="M278.132 382.202C283.265 385.082 294.133 386.785 296.537 370.558C301.17 370.808 309.684 368.229 306.679 355.909C320.201 358.313 329.592 372.942 332.597 379.957C324.5 387.936 315.355 395.43 305.176 401.735C298.746 405.651 292.327 408.517 286.02 410.525C288.023 404.657 289.25 390.777 278.132 382.202Z" fill="#68984C"/>
<path d="M323.206 320.601C345.743 319.7 357.638 336.449 360.768 344.936C353.531 356.243 344.127 368.593 332.597 379.957C329.592 372.942 320.201 358.313 306.679 355.909C311.562 353.655 318.774 347.12 308.557 339.006C311.74 336.377 319.126 329.015 323.206 320.601Z" fill="#68984C"/>
<path d="M272.498 377.882C275.558 380.325 277.873 382.202 278.132 382.202C289.25 390.777 288.023 404.657 286.02 410.525C268.211 416.192 251.299 415.006 237.565 411.242C234.936 401.755 233.509 381.182 248.834 374.791C259.751 379.039 267.698 379.124 271.371 378.102C271.764 378.043 272.141 377.969 272.498 377.882Z" fill="#68984C"/>
<path d="M296.537 370.558C294.133 386.785 283.265 385.082 278.132 382.202C277.873 382.202 275.558 380.325 272.498 377.882C266.686 373.241 258.185 366.556 255.971 366.802C252.966 361.042 249.36 348.697 258.976 345.392C267.49 347.52 286.921 355.533 296.537 370.558Z" fill="#68984C"/>
<path d="M306.679 355.909C309.684 368.229 301.17 370.808 296.537 370.558C286.921 355.533 267.49 347.52 258.976 345.392C258.85 340.509 261.304 331.193 272.122 332.996C281.137 336.252 300.669 345.392 306.679 355.909Z" fill="#68984C"/>
<path d="M308.557 339.006C318.774 347.12 311.562 353.655 306.679 355.909C300.669 345.392 281.137 336.252 272.122 332.996C275.184 325.852 281.245 325.16 287.559 326.986C296.306 329.517 305.54 336.882 307.963 338.631C308.297 338.872 308.501 339.006 308.557 339.006Z" fill="#68984C"/>
<path d="M258.976 345.392C249.36 348.697 252.966 361.042 255.971 366.802C258.185 366.556 266.686 373.241 272.498 377.882C272.141 377.969 271.764 378.043 271.371 378.102C264.178 379.166 251.385 374.881 249.961 349.523C249.855 344.854 251.655 335.257 258.976 329.146C260.292 328.046 261.788 327.06 263.483 326.235C268.265 323.481 279.776 319.775 287.559 326.986C281.245 325.16 275.184 325.852 272.122 332.996C261.304 331.193 258.85 340.509 258.976 345.392Z" fill="#68984C"/>
<path d="M249.961 349.523C251.385 374.881 264.178 379.166 271.371 378.102C267.698 379.124 259.751 379.039 248.834 374.791C245.39 373.451 241.651 371.696 237.657 369.431C232.505 360.166 235.669 349.585 237.921 346.173C237.929 346.162 237.936 346.152 237.941 346.143C239.744 343.438 252.715 333.685 258.976 329.146C251.655 335.257 249.855 344.854 249.961 349.523Z" fill="#68984C"/>
<path d="M237.657 369.431C232.73 366.637 227.415 363.066 221.789 358.538L219.456 356.66C225.341 353.562 237.176 347.178 237.921 346.173C235.669 349.585 232.505 360.166 237.657 369.431Z" fill="#68984C"/>
<path d="M210.897 398.729C207.778 396.496 203.601 393.435 199.19 390.09C197.833 380.199 200.454 360.041 221.789 358.538C227.415 363.066 232.73 366.637 237.657 369.431C241.651 371.696 245.39 373.451 248.834 374.791C233.509 381.182 234.936 401.755 237.565 411.242C225.933 408.054 216.582 403.017 210.897 398.729Z" fill="#68984C"/>
<path d="M145.915 328.113C148.795 324.232 157.71 317.896 170.33 323.606C174.838 325.609 185.28 330.442 190.989 333.748C179.971 334.499 161.391 342.687 175.213 369.431C171.575 369.778 164.305 370.076 157.085 369.431C153.869 369.144 150.664 368.669 147.793 367.929C146.242 367.444 143.31 365.638 141.508 361.919C140.982 360.834 140.552 359.587 140.281 358.163C139.571 355.651 138.952 351.558 139.177 346.894C139.406 342.145 140.51 336.803 143.286 331.934C144.035 330.619 144.906 329.339 145.915 328.113Z" fill="#68984C"/>
<path d="M143.286 331.934C140.51 336.803 139.406 342.145 139.177 346.894C136.889 348.789 135.47 350.691 134.646 352.466C132.393 347.522 130.965 336.493 143.286 331.934Z" fill="#68984C"/>
<path d="M140.281 358.163C140.552 359.587 140.982 360.834 141.508 361.919C139.602 361.32 137.232 360.804 134.646 360.548C133.736 359.097 132.988 356.039 134.646 352.466C135.47 350.691 136.889 348.789 139.177 346.894C138.952 351.558 139.571 355.651 140.281 358.163Z" fill="#68984C"/>
<path d="M147.793 367.929C150.664 368.669 153.869 369.144 157.085 369.431C138.376 381.451 147.101 400.242 153.803 408.135C153.297 408.064 152.796 407.99 152.3 407.912C138.104 405.675 128.02 400.198 123.003 395.724C116.573 389.89 112.377 383.252 109.908 376.192C113.232 362.083 125.339 359.628 134.646 360.548C137.232 360.804 139.602 361.32 141.508 361.919C143.31 365.638 146.242 367.444 147.793 367.929Z" fill="#68984C"/>
<path d="M175.213 369.431C176.59 371.398 179.8 374.436 183.852 377.89C182.951 390.366 191.49 400.679 195.872 404.276C179.567 409.175 165.382 409.738 153.803 408.135C147.101 400.242 138.376 381.451 157.085 369.431C164.305 370.076 171.575 369.778 175.213 369.431Z" fill="#68984C"/>
<path d="M210.897 398.729C205.711 400.996 200.699 402.826 195.872 404.276C191.49 400.679 182.951 390.366 183.852 377.89C188.376 381.745 193.949 386.117 199.19 390.09C203.601 393.435 207.778 396.496 210.897 398.729Z" fill="#68984C"/>
<path d="M175.213 369.431C161.391 342.687 179.971 334.499 190.989 333.748L219.456 356.66L221.789 358.538C200.454 360.041 197.833 380.199 199.19 390.09C193.949 386.117 188.376 381.745 183.852 377.89C179.8 374.436 176.59 371.398 175.213 369.431Z" fill="#68984C"/>
<path d="M114.406 324.733C126.16 322.028 138.557 328.407 143.286 331.934C130.965 336.493 132.393 347.522 134.646 352.466C132.988 356.039 133.736 359.097 134.646 360.548C125.339 359.628 113.232 362.083 109.908 376.192C104.146 359.719 107.787 340.948 114.406 324.733Z" fill="#68984C"/>
<path d="M131.266 295.059C131.266 311.286 141.032 323.857 145.915 328.113C144.906 329.339 144.035 330.619 143.286 331.934C138.557 328.407 126.16 322.028 114.406 324.733C119.269 312.82 125.738 302.288 131.266 295.059Z" fill="#68984C"/>
<path d="M195.872 404.276C200.699 402.826 205.711 400.996 210.897 398.729C216.582 403.017 225.933 408.054 237.565 411.242C251.299 415.006 268.211 416.192 286.02 410.525C292.327 408.517 298.746 405.651 305.176 401.735L298.415 482.116C298.29 484.495 296.312 489.178 289.401 488.877C280.761 488.502 214.114 496.765 157.085 464.087C155.08 448.064 152.3 421.647 152.3 407.912C152.796 407.99 153.297 408.064 153.803 408.135C165.382 409.738 179.567 409.175 195.872 404.276Z" fill="#9295A6"/>
<path d="M360.768 344.936C362.817 341.733 364.693 338.615 366.394 335.626C370.857 333.427 375.998 330.168 380.676 326.037L355.134 493.385C289.542 505.953 181.065 512.084 160.939 488.877C159.618 481.347 158.784 477.667 157.085 464.087C214.114 496.765 280.761 488.502 289.401 488.877C296.312 489.178 298.29 484.495 298.415 482.116L305.176 401.735C315.355 395.43 324.5 387.936 332.597 379.957C344.127 368.593 353.531 356.243 360.768 344.936Z" fill="#9295A6"/>
<path d="M363.773 264.149C364.967 264.319 366.138 264.49 367.286 264.66C374.245 266.24 380.189 270.846 382.553 273.274C403.727 295.116 394.108 314.175 380.676 326.037C375.998 330.168 370.857 333.427 366.394 335.626C371.153 327.262 374.543 319.914 376.544 314.591C382.854 299.266 372.662 290.427 366.778 287.923C343.114 279.283 334.474 298.064 334.099 298.44C333.798 298.74 326.712 313.339 323.206 320.601C314.792 310.084 319.7 293.432 323.206 286.42C333.723 266.888 354.633 263.434 363.773 264.149Z" fill="#9295A6"/>
<path d="M170.33 323.606C157.71 317.896 148.795 324.232 145.915 328.113L145.083 291.303C203.224 280.786 290.152 289.8 302.172 291.303C311.787 292.505 311.186 295.059 311.186 298.44L307.963 338.631C305.54 336.882 296.306 329.517 287.559 326.986C279.776 319.775 268.265 323.481 263.483 326.235C261.788 327.06 260.292 328.046 258.976 329.146C252.715 333.685 239.744 343.438 237.941 346.143L237.921 346.173C237.176 347.178 225.341 353.562 219.456 356.66L190.989 333.748C185.28 330.442 174.838 325.609 170.33 323.606Z" fill="#9295A6"/>
<path d="M144.413 261.629C220.7 249.308 312.824 256.865 363.773 264.149C354.633 263.434 333.723 266.888 323.206 286.42C319.7 293.432 314.792 310.084 323.206 320.601C319.126 329.015 311.74 336.377 308.557 339.006C308.501 339.006 308.297 338.872 307.963 338.631L311.186 298.44C311.186 295.059 311.787 292.505 302.172 291.303C290.152 289.8 203.224 280.786 145.083 291.303L144.489 265.01L144.413 261.629Z" fill="#9295A6"/>
<path d="M216.15 231.357C235.23 236.913 260.646 238.797 293.816 233.264C305.266 231.6 320.784 227.395 334.767 219.936C345.518 226.246 371.606 254.117 383.305 267.263C378.677 266.432 373.302 265.551 367.286 264.66C366.139 264.399 364.964 264.221 363.773 264.149C312.824 256.865 220.7 249.308 144.413 261.629C154.074 249.985 176.889 225.345 190.864 219.936C197.641 224.406 205.999 228.401 216.15 231.357Z" fill="#A5A7B5"/>
<path d="M145.915 328.113C141.032 323.857 131.266 311.286 131.266 295.059C130.691 286.545 132.531 268.616 144.489 265.01L145.083 291.303L145.915 328.113Z" fill="#9295A6"/>
<path d="M383.305 267.263C383.305 269.367 382.804 272.147 382.553 273.274C380.189 270.846 374.245 266.24 367.286 264.66C373.302 265.551 378.677 266.432 383.305 267.263Z" fill="#9295A6"/>
<path d="M287.483 181.579C273.326 188.859 257.931 187.029 239.237 182.528C238.77 182.415 238.3 182.302 237.828 182.189C217.862 177.388 193.344 171.79 160.214 177.028M160.214 177.028C156.882 174.518 152.515 168.101 161.703 162.51C162.987 161.729 164.535 161.088 166.277 160.569M160.214 177.028C149.422 181.153 156.034 189.914 160.689 193.78C162.833 192.858 165.048 192.079 167.299 191.426M167.299 191.426C183.098 186.842 200.701 188.432 208.332 190.034C253.798 199.351 273.474 201.026 277.628 200.698C286.568 200.378 304.281 196.3 303.619 182.544C302.956 168.787 285.632 166.739 277.053 167.435C268.931 168.856 250.391 171.139 241.208 168.908C232.025 166.677 212.464 162.068 203.832 160.042C195.045 158.745 176.998 157.369 166.277 160.569M167.299 191.426C169.784 199.713 177.034 210.814 190.864 219.936M334.284 116.753C352.691 123.827 364.319 147.898 367.832 159.049C374.465 188.954 356.464 208.362 334.767 219.936M334.284 116.753L334.372 127.559M334.284 116.753C332.957 99.2356 321.295 63.3728 285.264 60.0605C278.872 59.1466 267.443 59.5831 258.222 65.137M246.695 78.3707C256.135 75.1138 279.467 73.4091 297.275 92.6449M246.695 78.3707C242.211 79.8509 238.873 81.5632 236.417 83.3088M246.695 78.3707C249.28 72.2455 253.456 68.0077 258.222 65.137M230.217 93.2076C229.878 91.1648 231.005 87.1559 236.417 83.3088M311.557 116.699C290.816 103.129 244.45 80.4255 224.922 98.1731L225.931 101.942M225.931 101.942C231.132 95.9482 255.98 91.6531 313.762 122.422M225.931 101.942C225.03 103.328 223.931 106.064 223.753 109.568M225.908 119.662C231.327 129.037 252.063 144.223 291.651 129.968C269.204 99.1969 229.776 100.742 223.753 109.568M225.908 119.662C225.395 121.839 225.375 124.336 226.164 126.818M225.908 119.662C225.649 119.135 225.416 118.611 225.209 118.092M225.908 119.662C225.569 118.973 225.277 118.291 225.026 117.618M288.05 135.919C251.367 143.926 234.969 138.865 228.761 131.484C227.508 129.994 226.67 128.409 226.164 126.818M223.753 109.568C200.423 86.0848 169.238 92.8985 163.326 99.0835M223.753 109.568C223.632 111.956 223.938 114.7 225.026 117.618M166.277 160.569C166.443 153.77 169.019 138.119 177.998 129.9M177.998 129.9C180.505 131.986 188.303 136.644 199.44 138.583M177.998 129.9C176.2 128.632 172.187 125.116 170.515 121.199M226.164 126.818C216.113 126.781 204.16 134.646 199.44 138.583M199.44 138.583C198.125 139.741 194.899 142.81 192.515 145.829M170.515 121.199C179.287 124.462 200.5 129.809 215.181 125.098M170.515 121.199C167.08 119.052 161.313 113.708 165.732 109.512M165.732 109.512C172.553 124.598 199.891 125.991 225.209 118.092M165.732 109.512C164.308 107.062 162.818 102.963 163.326 99.0835M225.209 118.092C225.146 117.934 225.085 117.775 225.026 117.618M169.827 90.9803C174.714 88.6897 190.11 86.4688 212.592 95.9095M169.827 90.9803C169.156 87.5516 170.908 83.5068 178.451 82.7222M169.827 90.9803C165.525 92.8303 163.745 95.8819 163.326 99.0835M218.511 92.6367C198.007 84.1739 185.616 81.9769 178.451 82.7222M178.451 82.7222C181.23 78.2985 187.128 73.0642 195.984 71.1985M236.417 83.3088C219.409 71.2251 205.857 69.1184 195.984 71.1985M195.984 71.1985C201.739 59.8094 222.243 42.6524 258.222 65.137M294.755 158.405C307.476 158.776 317.274 170.057 315.932 185.149M383.305 267.263C371.606 254.117 345.518 226.246 334.767 219.936M383.305 267.263C383.305 269.367 382.804 272.147 382.553 273.274M383.305 267.263C378.677 266.432 373.302 265.551 367.286 264.66M334.767 219.936C320.784 227.395 305.266 231.6 293.816 233.264C260.646 238.797 235.23 236.913 216.15 231.357C205.999 228.401 197.641 224.406 190.864 219.936M144.413 261.629C154.074 249.985 176.889 225.345 190.864 219.936M144.413 261.629C220.7 249.308 312.824 256.865 363.773 264.149M144.413 261.629L144.489 265.01M145.915 328.113C141.032 323.857 131.266 311.286 131.266 295.059M145.915 328.113C148.795 324.232 157.71 317.896 170.33 323.606C174.838 325.609 185.28 330.442 190.989 333.748M145.915 328.113C144.906 329.339 144.035 330.619 143.286 331.934M145.915 328.113L145.083 291.303M382.553 273.274C403.727 295.116 394.108 314.175 380.676 326.037M382.553 273.274C380.189 270.846 374.245 266.24 367.286 264.66M363.773 264.149C354.633 263.434 333.723 266.888 323.206 286.42C319.7 293.432 314.792 310.084 323.206 320.601M363.773 264.149C364.967 264.319 366.138 264.49 367.286 264.66M363.773 264.149C364.964 264.221 366.139 264.399 367.286 264.66M323.206 320.601C326.712 313.339 333.798 298.74 334.099 298.44C334.474 298.064 343.114 279.283 366.778 287.923C372.662 290.427 382.854 299.266 376.544 314.591C374.543 319.914 371.153 327.262 366.394 335.626M323.206 320.601C345.743 319.7 357.638 336.449 360.768 344.936M323.206 320.601C319.126 329.015 311.74 336.377 308.557 339.006M305.176 401.735C315.355 395.43 324.5 387.936 332.597 379.957M305.176 401.735C298.746 405.651 292.327 408.517 286.02 410.525M305.176 401.735L298.415 482.116C298.29 484.495 296.312 489.178 289.401 488.877C280.761 488.502 214.114 496.765 157.085 464.087M360.768 344.936C362.817 341.733 364.693 338.615 366.394 335.626M360.768 344.936C353.531 356.243 344.127 368.593 332.597 379.957M366.394 335.626C370.857 333.427 375.998 330.168 380.676 326.037M380.676 326.037L355.134 493.385C289.542 505.953 181.065 512.084 160.939 488.877C159.618 481.347 158.784 477.667 157.085 464.087M131.266 295.059C130.691 286.545 132.531 268.616 144.489 265.01M131.266 295.059C125.738 302.288 119.269 312.82 114.406 324.733M144.489 265.01L145.083 291.303M190.989 333.748C179.971 334.499 161.391 342.687 175.213 369.431M190.989 333.748L219.456 356.66M175.213 369.431C176.59 371.398 179.8 374.436 183.852 377.89M175.213 369.431C171.575 369.778 164.305 370.076 157.085 369.431M210.897 398.729C205.711 400.996 200.699 402.826 195.872 404.276M210.897 398.729C207.778 396.496 203.601 393.435 199.19 390.09M210.897 398.729C216.582 403.017 225.933 408.054 237.565 411.242M195.872 404.276C191.49 400.679 182.951 390.366 183.852 377.89M195.872 404.276C179.567 409.175 165.382 409.738 153.803 408.135M183.852 377.89C188.376 381.745 193.949 386.117 199.19 390.09M153.803 408.135C147.101 400.242 138.376 381.451 157.085 369.431M153.803 408.135C153.297 408.064 152.796 407.99 152.3 407.912M157.085 369.431C153.869 369.144 150.664 368.669 147.793 367.929C146.242 367.444 143.31 365.638 141.508 361.919M143.286 331.934C138.557 328.407 126.16 322.028 114.406 324.733M143.286 331.934C140.51 336.803 139.406 342.145 139.177 346.894M143.286 331.934C130.965 336.493 132.393 347.522 134.646 352.466M114.406 324.733C107.787 340.948 104.146 359.719 109.908 376.192M141.508 361.919C140.982 360.834 140.552 359.587 140.281 358.163C139.571 355.651 138.952 351.558 139.177 346.894M141.508 361.919C139.602 361.32 137.232 360.804 134.646 360.548M109.908 376.192C112.377 383.252 116.573 389.89 123.003 395.724C128.02 400.198 138.104 405.675 152.3 407.912M109.908 376.192C113.232 362.083 125.339 359.628 134.646 360.548M134.646 360.548C133.736 359.097 132.988 356.039 134.646 352.466M139.177 346.894C136.889 348.789 135.47 350.691 134.646 352.466M278.132 382.202C283.265 385.082 294.133 386.785 296.537 370.558M278.132 382.202C277.873 382.202 275.558 380.325 272.498 377.882M278.132 382.202C289.25 390.777 288.023 404.657 286.02 410.525M296.537 370.558C301.17 370.808 309.684 368.229 306.679 355.909M296.537 370.558C286.921 355.533 267.49 347.52 258.976 345.392M306.679 355.909C311.562 353.655 318.774 347.12 308.557 339.006M306.679 355.909C320.201 358.313 329.592 372.942 332.597 379.957M306.679 355.909C300.669 345.392 281.137 336.252 272.122 332.996M308.557 339.006C308.501 339.006 308.297 338.872 307.963 338.631M272.122 332.996C261.304 331.193 258.85 340.509 258.976 345.392M272.122 332.996C275.184 325.852 281.245 325.16 287.559 326.986M258.976 345.392C249.36 348.697 252.966 361.042 255.971 366.802C258.185 366.556 266.686 373.241 272.498 377.882M272.498 377.882C272.141 377.969 271.764 378.043 271.371 378.102M287.559 326.986C279.776 319.775 268.265 323.481 263.483 326.235C261.788 327.06 260.292 328.046 258.976 329.146M287.559 326.986C296.306 329.517 305.54 336.882 307.963 338.631M271.371 378.102C264.178 379.166 251.385 374.881 249.961 349.523C249.855 344.854 251.655 335.257 258.976 329.146M271.371 378.102C267.698 379.124 259.751 379.039 248.834 374.791M221.789 358.538C200.454 360.041 197.833 380.199 199.19 390.09M221.789 358.538C227.415 363.066 232.73 366.637 237.657 369.431M221.789 358.538L219.456 356.66M237.565 411.242C234.936 401.755 233.509 381.182 248.834 374.791M237.565 411.242C251.299 415.006 268.211 416.192 286.02 410.525M248.834 374.791C245.39 373.451 241.651 371.696 237.657 369.431M152.3 407.912C152.3 421.647 155.08 448.064 157.085 464.087M307.963 338.631L311.186 298.44C311.186 295.059 311.787 292.505 302.172 291.303C290.152 289.8 203.224 280.786 145.083 291.303M258.976 329.146C252.715 333.685 239.744 343.438 237.941 346.143M237.941 346.143C237.936 346.152 237.929 346.162 237.921 346.173M237.941 346.143C237.934 346.153 237.928 346.163 237.921 346.173M237.941 346.143L237.921 346.173M237.657 369.431C232.505 360.166 235.669 349.585 237.921 346.173M219.456 356.66C225.341 353.562 237.176 347.178 237.921 346.173" stroke="black" stroke-width="2"/>
<path d="M236.564 110.169L234.394 119.329L247.602 122.602L249.929 112.777C249.831 112.761 249.732 112.746 249.636 112.73C244.702 111.94 240.375 111.062 236.564 110.169Z" fill="black"/>
<path d="M173.402 100.403L171.232 109.563L184.44 112.836L186.767 103.011C186.669 102.995 186.57 102.98 186.474 102.964C181.539 102.174 177.213 101.296 173.402 100.403Z" fill="black"/>
<path fill-rule="evenodd" clip-rule="evenodd" d="M302.923 231.581L306.68 258.25C310.065 258.25 315.517 258.645 322.08 259.28C332.568 260.296 345.891 261.924 358.139 263.531C358.433 263.773 360.498 264.016 360.768 264.26C370.645 273.153 365.573 283.576 363.773 286.421C363.484 286.878 366.304 286.797 364.9 287.548C367.004 287.548 367.905 288.55 370.159 289.802C363.648 330.493 327.113 411.502 233.059 409.999C232.762 409.851 231.819 409.467 230.476 408.921C228.275 408.026 225 406.695 221.739 405.247C218.046 403.607 214.372 401.817 212.297 400.343C211.83 399.938 211.363 399.525 210.897 399.106C209.174 399.932 207.417 400.691 205.639 401.388C205.616 401.397 205.594 401.406 205.571 401.414C203.55 402.205 201.502 402.916 199.441 403.554C194.106 405.206 188.691 406.372 183.477 407.169C178.016 408.004 172.776 408.435 168.077 408.598C161.659 408.822 156.252 408.547 152.677 408.121V414.882C155.608 415.11 154.736 414.955 157.56 414.882C164.158 414.712 171.006 413.824 177.467 412.505C187.421 410.474 196.459 407.423 202.258 404.41C208.727 401.44 215.721 403.73 218.41 405.247C222.425 408.21 226.454 410.689 230.476 412.734C257.345 426.388 283.917 420.629 304.001 409.999C315.042 404.155 324.122 396.839 330.212 390.467L315.314 499.019L354.378 493.761C354.678 492.258 371.911 381.577 380.487 325.861C383.437 322.964 386.777 319.266 390.442 314.592C402.462 299.267 390.192 280.662 382.554 273.274C383.155 272.072 382.805 268.517 382.554 266.889C373.539 253.367 346.996 229.953 334.851 219.937C331.923 221.964 320.515 225.945 311.187 228.973C308.068 229.985 305.182 230.891 302.923 231.581ZM318.324 306.704C320.953 306.704 327.639 305.352 333.348 299.943L323.207 320.602C321.078 318.098 317.122 311.813 318.324 306.704Z" fill="black" fill-opacity="0.25"/>
<path d="M318.324 306.704C317.122 311.813 321.078 318.098 323.207 320.602C319.451 326.612 311.187 338.632 308.182 338.632L311.187 298.441C311.813 296.563 311.187 292.506 303.675 291.304C296.306 290.125 295.081 290.536 295.391 290.907C295.397 290.914 295.404 290.921 295.411 290.928C295.397 290.921 295.383 290.913 295.369 290.906C289.144 287.617 248.772 286.295 221.414 286.045C221.039 277.907 222.015 260.954 228.927 258.25C235.838 255.545 288.65 257.81 322.08 259.28C332.568 260.296 345.891 261.924 358.139 263.531C358.433 263.773 360.498 264.016 360.768 264.26C356.163 264.433 352.048 265.105 348.373 266.161C319.803 274.369 317.823 305.787 318.324 306.704Z" fill="black" fill-opacity="0.11"/>
<path d="M330.212 390.467L315.314 499.019L296.908 501.273L298.506 483.62L304.001 409.999C315.042 404.155 324.122 396.839 330.212 390.467Z" fill="black" fill-opacity="0.11"/>
<path d="M296.908 501.273C273.419 503.862 260.351 504.411 237.185 504.278C236.058 502.142 236.041 488.497 238.688 488.502C240.566 488.505 297.805 493.01 298.506 483.62L296.908 501.273Z" fill="black" fill-opacity="0.11"/>
<path d="M162.062 491.131C158.18 470.472 151.174 429.306 152.677 414.882C155.608 415.11 154.736 414.955 157.56 414.882C154.93 428.249 164.691 491.882 165.442 493.009C166.194 494.136 163.94 491.131 162.062 491.131Z" fill="black" fill-opacity="0.3"/>
<path d="M304.001 409.999L298.506 483.62C297.805 493.01 240.566 488.505 238.688 488.502L233.059 487.752L230.476 412.734C257.345 426.388 283.917 420.629 304.001 409.999Z" fill="black" fill-opacity="0.11"/>
<path d="M308.182 338.632C306.024 337.21 302.861 335.173 299.557 333.131C299.302 332.974 299.047 332.817 298.792 332.66C297.076 331.606 295.342 330.564 293.707 329.617C291.829 328.529 290.083 327.566 288.65 326.856C287.765 326.418 287 326.076 286.396 325.861C285.945 325.7 285.462 325.514 284.945 325.316C279.436 323.2 270.212 319.658 257.849 329.617C247.032 338.331 239.569 345.017 237.19 347.271L226.298 353.281C225.697 352.079 223.293 308.909 222.166 287.474C248.868 289.805 285.256 293.089 294.284 294.309C305.402 295.811 308.182 299.192 308.182 300.695V338.632Z" fill="black" fill-opacity="0.11"/>
<path d="M302.923 231.581L306.68 258.25C287.774 256.872 248.835 254.268 244.327 254.869C244.948 253.055 245.892 250.441 246.956 247.733C248.684 243.339 250.728 238.699 252.215 236.84C258.476 236.624 267.702 236.175 276.63 235.494C288.412 234.595 299.675 233.29 302.923 231.581Z" fill="black" fill-opacity="0.11"/>
<path d="M165.442 493.009C164.691 491.882 154.93 428.249 157.56 414.882C164.158 414.712 171.006 413.824 177.467 412.505C177.467 430.135 182.22 479.78 184.223 500.146C176.81 498.338 172.686 496.922 165.442 493.009Z" fill="black" fill-opacity="0.05"/>
<path fill-rule="evenodd" clip-rule="evenodd" d="M148.169 325.831C147.418 304.884 146.216 262.665 147.418 261.37L184.228 257.123C181.975 260.83 177.467 272.089 177.467 287.474V326.988C171.445 322.934 157.793 317.573 148.169 325.831Z" fill="black" fill-opacity="0.05"/>
<path fill-rule="evenodd" clip-rule="evenodd" d="M184.228 257.123C185.606 248.859 191.44 231.28 203.76 227.074C202.698 226.277 196.274 222.877 192.116 220.715C184.922 221.936 161.092 247.059 151.482 257.19C149.049 259.754 147.528 261.358 147.418 261.37L184.228 257.123Z" fill="black" fill-opacity="0.05"/>
<path d="M145.164 261.63C160.79 239.093 181.975 224.444 190.614 219.937C191.064 220.169 191.571 220.432 192.116 220.715C184.922 221.936 161.092 247.059 151.482 257.19C149.049 259.754 147.528 261.358 147.418 261.37L145.164 261.63Z" fill="black" fill-opacity="0.3"/>
<path d="M145.915 328.115C145.601 319.791 145.215 308.156 144.94 296.938C144.808 291.573 144.702 286.304 144.641 281.538C144.554 274.73 144.559 268.95 144.714 265.386C144.807 263.264 144.953 261.928 145.164 261.63L147.418 261.37C146.216 262.665 147.418 304.884 148.169 325.831C147.389 326.5 146.636 327.259 145.915 328.115Z" fill="black" fill-opacity="0.3"/>
<path d="M145.915 328.115C144.833 326.858 143.431 325.151 141.953 323.232C138.13 318.27 133.795 311.891 133.145 308.207C138.759 313.814 146.795 311.016 144.94 296.938C145.215 308.156 145.601 319.791 145.915 328.115Z" fill="black" fill-opacity="0.2"/>
<path d="M144.641 281.538C142.812 278.408 138.553 272.072 136.149 271.772C138.103 269.268 142.551 264.485 144.714 265.386C144.559 268.95 144.554 274.73 144.641 281.538Z" fill="black" fill-opacity="0.12"/>
<path d="M360.768 264.26C370.645 273.153 365.573 283.576 363.773 286.421C363.346 286.34 362.835 286.249 362.271 286.157C359.361 285.682 355.018 285.167 353.256 285.67C354.633 279.801 355.585 267.682 348.373 266.161C352.048 265.105 356.163 264.433 360.768 264.26Z" fill="black" fill-opacity="0.1"/>
<path d="M364.9 287.548C367.004 287.548 367.905 288.55 370.159 289.802C363.648 330.493 327.113 411.502 233.059 409.999C232.762 409.851 231.819 409.467 230.476 408.921C228.275 408.026 225 406.695 221.739 405.247C319.66 405.916 356.227 326.132 362.271 286.157C362.835 286.249 363.346 286.34 363.773 286.421C363.484 286.878 366.304 286.797 364.9 287.548Z" fill="black" fill-opacity="0.1"/>
<path d="M323.207 320.602L333.348 299.943C334.676 297.239 337.658 293.808 338.983 292.431C338.482 300.194 332.222 320.828 311.187 341.261L308.182 338.632C311.187 338.632 319.451 326.612 323.207 320.602Z" fill="black" fill-opacity="0.15"/>
<path d="M280.762 383.33C267.295 385.866 229.261 380.945 188.736 334.124L191.966 334.313C199.121 340.287 211.15 350.249 219.162 356.661C223.158 359.86 226.155 362.175 227.049 362.671C227.499 362.921 228.262 363.438 229.296 364.137C229.534 364.299 229.787 364.47 230.054 364.65C231.616 365.703 233.654 367.056 236.064 368.502C244.849 373.775 258.567 380.29 272.123 378.072C274.001 379.449 278.358 382.429 280.762 383.33Z" fill="black" fill-opacity="0.15"/>
<path d="M148.169 325.831C157.793 317.573 171.445 322.934 177.467 326.988L191.741 334.124H188.736C229.261 380.945 267.295 385.866 280.762 383.33C282.85 383.968 286.017 384.176 289.026 382.872C292.512 381.361 295.784 377.818 296.914 370.559C298.1 370.671 299.583 370.56 301.045 370.053C302.505 369.547 303.944 368.647 305.045 367.179C306.684 364.994 307.576 361.553 306.68 356.286C307.721 355.696 308.947 354.809 310.06 353.689C312.962 350.768 315.096 346.256 311.187 341.261C332.222 320.828 338.482 300.194 338.983 292.431L341.236 290.553C341.487 299.067 336.654 321.128 315.319 341.261C316.821 345.518 317.948 354.633 310.436 357.037C310.937 362.546 309.234 373.489 298.416 373.189C298.291 378.072 294.585 387.237 280.762 384.833C266.739 388.714 227.424 384.382 182.35 336.003C174.588 330.493 155.907 322.105 143.286 332.622L145.915 328.115C146.636 327.259 147.389 326.5 148.169 325.831Z" fill="black" fill-opacity="0.08"/>
<path d="M306.68 356.286C305.114 352.484 297.418 343.551 278.884 335.477C276.663 334.509 274.287 333.554 271.747 332.622C271.945 332.16 272.223 331.648 272.586 331.119C275.054 331.847 277.404 332.642 279.635 333.487C291.411 337.943 299.887 343.78 305.06 348.398C307.407 350.493 309.074 352.338 310.06 353.689C308.947 354.809 307.721 355.696 306.68 356.286Z" fill="black" fill-opacity="0.14"/>
<path d="M251.839 362.671C241.923 359.065 237.19 365.056 236.064 368.502C233.654 367.056 231.616 365.703 230.054 364.65C239.669 356.617 248.083 356.979 251.088 358.164L251.839 362.671Z" fill="black" fill-opacity="0.12"/>
<path d="M251.839 362.671L251.088 358.164H253.342L255.493 364.925L255.971 366.428C254.844 366.428 252.44 365.676 251.839 362.671Z" fill="black" fill-opacity="0.12"/>
<path fill-rule="evenodd" clip-rule="evenodd" d="M284.945 325.316C279.436 323.2 270.212 319.658 257.849 329.617C247.032 338.331 239.569 345.017 237.19 347.271L226.298 353.281L219.162 356.661C223.158 359.86 226.155 362.175 227.049 362.671C227.499 362.921 228.262 363.438 229.296 364.137C229.534 364.299 229.787 364.47 230.054 364.65C239.669 356.617 248.083 356.979 251.088 358.164H253.342C252.741 355.459 253.092 353.031 253.342 352.154C253.568 348.849 256.441 346.52 257.849 345.769C258.101 345.795 258.351 345.823 258.601 345.854L259.727 341.261C263.446 333.485 272.338 334.838 274.626 335.186C274.88 335.225 275.053 335.251 275.128 335.251C276.158 335.6 277.16 335.984 278.133 336.399L278.884 335.477C276.663 334.509 274.287 333.554 271.747 332.622C271.945 332.16 272.223 331.648 272.586 331.119C274.749 327.961 279.899 324.193 288.65 326.856C287.765 326.418 287 326.076 286.396 325.861C285.945 325.7 285.462 325.514 284.945 325.316Z" fill="black" fill-opacity="0.18"/>
<path d="M306.68 356.286C307.576 361.553 306.684 364.994 305.045 367.179C305.105 357.034 295.902 342.089 278.133 336.399L278.884 335.477C297.418 343.551 305.114 352.484 306.68 356.286Z" fill="black" fill-opacity="0.1"/>
<path d="M296.914 370.559C295.784 377.818 292.512 381.361 289.026 382.872C289.841 382.072 290.091 380.938 290.528 379.95C298.04 372.813 282.241 354.166 253.342 352.154C253.568 348.849 256.441 346.52 257.849 345.769C258.101 345.795 258.351 345.823 258.601 345.854L259.727 341.261C278.507 341.503 299.918 364.549 301.045 370.053C299.583 370.56 298.1 370.671 296.914 370.559Z" fill="black" fill-opacity="0.14"/>
<path d="M272.586 331.119C274.749 327.961 279.899 324.193 288.65 326.856C290.083 327.566 291.829 328.529 293.707 329.617C283.329 327.814 280.002 331.445 279.635 333.487C277.404 332.642 275.054 331.847 272.586 331.119Z" fill="black" fill-opacity="0.15"/>
<path d="M280.762 383.33C278.358 382.429 274.001 379.449 272.123 378.072C268.367 374.19 259.878 366.428 255.971 366.428L255.493 364.925C260.035 365.05 270.245 367.254 274.752 375.067C279.26 382.88 287.022 381.501 290.528 379.95C290.091 380.938 289.841 382.072 289.026 382.872C286.017 384.176 282.85 383.968 280.762 383.33Z" fill="black" fill-opacity="0.2"/>
<path d="M175.214 369.432L172.209 362.671L199.441 390.091C189.504 382.471 176.51 372.35 175.214 369.432Z" fill="black" fill-opacity="0.07"/>
<path d="M140.281 358.164C144.188 365.376 163.194 364.174 172.209 362.671L175.214 369.432C171.307 370.935 155.556 369.438 148.169 368.502C144.683 367.054 142.57 364.221 141.408 361.718C140.767 360.337 140.415 359.056 140.281 358.164Z" fill="black" fill-opacity="0.07"/>
<path d="M148.169 368.502C155.556 369.438 171.307 370.935 175.214 369.432C176.51 372.35 189.504 382.471 199.441 390.091C205.794 394.963 210.897 398.813 210.897 399.106C209.174 399.932 207.417 400.691 205.639 401.388C205.618 401.4 205.595 401.408 205.571 401.414C203.166 402.011 184.393 374.653 159.438 373.94C143.56 373.486 136.616 366.958 133.968 360.43C132.108 355.842 132.369 351.254 133.145 348.774L134.271 352.53L133.896 360.418L133.968 360.43L141.408 361.718C142.57 364.221 144.683 367.054 148.169 368.502Z" fill="black" fill-opacity="0.18"/>
<path d="M133.896 360.418L134.271 352.53C136.976 356.436 138.904 355.66 139.53 354.783L140.281 358.164C140.415 359.056 140.767 360.337 141.408 361.718L133.968 360.43L133.896 360.418Z" fill="black" fill-opacity="0.18"/>
<path d="M134.271 352.53L133.145 348.774C133.145 345.691 133.481 343.254 133.968 341.366C134.811 338.101 136.107 336.479 136.901 336.003C134.797 339.308 135.774 346.144 136.525 349.149L134.271 352.53Z" fill="black" fill-opacity="0.18"/>
<path d="M145.915 328.115L143.286 332.622C141.784 331.119 138.403 334.25 136.901 336.003C137.514 332.622 139.383 325.335 141.953 323.232C143.431 325.151 144.833 326.858 145.915 328.115Z" fill="black" fill-opacity="0.3"/>
<path d="M159.438 373.94C184.393 374.653 203.166 402.011 205.571 401.414C203.55 402.205 201.502 402.916 199.441 403.554C192.116 394.309 173.861 376.269 159.438 378.072C141.408 380.325 133.788 362.671 133.896 360.418L133.968 360.43C136.616 366.958 143.56 373.486 159.438 373.94Z" fill="black" fill-opacity="0.12"/>
<path d="M133.145 308.207C133.795 311.891 138.13 318.27 141.953 323.232C139.383 325.335 137.514 332.622 136.901 336.003C136.107 336.479 134.811 338.101 133.968 341.366C134.042 341.094 133.408 335.686 133.047 328.115C132.771 322.304 132.655 315.22 133.145 308.207Z" fill="black" fill-opacity="0.12"/>
<path d="M133.145 308.207C132.655 315.22 132.771 322.304 133.047 328.115C132.393 326.988 131.266 304.451 127.135 300.695L130.515 295.811L133.145 308.207Z" fill="black" fill-opacity="0.04"/>
<path d="M152.677 408.121C135.398 405.742 100.09 393.096 108.354 343.139C107.102 368.172 120.374 416.023 183.477 407.169C178.016 408.004 172.776 408.435 168.077 408.598C161.659 408.822 156.252 408.547 152.677 408.121Z" fill="black" fill-opacity="0.08"/>
<path d="M364.9 151.95C380.826 187.108 351.503 211.924 334.851 219.937C331.923 221.964 320.515 225.945 311.187 228.973C349.35 184.817 342.614 136.188 334.475 117.393C346.795 117.694 359.892 140.556 364.9 151.95Z" fill="black" fill-opacity="0.2"/>
<path d="M311.187 228.973C308.068 229.985 305.182 230.891 302.923 231.581C299.675 233.29 288.412 234.595 276.63 235.494C328.315 213.064 336.729 147.415 334.475 117.393C342.614 136.188 349.35 184.817 311.187 228.973Z" fill="black" fill-opacity="0.1"/>
<path d="M334.469 117.347C334.105 115.53 318.805 69.9744 296.538 62.5521C306.926 64.9308 329.048 79.2199 334.469 117.347Z" fill="black" fill-opacity="0.1"/>
<path d="M284.56 182.954C276.613 185.845 257.83 188.941 235.312 181.623C236.024 181.851 274.168 186.031 284.56 182.954Z" fill="black" fill-opacity="0.1"/>
<path d="M296.162 195.145C299.543 190.888 304.426 180.195 296.914 171.481C302.423 175.488 309.985 185.83 296.162 195.145Z" fill="black" fill-opacity="0.12"/>
<path d="M316.446 181.623C316.07 181.623 314.943 161.715 299.543 159.086C299.918 159.154 322.455 160.964 316.446 181.623Z" fill="black" fill-opacity="0.1"/>
<path d="M167.701 191.39L179.345 189.136C177.593 191.916 175.664 200.51 181.975 212.65C175.178 206.27 168.111 197.945 167.701 191.39Z" fill="black" fill-opacity="0.12"/>
<path d="M178.594 158.336C178.294 158.336 170.205 159.838 166.199 160.589C166.7 152.201 169.805 134.296 178.219 129.789C178.961 130.432 180.16 131.376 181.599 132.357C182.979 133.297 184.578 134.272 186.206 135.047C182.918 137.927 176.791 146.616 178.594 158.336Z" fill="black" fill-opacity="0.12"/>
<path d="M179.345 189.136L167.701 191.39L159.813 193.267L154.93 186.13C153.117 187.019 169.754 191.626 179.345 189.136Z" fill="black" fill-opacity="0.1"/>
<path d="M181.599 132.357C180.16 131.376 178.961 130.432 178.219 129.789C176.716 129.037 171.98 124.906 171.155 121.15C172.031 121.667 173.005 122.171 174.087 122.652C174.225 122.79 176.337 123.333 179.457 123.779L190.614 126.033C180.397 125.131 180.347 129.873 181.599 132.357Z" fill="black" fill-opacity="0.12"/>
<path d="M261.606 136.174C253.342 136.8 234.862 136.174 227.049 128.662C226.047 126.158 224.344 120.774 225.546 119.271C229.177 124.906 241.472 136.174 261.606 136.174Z" fill="black" fill-opacity="0.1"/>
<path d="M166.199 109.505C169.805 120.924 189.988 123.028 199.629 122.652C193.21 125.029 184.836 124.548 179.457 123.779C176.337 123.333 174.225 122.79 174.087 122.652C173.005 122.171 172.031 121.667 171.155 121.15C165.468 117.788 163.945 113.871 163.945 112.135L166.199 109.505Z" fill="black" fill-opacity="0.1"/>
<path d="M223.668 108.754C223.558 107.103 223.932 103.651 226.066 101.616C226.359 101.337 226.686 101.084 227.049 100.866C228.417 99.9833 230.716 98.9572 233.752 98.2357C239.327 96.9109 247.384 96.6131 256.723 100.115C247.457 98.9882 227.875 99.1386 223.668 108.754Z" fill="black" fill-opacity="0.22"/>
<path d="M174.087 89.5974C182.2 88.6959 186.983 89.2218 188.36 89.5974C182.976 89.7225 171.382 91.2497 168.077 96.3581C167.476 96.3581 164.571 97.8608 163.194 98.6122C163.39 96.5505 164.988 92.7338 169.579 90.7472C170.263 90.4517 171.012 90.1966 171.833 89.9939C172.531 89.8214 173.282 89.6868 174.087 89.5974Z" fill="black" fill-opacity="0.22"/>
<path d="M190.238 83.9628C178.219 82.4603 172.96 87.3575 171.833 89.9939C171.012 90.1966 170.263 90.4517 169.579 90.7472C169.079 90.4961 168.828 89.013 171.833 85.0893C174.838 81.1656 185.355 82.7034 190.238 83.9628Z" fill="black" fill-opacity="0.19"/>
<path d="M214.278 71.9425C228.097 77.717 243.331 77.1364 249.21 73.445L246.956 78.328L236.439 83.9628C234.636 80.3572 220.914 74.447 214.278 71.9425Z" fill="black" fill-opacity="0.19"/>
<path d="M246.956 78.328L249.21 73.445L252.215 69.3132C272.736 74.0006 285.208 81.4264 288.65 84.3379C266.113 71.9425 247.048 78.1301 246.956 78.328Z" fill="black" fill-opacity="0.19"/>
<path d="M257.849 65.1814L256.723 63.679C258.851 62.3017 263.333 58.9462 264.235 56.5422L269.493 21.6098C270.996 18.9805 273.851 13.1209 273.25 10.7169C275.503 12.2194 278.734 16.5766 273.625 21.9855L270.62 23.8635L268.367 57.2935C269.118 58.1699 270.62 59.9979 270.62 60.2984C270.62 60.674 261.981 62.5521 257.849 65.1814Z" fill="black" fill-opacity="0.2"/>
<path d="M264.235 56.5422C263.333 58.9462 258.851 62.3017 256.723 63.679L252.591 62.1765C254.593 62.0513 259.273 60.5238 261.981 55.4154L269.118 20.483C270.245 18.2293 272.498 12.8955 272.498 9.59009L273.25 10.7169C273.851 13.1209 270.996 18.9805 269.493 21.6098L264.235 56.5422Z" fill="black" fill-opacity="0.12"/>
<path d="M223.668 108.754C227.875 99.1386 247.457 98.9882 256.723 100.115C250.713 100.365 237.19 101.767 231.181 105.372C230.58 105.372 225.922 107.627 223.668 108.754Z" fill="black" fill-opacity="0.13"/>
<path d="M168.077 96.3581C171.382 91.2497 182.976 89.7225 188.36 89.5974C188.961 89.5974 191.115 89.8617 192.116 89.9939C188.11 90.1115 178.594 91.3234 172.584 95.2308L168.077 96.3581Z" fill="black" fill-opacity="0.13"/>
<path d="M174.087 89.5974C173.282 89.6868 172.531 89.8214 171.833 89.9939C172.96 87.3575 178.219 82.4603 190.238 83.9628C182.726 83.0615 176.34 87.3437 174.087 89.5974Z" fill="black" fill-opacity="0.13"/>
<path d="M233.752 98.2357C230.716 98.9572 228.417 99.9833 227.049 100.866C226.686 101.084 226.359 101.337 226.066 101.616L224.795 98.2357C232.608 90.4229 248.334 91.4746 255.22 92.9771C243.801 90.5731 236.15 95.4812 233.752 98.2357Z" fill="black" fill-opacity="0.13"/>
<path d="M288.65 84.3379C285.208 81.4264 272.736 74.0006 252.215 69.3132L257.849 65.1814C267.487 67.9849 282.216 79.463 288.65 84.3379Z" fill="black" fill-opacity="0.1"/>
<path d="M249.21 73.445C243.331 77.1364 228.097 77.717 214.278 71.9425C227.626 75.6455 245.233 72.7118 252.215 69.3132L249.21 73.445Z" fill="black" fill-opacity="0.1"/>
</g>
<defs>
<clipPath id="clip0_127_152">
<rect width="512" height="512" fill="white"/>
</clipPath>
</defs>
</svg>
