<svg width="512" height="512" viewBox="0 0 512 512" fill="none" xmlns="http://www.w3.org/2000/svg">
<g clip-path="url(#clip0_127_92)">
<path d="M207.279 97.6163C211.186 96.2935 218.361 96.0961 221.305 97.8645L225.925 100.708C223.749 102.201 215.323 113.599 213.067 116.245C208.062 114.164 199.647 110.164 196.739 109.137C198.756 103.562 204.173 98.6679 207.279 97.6163Z" fill="#9A9DAE"/>
<path d="M219.057 62.4981L221.305 97.8645C218.361 96.0961 211.186 96.2935 207.279 97.6163L212.499 61.5149C215.788 55.6161 217.966 58.7881 218.842 61.6834C218.926 61.9602 218.998 62.2345 219.057 62.4981Z" fill="#9A9DAE"/>
<path d="M212.499 61.5149C210.964 60.715 207.945 57.8572 208.157 52.8251C208.423 46.5349 214.309 45.7782 215.945 45.7621C217.582 45.7459 222.827 46.3928 223.872 52.67C224.707 57.6918 220.867 60.7713 218.842 61.6834C217.966 58.7881 215.788 55.6161 212.499 61.5149Z" fill="#A7A9B8"/>
<path d="M221.305 97.8645L219.057 62.4981C218.998 62.2345 218.926 61.9602 218.842 61.6834M221.305 97.8645C218.361 96.0961 211.186 96.2935 207.279 97.6163M221.305 97.8645L225.925 100.708C223.749 102.201 215.323 113.599 213.067 116.245C208.062 114.164 199.647 110.164 196.739 109.137C198.756 103.562 204.173 98.6679 207.279 97.6163M212.499 61.5149L207.279 97.6163M212.499 61.5149C210.964 60.715 207.945 57.8572 208.157 52.8251C208.423 46.5349 214.309 45.7782 215.945 45.7621C217.582 45.7459 222.827 46.3928 223.872 52.67C224.707 57.6918 220.867 60.7713 218.842 61.6834M212.499 61.5149C215.788 55.6161 217.966 58.7881 218.842 61.6834" stroke="black" stroke-width="2"/>
<path d="M251.594 267.062C242.787 272.991 226.222 282.522 210.437 287.799C205.352 287.987 194.57 288.48 192.122 288.947C189.675 289.414 188.105 287.918 187.626 287.111C186.813 284.98 185.943 280.083 188.971 277.546C191.998 275.008 193.208 272.491 193.435 271.549C193.683 269.869 195.778 266.448 202.17 266.207C203.555 266.155 204.713 266.102 205.698 266.057C210.398 265.843 211.178 265.807 214.005 266.888C222.504 263.714 241.92 259.306 251.594 267.062Z" fill="#A70000"/>
<path d="M178.547 193.552C175.523 195.599 169.876 196.677 163.623 197.136C157.37 197.595 137.27 202.166 133.876 203.549C131.161 204.655 123.309 199.769 119.723 197.187L119.317 195.06C122.608 191.41 133.565 183.521 151.063 181.161C168.561 178.801 178.623 185.862 182.05 190.189L183.03 191.49C181.487 192.001 179.814 192.695 178.547 193.552Z" fill="white"/>
<path fill-rule="evenodd" clip-rule="evenodd" d="M163.623 197.136C169.876 196.677 175.523 195.599 178.547 193.552C179.814 192.695 181.487 192.001 183.03 191.49L182.05 190.189C178.623 185.862 168.561 178.801 151.063 181.161C133.565 183.521 122.608 191.41 119.317 195.06L119.723 197.187C123.309 199.769 131.161 204.655 133.876 203.549C137.27 202.166 157.37 197.595 163.623 197.136Z" fill="#68984C"/>
<path d="M210.607 122.601C206.534 125.488 203.498 128.61 201.547 131.35C178.662 126.24 154.16 138.744 144.769 145.634C144.358 134.112 149.486 109.785 173.283 104.655C197.081 99.5244 209.548 105.129 212.806 108.573C210.561 113.782 210.149 118.936 210.607 122.601Z" fill="#68984C"/>
<path d="M127.905 251.477C126.999 253.12 124.631 255.532 122.403 252.038C119.618 247.67 119.348 246.252 121.64 241.65C123.473 237.968 128.182 230.357 130.307 227.012C130.918 234.898 136.165 250.292 152.266 248.787C168.367 247.281 219.979 230.472 243.773 222.256C250.535 218.924 265.567 211.482 271.606 208.369C272.723 207.794 274.574 206.655 276.907 205.22C290.343 196.955 319.721 178.883 316.293 202.289L316.29 202.309C315.637 207.427 314.023 220.079 298.609 239.96C283.394 258.624 243.761 295.013 205.527 299.127C204.74 299.204 203.904 299.293 203.026 299.387C191.172 300.655 174.03 300.226 157.792 286.681C145.919 276.777 138.034 272.5 136.165 270.18C136.078 270.053 135.989 269.924 135.9 269.793C132.379 264.625 128.011 256.894 127.905 251.477C128.08 249.257 128.906 246.282 130.861 246.522C132.684 254.028 143.374 264.378 148.491 268.615C150.547 270.019 156.433 274.448 163.523 280.933C170.614 287.419 182.117 290.612 186.981 291.398C193.691 292.242 201.951 290.635 210.437 287.799C226.222 282.522 242.787 272.991 251.594 267.062C257.137 263.309 269.087 254.708 272.542 250.325C282.278 241.939 293.915 227.584 298.517 221.454C302.403 217.191 305.216 208.568 306.636 205.357C307.344 200.976 306.448 194.664 297.198 204.464C287.949 214.265 265.79 226.872 255.866 231.951C213.644 251.965 172.479 257.585 157.175 257.894C151.646 257.887 139.398 256.24 134.638 249.702C133.066 247.542 131.826 246.641 130.861 246.522C128.906 246.282 128.08 249.257 127.905 251.477Z" fill="#AD683D"/>
<path d="M134.638 249.702C139.398 256.24 151.646 257.887 157.175 257.894C172.479 257.585 213.644 251.965 255.866 231.951C265.79 226.872 287.949 214.265 297.198 204.464C306.448 194.664 307.344 200.976 306.636 205.357C305.216 208.568 302.403 217.191 298.517 221.454C293.915 227.584 282.278 241.939 272.542 250.325C269.087 254.708 257.137 263.309 251.594 267.062C241.92 259.306 222.504 263.714 214.005 266.888C211.178 265.807 210.398 265.843 205.698 266.057C204.713 266.102 203.555 266.155 202.17 266.207C195.778 266.448 193.683 269.869 193.435 271.549C193.208 272.491 191.998 275.008 188.971 277.546C185.943 280.083 186.813 284.98 187.626 287.111C188.105 287.918 189.675 289.414 192.122 288.947C194.57 288.48 205.352 287.987 210.437 287.799C201.951 290.635 193.691 292.242 186.981 291.398C182.117 290.612 170.614 287.419 163.523 280.933C156.433 274.448 150.547 270.019 148.491 268.615C143.374 264.378 132.684 254.028 130.861 246.522C131.826 246.641 133.066 247.542 134.638 249.702Z" fill="black"/>
<path d="M215.918 144.04C193.804 154.924 187.613 178.022 187.282 188.211C186.327 182.646 184.844 171.226 185.521 164.785C191.683 148.911 209.716 143.816 217.963 143.252C217.214 143.523 216.53 143.788 215.918 144.04Z" fill="#68984C"/>
<path fill-rule="evenodd" clip-rule="evenodd" d="M178.547 193.552C175.523 195.599 169.876 196.677 163.623 197.136C157.37 197.595 137.27 202.166 133.876 203.549C131.161 204.655 123.309 199.769 119.723 197.187L119.317 195.06C122.608 191.41 133.565 183.521 151.063 181.161C168.561 178.801 178.623 185.862 182.05 190.189L183.03 191.49C181.487 192.001 179.814 192.695 178.547 193.552Z" fill="white"/>
<path d="M277.632 159.451C275.007 160.605 268.919 164.397 265.564 170.328C265.675 172.185 263.634 175.547 254.586 174.139C245.538 172.73 231.274 176.792 225.274 178.999C220.398 181.563 208.744 187.2 201.135 189.241C198.769 189.199 195.064 189.419 192.721 190.293C191.219 185.824 193.21 177.809 194.393 174.36C201.733 167.113 215.745 163.545 229.321 160.089L229.323 160.088L229.326 160.088L229.329 160.087L230.235 159.856C231.143 159.625 232.048 159.394 232.949 159.161C244.663 156.141 261.344 159.294 268.22 161.248C274.375 157.721 277.059 158.58 277.632 159.451Z" fill="white"/>
<path fill-rule="evenodd" clip-rule="evenodd" d="M288.869 312.859C209.02 356.517 155.285 304.634 138.399 273.236C137.754 272.41 136.987 271.37 136.165 270.18C138.034 272.5 145.919 276.777 157.792 286.681C174.03 300.226 191.172 300.655 203.026 299.387C203.904 299.293 204.74 299.204 205.527 299.127C243.761 295.013 283.394 258.624 298.609 239.96C314.023 220.079 315.637 207.427 316.29 202.309L316.293 202.289C319.721 178.883 290.343 196.955 276.907 205.22C274.574 206.655 272.723 207.794 271.606 208.369C265.567 211.482 250.535 218.924 243.773 222.256C219.979 230.472 168.367 247.281 152.266 248.787C136.165 250.292 130.918 234.898 130.307 227.012C130.037 225.594 130.523 222.268 134.636 220.307C131.624 219.004 125.758 215.191 126.398 210.366C123.79 209.476 118.186 206.691 116.639 202.675C115.092 198.659 116.25 196.38 117.022 195.743C117.756 195.06 118.739 193.581 118.685 191.751C118.658 190.826 118.365 189.812 117.642 188.766C117.241 187.944 116.132 185.967 114.902 184.634C113.672 183.301 113.595 181.617 113.71 180.942C114.779 178.452 118.494 172.533 124.801 168.782C128.557 162.831 136.734 151.738 144.769 145.634C154.16 138.744 178.662 126.24 201.547 131.35C197.207 137.339 191.128 149.207 188.63 154.393C186.384 157.957 185.93 161.114 185.984 162.247C185.774 162.955 185.623 163.813 185.521 164.785C184.844 171.226 186.327 182.646 187.282 188.211C187.613 178.022 193.804 154.924 215.918 144.04C216.53 143.788 217.214 143.523 217.963 143.252C226.708 140.083 244.249 136.001 258.377 140.345C273.714 145.06 276.221 147.799 275.557 148.579C280.772 149.99 288.345 153.902 279.195 158.697C274.062 153.95 260.597 144.82 247.805 146.282C216.948 145.575 199.34 164.706 194.393 174.36C193.21 177.809 191.219 185.824 192.721 190.293C195.064 189.419 198.769 189.199 201.135 189.241C208.744 187.2 220.398 181.563 225.274 178.999C231.274 176.792 245.538 172.73 254.586 174.139C263.634 175.547 265.675 172.185 265.564 170.328C268.919 164.397 275.007 160.605 277.632 159.451C278.2 159.197 278.72 158.946 279.195 158.697C288.345 153.902 280.772 149.99 275.557 148.579C276.221 147.799 273.714 145.06 258.377 140.345C244.249 136.001 226.708 140.083 217.963 143.252C209.716 143.816 191.683 148.911 185.521 164.785C185.623 163.813 185.774 162.955 185.984 162.247C185.93 161.114 186.384 157.957 188.63 154.393C191.128 149.207 197.207 137.339 201.547 131.35C203.498 128.61 206.534 125.488 210.607 122.601C210.149 118.936 210.561 113.782 212.806 108.573C216.588 99.8005 225.57 90.8721 244.362 88.6376C251.436 87.369 268.695 87.0794 281.141 96.07C293.083 104.696 305.476 115.689 313.79 132.462C329.93 143.426 363.212 174.716 367.22 212.165C371.482 232.615 360.762 273.551 288.869 312.859ZM163.623 197.136C169.876 196.677 175.523 195.599 178.547 193.552C179.814 192.695 181.487 192.001 183.03 191.49L182.05 190.189C178.623 185.862 168.561 178.801 151.063 181.161C133.565 183.521 122.608 191.41 119.317 195.06L119.723 197.187C123.309 199.769 131.161 204.655 133.876 203.549C137.27 202.166 157.37 197.595 163.623 197.136Z" fill="#68984C"/>
<path d="M277.632 159.451C277.059 158.58 274.375 157.721 268.22 161.248C261.344 159.294 244.663 156.141 232.949 159.161C232.048 159.394 231.143 159.625 230.235 159.856L229.329 160.087L229.326 160.088L229.323 160.088L229.321 160.089C215.745 163.545 201.733 167.113 194.393 174.36C199.34 164.706 216.948 145.575 247.805 146.282C260.597 144.82 274.062 153.95 279.195 158.697C278.72 158.946 278.2 159.197 277.632 159.451Z" fill="#68984C"/>
<path d="M127.905 251.477C126.999 253.12 124.631 255.532 122.403 252.038C119.618 247.67 119.348 246.252 121.64 241.65C123.473 237.968 128.182 230.357 130.307 227.012M127.905 251.477C128.011 256.894 132.379 264.625 135.9 269.793M127.905 251.477C128.08 249.257 128.906 246.282 130.861 246.522M130.307 227.012C130.037 225.594 130.523 222.268 134.636 220.307M130.307 227.012C130.918 234.898 136.165 250.292 152.266 248.787C168.367 247.281 219.979 230.472 243.773 222.256C250.535 218.924 265.567 211.482 271.606 208.369C272.723 207.794 274.574 206.655 276.907 205.22C290.343 196.955 319.721 178.883 316.293 202.289M134.636 220.307C137.727 221.595 146.409 222.959 156.409 218.11M134.636 220.307C131.624 219.004 125.758 215.191 126.398 210.366M126.398 210.366C131.435 211.201 143.621 211.929 152.071 208.16M126.398 210.366C123.79 209.476 118.186 206.691 116.639 202.675C115.092 198.659 116.25 196.38 117.022 195.743C117.756 195.06 118.739 193.581 118.685 191.751M124.801 168.782C118.494 172.533 114.779 178.452 113.71 180.942C113.595 181.617 113.672 183.301 114.902 184.634C116.132 185.967 117.241 187.944 117.642 188.766C118.365 189.812 118.658 190.826 118.685 191.751M124.801 168.782C131.108 165.03 141.575 159.942 153.884 158.335C166.193 156.728 171.544 159.959 177.08 163.409M124.801 168.782C128.557 162.831 136.734 151.738 144.769 145.634M201.547 131.35C203.498 128.61 206.534 125.488 210.607 122.601M201.547 131.35C178.662 126.24 154.16 138.744 144.769 145.634M201.547 131.35C197.207 137.339 191.128 149.207 188.63 154.393C186.384 157.957 185.93 161.114 185.984 162.247C185.774 162.955 185.623 163.813 185.521 164.785M278.169 121.379C246.385 106.788 223.388 113.54 210.607 122.601M210.607 122.601C210.149 118.936 210.561 113.782 212.806 108.573M320.095 149.386C318.451 143.151 316.308 137.542 313.79 132.462M313.79 132.462C305.476 115.689 293.083 104.696 281.141 96.07C268.695 87.0794 251.436 87.369 244.362 88.6376C225.57 90.8721 216.588 99.8005 212.806 108.573M313.79 132.462C329.93 143.426 363.212 174.716 367.22 212.165C371.482 232.615 360.762 273.551 288.869 312.859C209.02 356.517 155.285 304.634 138.399 273.236C137.754 272.41 136.987 271.37 136.165 270.18M183.501 185.013C177.168 177.811 160.979 164.374 146.89 168.24C132.8 172.105 128.597 175.083 124.062 178.966C119.528 182.85 120.683 184.902 118.685 191.751M186.511 190.562C185.727 190.712 184.433 191.026 183.03 191.49M277.632 159.451C275.007 160.605 268.919 164.397 265.564 170.328C265.675 172.185 263.634 175.547 254.586 174.139C245.538 172.73 231.274 176.792 225.274 178.999C220.398 181.563 208.744 187.2 201.135 189.241C198.769 189.199 195.064 189.419 192.721 190.293M277.632 159.451C277.059 158.58 274.375 157.721 268.22 161.248C261.344 159.294 244.663 156.141 232.949 159.161C232.048 159.394 231.143 159.625 230.235 159.856M277.632 159.451C278.2 159.197 278.72 158.946 279.195 158.697M271.61 184.117C269.479 183.729 265.384 183.561 259.937 184.287M269.174 171.354C270.286 173.771 269.995 179.742 259.937 184.287M259.937 184.287C254.191 185.053 246.941 186.814 238.904 190.36C225.866 196.113 209.7 197.706 199.966 197.841M194.393 174.36C193.21 177.809 191.219 185.824 192.721 190.293M194.393 174.36C201.733 167.113 215.745 163.545 229.321 160.089L229.323 160.088L229.326 160.088L229.329 160.087M194.393 174.36C199.34 164.706 216.948 145.575 247.805 146.282C260.597 144.82 274.062 153.95 279.195 158.697M192.721 190.293C191.186 190.865 190.235 191.718 190.627 192.961C191.617 196.104 193.928 197.476 194.959 197.769C196.317 197.837 198.012 197.868 199.966 197.841M279.195 158.697C288.345 153.902 280.772 149.99 275.557 148.579C276.221 147.799 273.714 145.06 258.377 140.345C244.249 136.001 226.708 140.083 217.963 143.252M217.963 143.252C217.214 143.523 216.53 143.788 215.918 144.04C193.804 154.924 187.613 178.022 187.282 188.211C186.327 182.646 184.844 171.226 185.521 164.785M217.963 143.252C209.716 143.816 191.683 148.911 185.521 164.785M178.189 171.901C172.563 167.164 161.217 161.76 152.146 164.195M316.293 202.289L316.29 202.309M316.293 202.289C316.292 202.296 316.291 202.302 316.29 202.309M135.9 269.793C135.968 269.916 136.056 270.044 136.165 270.18M135.9 269.793C135.989 269.924 136.078 270.053 136.165 270.18M319.006 203.731C321.16 198.829 323.923 188.095 317.75 184.373C311.577 180.652 299.582 186.29 294.356 189.574M322.691 183.43C319.765 179.171 310.048 173.154 294.595 183.159M251.594 267.062C257.137 263.309 269.087 254.708 272.542 250.325C282.278 241.939 293.915 227.584 298.517 221.454C302.403 217.191 305.216 208.568 306.636 205.357C307.344 200.976 306.448 194.664 297.198 204.464C287.949 214.265 265.79 226.872 255.866 231.951C213.644 251.965 172.479 257.585 157.175 257.894C151.646 257.887 139.398 256.24 134.638 249.702C133.066 247.542 131.826 246.641 130.861 246.522M251.594 267.062C242.787 272.991 226.222 282.522 210.437 287.799M251.594 267.062C241.92 259.306 222.504 263.714 214.005 266.888M130.861 246.522C132.684 254.028 143.374 264.378 148.491 268.615C150.547 270.019 156.433 274.448 163.523 280.933C170.614 287.419 182.117 290.612 186.981 291.398C193.691 292.242 201.951 290.635 210.437 287.799M144.769 145.634C144.358 134.112 149.486 109.785 173.283 104.655C197.081 99.5244 209.548 105.129 212.806 108.573M210.437 287.799C205.352 287.987 194.57 288.48 192.122 288.947C189.675 289.414 188.105 287.918 187.626 287.111C186.813 284.98 185.943 280.083 188.971 277.546C191.998 275.008 193.208 272.491 193.435 271.549C193.683 269.869 195.778 266.448 202.17 266.207C203.555 266.155 204.713 266.102 205.698 266.057C210.398 265.843 211.178 265.807 214.005 266.888M214.005 266.888C212.708 268.605 210.155 272.522 210.328 274.449C212.219 270.286 213.12 268.641 214.476 266.798M183.03 191.49C181.487 192.001 179.814 192.695 178.547 193.552C175.523 195.599 169.876 196.677 163.623 197.136C157.37 197.595 137.27 202.166 133.876 203.549C131.161 204.655 123.309 199.769 119.723 197.187L119.317 195.06C122.608 191.41 133.565 183.521 151.063 181.161C168.561 178.801 178.623 185.862 182.05 190.189L183.03 191.49ZM230.235 159.856C229.933 159.933 229.631 160.01 229.329 160.087M230.235 159.856L229.329 160.087M136.165 270.18C138.034 272.5 145.919 276.777 157.792 286.681C174.03 300.226 191.172 300.655 203.026 299.387C203.904 299.293 204.74 299.204 205.527 299.127C243.761 295.013 283.394 258.624 298.609 239.96C314.023 220.079 315.637 207.427 316.29 202.309M162.265 205.684C162.851 205.608 180.499 203.57 184.539 198.32C180.727 203.274 167.603 210.063 165.567 226.414M199.966 197.841C201.568 203.475 210.665 214.57 234.23 213.877" stroke="black" stroke-width="2"/>
<rect x="150.919" y="187.223" width="14.1779" height="7.08894" transform="rotate(-9.83993 150.919 187.223)" fill="black"/>
<rect x="233.797" y="164.922" width="14.1779" height="7.08894" transform="rotate(-11.5774 233.797 164.922)" fill="black"/>
<path fill-rule="evenodd" clip-rule="evenodd" d="M47.027 437.491C47.5246 436.451 48.0608 435.391 48.6328 434.313C48.0754 435.41 47.5397 436.47 47.027 437.491ZM398.316 272.658C398.382 272.575 398.448 272.492 398.514 272.41C398.426 272.522 398.359 272.605 398.316 272.658ZM396.246 275.416C396.962 274.505 397.652 273.586 398.316 272.658C397.618 273.532 396.927 274.451 396.246 275.416Z" fill="#D9D9D9"/>
<path d="M320.56 444.835C306.608 435.996 291.726 424.933 276.109 411.176L239.291 393.35C223.26 396.211 187.078 400.556 170.603 395.053L211.403 475.824C247.339 496.005 322.557 476.063 355.674 463.569C344.81 458.885 333.058 452.752 320.56 444.835Z" fill="#A7A9B8"/>
<path d="M215.804 381.978C213.727 381.253 209.897 377.727 211.192 369.427C209.067 367.783 201.61 366.45 195.912 365.431C194.516 365.181 193.226 364.95 192.146 364.739C191.868 367.166 190.978 369.176 188.988 372.325C184.386 379.608 174.734 387.588 168.903 391.688L170.603 395.053C187.078 400.556 223.26 396.211 239.291 393.35L215.804 381.978Z" fill="#A7A9B8"/>
<path d="M386.648 406.084C392.489 407.91 398.244 409.143 403.755 409.574C403.575 406.087 403.296 401.552 402.921 396.417C402.326 388.274 401.49 378.621 400.422 369.24C392.261 366.32 377.298 350.854 382.74 312.358C385.075 295.834 390.284 283.863 396.246 275.416C371.355 307.101 316.342 327.895 291.294 334.458C299.442 344.221 308.452 354.988 314.284 361.949C316.384 363.847 318.818 365.948 321.533 368.178L343.75 359.897C348.536 357.08 358.919 354.927 362.164 368.853C365.409 382.779 367.285 394.388 367.817 398.451C374.062 401.503 380.404 404.132 386.648 406.084Z" fill="#A7A9B8"/>
<path d="M321.533 368.178C329.772 374.945 340.59 382.909 352.442 390.044C357.423 393.043 362.586 395.895 367.817 398.451C367.285 394.388 365.409 382.779 362.164 368.853C358.919 354.927 348.536 357.08 343.75 359.897L321.533 368.178Z" fill="#A7A9B8"/>
<path d="M396.085 341.706C391.82 323.608 404.37 304.95 411.179 297.883C418.335 291.967 435.435 285.988 446.579 309.406C449.616 315.788 452.167 322.122 454.29 328.13C455.901 315.484 454.574 298.198 453.709 291.136C444.914 260.076 424.462 257.707 419.055 257.993C417.87 258.243 416.522 258.664 415.06 259.277C410.241 261.296 404.169 265.403 398.514 272.41C398.426 272.522 398.359 272.605 398.316 272.658C397.652 273.586 396.962 274.505 396.246 275.416C390.284 283.863 385.075 295.834 382.74 312.358C377.298 350.854 392.261 366.32 400.422 369.24C400.31 368.255 400.196 367.273 400.078 366.296C398.971 357.065 397.637 348.288 396.085 341.706Z" fill="#A7A9B8"/>
<path d="M157.597 336.962C152.682 346.692 162.765 356.815 168.421 360.661C176.636 364.372 190.392 364.968 192.146 364.739C193.226 364.95 194.516 365.181 195.912 365.431C201.61 366.45 209.067 367.783 211.192 369.427C211.815 365.436 215.372 354.426 219.883 344.975C212.975 339.735 204.851 338.262 198.417 335.331C182.135 327.914 168.25 327.578 161.21 332.75C159.656 333.892 158.436 335.301 157.597 336.962Z" fill="#68984C"/>
<path d="M170.524 285.65C157.756 293.535 166.726 306.673 172.807 312.257C174.283 312.065 180.015 314.833 187.343 318.829C191.004 320.826 195.063 323.129 199.189 325.523C207.751 330.49 216.599 335.848 222.769 339.666C226.81 332.874 232.042 326.052 238.685 320.367C230.462 311.563 215.262 298.087 199.688 290.398C189.513 285.374 179.178 282.82 170.524 285.65Z" fill="#68984C"/>
<path d="M238.685 320.367C244.694 315.226 251.859 311.016 260.342 308.604C231.958 260.172 207.679 261.07 199.087 267.573C196.122 270.673 192.091 279.578 199.688 290.398C215.262 298.087 230.462 311.563 238.685 320.367Z" fill="#68984C"/>
<path d="M211.192 369.427C209.897 377.727 213.727 381.253 215.804 381.978L239.291 393.35L276.109 411.176C285.032 377.486 305.277 364.321 314.284 361.949C308.452 354.988 299.442 344.221 291.294 334.458C285.949 328.054 280.976 322.082 277.513 317.899C275.63 315.623 274.193 313.877 273.388 312.88C268.848 307.254 262.799 307.685 260.342 308.604C251.859 311.016 244.694 315.226 238.685 320.367C232.042 326.052 226.81 332.874 222.769 339.666C221.191 342.318 221.111 342.402 219.883 344.975C215.372 354.426 211.815 365.436 211.192 369.427Z" fill="#68984C"/>
<path d="M373.624 470.314C379.819 458.55 391.097 429.235 386.648 406.084C380.404 404.132 374.062 401.503 367.817 398.451C362.586 395.895 357.423 393.043 352.442 390.044C329.832 397.603 323.766 429.166 321.558 440.659C321.095 443.069 320.801 444.596 320.56 444.835C333.058 452.752 344.81 458.885 355.674 463.569C361.964 466.281 367.957 468.508 373.624 470.314Z" fill="#68984C"/>
<path d="M314.284 361.949C305.277 364.321 285.032 377.486 276.109 411.176C291.726 424.933 306.608 435.996 320.56 444.835C320.801 444.596 321.095 443.069 321.558 440.659C323.766 429.166 329.832 397.603 352.442 390.044C340.59 382.909 329.772 374.945 321.533 368.178C318.818 365.948 316.384 363.847 314.284 361.949Z" fill="#68984C"/>
<path d="M428.352 475.008C455.296 440.88 428.73 417.163 412.08 409.571C409.385 409.805 406.602 409.797 403.755 409.574C398.244 409.143 392.489 407.91 386.648 406.084C391.097 429.235 379.819 458.55 373.624 470.314C399.522 478.57 418.636 478.054 428.352 475.008Z" fill="#68984C"/>
<path d="M412.08 409.571C428.73 417.163 455.296 440.88 428.352 475.008C441.818 471.122 462.657 454.875 467.226 418.516C457.94 404.781 432.08 381.132 402.921 396.417C403.296 401.552 403.575 406.087 403.755 409.574C406.602 409.797 409.385 409.805 412.08 409.571Z" fill="#68984C"/>
<path d="M463.224 364.032C453.432 353.353 427.095 338.854 400.078 366.296C400.196 367.273 400.31 368.255 400.422 369.24C401.49 378.621 402.326 388.274 402.921 396.417C432.08 381.132 457.94 404.781 467.226 418.516C469.073 403.814 468.26 385.824 463.224 364.032Z" fill="#68984C"/>
<path d="M411.179 297.883C404.37 304.95 391.82 323.608 396.085 341.706C397.637 348.288 398.971 357.065 400.078 366.296C427.095 338.854 453.432 353.353 463.224 364.032C462.566 357.884 459.954 344.166 454.29 328.13C452.167 322.122 449.616 315.788 446.579 309.406C435.435 285.988 418.335 291.967 411.179 297.883Z" fill="#68984C"/>
<path d="M98.7149 469.009C59.9981 482.194 48.1243 453.491 47.027 437.491C42.0337 446.314 35.4062 467.826 48.8426 483.291C62.2789 498.757 87.6892 480.214 98.7149 469.009Z" fill="#68984C"/>
<path d="M47.027 437.491C48.1243 453.491 59.9981 482.194 98.7149 469.009L128.133 430.145C85.9969 442.064 76.5753 411.53 77.1315 394.773C76.7876 395.177 76.444 395.583 76.1008 395.989C65.2527 408.827 54.8396 422.616 48.6328 434.313C48.0754 435.41 47.5397 436.47 47.027 437.491Z" fill="#68984C"/>
<path d="M77.1315 394.773C84.8388 385.717 92.7047 377.188 99.3856 370.27C96.1694 368.107 89.683 363.367 89.4669 361.712C83.3031 371.451 77.0356 382.062 71.1224 392.493L76.1008 395.989C76.444 395.583 76.7876 395.177 77.1315 394.773Z" fill="#68984C"/>
<path d="M76.1008 395.989L71.1224 392.493C62.3457 407.976 54.3498 423.063 48.6328 434.313C54.8396 422.616 65.2527 408.827 76.1008 395.989Z" fill="#68984C"/>
<path d="M108.952 360.651C110.558 353.704 113.792 342.961 118.412 332.511L116.858 325.539C109.338 332.205 99.5411 345.793 89.4669 361.712C89.683 363.367 96.1694 368.107 99.3856 370.27C102.99 366.538 106.249 363.274 108.952 360.651Z" fill="#68984C"/>
<path d="M149.436 402.002L168.903 391.688C174.734 387.588 184.386 379.608 188.988 372.325C162.907 388.883 146.903 382.602 134.998 373.394C125.473 366.028 122.431 337.965 122.101 324.855C120.788 327.347 119.558 329.92 118.412 332.511C113.792 342.961 110.558 353.704 108.952 360.651C104.631 400.436 134.141 404.795 149.436 402.002Z" fill="#68984C"/>
<path d="M149.436 402.002C134.141 404.795 104.631 400.436 108.952 360.651C106.249 363.274 102.99 366.538 99.3856 370.27C92.7047 377.188 84.8388 385.717 77.1315 394.773C76.5753 411.53 85.9969 442.064 128.133 430.145L149.436 402.002Z" fill="#68984C"/>
<path d="M145.673 336.725C130.535 330.091 134.941 312.217 139.037 304.109C136.012 305.964 133.171 308.63 130.53 311.833C127.437 315.584 124.619 320.071 122.101 324.855C122.431 337.965 125.473 366.028 134.998 373.394C146.903 382.602 162.907 388.883 188.988 372.325C190.978 369.176 191.868 367.166 192.146 364.739C190.392 364.968 176.636 364.372 168.421 360.661C165.585 375.38 155.399 376.311 150.66 374.937C136.189 362.476 141.306 344.27 145.673 336.725Z" fill="#68984C"/>
<path d="M145.673 336.725C141.306 344.27 136.189 362.476 150.66 374.937C155.399 376.311 165.585 375.38 168.421 360.661C162.765 356.815 152.682 346.692 157.597 336.962C158.436 335.301 159.656 333.892 161.21 332.75C160.983 331.013 160.176 330.116 159.04 329.797C154.698 328.575 145.551 335.793 145.673 336.725Z" fill="#68984C"/>
<path d="M159.04 329.797C160.176 330.116 160.983 331.013 161.21 332.75C168.25 327.578 182.135 327.914 198.417 335.331C199.16 333.582 200.355 329.172 199.189 325.523C195.063 323.129 191.004 320.826 187.343 318.829C182.906 328.575 172.061 325.773 167.194 323.154C164.457 325.859 161.303 328.279 159.04 329.797Z" fill="#68984C"/>
<path d="M172.807 312.257C173.764 315.415 170.851 319.539 167.194 323.154C172.061 325.773 182.906 328.575 187.343 318.829C180.015 314.833 174.283 312.065 172.807 312.257Z" fill="#68984C"/>
<path d="M139.037 304.109C134.941 312.217 130.535 330.091 145.673 336.725C145.551 335.793 154.698 328.575 159.04 329.797C161.303 328.279 164.457 325.859 167.194 323.154C170.851 319.539 173.764 315.415 172.807 312.257C166.726 306.673 157.756 293.535 170.524 285.65C169.769 284.693 168.667 283.821 167.241 283.283C163.586 281.906 157.801 282.733 150.265 289.987C146.867 293.258 143.112 297.837 139.037 304.109Z" fill="#68984C"/>
<path d="M167.241 283.283C168.667 283.821 169.769 284.693 170.524 285.65C179.178 282.82 189.513 285.374 199.688 290.398C192.091 279.578 196.122 270.673 199.087 267.573C181.709 258.361 170.616 274.208 167.241 283.283Z" fill="#68984C"/>
<path d="M118.412 332.511C119.558 329.92 120.788 327.347 122.101 324.855C124.619 320.071 127.437 315.584 130.53 311.833C125.994 306.236 124.118 296.116 123.747 291.756C115.374 300.502 115.665 317.922 116.858 325.539L118.412 332.511Z" fill="#A7A9B8"/>
<path d="M415.06 259.277C413.566 254.235 409.673 242.118 406.045 233.982C412.383 253.619 400.44 269.963 398.514 272.41C404.169 265.403 410.241 261.296 415.06 259.277Z" fill="#A7A9B8"/>
<path d="M219.883 344.975C221.111 342.402 221.191 342.318 222.769 339.666C216.599 335.848 207.751 330.49 199.189 325.523C200.355 329.172 199.16 333.582 198.417 335.331C204.851 338.262 212.975 339.735 219.883 344.975Z" fill="#A7A9B8"/>
<path d="M291.294 334.458C316.342 327.895 371.355 307.101 396.246 275.416C396.927 274.451 397.618 273.532 398.316 272.658C398.382 272.575 398.448 272.492 398.514 272.41C400.44 269.963 412.383 253.619 406.045 233.982C395.269 211.951 375.653 209.848 367.192 211.55C371.46 232.074 360.788 273.146 289.046 312.541C285.961 314.287 279.334 317.803 277.513 317.899C280.976 322.082 285.949 328.054 291.294 334.458Z" fill="#A7A9B8"/>
<path d="M130.53 311.833C133.171 308.63 136.012 305.964 139.037 304.109C143.112 297.837 146.867 293.258 150.265 289.987C147.419 286.406 141.09 278.013 138.544 273.083C135.458 273.686 128.179 278.263 123.747 291.756C124.118 296.116 125.994 306.236 130.53 311.833Z" fill="#A7A9B8"/>
<path d="M211.192 369.427C209.897 377.727 213.727 381.253 215.804 381.978L239.291 393.35M211.192 369.427C211.815 365.436 215.372 354.426 219.883 344.975M211.192 369.427C209.067 367.783 201.61 366.45 195.912 365.431C194.516 365.181 193.226 364.95 192.146 364.739M260.342 308.604C262.799 307.685 268.848 307.254 273.388 312.88C274.193 313.877 275.63 315.623 277.513 317.899M260.342 308.604C251.859 311.016 244.694 315.226 238.685 320.367M260.342 308.604C231.958 260.172 207.679 261.07 199.087 267.573M314.284 361.949C305.277 364.321 285.032 377.486 276.109 411.176M314.284 361.949C316.384 363.847 318.818 365.948 321.533 368.178M314.284 361.949C308.452 354.988 299.442 344.221 291.294 334.458M276.109 411.176C291.726 424.933 306.608 435.996 320.56 444.835M276.109 411.176L239.291 393.35M428.352 475.008C455.296 440.88 428.73 417.163 412.08 409.571C409.385 409.805 406.602 409.797 403.755 409.574M428.352 475.008C418.636 478.054 399.522 478.57 373.624 470.314M428.352 475.008C441.818 471.122 462.657 454.875 467.226 418.516M373.624 470.314C379.819 458.55 391.097 429.235 386.648 406.084M373.624 470.314C367.957 468.508 361.964 466.281 355.674 463.569M386.648 406.084C392.489 407.91 398.244 409.143 403.755 409.574M386.648 406.084C380.404 404.132 374.062 401.503 367.817 398.451M320.56 444.835C333.058 452.752 344.81 458.885 355.674 463.569M320.56 444.835C320.801 444.596 321.095 443.069 321.558 440.659C323.766 429.166 329.832 397.603 352.442 390.044M352.442 390.044C340.59 382.909 329.772 374.945 321.533 368.178M352.442 390.044C357.423 393.043 362.586 395.895 367.817 398.451M403.755 409.574C403.575 406.087 403.296 401.552 402.921 396.417M463.224 364.032C453.432 353.353 427.095 338.854 400.078 366.296M463.224 364.032C468.26 385.824 469.073 403.814 467.226 418.516M463.224 364.032C462.566 357.884 459.954 344.166 454.29 328.13M400.078 366.296C398.971 357.065 397.637 348.288 396.085 341.706C391.82 323.608 404.37 304.95 411.179 297.883C418.335 291.967 435.435 285.988 446.579 309.406C449.616 315.788 452.167 322.122 454.29 328.13M400.078 366.296C400.196 367.273 400.31 368.255 400.422 369.24M467.226 418.516C457.94 404.781 432.08 381.132 402.921 396.417M402.921 396.417C402.326 388.274 401.49 378.621 400.422 369.24M321.533 368.178L343.75 359.897C348.536 357.08 358.919 354.927 362.164 368.853C365.409 382.779 367.285 394.388 367.817 398.451M400.422 369.24C392.261 366.32 377.298 350.854 382.74 312.358C385.075 295.834 390.284 283.863 396.246 275.416M454.29 328.13C455.901 315.484 454.574 298.198 453.709 291.136C444.914 260.076 424.462 257.707 419.055 257.993C417.87 258.243 416.522 258.664 415.06 259.277M291.294 334.458C316.342 327.895 371.355 307.101 396.246 275.416M291.294 334.458C285.949 328.054 280.976 322.082 277.513 317.899M398.316 272.658C397.618 273.532 396.927 274.451 396.246 275.416M398.316 272.658C398.382 272.575 398.448 272.492 398.514 272.41M398.316 272.658C398.359 272.605 398.426 272.522 398.514 272.41M398.316 272.658C397.652 273.586 396.962 274.505 396.246 275.416M415.06 259.277C413.566 254.235 409.673 242.118 406.045 233.982M415.06 259.277C410.241 261.296 404.169 265.403 398.514 272.41M406.045 233.982C412.383 253.619 400.44 269.963 398.514 272.41M406.045 233.982C395.269 211.951 375.653 209.848 367.192 211.55C371.46 232.074 360.788 273.146 289.046 312.541C285.961 314.287 279.334 317.803 277.513 317.899M355.674 463.569C322.557 476.063 247.339 496.005 211.403 475.824L170.603 395.053M168.903 391.688L149.436 402.002M168.903 391.688C174.734 387.588 184.386 379.608 188.988 372.325M168.903 391.688L170.603 395.053M239.291 393.35C223.26 396.211 187.078 400.556 170.603 395.053M192.146 364.739C191.868 367.166 190.978 369.176 188.988 372.325M192.146 364.739C190.392 364.968 176.636 364.372 168.421 360.661M149.436 402.002C134.141 404.795 104.631 400.436 108.952 360.651M149.436 402.002L128.133 430.145M108.952 360.651C110.558 353.704 113.792 342.961 118.412 332.511M108.952 360.651C106.249 363.274 102.99 366.538 99.3856 370.27M139.037 304.109C134.941 312.217 130.535 330.091 145.673 336.725M139.037 304.109C136.012 305.964 133.171 308.63 130.53 311.833M139.037 304.109C143.112 297.837 146.867 293.258 150.265 289.987M145.673 336.725C141.306 344.27 136.189 362.476 150.66 374.937C155.399 376.311 165.585 375.38 168.421 360.661M145.673 336.725C145.551 335.793 154.698 328.575 159.04 329.797M122.101 324.855C122.431 337.965 125.473 366.028 134.998 373.394C146.903 382.602 162.907 388.883 188.988 372.325M122.101 324.855C120.788 327.347 119.558 329.92 118.412 332.511M122.101 324.855C124.619 320.071 127.437 315.584 130.53 311.833M47.027 437.491C48.1243 453.491 59.9981 482.194 98.7149 469.009M47.027 437.491C42.0337 446.314 35.4062 467.826 48.8426 483.291C62.2789 498.757 87.6892 480.214 98.7149 469.009M47.027 437.491C47.5246 436.451 48.0608 435.391 48.6328 434.313M47.027 437.491C47.5397 436.47 48.0754 435.41 48.6328 434.313M98.7149 469.009L128.133 430.145M77.1315 394.773C76.5753 411.53 85.9969 442.064 128.133 430.145M77.1315 394.773C84.8388 385.717 92.7047 377.188 99.3856 370.27M77.1315 394.773C76.7876 395.177 76.444 395.583 76.1008 395.989M116.858 325.539L118.412 332.511M116.858 325.539C115.665 317.922 115.374 300.502 123.747 291.756M116.858 325.539C109.338 332.205 99.5411 345.793 89.4669 361.712M123.747 291.756C124.118 296.116 125.994 306.236 130.53 311.833M123.747 291.756C128.179 278.263 135.458 273.686 138.544 273.083C141.09 278.013 147.419 286.406 150.265 289.987M168.421 360.661C162.765 356.815 152.682 346.692 157.597 336.962C158.436 335.301 159.656 333.892 161.21 332.75M219.883 344.975C221.111 342.402 221.191 342.318 222.769 339.666M219.883 344.975C212.975 339.735 204.851 338.262 198.417 335.331M161.21 332.75C160.983 331.013 160.176 330.116 159.04 329.797M161.21 332.75C168.25 327.578 182.135 327.914 198.417 335.331M159.04 329.797C161.303 328.279 164.457 325.859 167.194 323.154M172.807 312.257C166.726 306.673 157.756 293.535 170.524 285.65M172.807 312.257C173.764 315.415 170.851 319.539 167.194 323.154M172.807 312.257C174.283 312.065 180.015 314.833 187.343 318.829M170.524 285.65C169.769 284.693 168.667 283.821 167.241 283.283M170.524 285.65C179.178 282.82 189.513 285.374 199.688 290.398M222.769 339.666C226.81 332.874 232.042 326.052 238.685 320.367M222.769 339.666C216.599 335.848 207.751 330.49 199.189 325.523M238.685 320.367C230.462 311.563 215.262 298.087 199.688 290.398M167.241 283.283C170.616 274.208 181.709 258.361 199.087 267.573M167.241 283.283C163.586 281.906 157.801 282.733 150.265 289.987M199.087 267.573C196.122 270.673 192.091 279.578 199.688 290.398M99.3856 370.27C96.1694 368.107 89.683 363.367 89.4669 361.712M89.4669 361.712C83.3031 371.451 77.0356 382.062 71.1224 392.493M76.1008 395.989L71.1224 392.493M76.1008 395.989C65.2527 408.827 54.8396 422.616 48.6328 434.313M71.1224 392.493C62.3457 407.976 54.3498 423.063 48.6328 434.313M198.417 335.331C199.16 333.582 200.355 329.172 199.189 325.523M199.189 325.523C195.063 323.129 191.004 320.826 187.343 318.829M167.194 323.154C172.061 325.773 182.906 328.575 187.343 318.829" stroke="black" stroke-width="2"/>
<path d="M188.998 409.713L228.112 481.551C270.976 490.867 327.066 473.803 354.838 463.22C330.436 454.953 292.563 425.222 276.677 411.391L241.746 394.478C238.11 395.098 233.742 395.968 229.111 396.924C214.718 399.894 197.778 403.685 192.328 403.314C185.124 402.823 187.106 407.375 188.998 409.713Z" fill="black" fill-opacity="0.25"/>
<path d="M168.769 391.478L171.06 395.354C180.748 400.292 220.969 396.357 239.869 393.772C233.37 390.909 223.531 386.438 217.679 383.304C208.724 378.509 211.315 371.013 210.5 369.33C209.686 367.647 193.125 363.844 191.955 363.997C192.26 366.331 191.099 369.153 189.101 372.123C184.27 379.302 174.542 387.349 168.769 391.478Z" fill="black" fill-opacity="0.25"/>
<path d="M241.746 394.478L276.677 411.391C292.563 425.222 330.436 454.953 354.838 463.22C372.884 470.805 413.289 483.025 431.736 473.462C448.426 464.81 457.424 450.851 460.11 444.707C449.719 453.221 419.488 466.233 381.693 450.171C343.899 434.109 299.576 406.016 282.139 393.977C264.583 382.55 226.455 359.374 214.387 358.086L210.5 369.33C211.315 371.013 208.724 378.509 217.679 383.304C223.531 386.438 233.37 390.909 239.869 393.772C241.326 394.413 240.707 394.031 241.746 394.478Z" fill="black" fill-opacity="0.3"/>
<path d="M381.693 450.171C419.488 466.233 449.719 453.221 460.11 444.707C466.006 431.531 468.001 417.035 468.262 411.434C468.271 378.718 462.018 351.19 454.779 330.934C451.934 322.971 447.799 311.508 444.97 305.92C442.33 298.85 435.709 296.129 433.406 294.903C450.591 336.8 462.532 427.495 430.221 439.065C401.335 449.409 329.299 399.75 296.654 372.996L234.9 323.797C233.096 325.067 231.324 326.828 229.617 328.905C227.158 331.9 224.836 335.55 222.754 339.328C221.346 341.884 220.047 344.499 218.891 347.009C216.928 351.272 215.374 355.231 214.387 358.086C226.455 359.374 264.583 382.55 282.139 393.977C299.576 406.016 343.899 434.109 381.693 450.171Z" fill="black" fill-opacity="0.15"/>
<path d="M157.992 349.94C175.427 357.406 212.518 365.726 217.372 344.575C213.734 341.202 205.648 338.85 199.622 336.126C196.679 334.797 193.987 333.694 192.07 332.966C204.303 342.821 173.548 344.529 156.642 344.151L157.992 349.94Z" fill="black" fill-opacity="0.15"/>
<path d="M229.617 328.905C228.801 328.732 221.506 326.022 198.854 316.572C179.004 308.292 169.02 299.761 165.461 295.284C164.958 294.652 164.584 294.1 164.328 293.642C160.998 300.041 170.211 311.364 173.289 312.155C174.751 312.531 186.58 319.006 199.225 326.067C207.647 330.77 216.431 335.733 222.754 339.328C224.836 335.55 227.158 331.9 229.617 328.905Z" fill="black" fill-opacity="0.3"/>
<path d="M229.617 328.905C231.324 326.828 233.096 325.067 234.9 323.797L238.536 319.743L224.999 307.195C222.839 313.442 165.904 295.822 165.461 295.284C169.02 299.761 179.004 308.292 198.854 316.572C221.506 326.022 228.801 328.732 229.617 328.905Z" fill="black" fill-opacity="0.15"/>
<path d="M204.053 278.914C209.652 285.34 223.725 301.993 235.097 307.07C238.277 308.643 247.292 310.25 257.912 304.092L253.56 298.099C251.983 299.697 245.375 300.122 231.554 289.042C221.187 280.556 202.115 267.328 197.222 272.164C196.381 272.996 195.959 274.361 196.073 276.376C196.967 275.039 198.423 274.486 200.578 275.788C201.581 276.394 202.734 277.4 204.053 278.914Z" fill="black" fill-opacity="0.15"/>
<path d="M224.999 307.195L238.536 319.743C247.165 312.922 257.017 309.391 260.864 308.478L257.912 304.092C247.292 310.25 238.277 308.643 235.097 307.07C223.725 301.993 209.652 285.34 204.053 278.914C202.734 277.4 201.581 276.394 200.578 275.788C198.423 274.486 196.967 275.039 196.073 276.376C195.618 277.057 195.308 277.94 195.125 278.886C194.556 281.823 197.808 287.284 199.504 289.647L224.999 307.195Z" fill="black" fill-opacity="0.3"/>
<path d="M348.309 358.499C351.547 357.48 358.651 357.507 361.157 365.769C363.663 374.031 366.619 390.903 367.784 398.306C368.445 398.816 397.93 410.475 403.704 409.125C402.906 397.896 401.099 374.155 400.253 369.016C394.114 366.04 381.771 354.132 381.516 330.306C381.262 306.481 386.808 291.84 389.613 287.498L392.942 281.099L391.187 281.328C381.153 292.578 347.204 319.039 291.678 334.876C300.795 346.347 319.808 369.073 322.926 368.201L348.309 358.499Z" fill="black" fill-opacity="0.25"/>
<path d="M344.011 362.043L322.241 368.463L322.773 368.858C337.676 379.924 349.208 388.487 366.537 397.872L366.46 397.599C364.917 392.162 360.558 376.803 358.615 369.083C356.638 361.23 347.199 360.632 344.011 362.043Z" fill="black" fill-opacity="0.3"/>
<path d="M410.411 328.324C408.605 340.012 413.734 388.729 416.525 411.627L421.741 415.121C419.076 388.628 414.046 334.292 415.244 328.886C416.742 322.13 420.4 309.127 416.731 294.694L413.933 296.054L413.374 296.325C414.932 312.823 412.669 313.715 410.411 328.324Z" fill="black" fill-opacity="0.15"/>
<path d="M403.704 409.125C406.875 409.109 413.879 409.586 416.525 411.627C413.734 388.729 408.605 340.012 410.411 328.324C412.669 313.715 414.932 312.823 413.374 296.325C409.467 299.818 401.571 308.006 401.248 312.82C395.07 320.187 395.814 335.001 395.382 336.251C394.95 337.5 400.177 368.43 400.253 369.016C401.099 374.155 402.906 397.896 403.704 409.125Z" fill="black" fill-opacity="0.3"/>
<path d="M401.248 312.82C398.042 311.051 391.227 303.511 389.613 287.498C386.808 291.84 381.262 306.481 381.516 330.306C381.771 354.132 394.114 366.04 400.253 369.016C400.177 368.43 394.95 337.5 395.382 336.251C395.814 335.001 395.07 320.187 401.248 312.82Z" fill="black" fill-opacity="0.3"/>
<path d="M401.248 312.82C401.571 308.006 409.467 299.818 413.374 296.325L413.933 296.054C410.829 293.543 403.998 284.666 401.509 269.244C399.653 271.276 395.34 276.491 392.942 281.099L389.613 287.498C391.227 303.511 398.042 311.051 401.248 312.82Z" fill="black" fill-opacity="0.15"/>
<path d="M401.509 269.244C405.442 265.947 413.76 259.175 415.571 258.462L408.967 244.412C409.368 250.523 407.427 259.883 401.509 269.244Z" fill="black" fill-opacity="0.3"/>
<path d="M453.143 291.134C452.535 297.417 450.973 306.329 444.97 305.92C447.799 311.508 451.934 322.971 454.779 330.934C455.104 330.057 454.876 299.855 453.143 291.134Z" fill="black" fill-opacity="0.3"/>
<path d="M50.0206 484.517C55.4406 489.575 71.7675 494.323 93.715 472.849L149.874 401.698L168.769 391.478C174.542 387.349 184.27 379.302 189.101 372.123C162.179 390.429 141.771 380.886 134.931 373.826C132.559 376.919 125.718 385.287 117.338 394.016C108.958 402.744 97.3901 420.478 92.6537 428.254C73.9693 467.434 54.5803 479.946 47.2213 481.304C48.1289 482.179 49.9594 484.048 50.0206 484.517Z" fill="black" fill-opacity="0.3"/>
<path d="M47.2213 481.304C54.5803 479.946 73.9693 467.434 92.6537 428.254C97.3901 420.478 108.958 402.744 117.338 394.016C112.636 390.812 109.864 383.857 109.066 380.781C89.5151 404.208 65.5419 462.212 43.6074 476.407L47.2213 481.304Z" fill="black" fill-opacity="0.15"/>
<path d="M54.1421 424.93C66.7002 407.186 95.3307 369.451 109.388 360.459C109.082 358.113 115.101 335.855 118.152 331.878C118.091 331.409 117.175 327.433 116.725 325.503C98.4114 347.776 60.2563 398.842 54.1421 424.93Z" fill="black" fill-opacity="0.2"/>
<path d="M116.725 325.503C117.175 327.433 118.091 331.409 118.152 331.878C119.169 330.552 127.621 313.345 130.393 311.79C128.111 309.503 125.379 305.287 123.263 293.634C119.077 299.549 112.425 310.795 116.725 325.503Z" fill="black" fill-opacity="0.15"/>
<path d="M145.587 368.856C149.895 371.475 158.408 371.358 157.992 349.94L156.642 344.151C156.581 342.171 156.212 338.124 157.555 337.471C147.097 341.222 143.77 356.456 143.122 363.643C144.298 366.626 145.534 368.45 145.587 368.856Z" fill="black" fill-opacity="0.15"/>
<path d="M157.992 349.94C158.408 371.358 149.895 371.475 145.587 368.856C148.082 374.296 155.584 381.628 165.63 367.433L168.464 360.502C163.449 357.532 159.71 352.878 157.992 349.94Z" fill="black" fill-opacity="0.3"/>
<path d="M191.955 363.997C188.343 363.673 180.768 363.071 179.364 363.254C175.343 363.594 171.646 362.387 168.464 360.502L165.63 367.433C155.584 381.628 148.082 374.296 145.587 368.856C145.534 368.45 144.298 366.626 143.122 363.643C140.9 358.008 138.891 348.235 145.472 336.066C142.623 337.034 136.287 329.511 136.057 327.752C134.257 324.898 134.88 320.256 135.417 318.292C121.049 326.728 134.778 372.653 134.931 373.826C141.771 380.886 162.179 390.429 189.101 372.123C191.099 369.153 192.26 366.331 191.955 363.997Z" fill="black" fill-opacity="0.3"/>
<path d="M173.289 312.155C174.131 318.607 160.654 329.312 158.899 329.542L161.037 332.245C166.683 329.917 180.794 326.803 192.07 332.966C193.987 333.694 196.679 334.797 199.622 336.126L199.225 326.067C186.58 319.006 174.751 312.531 173.289 312.155Z" fill="black" fill-opacity="0.3"/>
<path d="M173.289 312.155C170.211 311.364 160.998 300.041 164.328 293.642C163.273 293.78 162.539 294.57 162.043 295.73C160.777 298.687 161.055 304.05 161.498 307.134C162.592 321.783 144.993 326.983 136.057 327.752C136.287 329.511 142.623 337.034 145.472 336.066C148.676 333.262 155.846 328.031 158.899 329.542C160.654 329.312 174.131 318.607 173.289 312.155Z" fill="black" fill-opacity="0.3"/>
<path d="M136.057 327.752C144.993 326.983 162.592 321.783 161.498 307.134C161.055 304.05 160.777 298.687 162.043 295.73C150.379 311.09 139.432 317.171 135.417 318.292C134.88 320.256 134.257 324.898 136.057 327.752Z" fill="black" fill-opacity="0.15"/>
<path d="M199.504 289.647C197.808 287.284 194.556 281.823 195.125 278.886C195.308 277.94 195.618 277.057 196.073 276.376C195.959 274.361 196.381 272.996 197.222 272.164C196.911 269.775 198.615 268.111 199.507 267.578C188.81 268.378 190.724 277.075 188.843 280.899C187.683 283.259 182.724 284.363 178.794 284.788C188.381 284.679 197.927 289.315 199.504 289.647Z" fill="black" fill-opacity="0.3"/>
<path d="M191.955 363.997C193.125 363.844 209.686 367.647 210.5 369.33L214.387 358.086C215.374 355.231 216.928 351.272 218.891 347.009L217.372 344.575C212.518 365.726 175.427 357.406 157.992 349.94C159.71 352.878 163.449 357.532 168.464 360.502C171.646 362.387 175.343 363.594 179.364 363.254C180.768 363.071 188.343 363.673 191.955 363.997Z" fill="black" fill-opacity="0.3"/>
<path d="M117.338 394.016C125.718 385.287 132.559 376.919 134.931 373.826C131.288 371.438 127.337 359.707 125.817 354.139C121.965 353.688 113.045 371.712 109.066 380.781C109.864 383.857 112.636 390.812 117.338 394.016Z" fill="black" fill-opacity="0.15"/>
<path d="M217.372 344.575L218.891 347.009C220.047 344.499 221.346 341.884 222.754 339.328C216.431 335.733 207.647 330.77 199.225 326.067L199.622 336.126C205.648 338.85 213.734 341.202 217.372 344.575Z" fill="black" fill-opacity="0.39"/>
<path d="M228.112 481.551L188.998 409.713C187.106 407.375 185.124 402.823 192.328 403.314C197.778 403.685 214.718 399.894 229.111 396.924C215.024 398.916 196.025 400.13 186.007 400.56C178.804 400.069 180.786 404.622 182.678 406.959L218.216 478.667L228.112 481.551Z" fill="black" fill-opacity="0.1"/>
<path d="M291.678 334.876C347.204 319.039 381.153 292.578 391.187 281.328C388.951 274.86 378.765 260.999 355.912 257.302C345.677 270.888 317.043 300.992 282.013 316.454C280.657 317.052 279.292 317.629 277.918 318.181L291.678 334.876Z" fill="black" fill-opacity="0.2"/>
<path d="M391.187 281.328L392.942 281.099C395.34 276.491 399.653 271.276 401.509 269.244C407.427 259.883 409.368 250.523 408.967 244.412C398.265 256.462 370.793 251.728 363.079 243.841L355.912 257.302C378.765 260.999 388.951 274.86 391.187 281.328Z" fill="black" fill-opacity="0.15"/>
<path d="M123.263 293.634C125.379 305.287 128.111 309.503 130.393 311.79L137.894 305.443L149.588 290.198L149.383 288.627C145.842 290.674 130.279 294.238 123.263 293.634Z" fill="black" fill-opacity="0.15"/>
<path d="M123.263 293.634C130.279 294.238 145.842 290.674 149.383 288.627L147.959 286.832C145.273 288.137 132.73 285.638 126.795 284.226C126.388 284.757 124.271 290.719 123.263 293.634Z" fill="black" fill-opacity="0.08"/>
<path d="M433.406 294.903C435.709 296.129 442.33 298.85 444.97 305.92C450.973 306.329 452.535 297.417 453.143 291.134L452.022 287.105C450.824 292.511 437.76 293.341 433.406 294.903Z" fill="black" fill-opacity="0.14"/>
<path d="M355.912 257.302L363.079 243.841L364.375 240.093C363.892 198.404 331.746 116.83 207.031 124.043C317.705 128.683 352.946 211.762 355.912 257.302Z" fill="black" fill-opacity="0.09"/>
<path d="M146.776 131.908C158.071 116.041 190.262 121.398 202.44 123.424C204.897 123.833 206.539 124.107 207.031 124.043L210.972 122.335L210.513 118.816C172.251 102.815 151.304 122.569 146.776 131.908Z" fill="black" fill-opacity="0.1"/>
<path d="M134.476 219.999C132.941 220.398 129.995 222.135 130.485 225.888C130.066 237.872 138.266 258.155 174.42 243.415C159.456 245.766 130.518 244.374 134.476 219.999Z" fill="black" fill-opacity="0.3"/>
<path d="M126.001 209.773C126.579 212.68 129.083 218.795 134.476 219.999C134.545 219.909 134.548 219.738 134.553 219.493C134.583 218.05 134.665 214.037 148.616 208.76C142.77 210.59 133.36 212.333 126.001 209.773Z" fill="black" fill-opacity="0.3"/>
<path d="M116.482 196.104C115.746 199.58 116.619 207.18 126.001 209.773C133.36 212.333 142.77 210.59 148.616 208.76C149.634 208.375 150.724 207.984 151.894 207.586C147.138 207.61 132.994 204.088 132.332 203.578C131.803 203.17 126.192 200.602 123.453 199.369L117.542 194.773C117.277 195.249 116.928 195.696 116.482 196.104Z" fill="black" fill-opacity="0.3"/>
<path d="M115.325 177.79C114.519 179.014 113.849 180.293 113.399 181.595C115.228 183.695 117.798 187.582 118.174 191.111C119.423 179.019 130.447 172.61 135.803 170.917C124.165 172.913 117.302 176.331 115.325 177.79Z" fill="black" fill-opacity="0.3"/>
<path d="M166.967 181.76C164.235 177.544 155.684 169.157 143.332 169.337C148.537 166.67 163.007 165.099 179.252 180.157C181.559 182.639 186.118 188.088 185.895 190.026L182.385 190.484C180.052 187.806 173.703 182.312 166.967 181.76Z" fill="black" fill-opacity="0.3"/>
<path d="M125.323 168.109C126.416 167.37 147.727 157.431 154.315 157.764C160.904 158.097 142.153 153.387 134.842 155.534C130.587 160.329 126.367 165.467 125.323 168.109Z" fill="black" fill-opacity="0.3"/>
<path d="M164.764 205.906C166.816 206.433 170.504 208.855 168.837 214.321L179.668 201.575L164.764 205.906Z" fill="black" fill-opacity="0.3"/>
<path d="M200.528 197.291C201.147 200.514 204.247 207.552 211.695 209.92C209.668 206.54 210.195 198.427 228.527 193.011C220.389 195.366 209.026 197.987 200.528 197.291Z" fill="black" fill-opacity="0.3"/>
<path d="M200.673 189.29C192.94 188.39 190.635 191.395 190.449 193.01C192.463 195.67 196.108 196.929 200.528 197.291C209.026 197.987 220.389 195.366 228.527 193.011C233.249 191.645 236.884 190.369 238.245 189.881C220.787 196.02 201.328 189.794 200.673 189.29Z" fill="black" fill-opacity="0.3"/>
<path d="M191.767 180.313C191.763 171.167 198.089 152.17 223.422 149.34C214.614 153.273 195.952 164.974 191.767 180.313Z" fill="black" fill-opacity="0.3"/>
<path d="M187.114 185.691C186.643 183.701 186.08 180.782 185.66 177.531C184.899 171.646 184.604 164.675 186.162 160.168C187.617 155.96 191.372 148.803 195.021 142.311C197.439 138.011 199.81 134.002 201.438 131.334L198.36 130.543C188.79 137.756 173.144 158.885 187.114 185.691Z" fill="black" fill-opacity="0.3"/>
<path d="M186.162 160.168C189.927 155.441 198.749 147.083 208.891 144.079C211.603 143.276 214.409 142.856 217.238 142.99C212.618 141.605 201.706 139.53 195.021 142.311C191.372 148.803 187.617 155.96 186.162 160.168Z" fill="black" fill-opacity="0.3"/>
<path d="M261.682 159.854C260.264 155.068 252.601 145.889 233.29 147.455C241.641 144.576 262.285 142.597 278.062 157.716L268.959 165.465C269.951 163.944 269.883 160.692 261.682 159.854Z" fill="black" fill-opacity="0.3"/>
<path d="M296.887 224.448C301.574 220.853 310.612 211.085 309.264 200.763C307.917 190.441 298.563 197.786 294.055 202.748C289.783 206.487 279.678 214.765 273.432 217.966C271.889 218.756 269.418 220.088 266.258 221.79L266.255 221.791C253.423 228.704 229.235 241.732 209.728 249.543C230.837 242.612 275.704 226.258 286.302 216.286C291.43 213.032 300.727 210.109 296.887 224.448Z" fill="black" fill-opacity="0.3"/>
<path d="M296.897 188.062C304.874 183.84 320.991 178.476 321.648 190.796C323.046 187.83 323.424 181.618 313.758 180.493C309.782 180.416 300.842 181.821 296.897 188.062Z" fill="black" fill-opacity="0.3"/>
<path d="M257.912 304.092L260.864 308.478C266.334 306.628 270.962 309.868 272.591 311.719L277.918 318.181C279.292 317.629 280.657 317.052 282.013 316.454L276.617 308.212C273.862 303.322 266.112 303.022 262.581 303.483L256.687 294.709C232.18 256.394 208.151 259.093 199.2 265.232C191.748 262.626 174.585 262.003 165.558 280.359C164.884 280.228 163.868 280.181 162.577 280.314C161.878 280.386 161.098 280.511 160.248 280.704C156.981 281.447 152.681 283.199 147.959 286.832L149.383 288.627L149.588 290.198C153.495 286.706 162.455 280.287 167.034 282.553C170.077 274.401 180.832 259.995 199.507 267.578C207.195 262.399 228.768 261.253 253.56 298.099L257.912 304.092Z" fill="black" fill-opacity="0.3"/>
<path d="M119.988 245.749L123.908 252.991C125.239 253.368 127.832 253.58 128.35 251.717C128.363 251.516 128.392 251.347 128.435 251.207C134.92 259.87 150.363 277.898 160.248 280.704C161.098 280.511 161.878 280.386 162.577 280.314L131.638 248.403C138.941 254.21 158.76 263.83 179.614 255.859C168.694 257.285 143.51 256.397 130.135 241.442C128.979 240.183 125.808 238.379 122.373 241.235L119.988 245.749Z" fill="black" fill-opacity="0.3"/>
<path fill-rule="evenodd" clip-rule="evenodd" d="M165.558 280.359C164.884 280.228 163.868 280.181 162.577 280.314L131.638 248.403C138.941 254.21 158.76 263.83 179.614 255.859C168.694 257.285 143.51 256.397 130.135 241.442C128.979 240.183 125.808 238.379 122.373 241.235L130.485 225.888C130.066 237.872 138.266 258.155 174.42 243.415C159.456 245.766 130.518 244.374 134.476 219.999C134.545 219.909 134.548 219.738 134.553 219.493C134.583 218.05 134.665 214.037 148.616 208.76C149.634 208.375 150.724 207.984 151.894 207.586C147.138 207.61 132.994 204.088 132.332 203.578C131.803 203.17 126.192 200.602 123.453 199.369L117.542 194.773C118.152 193.674 118.313 192.417 118.174 191.111C119.423 179.019 130.447 172.61 135.803 170.917C124.165 172.913 117.302 176.331 115.325 177.79C118.228 173.378 122.887 169.672 125.323 168.109C126.416 167.37 147.727 157.431 154.315 157.764C160.904 158.097 142.153 153.387 134.842 155.534C138.211 151.738 141.601 148.158 143.453 146.202C144.272 145.337 144.79 144.79 144.873 144.682C143.955 137.644 144.984 134.925 146.776 131.908C158.071 116.041 190.262 121.398 202.44 123.424C204.897 123.833 206.539 124.107 207.031 124.043C317.705 128.683 352.946 211.762 355.912 257.302C345.677 270.888 317.043 300.992 282.013 316.454L276.617 308.212C273.862 303.322 266.112 303.022 262.581 303.483L256.687 294.709C232.18 256.394 208.151 259.093 199.2 265.232C191.748 262.626 174.585 262.003 165.558 280.359ZM128.435 251.207C134.92 259.87 150.363 277.898 160.248 280.704C156.981 281.447 152.681 283.199 147.959 286.832C131.731 265.208 128.153 254.795 128.35 251.717C128.393 251.561 128.422 251.392 128.435 251.207ZM309.264 200.763C310.612 211.085 301.574 220.853 296.887 224.448C300.727 210.109 291.43 213.032 286.302 216.286C275.704 226.258 230.837 242.612 209.728 249.543C229.235 241.732 253.423 228.704 266.255 221.791L266.258 221.79C269.418 220.088 271.889 218.756 273.432 217.966C279.678 214.765 289.783 206.487 294.055 202.748C298.563 197.786 307.917 190.441 309.264 200.763ZM296.897 188.062C304.874 183.84 320.991 178.476 321.648 190.796C323.046 187.83 323.424 181.618 313.758 180.493C309.782 180.416 300.842 181.821 296.897 188.062ZM211.695 209.92C204.247 207.552 201.147 200.514 200.528 197.291C196.108 196.929 192.463 195.67 190.449 193.01C190.635 191.395 192.94 188.39 200.673 189.29C201.328 189.794 220.787 196.02 238.245 189.881C236.884 190.369 233.249 191.645 228.527 193.011C210.195 198.427 209.668 206.54 211.695 209.92ZM168.837 214.321C170.504 208.855 166.816 206.433 164.764 205.906L179.668 201.575L168.837 214.321ZM166.967 181.76C164.235 177.544 155.684 169.157 143.332 169.337C148.537 166.67 163.007 165.099 179.252 180.157C181.559 182.639 186.118 188.088 185.895 190.026L182.385 190.484C180.052 187.806 173.703 182.312 166.967 181.76ZM186.162 160.168C189.927 155.441 198.749 147.083 208.891 144.079C189.785 153.793 185.953 175.03 185.66 177.531C184.899 171.646 184.604 164.675 186.162 160.168ZM187.114 185.691C173.144 158.885 188.79 137.756 198.36 130.543L201.438 131.334C199.81 134.002 197.439 138.011 195.021 142.311C201.706 139.53 212.618 141.605 217.238 142.99C198.418 148.309 189.314 173.674 187.114 185.691ZM191.767 180.313C191.763 171.167 198.089 152.17 223.422 149.34C214.614 153.273 195.952 164.974 191.767 180.313ZM233.29 147.455C252.601 145.889 260.264 155.068 261.682 159.854C269.883 160.692 269.951 163.944 268.959 165.465L278.062 157.716C262.285 142.597 241.641 144.576 233.29 147.455Z" fill="black" fill-opacity="0.15"/>
<path d="M187.114 185.691C189.314 173.674 198.418 148.309 217.238 142.99C214.409 142.856 211.603 143.276 208.891 144.079C189.785 153.793 185.953 175.03 185.66 177.531C186.08 180.782 186.643 183.701 187.114 185.691Z" fill="black" fill-opacity="0.3"/>
<path d="M213.219 108.404L217.476 101.688C216.583 100.094 214.179 96.8828 211.704 96.7952L214.465 58.9626C213.521 55.6637 212.186 48.583 214.398 46.6517C211.45 46.3521 206.261 48.0218 209.089 57.0978L212.337 62.3201L206.722 97.9585L200.688 102.853L213.219 108.404Z" fill="black" fill-opacity="0.3"/>
<path d="M211.704 96.7952C214.179 96.8828 216.583 100.094 217.476 101.688L221.052 97.628L215.237 96.3341L215.979 58.765C216.879 57.792 217.554 53.5286 215.342 46.015L214.398 46.6517C212.186 48.583 213.521 55.6637 214.465 58.9626L211.704 96.7952Z" fill="black" fill-opacity="0.06"/>
<path d="M443.514 139.186L457.569 165.379C463.191 175.856 459.894 186.59 449.56 192.135C438.725 197.95 427.467 194.194 421.382 182.856L416.646 174.03L403.944 180.845L395.434 164.986L443.514 139.186ZM428.63 167.599L432.019 173.914C433.713 177.071 437.368 178.715 440.74 176.905C443.754 175.287 444.405 171.333 442.711 168.176L439.322 161.861L428.63 167.599Z" fill="#5E1919"/>
<path d="M434.537 123.495L394.214 160.255L382.363 147.256L400.478 130.741L374.462 138.589L368.646 132.21L378.86 107.028L360.745 123.543L348.894 110.543L389.217 73.7827L402.714 88.5879L390.933 117.732L421.04 108.689L434.537 123.495Z" fill="#5E1919"/>
<path d="M372.34 61.109L356.652 86.3579C348.099 100.124 334.182 103.078 321.177 94.9983C307.757 86.6602 304.034 72.7456 312.587 58.9797L328.275 33.7308L343.632 43.2723L327.944 68.5212C324.463 74.1244 325.382 78.8182 329.602 81.4399C333.406 83.8038 337.814 82.4195 341.295 76.8164L356.983 51.5674L372.34 61.109Z" fill="#5E1919"/>
<path d="M260.541 9.57732L283.889 17.0441C300.877 22.4768 308.726 36.7009 303.815 52.0597C298.903 67.4186 284.257 74.4487 267.269 69.016L243.92 61.5492L260.541 9.57732ZM265.578 52.9137L270.232 54.4021C277.757 56.8084 284.309 53.4315 286.516 46.5278C288.724 39.6241 285.347 33.072 277.823 30.6657L273.169 29.1773L265.578 52.9137Z" fill="#5E1919"/>
<path d="M265.578 52.9137L270.232 54.4021C277.757 56.8084 284.309 53.4315 286.516 46.5278C288.724 39.6241 285.347 33.072 277.823 30.6657L273.169 29.1773L265.578 52.9137Z" fill="white"/>
<path d="M446.157 137.767L444.739 135.124L442.095 136.543L399.756 159.262L436.558 125.712L438.775 123.69L436.754 121.473L423.257 106.668L421.985 105.273L420.177 105.816L396.057 113.061L405.496 89.7122L406.203 87.9619L404.931 86.5668L391.434 71.7616L389.413 69.5446L387.196 71.5657L346.873 108.326L344.656 110.348L346.677 112.565L358.528 125.564L360.549 127.781L362.766 125.76L371.11 118.153L365.866 131.082L365.155 132.834L366.429 134.231L372.245 140.61L373.518 142.007L375.328 141.461L388.686 137.432L380.342 145.039L378.125 147.06L380.146 149.277L391.997 162.276L392.701 163.048L391.372 163.761L392.791 166.405L401.301 182.264L402.719 184.907L405.363 183.489L415.421 178.091L418.739 184.275C422.082 190.504 426.972 194.867 432.748 196.777C438.543 198.692 444.917 198.032 450.979 194.779C456.753 191.681 460.748 187.017 462.42 181.473C464.093 175.927 463.349 169.805 460.213 163.96L446.157 137.767ZM374.888 62.6922L376.471 60.144L373.923 58.5608L358.566 49.0192L356.018 47.436L354.435 49.9842L338.747 75.2331C337.223 77.6852 335.711 78.8611 334.521 79.3051C333.44 79.7084 332.355 79.6188 331.185 78.8917C329.713 77.9776 329.03 76.8691 328.853 75.6644C328.665 74.3766 328.994 72.5164 330.493 70.1045L346.18 44.8556L347.763 42.3074L345.215 40.7241L329.858 31.1826L327.31 29.5993L325.727 32.1475L310.039 57.3965C305.411 64.8448 303.965 72.5875 305.73 79.7426C307.491 86.8838 312.352 93.0468 319.594 97.5465C326.651 101.931 334.191 103.453 341.27 101.791C348.352 100.128 354.584 95.3715 359.2 87.9411L374.888 62.6922ZM261.455 6.71988L258.597 5.80607L257.683 8.66351L241.063 60.6354L240.149 63.4928L243.006 64.4066L266.355 71.8734C275.446 74.7806 284.15 74.4217 291.343 71.0513C298.558 67.6706 303.983 61.3828 306.672 52.9735C309.361 44.5642 308.592 36.2956 304.677 29.3557C300.775 22.4368 293.894 17.0939 284.803 14.1867L261.455 6.71988ZM434.662 172.495L432.692 168.824L438.097 165.923L440.068 169.594C441.227 171.755 440.452 173.655 439.322 174.261C437.724 175.119 435.754 174.529 434.662 172.495Z" stroke="white" stroke-width="6"/>
</g>
<defs>
<clipPath id="clip0_127_92">
<rect width="512" height="512" fill="white"/>
</clipPath>
</defs>
</svg>
