<svg width="512" height="512" viewBox="0 0 512 512" fill="none" xmlns="http://www.w3.org/2000/svg">
<g clip-path="url(#clip0_127_240)">
<path d="M425.295 317.375C430.466 319.998 435.106 322.017 439.098 323.34L449.396 308.168C435.663 310.515 422.786 300.061 418.065 294.541L411.937 307.027C415.49 310.91 419.942 314.66 425.295 317.375Z" fill="#68984C"/>
<path d="M417.961 288.777L418.065 294.541C422.786 300.061 435.663 310.515 449.396 308.168C451.289 306.91 478.735 271.871 481.972 264.166C469.884 266.104 441.434 265.2 424.331 246.074C423.271 245.752 421.875 245.116 420.581 244.146C419.894 258.39 418.408 287.258 417.961 288.777Z" fill="#68984C"/>
<path d="M431.88 216.893C418.671 214.142 418.848 227.774 417.141 235.574C416.263 239.583 418.257 242.404 420.581 244.146C421.875 245.116 423.271 245.752 424.331 246.074C427.196 246.897 433.511 248.06 435.849 246.123C435.858 246.602 435.867 247.046 435.874 247.433C443.336 258.586 452.015 255.551 455.422 252.639C456.587 247.699 458.275 236.522 455.7 231.344C453.508 226.935 449.379 223.104 442.793 220.24C439.711 218.899 436.091 217.771 431.88 216.893Z" fill="#68984C"/>
<path d="M424.331 246.074C441.434 265.2 469.884 266.104 481.972 264.166C482.709 261.564 480.95 258.502 479.978 257.296C478.129 258.969 474.289 257.789 472.6 256.99C472.147 257.551 471.606 257.991 470.964 258.285C464.924 261.048 459.364 258.77 455.422 252.639C452.015 255.551 443.336 258.586 435.874 247.433C435.867 247.046 435.858 246.602 435.849 246.123C433.511 248.06 427.196 246.897 424.331 246.074Z" fill="#68984C"/>
<path d="M455.7 231.344C458.275 236.522 456.587 247.699 455.422 252.639C459.364 258.77 464.924 261.048 470.964 258.285C471.606 257.991 472.147 257.551 472.6 256.99C476.402 252.274 473.962 239.004 473.001 232.072C472.878 231.185 472.581 230.342 472.141 229.541C468.728 223.336 456.697 219.707 450.293 218.549C445.22 217.632 443.282 219.09 442.793 220.24C449.379 223.104 453.508 226.935 455.7 231.344Z" fill="#68984C"/>
<path d="M473.001 232.072C473.962 239.004 476.402 252.274 472.6 256.99C474.289 257.789 478.129 258.969 479.978 257.296C481.069 252.451 484.815 242.694 491.068 242.428L491.112 242.426C498.913 242.095 506.449 241.774 504.989 232.763C503.527 223.735 501.335 219.775 487.899 219.674C477.151 219.593 472.915 226.218 472.141 229.541C472.581 230.342 472.878 231.185 473.001 232.072Z" fill="#68984C"/>
<path d="M145.368 264.863C144.865 266.12 144.175 267.288 143.243 268.247C140.02 271.564 132.719 281.598 128.516 291.389C129.927 295.802 130.9 299.976 131.515 303.924C132.484 305.393 166.154 319.026 179.594 314.664C180.65 312.539 181.844 310.398 183.19 308.231C193.581 291.507 200.193 279.2 212.237 273.964C186.438 273.433 171.957 271.18 146.09 262.501C145.911 263.304 145.674 264.1 145.368 264.863Z" fill="#A7A9B8"/>
<path d="M179.594 314.664C166.154 319.026 132.484 305.393 131.515 303.924C133.954 319.594 130.736 331.691 126.734 340.939C136.966 345.505 160.424 353.94 172.399 351.156C172.082 338.215 173.616 326.698 179.594 314.664Z" fill="#9396A8"/>
<path d="M146.278 414.14C155.912 407.045 175.546 389.139 173.433 366.794C172.914 361.298 172.52 356.122 172.399 351.156C160.424 353.94 136.966 345.505 126.734 340.939C125.196 344.493 123.543 347.626 122.05 350.379C115.692 362.102 123.799 374.077 132.599 387.813C139.638 398.802 139.456 417.513 138.485 425.495C140.138 421.113 142.634 416.823 146.278 414.14Z" fill="#9396A8"/>
<path d="M186.466 334.387C180.231 337.696 187.275 353.987 190.802 358.588C192.494 360.796 193.597 364.781 194.26 368.447C194.702 370.893 194.949 373.198 195.045 374.739C196.724 375.75 199.227 376.561 201.854 376.852C205.792 377.287 210.008 376.553 212.145 373.573C212.312 373.555 212.551 373.503 212.822 373.499C212.195 370.68 223.489 356.315 226.503 348.896C229.517 341.477 225.294 337.478 214.357 341.828C209.129 343.907 204.717 343.161 201.556 341.657C199.427 340.644 197.865 339.287 197.004 338.219C195.57 335.838 191.454 331.739 186.466 334.387Z" fill="#850800"/>
<path d="M193.376 368.544C188.869 369.039 188.139 374.107 189.406 383.681C189.768 386.417 190.844 388.475 192.353 389.988C194.67 392.313 198.008 393.355 201.348 393.605C202.808 393.714 204.269 393.672 205.645 393.519C206.245 393.452 206.829 393.365 207.39 393.259C208.934 392.969 210.189 392.363 211.205 391.528C214.603 388.736 215.327 383.386 215.226 378.748C215.124 374.063 213.771 373.486 212.822 373.499C212.551 373.503 212.312 373.555 212.145 373.573C210.008 376.553 205.792 377.287 201.854 376.852C199.227 376.561 196.724 375.75 195.045 374.739C194.949 373.198 194.702 370.893 194.26 368.447L193.376 368.544Z" fill="#850800"/>
<path d="M192.353 389.988C189.841 394.967 184.786 406.555 184.666 413.079C184.587 417.113 185.284 425.612 188.709 427.336C192.133 429.061 195.756 426.913 197.139 425.624C198.847 424.212 203.141 422.025 206.654 424.58C211.045 427.774 211.072 428.033 213.604 428.018C216.135 428.003 219.894 425.228 218.764 416.951C217.635 408.674 215.925 398.361 211.205 391.528C210.189 392.363 208.934 392.969 207.39 393.259C206.829 393.365 206.245 393.452 205.645 393.519C204.269 393.672 202.808 393.714 201.348 393.605C198.008 393.355 194.67 392.313 192.353 389.988Z" fill="#850800"/>
<path d="M201.556 341.657C204.717 343.161 209.129 343.907 214.357 341.828C214.302 341.309 223.593 302.27 234.116 294.004C230.318 295.428 224.946 296.388 220.205 294.195C219.489 293.863 218.783 293.587 218.09 293.359C211.339 298.497 204.255 327.698 201.556 341.657Z" fill="#850800"/>
<path d="M113.052 318.026C119.244 304.745 115.972 276.227 115.407 261.325C115.208 256.078 116.614 248.869 118.588 241.628C116.345 238.438 115.104 236.601 113.072 232.782C111.98 236.237 111.206 238.852 110.846 239.773C101.285 276.263 101.943 292.048 103.202 299.154C104.461 306.26 102.762 316.529 100.835 322.254C99.2932 326.833 100.522 327.276 101.329 326.925C106.584 324.878 111.334 320.139 113.052 318.026Z" fill="#850800"/>
<path d="M258.832 319.307C269.609 315.748 282.94 305.929 289.266 300.532C289.773 287.268 287.393 275.757 283.457 265.991C280.834 259.485 277.521 253.753 273.909 248.795C271.339 251.772 264.95 258.335 259.957 260.773C261.788 280.671 257.944 301.66 251.966 320.638C254.046 320.605 256.372 320.119 258.832 319.307Z" fill="#101010"/>
<path d="M80.4848 249.667L66.7742 268.497C69.7534 275.446 77.3373 288.743 86.4764 293.745C87.9997 294.579 89.5662 295.182 91.1618 295.487C93.5449 281.312 100.818 250.324 110.846 239.773C111.206 238.852 111.98 236.237 113.072 232.782C112.44 232.065 109.081 224.689 108.07 220.729C97.0927 231.086 85.699 242.505 80.4848 249.667Z" fill="#101010"/>
<path fill-rule="evenodd" clip-rule="evenodd" d="M442.62 342.252L453.46 327.411C453.796 325.799 455.126 324.078 455.038 319.625C454.995 320.068 454.918 320.514 454.804 320.963C453.572 325.797 447.916 326.264 439.098 323.34C435.106 322.017 430.466 319.998 425.295 317.375C419.942 314.66 415.49 310.91 411.937 307.027C406.679 301.279 403.392 295.239 402.074 291.832C401.119 292.073 399.962 293.436 398.764 295.346C395.317 300.838 391.521 310.85 391.163 311.668C400.762 329.28 428.129 339.219 442.62 342.252ZM433.985 330.073C432.915 331.45 433.61 332.914 434.091 333.474C436.87 335.794 437.594 335.452 439.432 333.676C441.27 331.899 439.075 330.302 437.963 329.374C436.852 328.446 435.322 328.351 433.985 330.073Z" fill="white"/>
<path d="M417.961 288.777C408.373 286.258 403.374 289.764 402.074 291.832C403.392 295.239 406.679 301.279 411.937 307.027L418.065 294.541L417.961 288.777Z" fill="white"/>
<path d="M439.098 323.34C447.916 326.264 453.572 325.797 454.804 320.963C454.918 320.514 454.995 320.068 455.038 319.625C455.538 314.527 451.603 309.939 449.396 308.168L439.098 323.34Z" fill="white"/>
<path d="M434.091 333.474C433.61 332.914 432.915 331.45 433.985 330.073C435.322 328.351 436.852 328.446 437.963 329.374C439.075 330.302 441.27 331.899 439.432 333.676C437.594 335.452 436.87 335.794 434.091 333.474Z" fill="white"/>
<path d="M285.406 421.979C281.12 416.586 273.282 402.202 276.216 387.809C279.884 369.818 280.635 348.203 279.852 340.81C279.069 333.416 285.66 292.79 314.555 297.758C311.227 290.247 300.35 273.379 283.457 265.991C287.393 275.757 289.773 287.268 289.266 300.532C282.94 305.929 269.609 315.748 258.832 319.307C264.993 318.169 273.976 332.364 277.698 339.605C277.923 344.918 274.056 359.273 256.79 374.189C239.524 389.104 233.286 416.146 232.324 427.802C231.972 433.961 233.252 438.147 234.116 442.745C254.901 440.301 272.991 441.667 294 438.405C289.085 435.03 288.81 427.112 285.406 421.979Z" fill="#222222"/>
<path d="M408 427.802C419.871 411.536 454.446 355.866 457.331 344.838C460.216 333.811 455.952 328.626 453.46 327.411L442.62 342.252C428.129 339.219 400.762 329.28 391.163 311.668C391.521 310.85 395.317 300.838 398.764 295.346C380.144 294.763 378.103 307.063 376.033 316.216C373.962 325.369 364.392 347.421 355.675 355.99C353.915 354.521 349.26 351.863 344.719 352.992C342.506 343.574 334.801 335.878 331.226 333.207C328.556 332.713 323.063 329.798 322.45 322.094C321.837 314.391 316.931 302.66 314.555 297.758C285.66 292.79 279.069 333.416 279.852 340.81C280.635 348.203 279.884 369.818 276.216 387.809C273.282 402.202 281.12 416.586 285.406 421.979C288.81 427.112 289.085 435.03 294 438.405C336.724 431.772 370.756 438.275 408 427.802Z" fill="#222222"/>
<path d="M222.059 428.928C220.247 417.401 219.608 389.031 231.541 367.77C238.176 355.95 246.099 339.262 251.966 320.638C257.944 301.66 261.788 280.671 259.957 260.773C258.204 261.954 254.05 264.582 251.461 265.643C251.623 265.947 251.796 266.252 251.98 266.557C255.911 273.056 244.119 286.408 237.732 292.272C236.86 292.812 235.61 293.444 234.116 294.004C223.593 302.27 214.302 341.309 214.357 341.828C225.294 337.478 229.517 341.477 226.503 348.896C223.489 356.315 212.195 370.68 212.822 373.499C213.771 373.486 215.124 374.063 215.226 378.748C215.327 383.386 214.603 388.736 211.205 391.528C215.925 398.361 217.635 408.674 218.764 416.951C219.894 425.228 216.135 428.003 213.604 428.018C211.072 428.033 211.045 427.774 206.654 424.58C203.141 422.025 198.847 424.212 197.139 425.624C195.756 426.913 192.133 429.061 188.709 427.336C185.284 425.612 184.587 417.113 184.666 413.079C184.786 406.555 189.841 394.967 192.353 389.988C190.844 388.475 189.768 386.417 189.406 383.681C188.139 374.107 188.869 369.039 193.376 368.544L194.26 368.447C193.597 364.781 192.494 360.796 190.802 358.588C187.275 353.987 180.231 337.696 186.466 334.387C191.454 331.739 195.57 335.838 197.004 338.219C197.865 339.287 199.427 340.644 201.556 341.657C204.255 327.698 211.339 298.497 218.09 293.359C212.389 291.484 207.586 292.883 205.741 293.944C193.771 300.507 189.474 310.167 189.465 317.256C189.456 324.345 186.534 325.453 179.736 333.025C174.299 339.082 176.64 346.841 178.49 349.963C185.462 362.219 183.306 368.336 181.357 369.863C179.213 371.148 175.668 376.42 178.636 387.225C182.346 400.732 176.632 408.972 166.696 413.212C156.76 417.453 152.103 426.102 156.439 428.776C159.908 430.916 160.234 434.311 159.963 435.74C160.515 439.104 160.802 446.445 157.528 448.893C178.843 447.194 201.419 445.063 224.543 442.449L222.059 428.928Z" fill="white"/>
<path d="M159.963 435.74C160.234 434.311 159.908 430.916 156.439 428.776C152.103 426.102 156.76 417.453 166.696 413.212C176.632 408.972 182.346 400.732 178.636 387.225C175.668 376.42 179.213 371.148 181.357 369.863C183.306 368.336 185.462 362.219 178.49 349.963C176.64 346.841 174.299 339.082 179.736 333.025C186.534 325.453 189.456 324.345 189.465 317.256C189.474 310.167 193.771 300.507 205.741 293.944C207.586 292.883 212.389 291.484 218.09 293.359C218.783 293.587 219.489 293.863 220.205 294.195C224.946 296.388 230.318 295.428 234.116 294.004C235.61 293.444 236.86 292.812 237.732 292.272C244.119 286.408 255.911 273.056 251.98 266.557C251.796 266.252 251.623 265.947 251.461 265.643C237.03 271.818 228.255 273.022 212.237 273.964C200.193 279.2 193.581 291.507 183.19 308.231C181.844 310.398 180.65 312.539 179.594 314.664C173.616 326.698 172.082 338.215 172.399 351.156C172.52 356.122 172.914 361.298 173.433 366.794C175.546 389.139 155.912 407.045 146.278 414.14C142.634 416.823 140.138 421.113 138.485 425.495C136.641 430.384 135.846 435.387 135.675 438.405L135.477 444.475L135.279 450.545C142.514 450.047 149.941 449.497 157.528 448.893C160.802 446.445 160.515 439.104 159.963 435.74Z" fill="white"/>
<path d="M231.541 367.77C219.608 389.031 220.247 417.401 222.059 428.928L224.543 442.449C227.376 442.129 231.268 443.08 234.116 442.745C233.252 438.147 231.972 433.961 232.324 427.802C233.286 416.146 239.524 389.104 256.79 374.189C274.056 359.273 277.923 344.918 277.698 339.605C273.976 332.364 264.993 318.169 258.832 319.307C256.372 320.119 254.046 320.605 251.966 320.638C246.099 339.262 238.176 355.95 231.541 367.77Z" fill="#101010"/>
<path d="M125.394 303.02C124.878 314.891 118.435 328.199 109.631 338.353C102.589 346.476 108.034 354.367 111.637 357.297C114.2 359.641 117.767 366.548 111.53 375.423C105.293 384.298 111.604 391.604 115.539 394.147C120.673 396.384 128.561 403.745 119.044 415.29C109.526 426.835 123.662 435.785 131.92 438.817C132.396 439.923 133.776 442.604 135.477 444.475L135.675 438.405C135.846 435.387 136.641 430.384 138.485 425.495C139.456 417.513 139.638 398.802 132.599 387.813C123.799 374.077 115.692 362.102 122.05 350.379C123.543 347.626 125.196 344.493 126.734 340.939C130.736 331.691 133.954 319.594 131.515 303.924C130.9 299.976 129.927 295.802 128.516 291.389C126.761 295.478 125.546 299.524 125.394 303.02Z" fill="white"/>
<path d="M48.4836 279.955C47.572 303.243 46.8489 353.033 51.2495 365.888C55.6501 378.743 56.133 400.052 55.8244 409.099C56.5815 418.642 63.5558 439.795 71.5765 445.437C79.5972 451.078 77.0599 452.316 78.2865 453.593C85.3772 453.334 92.8852 453.008 100.753 452.611C100.806 448.753 97.6826 444.426 96.1144 442.745C91.2055 438.645 83.9961 422.547 94.43 390.95C95.7177 384.771 95.0986 369.035 82.3207 355.525C69.5427 342.015 64.5674 325.007 63.6769 318.192C65.6314 312.36 72.9274 299.307 86.4764 293.745C77.3373 288.743 69.7534 275.446 66.7742 268.497L80.4848 249.667C58.5508 260.684 50.0115 274.449 48.4836 279.955Z" fill="#222222"/>
<path d="M30.3653 371.988C28.0807 400.171 14.8226 437.311 8.47921 452.358C12.1053 454.393 38.6891 455.04 78.2865 453.593C77.0599 452.316 79.5972 451.078 71.5765 445.437C63.5558 439.795 56.5815 418.642 55.8244 409.099C56.133 400.052 55.6501 378.743 51.2495 365.888C46.8489 353.033 47.572 303.243 48.4836 279.955C35.8327 296.832 33.2211 336.759 30.3653 371.988Z" fill="#222222"/>
<path d="M99.0965 353.685C89.7923 338.534 89.93 308.574 91.1618 295.487C89.5662 295.182 87.9997 294.579 86.4764 293.745C72.9274 299.307 65.6314 312.36 63.6769 318.192C64.5674 325.007 69.5427 342.015 82.3207 355.525C95.0986 369.035 95.7177 384.771 94.43 390.95C83.9961 422.547 91.2055 438.645 96.1144 442.745C97.6826 444.426 100.806 448.753 100.753 452.611C102.39 452.528 104.043 452.442 105.71 452.353C105.519 448.817 101.737 444.2 99.8702 442.333C92.5321 438.097 96.0212 421.928 98.683 414.373C102.698 400.456 108.401 368.835 99.0965 353.685Z" fill="#101010"/>
<path d="M91.1618 295.487C89.93 308.574 89.7923 338.534 99.0965 353.685C108.401 368.835 102.698 400.456 98.683 414.373C96.0212 421.928 92.5321 438.097 99.8702 442.333C101.737 444.2 105.519 448.817 105.71 452.353C115.118 451.852 125.004 451.251 135.279 450.545L135.477 444.475C133.776 442.604 132.396 439.923 131.92 438.817C123.662 435.785 109.526 426.835 119.044 415.29C128.561 403.745 120.673 396.384 115.539 394.147C111.604 391.604 105.293 384.298 111.53 375.423C117.767 366.548 114.2 359.641 111.637 357.297C108.034 354.367 102.589 346.476 109.631 338.353C118.435 328.199 124.878 314.891 125.394 303.02C125.546 299.524 126.761 295.478 128.516 291.389C132.719 281.598 140.02 271.564 143.243 268.247C144.175 267.288 144.865 266.12 145.368 264.863C145.332 264.089 145.274 263.24 145.191 262.337L135.466 256.841C135.446 257.569 135.356 258.347 135.188 259.155C134.516 262.379 132.125 261.328 131.014 260.4C129.875 259.212 129.517 255.839 129.881 254.486C130 254.044 130.145 253.598 130.359 253.201C125.696 249.467 123.125 246.871 118.588 241.628C116.614 248.869 115.208 256.078 115.407 261.325C115.972 276.227 119.244 304.745 113.052 318.026C111.334 320.139 106.584 324.878 101.329 326.925C100.522 327.276 99.2932 326.833 100.835 322.254C102.762 316.529 104.461 306.26 103.202 299.154C101.943 292.048 101.285 276.263 110.846 239.773C100.818 250.324 93.5449 281.312 91.1618 295.487Z" fill="white"/>
<path d="M453.46 327.411C455.952 328.626 460.216 333.811 457.331 344.838C454.446 355.866 419.871 411.536 408 427.802C370.756 438.275 336.724 431.772 294 438.405M453.46 327.411L442.62 342.252C428.129 339.219 400.762 329.28 391.163 311.668M453.46 327.411C453.796 325.799 455.126 324.078 455.038 319.625M387.93 301.785C388.363 305.314 389.495 308.607 391.163 311.668M391.163 311.668C391.521 310.85 395.317 300.838 398.764 295.346M402.074 291.832C403.374 289.764 408.373 286.258 417.961 288.777M402.074 291.832C403.392 295.239 406.679 301.279 411.937 307.027M402.074 291.832C401.119 292.073 399.962 293.436 398.764 295.346M449.396 308.168L439.098 323.34M449.396 308.168C435.663 310.515 422.786 300.061 418.065 294.541M449.396 308.168C451.603 309.939 455.538 314.527 455.038 319.625M449.396 308.168C451.289 306.91 478.735 271.871 481.972 264.166M439.098 323.34C435.106 322.017 430.466 319.998 425.295 317.375C419.942 314.66 415.49 310.91 411.937 307.027M439.098 323.34C447.916 326.264 453.572 325.797 454.804 320.963C454.918 320.514 454.995 320.068 455.038 319.625M417.961 288.777L418.065 294.541M417.961 288.777C418.408 287.258 419.894 258.39 420.581 244.146M418.065 294.541L411.937 307.027M349.298 381.892C348.518 376.115 348.7 362.846 355.675 355.99M355.675 355.99C364.392 347.421 373.962 325.369 376.033 316.216C378.103 307.063 380.144 294.763 398.764 295.346M355.675 355.99C353.915 354.521 349.26 351.863 344.719 352.992M481.972 264.166C469.884 266.104 441.434 265.2 424.331 246.074M481.972 264.166C482.709 261.564 480.95 258.502 479.978 257.296M424.331 246.074C427.196 246.897 433.511 248.06 435.849 246.123M424.331 246.074C423.271 245.752 421.875 245.116 420.581 244.146M455.422 252.639C456.587 247.699 458.275 236.522 455.7 231.344C453.508 226.935 449.379 223.104 442.793 220.24M455.422 252.639C452.015 255.551 443.336 258.586 435.874 247.433C435.867 247.046 435.858 246.602 435.849 246.123M455.422 252.639C459.364 258.77 464.924 261.048 470.964 258.285C471.606 257.991 472.147 257.551 472.6 256.99M429.41 234.229C431.439 235.056 435.52 236.919 435.608 237.749C435.684 238.468 435.789 243.038 435.849 246.123M420.581 244.146C418.257 242.404 416.263 239.583 417.141 235.574C418.848 227.774 418.671 214.142 431.88 216.893C436.091 217.771 439.711 218.899 442.793 220.24M442.668 220.698C442.684 220.556 442.724 220.401 442.793 220.24M472.6 256.99C476.402 252.274 473.962 239.004 473.001 232.072C472.878 231.185 472.581 230.342 472.141 229.541M472.6 256.99C474.289 257.789 478.129 258.969 479.978 257.296M479.978 257.296C481.069 252.451 484.815 242.694 491.068 242.428M491.068 242.428L491.112 242.426M491.068 242.428C491.083 242.428 491.097 242.427 491.112 242.426M472.141 229.541C468.728 223.336 456.697 219.707 450.293 218.549C445.22 217.632 443.282 219.09 442.793 220.24M472.141 229.541C472.915 226.218 477.151 219.593 487.899 219.674C501.335 219.775 503.527 223.735 504.989 232.763C506.449 241.774 498.913 242.095 491.112 242.426M314.555 297.758C285.66 292.79 279.069 333.416 279.852 340.81C280.635 348.203 279.884 369.818 276.216 387.809C273.282 402.202 281.12 416.586 285.406 421.979C288.81 427.112 289.085 435.03 294 438.405M314.555 297.758C316.931 302.66 321.837 314.391 322.45 322.094C323.063 329.798 328.556 332.713 331.226 333.207C334.801 335.878 342.506 343.574 344.719 352.992M314.555 297.758C311.227 290.247 300.35 273.379 283.457 265.991M344.719 352.992C341.758 355.329 335.617 361.288 334.743 366.425M48.4836 279.955C35.8327 296.832 33.2211 336.759 30.3653 371.988C28.0807 400.171 14.8226 437.311 8.47921 452.358C12.1053 454.393 38.6891 455.04 78.2865 453.593M48.4836 279.955C47.572 303.243 46.8489 353.033 51.2495 365.888C55.6501 378.743 56.133 400.052 55.8244 409.099C56.5815 418.642 63.5558 439.795 71.5765 445.437C79.5972 451.078 77.0599 452.316 78.2865 453.593M48.4836 279.955C50.0115 274.449 58.5508 260.684 80.4848 249.667M80.4848 249.667L66.7742 268.497C69.7534 275.446 77.3373 288.743 86.4764 293.745M80.4848 249.667C85.699 242.505 97.0927 231.086 108.07 220.729C109.081 224.689 112.44 232.065 113.072 232.782M91.1618 295.487C89.93 308.574 89.7923 338.534 99.0965 353.685C108.401 368.835 102.698 400.456 98.683 414.373C96.0212 421.928 92.5321 438.097 99.8702 442.333C101.737 444.2 105.519 448.817 105.71 452.353M91.1618 295.487C89.5662 295.182 87.9997 294.579 86.4764 293.745M91.1618 295.487C93.5449 281.312 100.818 250.324 110.846 239.773M86.4764 293.745C72.9274 299.307 65.6314 312.36 63.6769 318.192C64.5674 325.007 69.5427 342.015 82.3207 355.525C95.0986 369.035 95.7177 384.771 94.43 390.95C83.9961 422.547 91.2055 438.645 96.1144 442.745C97.6826 444.426 100.806 448.753 100.753 452.611M251.966 320.638C246.099 339.262 238.176 355.95 231.541 367.77C219.608 389.031 220.247 417.401 222.059 428.928L224.543 442.449M251.966 320.638C254.046 320.605 256.372 320.119 258.832 319.307M251.966 320.638C257.944 301.66 261.788 280.671 259.957 260.773M258.832 319.307C269.609 315.748 282.94 305.929 289.266 300.532C289.773 287.268 287.393 275.757 283.457 265.991M258.832 319.307C264.993 318.169 273.976 332.364 277.698 339.605C277.923 344.918 274.056 359.273 256.79 374.189C239.524 389.104 233.286 416.146 232.324 427.802C231.972 433.961 233.252 438.147 234.116 442.745M110.846 239.773C101.285 276.263 101.943 292.048 103.202 299.154C104.461 306.26 102.762 316.529 100.835 322.254C99.2932 326.833 100.522 327.276 101.329 326.925C106.584 324.878 111.334 320.139 113.052 318.026C119.244 304.745 115.972 276.227 115.407 261.325C115.208 256.078 116.614 248.869 118.588 241.628M110.846 239.773C111.206 238.852 111.98 236.237 113.072 232.782M145.368 264.863C144.865 266.12 144.175 267.288 143.243 268.247C140.02 271.564 132.719 281.598 128.516 291.389M145.368 264.863C145.674 264.1 145.911 263.304 146.09 262.501M145.368 264.863C145.332 264.089 145.274 263.24 145.191 262.337M121.721 282.684C121.172 277.494 120.307 266.458 121.245 263.834M127.767 275.195C127.63 273.897 123.575 269.092 123.563 257.017M138.485 425.495C136.641 430.384 135.846 435.387 135.675 438.405L135.477 444.475M138.485 425.495C140.138 421.113 142.634 416.823 146.278 414.14C155.912 407.045 175.546 389.139 173.433 366.794C172.914 361.298 172.52 356.122 172.399 351.156M138.485 425.495C139.456 417.513 139.638 398.802 132.599 387.813C123.799 374.077 115.692 362.102 122.05 350.379C123.543 347.626 125.196 344.493 126.734 340.939M128.516 291.389C126.761 295.478 125.546 299.524 125.394 303.02C124.878 314.891 118.435 328.199 109.631 338.353C102.589 346.476 108.034 354.367 111.637 357.297C114.2 359.641 117.767 366.548 111.53 375.423C105.293 384.298 111.604 391.604 115.539 394.147C120.673 396.384 128.561 403.745 119.044 415.29C109.526 426.835 123.662 435.785 131.92 438.817C132.396 439.923 133.776 442.604 135.477 444.475M128.516 291.389C129.927 295.802 130.9 299.976 131.515 303.924M131.515 303.924C132.484 305.393 166.154 319.026 179.594 314.664M131.515 303.924C133.954 319.594 130.736 331.691 126.734 340.939M179.594 314.664C180.65 312.539 181.844 310.398 183.19 308.231C193.581 291.507 200.193 279.2 212.237 273.964M179.594 314.664C173.616 326.698 172.082 338.215 172.399 351.156M126.734 340.939C136.966 345.505 160.424 353.94 172.399 351.156M251.293 265.319C251.347 265.427 251.404 265.535 251.461 265.643M193.064 372.779C193.331 373.458 194.041 374.134 195.045 374.739M195.045 374.739C194.949 373.198 194.702 370.893 194.26 368.447M195.045 374.739C196.724 375.75 199.227 376.561 201.854 376.852M214.357 341.828C225.294 337.478 229.517 341.477 226.503 348.896C223.489 356.315 212.195 370.68 212.822 373.499M214.357 341.828C209.129 343.907 204.717 343.161 201.556 341.657M214.357 341.828C214.302 341.309 223.593 302.27 234.116 294.004M212.822 373.499C212.551 373.503 212.312 373.555 212.145 373.573C210.008 376.553 205.792 377.287 201.854 376.852M212.822 373.499C213.771 373.486 215.124 374.063 215.226 378.748C215.327 383.386 214.603 388.736 211.205 391.528M194.26 368.447C193.597 364.781 192.494 360.796 190.802 358.588C187.275 353.987 180.231 337.696 186.466 334.387C191.454 331.739 195.57 335.838 197.004 338.219C197.865 339.287 199.427 340.644 201.556 341.657M194.26 368.447L193.376 368.544C188.869 369.039 188.139 374.107 189.406 383.681C189.768 386.417 190.844 388.475 192.353 389.988M192.353 389.988C189.841 394.967 184.786 406.555 184.666 413.079C184.587 417.113 185.284 425.612 188.709 427.336C192.133 429.061 195.756 426.913 197.139 425.624C198.847 424.212 203.141 422.025 206.654 424.58C211.045 427.774 211.072 428.033 213.604 428.018C216.135 428.003 219.894 425.228 218.764 416.951C217.635 408.674 215.925 398.361 211.205 391.528M192.353 389.988C194.67 392.313 198.008 393.355 201.348 393.605M211.205 391.528C210.189 392.363 208.934 392.969 207.39 393.259C206.829 393.365 206.245 393.452 205.645 393.519M201.556 341.657C204.255 327.698 211.339 298.497 218.09 293.359M218.09 293.359C212.389 291.484 207.586 292.883 205.741 293.944C193.771 300.507 189.474 310.167 189.465 317.256C189.456 324.345 186.534 325.453 179.736 333.025C174.299 339.082 176.64 346.841 178.49 349.963C185.462 362.219 183.306 368.336 181.357 369.863C179.213 371.148 175.668 376.42 178.636 387.225C182.346 400.732 176.632 408.972 166.696 413.212C156.76 417.453 152.103 426.102 156.439 428.776C159.908 430.916 160.234 434.311 159.963 435.74C160.515 439.104 160.802 446.445 157.528 448.893M218.09 293.359C218.783 293.587 219.489 293.863 220.205 294.195C224.946 296.388 230.318 295.428 234.116 294.004M234.116 294.004C235.61 293.444 236.86 292.812 237.732 292.272C244.119 286.408 255.911 273.056 251.98 266.557C251.796 266.252 251.623 265.947 251.461 265.643M201.854 376.852C201.699 376.111 201.576 375.097 201.539 373.877M206.326 356.885C202.292 363.173 201.414 369.72 201.539 373.877M201.539 373.877C199.535 370.533 196.175 362.042 198.762 354.827M200.327 412.673C199.976 409.35 199.687 400.885 201.348 393.605M201.348 393.605C202.808 393.714 204.269 393.672 205.645 393.519M210.676 412.326C210.343 411.574 204.357 405.28 205.645 393.519M283.457 265.991C280.834 259.485 277.521 253.753 273.909 248.795C271.339 251.772 264.95 258.335 259.957 260.773M259.957 260.773C258.204 261.954 254.05 264.582 251.461 265.643M251.461 265.643C237.03 271.818 228.255 273.022 212.237 273.964M212.237 273.964C186.438 273.433 171.957 271.18 146.09 262.501M146.09 262.501L145.191 262.337M145.191 262.337L135.466 256.841M135.466 256.841C135.446 257.569 135.356 258.347 135.188 259.155C134.516 262.379 132.125 261.328 131.014 260.4C129.875 259.212 129.517 255.839 129.881 254.486C130 254.044 130.145 253.598 130.359 253.201M135.466 256.841L130.359 253.201M130.359 253.201C125.696 249.467 123.125 246.871 118.588 241.628M118.588 241.628C116.345 238.438 115.104 236.601 113.072 232.782M105.71 452.353C104.043 452.442 102.39 452.528 100.753 452.611M105.71 452.353C115.118 451.852 125.004 451.251 135.279 450.545M100.753 452.611C92.8852 453.008 85.3772 453.334 78.2865 453.593M135.279 450.545C142.514 450.047 149.941 449.497 157.528 448.893M135.279 450.545L135.477 444.475M157.528 448.893C178.843 447.194 201.419 445.063 224.543 442.449M224.543 442.449C227.376 442.129 231.268 443.08 234.116 442.745M234.116 442.745C254.901 440.301 272.991 441.667 294 438.405M434.091 333.474C433.61 332.914 432.915 331.45 433.985 330.073C435.322 328.351 436.852 328.446 437.963 329.374C439.075 330.302 441.27 331.899 439.432 333.676C437.594 335.452 436.87 335.794 434.091 333.474Z" stroke="black" stroke-width="2"/>
<path d="M207.58 71.8883C206.936 69.514 204.754 69.0131 202.851 70.8032L202.4 72.1841C200.638 70.5428 197.645 66.1944 199.765 61.9306C201.884 57.6668 206.779 57.6024 208.962 58.1032C210.877 58.6664 214.701 60.9047 214.678 65.3527C214.65 70.9128 209.619 73.4696 207.322 73.3134L207.58 71.8883Z" fill="#9396A8"/>
<path d="M195.814 107.784C197.795 108.385 199.381 109.229 200.642 110.205C204.495 113.183 205.325 117.379 205.149 119.575L191.744 119.499L180.06 111.962C181.561 110.066 185.489 107.054 191.012 107.05C192.502 107.048 194.108 107.266 195.814 107.784Z" fill="#9396A8"/>
<path d="M200.642 110.205C199.381 109.229 197.795 108.385 195.814 107.784C194.108 107.266 192.502 107.048 191.012 107.05L202.4 72.1841L202.851 70.8032C204.754 69.0131 206.936 69.514 207.58 71.8883L207.322 73.3134L200.642 110.205Z" fill="#A7A9B8"/>
<path d="M200.642 110.205C199.381 109.229 197.795 108.385 195.814 107.784C194.108 107.266 192.502 107.048 191.012 107.05M200.642 110.205C204.495 113.183 205.325 117.379 205.149 119.575L191.744 119.499L180.06 111.962C181.561 110.066 185.489 107.054 191.012 107.05M200.642 110.205L207.322 73.3134M191.012 107.05L202.4 72.1841M202.4 72.1841L202.851 70.8032C204.754 69.0131 206.936 69.514 207.58 71.8883L207.322 73.3134M202.4 72.1841C200.638 70.5428 197.645 66.1944 199.765 61.9306C201.884 57.6668 206.779 57.6024 208.962 58.1032C210.877 58.6664 214.701 60.9047 214.678 65.3527C214.65 70.9128 209.619 73.4696 207.322 73.3134" stroke="black" stroke-width="2"/>
<path fill-rule="evenodd" clip-rule="evenodd" d="M145.122 279.216C114.989 269.588 101.301 250.836 97.8845 238.521C113.471 234.353 130.876 233.276 138.337 235.043C153.465 238.547 165.659 241.459 175.325 243.768L175.327 243.768L175.33 243.769C194.068 248.244 203.306 250.45 206 250.301C214.779 250.195 232.235 246.573 231.828 232.935C231.421 219.296 213.886 213.441 205.454 213.928C198.98 212.881 188.389 214.865 180.035 216.43C176.343 217.121 173.088 217.731 170.818 217.962C161.582 218.898 140.418 215.677 131.982 213.467C129.474 213.032 126.389 212.133 123.016 211.149L123.014 211.149C114.82 208.759 104.92 205.872 97.4269 207.938C97.7096 201.21 100.514 185.771 109.472 177.842C107.73 176.544 103.854 172.968 102.282 169.05C98.9485 166.842 93.3838 161.415 97.7944 157.363C104.642 167.782 131.365 170.727 156.014 167.261C156.209 167.779 156.428 168.303 156.673 168.832C158.494 173.715 194.456 195.718 224.512 170.66C199.422 159.892 163.397 150.205 154.736 158.784C128.198 145.742 102.131 146.103 95.6176 146.979C96.0855 143.818 97.8863 140.838 102.14 139.107C101.543 135.696 103.334 131.732 110.75 131.132C113.556 126.817 119.436 121.772 128.161 120.133C134.01 108.99 154.437 92.4816 189.35 115.596C198.497 110.313 209.722 110.15 215.978 111.205C251.282 115.334 262.093 151.124 263.086 168.503C281.026 175.942 283.357 195.484 284.016 208.861C286.492 259.065 250.06 279.415 221.311 282.933C188.659 287.631 163.749 285.167 145.122 279.216Z" fill="#68984C"/>
<path d="M156.014 167.261C131.365 170.727 104.642 167.782 97.7944 157.363C96.4405 154.903 95.0508 150.808 95.6176 146.979C102.131 146.103 128.198 145.742 154.736 158.784C154.575 161.146 154.827 163.872 155.843 166.786C155.898 166.944 155.955 167.102 156.014 167.261Z" fill="white"/>
<path d="M224.512 170.66C194.456 195.718 158.494 173.715 156.673 168.832C156.428 168.303 156.209 167.779 156.014 167.261C155.955 167.102 155.898 166.944 155.843 166.786C154.827 163.872 154.575 161.146 154.736 158.784C163.397 150.205 199.422 159.892 224.512 170.66Z" fill="white"/>
<path d="M184.119 230.171C184.395 230.208 184.505 226.29 184.526 224.326L184.699 224.269C187.821 223.253 191.109 222.183 195.839 221.947L195.204 231.066L184.118 230.19L184.119 230.171Z" fill="white"/>
<path d="M194.572 240.156C191.047 239.119 187.419 237.793 183.684 236.421L184.118 230.19L195.204 231.066L194.572 240.156Z" fill="white"/>
<path d="M195.204 231.066L206.637 231.971L205.926 242.203C202.263 242.1 198.481 241.306 194.572 240.156L195.204 231.066Z" fill="white"/>
<path d="M195.204 231.066L195.839 221.947C198.921 221.794 202.615 221.995 207.276 222.796L206.637 231.971L195.204 231.066Z" fill="white"/>
<path d="M209.339 223.179C218.04 224.901 220.974 229.188 220.89 233.098L206.637 231.971L207.276 222.796C207.943 222.911 208.631 223.039 209.339 223.179Z" fill="white"/>
<path d="M91.1858 224.095C87.9602 221.531 83.7881 215.074 92.904 209.753C94.1778 209.01 95.7086 208.412 97.4269 207.938C104.92 205.872 114.82 208.759 123.014 211.149L123.016 211.149C126.389 212.133 129.474 213.032 131.982 213.467C140.418 215.677 161.582 218.898 170.818 217.962C173.088 217.731 176.343 217.121 180.035 216.43C188.389 214.865 198.98 212.881 205.454 213.928C213.886 213.441 231.421 219.296 231.828 232.935C232.235 246.573 214.779 250.195 206 250.301C203.306 250.45 194.068 248.244 175.33 243.769L175.327 243.768L175.325 243.768C165.659 241.459 153.465 238.547 138.337 235.043C130.876 233.276 113.471 234.353 97.8845 238.521C95.6635 239.114 93.4763 239.833 91.3559 240.696C86.8556 236.759 80.5211 227.926 91.1858 224.095C110.032 221.548 125.864 222.302 139.673 224.464C141.808 224.972 144.076 225.362 146.42 225.654C149.289 226.216 152.069 226.83 154.772 227.475C157.288 228.077 159.816 228.84 162.264 229.578L162.585 229.676C164.191 230.16 165.76 230.63 167.266 231.034C167.727 231.157 168.186 231.28 168.643 231.403C173.75 232.772 178.677 234.582 183.43 236.328L183.684 236.421C187.419 237.793 191.047 239.119 194.572 240.156C198.481 241.306 202.263 242.1 205.926 242.203C209.704 242.309 213.354 241.681 216.882 239.951C219.124 238.659 220.828 235.981 220.89 233.098C220.974 229.188 218.04 224.901 209.339 223.179C208.631 223.039 207.943 222.911 207.276 222.796C202.615 221.995 198.921 221.794 195.839 221.947C191.109 222.183 187.821 223.253 184.699 224.269L184.526 224.326C177.02 225.625 160.369 227.39 146.42 225.654C144.225 225.224 141.977 224.824 139.673 224.464C125.864 222.302 110.032 221.548 91.1858 224.095Z" fill="#AD683D"/>
<path fill-rule="evenodd" clip-rule="evenodd" d="M184.526 224.326C184.505 226.29 184.395 230.208 184.119 230.171L184.118 230.19L183.684 236.421C187.419 237.793 191.047 239.119 194.572 240.156C198.481 241.306 202.263 242.1 205.926 242.203L206.637 231.971L220.89 233.098C220.974 229.188 218.04 224.901 209.339 223.179C208.631 223.039 207.943 222.911 207.276 222.796C202.615 221.995 198.921 221.794 195.839 221.947C191.109 222.183 187.821 223.253 184.699 224.269L184.526 224.326ZM146.42 225.654C144.076 225.362 141.808 224.972 139.673 224.464C141.977 224.824 144.225 225.224 146.42 225.654Z" fill="white"/>
<path d="M220.89 233.098C220.828 235.981 219.124 238.659 216.882 239.951C213.354 241.681 209.704 242.309 205.926 242.203L206.637 231.971L220.89 233.098Z" fill="white"/>
<path d="M168.643 231.403C168.186 231.28 167.727 231.157 167.266 231.034C165.76 230.63 164.191 230.16 162.585 229.676L162.264 229.578C159.816 228.84 157.288 228.077 154.772 227.475L184.118 230.19L183.684 236.421L183.43 236.328C178.677 234.582 173.75 232.772 168.643 231.403Z" fill="white"/>
<path d="M184.526 224.326C184.505 226.29 184.395 230.208 184.119 230.171L184.118 230.19L154.772 227.475C152.069 226.83 149.289 226.216 146.42 225.654C160.369 227.39 177.02 225.625 184.526 224.326Z" fill="white"/>
<path d="M91.1858 224.095C87.9602 221.531 83.7881 215.074 92.904 209.753C94.1778 209.01 95.7086 208.412 97.4269 207.938M91.1858 224.095C80.5211 227.926 86.8556 236.759 91.3559 240.696C93.4763 239.833 95.6635 239.114 97.8845 238.521M91.1858 224.095C110.032 221.548 125.864 222.302 139.673 224.464M97.8845 238.521C113.471 234.353 130.876 233.276 138.337 235.043C153.465 238.547 165.659 241.459 175.325 243.768L175.327 243.768L175.33 243.769C194.068 248.244 203.306 250.45 206 250.301C214.779 250.195 232.235 246.573 231.828 232.935C231.421 219.296 213.886 213.441 205.454 213.928C198.98 212.881 188.389 214.865 180.035 216.43C176.343 217.121 173.088 217.731 170.818 217.962C161.582 218.898 140.418 215.677 131.982 213.467C129.474 213.032 126.389 212.133 123.016 211.149L123.014 211.149C114.82 208.759 104.92 205.872 97.4269 207.938M97.8845 238.521C101.301 250.836 114.989 269.588 145.122 279.216C163.749 285.167 188.659 287.631 221.311 282.933C250.06 279.415 286.492 259.065 284.016 208.861C283.357 195.484 281.026 175.942 263.086 168.503M263.086 168.503L262.981 179.206M263.086 168.503C262.093 151.124 251.282 115.334 215.978 111.205C209.722 110.15 198.497 110.313 189.35 115.596M177.803 128.43C187.125 125.427 210.054 124.288 227.191 143.757M177.803 128.43C173.376 129.79 170.07 131.407 167.629 133.078M177.803 128.43C180.448 122.425 184.621 118.326 189.35 115.596M161.369 142.735C161.073 140.704 162.249 136.761 167.629 133.078M236.731 159.922C208.303 149.033 173.147 130.216 156.455 147.104C155.591 148.572 155.681 149.482 157.009 151.284M157.009 151.284C166.823 144.748 176.991 142.36 235.109 168.221M157.009 151.284C156.1 152.635 154.973 155.319 154.736 158.784M156.673 168.832C158.494 173.715 194.456 195.718 224.512 170.66C199.422 159.892 163.397 150.205 154.736 158.784M156.673 168.832C156.131 170.975 156.067 173.448 156.798 175.925M156.673 168.832C156.428 168.303 156.209 167.779 156.014 167.261M156.673 168.832C156.353 168.142 156.077 167.459 155.843 166.786M217.372 186.395C173.934 194.886 159.585 185.375 156.798 175.925M154.736 158.784C128.198 145.742 102.131 146.103 95.6176 146.979M154.736 158.784C154.575 161.146 154.827 163.872 155.843 166.786M97.4269 207.938C97.7096 201.21 100.514 185.771 109.472 177.842M109.472 177.842C111.895 179.967 119.466 184.764 130.362 186.947M109.472 177.842C107.73 176.544 103.854 172.968 102.282 169.05M156.798 175.925C146.934 175.651 135.064 183.159 130.362 186.947M130.362 186.947C129.051 188.062 125.831 191.026 123.438 193.959M102.282 169.05C110.833 172.487 131.557 178.282 146.049 173.963M102.282 169.05C98.9485 166.842 93.3838 161.415 97.7944 157.363M97.7944 157.363C104.642 167.782 131.365 170.727 156.014 167.261M97.7944 157.363C96.4405 154.903 95.0508 150.808 95.6176 146.979M156.014 167.261C155.955 167.102 155.898 166.944 155.843 166.786M102.14 139.107C106.978 136.954 122.127 135.117 144.024 144.996M102.14 139.107C101.543 135.696 103.334 131.732 110.75 131.132M102.14 139.107C97.8863 140.838 96.0855 143.818 95.6176 146.979M149.891 141.894C129.917 133.03 117.795 130.563 110.75 131.132M110.75 131.132C113.556 126.817 119.436 121.772 128.161 120.133M167.629 133.078C151.15 120.711 137.888 118.306 128.161 120.133M128.161 120.133C134.01 108.99 154.437 92.4816 189.35 115.596M217.293 210.765C230.933 209.79 243.393 222.044 237.188 236.937M154.772 227.475L184.118 230.19M154.772 227.475C152.069 226.83 149.289 226.216 146.42 225.654M154.772 227.475C157.288 228.077 159.816 228.84 162.264 229.578M183.43 236.328C178.677 234.582 173.75 232.772 168.643 231.403C168.186 231.28 167.727 231.157 167.266 231.034C165.76 230.63 164.191 230.16 162.585 229.676M183.43 236.328C183.515 236.359 183.6 236.39 183.684 236.421M183.43 236.328L183.684 236.421M220.89 233.098C220.828 235.981 219.124 238.659 216.882 239.951C213.354 241.681 209.704 242.309 205.926 242.203M220.89 233.098C220.974 229.188 218.04 224.901 209.339 223.179C208.631 223.039 207.943 222.911 207.276 222.796M220.89 233.098L206.637 231.971M184.526 224.326C184.505 226.29 184.395 230.208 184.119 230.171L184.118 230.19M184.526 224.326L184.699 224.269M184.526 224.326C184.583 224.307 184.641 224.288 184.699 224.269M184.526 224.326C177.02 225.625 160.369 227.39 146.42 225.654M195.204 231.066L195.839 221.947M195.204 231.066L206.637 231.971M195.204 231.066L194.572 240.156M195.204 231.066L184.118 230.19M195.839 221.947C198.921 221.794 202.615 221.995 207.276 222.796M195.839 221.947C191.109 222.183 187.821 223.253 184.699 224.269M206.637 231.971L207.276 222.796M206.637 231.971L205.926 242.203M183.684 236.421C187.419 237.793 191.047 239.119 194.572 240.156M183.684 236.421L184.118 230.19M194.572 240.156C198.481 241.306 202.263 242.1 205.926 242.203M159.238 187.225C161.848 193.109 172.177 204.536 192.617 203.164M139.673 224.464C141.808 224.972 144.076 225.362 146.42 225.654M139.673 224.464C141.977 224.824 144.225 225.224 146.42 225.654M162.264 229.578C162.371 229.611 162.478 229.643 162.585 229.676M162.264 229.578L162.585 229.676" stroke="black" stroke-width="2"/>
<rect width="13.8985" height="7.16861" transform="matrix(0.991007 0.140425 -0.127241 0.991012 104.81 150.167)" fill="black"/>
<rect width="13.8984" height="7.16867" transform="matrix(0.991298 0.138201 -0.125149 0.991299 166.249 160.644)" fill="black"/>
<path d="M271.026 205.341C274.208 204.682 274.092 207.343 273.636 208.756C270.405 214.738 260.983 213.29 259.346 207.415C258.902 205.822 259.822 203.976 262.539 205.408C265.255 206.84 267.048 206.165 271.026 205.341Z" fill="#FF005C" fill-opacity="0.6"/>
<path d="M276.771 201.463C277.821 203.358 275.844 202.968 274.725 202.537L272.262 200.838C267.735 198.495 266.353 201.413 260.329 203.311C255.51 204.829 255.565 202.82 256.195 201.626C257.21 200.34 259.698 197.369 261.532 195.769C263.825 193.769 264.878 196.007 266.175 196.922C267.471 197.837 269.01 197.428 270.927 196.356C272.844 195.283 275.458 199.095 276.771 201.463Z" fill="#FF005C" fill-opacity="0.6"/>
<path d="M168.786 123.341C171.674 125.427 169.579 127.316 168.17 128C161.23 129.841 155.244 121.133 158.446 115.429C159.315 113.882 161.399 113.251 162.359 116.518C163.32 119.786 165.176 120.735 168.786 123.341Z" fill="#FF005C" fill-opacity="0.6"/>
<path d="M176.027 125.103C175.386 127.365 174.195 125.475 173.68 124.247L173.112 120.987C171.478 115.575 168.238 116.63 162.281 113.167C157.516 110.396 159.073 108.943 160.447 108.563C162.179 108.427 166.29 108.227 168.875 108.52C172.106 108.886 171.209 111.407 171.493 113.139C171.777 114.87 173.241 115.811 175.49 116.565C177.739 117.318 176.828 122.276 176.027 125.103Z" fill="#FF005C" fill-opacity="0.6"/>
<path d="M112.073 195.749C112.03 193.957 110.497 192.354 108.143 194.73C105.827 197.066 103.792 197.003 99.5696 197.439C99.4171 197.663 98.841 200.948 98.572 202.563C103.888 206.483 112.225 202.018 112.073 195.749Z" fill="#FF005C" fill-opacity="0.6"/>
<path d="M113.503 188.73C112.05 187.737 108.544 185.49 106.145 184.442C105.707 184.251 105.325 184.144 104.988 184.106C104.546 184.282 101.573 190.902 101.539 191.041C103.598 191.078 105.999 191.85 109.764 191.835C115.22 191.812 114.53 189.755 113.503 188.73Z" fill="#FF005C" fill-opacity="0.6"/>
<path d="M168.123 261.969C167.797 262.696 167.701 265.396 169.927 270.371C171.025 272.824 172.565 274.356 174.066 275.32C176.555 276.692 182.361 278.067 185.673 272.591C188.985 267.115 183.792 267.224 180.781 267.963C179.418 268.349 175.974 268.008 173.093 263.561C170.212 259.114 168.579 260.647 168.123 261.969Z" fill="#FF005C" fill-opacity="0.6"/>
<path d="M193.827 265.477C194.274 271.401 189.096 266.024 188.724 265.911C185.721 262.353 174.939 257.177 169.937 257.228C165.936 257.27 165.567 256.921 165.883 256.741C166.31 255.63 168.073 253.074 171.71 251.731C176.256 250.053 178.118 250.619 178.814 254.385C179.37 257.398 182.157 257.468 183.481 257.126C190.85 255.726 193.379 259.554 193.827 265.477Z" fill="#FF005C" fill-opacity="0.6"/>
<path d="M246.39 151.942C246.028 145.478 250.524 148.192 252.818 150.358C253.641 151.19 255.89 152.296 259.162 151.373C259.69 151.828 260.598 156.047 260.987 158.1C258.965 159.571 256.987 160.1 255.287 160.184C252.472 160.13 246.752 158.406 246.39 151.942Z" fill="#FF005C" fill-opacity="0.6"/>
<path d="M242.549 141.602C239.412 146.562 246.436 144.467 246.815 144.556C248.857 143.792 252.624 143.599 256.476 143.886C256.523 143.694 254.671 140.016 253.738 138.2C248.86 135.026 245.362 137.154 242.549 141.602Z" fill="#FF005C" fill-opacity="0.6"/>
<path d="M289.304 294.468C290.374 288.138 286.042 273.039 283.742 266.28C287.235 265.569 305.604 283.392 307.226 285.396C308.847 287.399 323 311.201 322.236 320.39C321.625 327.742 327.994 332.014 331.255 333.232C341.402 338.955 344.428 352.905 344.442 353.166C346.788 351.784 353.068 354.092 355.914 355.419C360.171 353.098 367.413 338.418 370.502 331.368C371.707 328.776 374.817 320.68 377.616 309.028C380.416 297.376 392.75 295.053 398.568 295.348L399.531 294.511L390.835 310.926L387.337 302.229C388.523 324.119 363.024 351.637 352.41 360.575C350.988 356.679 344.094 356.059 340.825 356.237C338.823 350.333 333.435 338.08 327.89 336.289C322.344 334.498 316.464 325.582 314.217 321.347C309.404 302.231 297.172 295.746 290.574 294.625C291.381 297.12 291.429 302.978 285.161 306.454C278.892 309.93 269.54 316.099 265.648 318.75C270.657 324.316 280.342 336.72 279.004 341.811C277.33 348.174 280.591 357.146 256.485 377.792C254.615 380.507 241.361 391.941 239.065 410.099L235.796 410.276C237.427 403.131 243.571 386.175 255.101 375.515C269.513 362.189 277.039 352.111 277.647 340.055C274.892 334.192 267.628 321.779 260.618 319.022C269.53 314.357 287.66 304.176 288.888 300.764C290.116 297.352 289.677 295.145 289.304 294.468Z" fill="black" fill-opacity="0.21"/>
<path d="M420.951 401.296C466.9 336.864 443.528 343.096 442.996 342.602L453.286 327.67C464.736 334.159 453.553 355.883 446.53 365.934L423.913 400.091L420.951 401.296Z" fill="black" fill-opacity="0.21"/>
<path d="M449.461 308.274C453.101 311.823 458.773 320.002 452.348 324.323C451.594 324.363 448.479 327.407 438.92 323.22C437.914 323.275 435.594 322.355 434.56 321.888L443.426 308.601L469.041 264.611C470.076 263.958 469.445 262.31 468.315 259.357L468.242 259.166C468.846 259.133 471.287 257.955 472.433 257.37C476.699 250.448 474.042 235.851 472.18 229.418C472.504 227.937 474.484 225.373 475.433 224.276C481.43 234.406 477.119 250.747 474.213 257.651C476.568 257.986 479.481 258.263 479.768 257.757C480.229 256.948 483.221 260.968 481.882 264.177C471.248 282.132 463.92 291.828 449.461 308.274Z" fill="black" fill-opacity="0.21"/>
<path d="M402.422 292.003C405.359 286.616 413.789 287.641 417.636 288.826L420.519 244.238L425.424 246.325C423.272 262.472 418.922 294.873 418.743 295.301C416.864 299.41 413.116 307.837 413.162 308.671C413.218 309.714 411.819 307.176 411.791 306.655C409.309 305.534 404.511 296.42 402.422 292.003Z" fill="black" fill-opacity="0.21"/>
<path d="M432.774 246.972C433.272 246.858 434.517 246.564 435.512 246.301L435.564 237.935C434.669 236.938 432.318 234.817 430.071 234.312C427.262 233.679 427.864 235.476 430.842 239.236C433.224 242.243 433.122 245.646 432.774 246.972Z" fill="black" fill-opacity="0.21"/>
<path d="M456.908 254.813C456.73 255.241 455.93 253.821 455.552 253.057C455.886 251.471 456.582 245.997 456.689 236.791C456.823 225.283 443.211 220.793 442.932 220.285C442.652 219.778 445.11 218.599 445.865 218.558C467.077 223.683 457.131 254.278 456.908 254.813Z" fill="black" fill-opacity="0.21"/>
<path d="M98.13 415.901L96.4939 422.426L100.283 418.398C109.667 382.083 108.628 372.207 102.653 355.019C96.6773 337.831 95.6431 337.364 92.7679 316.872C90.4678 300.478 99.7322 266.922 104.652 252.193L104.078 250.917C97.474 259.377 90.5227 298.697 90.3301 304.458C90.1376 310.218 91.5013 326.088 92.4276 333.879C93.1687 340.112 96.1981 347.614 97.6202 350.587L101.019 357.459C103.815 360.654 104.261 375.405 104.134 382.382C103.777 385.102 102.946 392.117 102.48 398.415C101.897 406.288 98.1017 415.38 98.13 415.901Z" fill="black" fill-opacity="0.21"/>
<path d="M137.341 399.403L139.25 416.027C142.848 403.286 135.152 386.281 128.971 370.583C124.292 358.7 127.479 360.026 128.808 353.603C137.28 331.189 136.351 306.584 134.828 297.083L142.125 278.13L136.968 276.057C134.051 281.181 128.224 291.585 128.258 292.211C133.31 306.313 131.891 317.367 131.531 324.705C131.244 330.575 126.185 342.419 123.691 347.607C122.816 348.525 120.784 351.685 119.658 356.973C118.25 363.583 123.229 371.678 123.257 372.199C123.279 372.616 125.495 376.26 126.599 378.029L130.473 384.354C131.862 386.718 134.646 391.551 134.669 391.968C134.691 392.385 136.46 397.098 137.341 399.403Z" fill="black" fill-opacity="0.21"/>
<path d="M191.217 369.565C190.77 370.634 193.72 373.872 194.517 374.613L195.02 374.586L194.178 368.359C193.34 368.404 191.574 368.709 191.217 369.565Z" fill="black" fill-opacity="0.21"/>
<path d="M211.344 410.555L209.332 410.664C205.384 404.814 205.39 396.851 205.886 393.6L207.144 393.532C205.703 396.746 209.344 406.22 211.344 410.555Z" fill="black" fill-opacity="0.21"/>
<path d="M202.291 411.045L200.279 411.154L200.856 393.873L202.868 393.764C201.471 394.048 201.901 405.403 202.291 411.045Z" fill="black" fill-opacity="0.21"/>
<path d="M211.334 391.737C214.097 394.306 216.851 405.116 217.883 410.201C218.395 404.737 215.379 395.003 213.807 390.819C220.34 382.624 215.334 372.441 215.278 371.398C223.197 361.142 226.691 349.261 227.447 344.602C227.127 346.449 225.417 351.822 221.139 358.535C216.862 365.249 213.848 371.388 212.876 373.619C213.267 373.075 214.278 373.439 215.198 379.243C216.118 385.048 213.006 389.991 211.334 391.737Z" fill="black" fill-opacity="0.21"/>
<path fill-rule="evenodd" clip-rule="evenodd" d="M175.602 407.263C178.2 405.554 183.006 399.596 181.446 389.435C179.887 379.274 182.542 373.955 184.064 372.565C186.374 371.743 189.796 367.551 185.006 357.355C179.019 344.611 180.23 334.352 186.319 330.363C192.409 326.374 192.837 315.635 192.472 313.564C192.108 311.493 199.979 293.816 223.777 300.107C233.001 304.312 252.204 304.318 255.227 270.699L252.028 272.18C252.005 273.313 251.019 276.834 247.255 281.847C246.852 282.384 246.436 282.957 246.003 283.555C241.379 289.938 234.79 299.033 220.937 294.25C209.288 290.227 201.818 295.156 199.227 298.562C195.847 301.358 189.13 308.674 189.302 315.565C189.473 322.456 186.127 326.802 184.432 328.113C180.484 331.289 173.668 339.882 177.988 348.849C183.387 360.057 184.424 365.228 181.855 369.026C181.608 369.391 181.355 369.74 181.103 370.087C178.735 373.356 176.427 376.543 179.352 392.685C179.973 394.829 180.092 400.747 175.602 407.263Z" fill="black" fill-opacity="0.21"/>
<path d="M252.028 272.18L255.227 270.699C265.088 264.938 284.65 245.792 284.008 215.299C283.206 177.183 271.829 172.049 263.333 168.85L262.835 178.286C273.399 190.173 286.029 225.592 252.028 272.18Z" fill="black" fill-opacity="0.21"/>
<path d="M262.835 178.286L263.333 168.85C257.504 117.101 221.491 108.823 204.213 111.152C243.559 111.113 259.688 155.892 262.835 178.286Z" fill="black" fill-opacity="0.21"/>
<path d="M183.91 108.854C186.515 110.368 192.782 112.451 197.016 108.667C197.486 108.642 199.268 109.706 200.652 110.598C201.046 110.852 201.408 111.092 201.698 111.289L189.307 115.357L181.48 110.554L183.91 108.854Z" fill="black" fill-opacity="0.21"/>
<path d="M197.016 108.667C197.486 108.642 199.268 109.706 200.652 110.598C200.628 110.152 205.024 85.7558 207.225 73.6137C210.052 73.0251 215.529 70.4459 214.821 64.8387C214.776 64.0047 214.215 62.9548 213.94 62.5341C213.708 64.4633 212.01 68.8069 207.07 70.7471L197.016 108.667Z" fill="black" fill-opacity="0.21"/>
<path d="M161.084 143.806C161.162 142.147 161.802 138.436 163.735 136.867C166.151 134.907 196.834 133.245 216.474 151.262C203.458 145.345 174.158 135.571 161.084 143.806Z" fill="black" fill-opacity="0.21"/>
<path d="M110.959 131.1C116.599 131.23 130.216 132.723 139.564 137.653C134.648 133.825 122.755 126.279 114.506 126.726L110.959 131.1Z" fill="black" fill-opacity="0.21"/>
<path d="M178.178 128.767C178.275 127.455 178.956 124.491 180.9 123.131C183.33 121.431 205.854 122.825 217.625 135.256C210.809 130.485 193.377 122.507 178.178 128.767Z" fill="black" fill-opacity="0.21"/>
<path d="M128.027 120.244C134.198 119.3 149.698 119.854 162.334 129.625C157.585 124.219 144.631 113.856 130.805 115.65L128.027 120.244Z" fill="black" fill-opacity="0.21"/>
<path d="M156.055 172.045C162.812 178.823 182.799 189.886 208.693 179.911C199.459 183.286 176.174 185.854 156.906 169.124L156.055 172.045Z" fill="black" fill-opacity="0.21"/>
<path d="M97.5036 157.442C101.293 162.203 116.197 171.014 145.504 168.173C134.937 170.226 110.271 171.492 96.1358 160.13L97.5036 157.442Z" fill="black" fill-opacity="0.21"/>
<path d="M100.283 418.398L96.4939 422.426C95.548 427.225 94.5663 437.598 98.2068 440.7C102.757 444.576 106.185 447.764 105.727 452.662L108.973 452.486C108.825 449.745 107.025 443.221 101.011 439.049C94.9976 434.876 98.0201 423.543 100.283 418.398Z" fill="black" fill-opacity="0.21"/>
<path d="M239.065 410.099L235.796 410.276C233.56 417.805 229.907 434.618 233.181 441.638L236.787 441.442C235.581 429.027 235.981 422.157 239.065 410.099Z" fill="black" fill-opacity="0.21"/>
</g>
<defs>
<clipPath id="clip0_127_240">
<rect width="512" height="512" fill="white"/>
</clipPath>
</defs>
</svg>
