<svg width="512" height="512" viewBox="0 0 512 512" fill="none" xmlns="http://www.w3.org/2000/svg">
<g clip-path="url(#clip0_127_126)">
<path d="M402.798 370.082C401.802 371.431 400.656 373.312 399.708 375.453C397.438 380.576 396.295 387.188 401.008 391.565C412.943 402.306 439.797 402.306 446.958 398.129C452.686 394.787 451.732 383.608 450.538 378.437C450.596 377.911 450.663 377.304 450.735 376.646C451.152 372.823 451.732 367.316 451.732 366.502C437.887 356.476 413.668 357.55 403.289 359.341L402.798 370.082Z" fill="#844212"/>
<path d="M405.782 326.16C407.062 325.817 408.459 325.526 409.959 325.326C413.014 324.919 415.641 325.697 417.626 327.116C419.048 323.337 425.355 315.659 439.2 315.182C444.637 315.182 455.67 317.21 456.307 325.326L456.506 323.536L457.102 318.165C458.057 305.753 449.941 298.265 445.764 296.073C447.674 280.785 447.753 257.487 447.554 247.749C452.806 247.749 452.925 244.567 452.925 242.975C453.403 237.247 449.345 238.201 439.797 237.605C430.249 237.008 428.22 235.576 427.265 239.395C426.31 243.214 429.254 245.959 431.442 246.556C428.1 253.717 424.082 282.551 422.491 296.073C411.823 299.866 407.449 312.029 406.19 321.149C405.938 322.971 405.811 324.672 405.782 326.16Z" fill="#844212"/>
<path d="M419.507 339.648C416.605 342.506 410.168 342.255 405.782 341.819C405.216 342.553 404.616 343.267 403.992 343.944L403.289 359.341C413.668 357.55 437.887 356.476 451.732 366.502L452.859 356.357L454.238 343.944L456.307 325.326C455.67 317.21 444.637 315.182 439.2 315.182C425.355 315.659 419.048 323.337 417.626 327.116C421.844 330.134 423.16 336.052 419.507 339.648Z" fill="#005228"/>
<path fill-rule="evenodd" clip-rule="evenodd" d="M190.954 210.752C200.912 198.581 190.354 183.332 177.825 172.614C183.815 171.416 188.96 171.436 193.341 172.261C205.753 164.861 227.554 159.829 236.903 158.238C267.934 162.057 312.292 186.086 330.592 197.623C335.844 203.829 346.307 240.389 350.882 257.894L341.866 274.006L320.448 312.283L302.797 343.825L269.072 404.097L258.386 423.192L256.596 426.773C254.965 424.783 252.959 422.533 250.628 420.142C236.186 405.325 209.319 385.107 182.599 387.984C173.847 388.78 161.594 394.191 182.599 409.467C186.984 412.656 192.068 417.425 197.514 423.192C200.602 426.464 203.807 430.056 207.066 433.863C197.518 432.375 188.635 429.71 185.387 428.563C177.844 410.127 166.497 400.371 154.552 395.742C137.304 389.059 138.613 396.14 141.424 400.516C142.66 403.497 143.681 407.142 144.518 411.258C125.532 395.742 121.135 387.388 118.151 379.63C115.764 373.424 117.952 365.905 119.344 362.921L161.713 229.863C153.617 222.226 153.406 209.327 155.157 201.203C159.421 205.02 163.265 208.691 166.487 211.945C171.062 215.923 182.361 221.254 190.954 210.752Z" fill="#A8ABC2"/>
<path d="M274.809 448.853C243.942 433.334 230.936 448.128 226.162 457.628C232.888 466.439 239.333 475.292 244.945 483.237C251.155 477.853 268.623 470.237 296.161 477.496C290.478 468.979 282.507 458.514 274.809 448.853Z" fill="#68984C"/>
<path d="M256.596 426.773C254.965 424.783 252.959 422.533 250.628 420.142C220.401 406.642 203.998 416.517 197.514 423.192C200.602 426.464 203.807 430.056 207.066 433.863C213.376 441.235 219.891 449.413 226.162 457.628C230.936 448.128 243.942 433.334 274.809 448.853C267.901 440.182 261.212 432.159 256.596 426.773Z" fill="#68984C"/>
<path d="M182.599 387.984C173.847 388.78 161.594 394.191 182.599 409.467C186.984 412.656 192.068 417.425 197.514 423.192C203.998 416.517 220.401 406.642 250.628 420.142C236.186 405.325 209.319 385.107 182.599 387.984Z" fill="#68984C"/>
<path d="M188.567 437.634C169.471 418.157 153.02 426.256 147.181 432.74C147.988 444.564 148.063 457.311 147.796 468.545C155.502 462.975 175.546 455.536 194.063 470.335C193.195 457.542 191.278 446.736 188.567 437.634Z" fill="#68984C"/>
<path d="M154.552 395.742C137.304 389.059 138.613 396.14 141.424 400.516C142.66 403.497 143.681 407.142 144.518 411.258C145.798 417.552 146.649 424.945 147.181 432.74C153.02 426.256 169.471 418.157 188.567 437.634C187.603 434.399 186.54 431.38 185.387 428.563C177.844 410.127 166.497 400.371 154.552 395.742Z" fill="#68984C"/>
<path d="M97.8616 297.279C92.4101 300.09 87.6628 302.069 83.5397 303.382C84.8004 307.571 86.7459 312.904 89.2155 318.165C94.9289 330.336 103.447 342.121 112.78 338.455C122.549 334.617 119.875 323.288 114.418 312.795C110.541 305.34 105.261 298.307 102.039 294.678C100.746 295.54 99.3554 296.408 97.8616 297.279Z" fill="#68984C"/>
<path d="M89.2155 318.165C86.7459 312.904 84.8004 307.571 83.5397 303.382C74.3947 306.296 68.3204 305.936 64.4438 304.123C68.263 317.714 82.5496 319.147 89.2155 318.165Z" fill="#68984C"/>
<path d="M102.039 294.678C105.261 298.307 110.541 305.34 114.418 312.795C120.094 308.021 128.506 294.534 116.743 278.78C114.949 283.443 110.654 288.935 102.039 294.678Z" fill="#68984C"/>
<path d="M86.5234 240.588C79.3624 249.181 62.0568 255.706 54.2991 257.894L58.4764 295.489C58.6458 298.538 60.2724 302.172 64.4438 304.123C68.3204 305.936 74.3947 306.296 83.5397 303.382C87.6628 302.069 92.4101 300.09 97.8616 297.279C99.3554 296.408 100.746 295.54 102.039 294.678C110.654 288.935 114.949 283.443 116.743 278.78C118.81 273.407 117.556 269.135 115.764 266.845L86.5234 240.588Z" fill="#68984C"/>
<path d="M54.2991 257.894C62.0568 255.706 79.3624 249.181 86.5234 240.588C83.0935 234.166 79.0318 224.874 76.1828 214.928C53.5884 209.2 43.9802 222.089 42.0004 229.25C44.9334 238.101 48.9408 247.673 54.2991 257.894Z" fill="#68984C"/>
<path d="M42.0004 229.25C43.9802 222.089 53.5884 209.2 76.1828 214.928C72.9201 203.538 71.248 191.289 73.9373 181.511C59.5718 162.415 42.6971 169.974 36.0554 176.14C34.0118 188.091 34.3713 206.228 42.0004 229.25Z" fill="#68984C"/>
<path d="M39.9773 163.609C38.4765 166.36 37.006 170.581 36.0554 176.14C42.6971 169.974 59.5718 162.415 73.9373 181.511C75.3005 176.554 77.7842 172.232 81.7494 168.979C84.9978 166.314 89.0685 165.256 93.6844 165.437C96.6681 155.586 97.5036 135.076 76.9755 131.844C63.36 135.49 50.4803 145.003 39.9773 163.609Z" fill="#68984C"/>
<path d="M76.9755 131.844C97.5036 135.076 96.6681 155.586 93.6844 165.437C101.03 165.725 109.757 169.148 118.748 174.215C126.273 170.878 139.603 159.67 132.721 141.529C115.556 132.832 95.5791 126.861 76.9755 131.844Z" fill="#68984C"/>
<path d="M132.721 141.529C139.603 159.67 126.273 170.878 118.748 174.215C128.778 179.867 139.137 187.564 148.276 195.236C157.529 195.569 174.126 189.692 166.487 163.512C158.499 157.272 146.518 148.519 132.721 141.529Z" fill="#68984C"/>
<path d="M166.487 211.945C171.062 215.923 182.361 221.254 190.954 210.752C200.912 198.581 190.354 183.332 177.825 172.614C176.84 171.771 175.842 170.956 174.842 170.173C174.133 169.618 173.25 168.906 172.205 168.065C170.643 166.806 168.721 165.257 166.487 163.512C174.126 189.692 157.529 195.569 148.276 195.236C150.662 197.239 152.965 199.24 155.157 201.203C159.421 205.02 163.265 208.691 166.487 211.945Z" fill="#68984C"/>
<path d="M320.448 312.283L302.797 343.825C306.263 347.629 311.903 351.25 318.657 354.584C316.469 347.13 316.39 330.637 333.576 324.298C327.562 320.153 323.042 315.629 320.448 312.283Z" fill="#68984C"/>
<path d="M333.576 324.298C316.39 330.637 316.469 347.13 318.657 354.584C326.357 358.384 335.505 361.812 344.532 364.711C341.278 356.014 338.708 337.649 354.462 333.764C346.392 331.851 339.306 328.247 333.576 324.298Z" fill="#68984C"/>
<path d="M375.945 373.066C362.578 361.608 367.988 342.831 372.364 334.874C366.013 335.593 360.006 335.077 354.462 333.764C338.708 337.649 341.278 356.014 344.532 364.711C356.404 368.525 368.065 371.427 375.945 373.066Z" fill="#68984C"/>
<path d="M372.364 334.874C367.988 342.831 362.578 361.608 375.945 373.066C380.147 373.808 390.055 375.243 398.025 375.432C388.477 368.189 374.035 347.823 392.654 324.298L372.364 334.874Z" fill="#68984C"/>
<path d="M390.267 346.212C386.686 339.648 393.449 332.288 396.831 330.1C397.774 329.471 400.955 327.451 405.782 326.16C405.811 324.672 405.938 322.971 406.19 321.149C401.264 319.717 395.113 322.652 392.654 324.298C374.035 347.823 388.477 368.189 398.025 375.432C398.596 375.446 399.158 375.453 399.708 375.453C400.656 373.312 401.802 371.431 402.798 370.082L403.289 359.341L403.992 343.944C399.359 348.976 393.422 351.998 390.267 346.212Z" fill="#68984C"/>
<path d="M396.831 330.1C393.449 332.288 386.686 339.648 390.267 346.212C393.422 351.998 399.359 348.976 403.992 343.944C404.616 343.267 405.216 342.553 405.782 341.819C410.168 342.255 416.605 342.506 419.507 339.648C423.16 336.052 421.844 330.134 417.626 327.116C415.641 325.697 413.014 324.919 409.959 325.326C408.459 325.526 407.062 325.817 405.782 326.16C400.955 327.451 397.774 329.471 396.831 330.1Z" fill="#68984C"/>
<path d="M456.307 325.326L454.238 343.944C457.978 343.904 465.457 341.796 465.457 333.681C465.457 325.565 459.489 323.536 456.506 323.536L456.307 325.326Z" fill="#68984C"/>
<path d="M451.732 366.502C451.732 367.316 451.152 372.823 450.735 376.646C454.051 375.652 460.683 372.23 460.683 366.502C460.683 359.341 456.373 356.954 452.859 356.357L451.732 366.502Z" fill="#68984C"/>
<path d="M147.796 468.545C147.597 476.865 147.211 484.356 146.795 490.028C155.388 498.144 182.202 497.388 194.534 495.995V491.818C194.681 484.1 194.513 476.952 194.063 470.335C175.546 455.536 155.502 462.975 147.796 468.545Z" fill="#68984C"/>
<path d="M307.916 498.382C306.524 495.686 298.563 481.096 296.161 477.496C268.623 470.237 251.155 477.853 244.945 483.237C249.466 489.637 253.446 495.447 256.596 500.173C276.969 502.511 288.218 502.167 307.916 498.382Z" fill="#68984C"/>
<path d="M54.2991 257.894C62.0568 255.706 79.3624 249.181 86.5234 240.588M54.2991 257.894L58.4764 295.489C58.6458 298.538 60.2724 302.172 64.4438 304.123M54.2991 257.894C48.9408 247.673 44.9334 238.101 42.0004 229.25M86.5234 240.588L115.764 266.845C117.556 269.135 118.81 273.407 116.743 278.78M86.5234 240.588C83.0935 234.166 79.0318 224.874 76.1828 214.928M83.5397 303.382C87.6628 302.069 92.4101 300.09 97.8616 297.279C99.3554 296.408 100.746 295.54 102.039 294.678M83.5397 303.382C84.8004 307.571 86.7459 312.904 89.2155 318.165M83.5397 303.382C74.3947 306.296 68.3204 305.936 64.4438 304.123M102.039 294.678C105.261 298.307 110.541 305.34 114.418 312.795M102.039 294.678C110.654 288.935 114.949 283.443 116.743 278.78M114.418 312.795C119.875 323.288 122.549 334.617 112.78 338.455C103.447 342.121 94.9289 330.336 89.2155 318.165M114.418 312.795C120.094 308.021 128.506 294.534 116.743 278.78M89.2155 318.165C82.5496 319.147 68.263 317.714 64.4438 304.123M42.0004 229.25C43.9802 222.089 53.5884 209.2 76.1828 214.928M42.0004 229.25C34.3713 206.228 34.0118 188.091 36.0554 176.14M76.1828 214.928C72.9201 203.538 71.248 191.289 73.9373 181.511M36.0554 176.14C37.006 170.581 38.4765 166.36 39.9773 163.609C50.4803 145.003 63.36 135.49 76.9755 131.844M36.0554 176.14C42.6971 169.974 59.5718 162.415 73.9373 181.511M73.9373 181.511C75.3005 176.554 77.7842 172.232 81.7494 168.979C84.9978 166.314 89.0685 165.256 93.6844 165.437M93.6844 165.437C96.6681 155.586 97.5036 135.076 76.9755 131.844M93.6844 165.437C101.03 165.725 109.757 169.148 118.748 174.215M76.9755 131.844C95.5791 126.861 115.556 132.832 132.721 141.529M118.748 174.215C126.273 170.878 139.603 159.67 132.721 141.529M118.748 174.215C128.778 179.867 139.137 187.564 148.276 195.236M132.721 141.529C146.518 148.519 158.499 157.272 166.487 163.512M148.276 195.236C157.529 195.569 174.126 189.692 166.487 163.512M148.276 195.236C150.662 197.239 152.965 199.24 155.157 201.203M166.487 163.512C168.721 165.257 170.643 166.806 172.205 168.065C173.25 168.906 174.133 169.618 174.842 170.173C175.842 170.956 176.84 171.771 177.825 172.614M155.157 201.203C159.421 205.02 163.265 208.691 166.487 211.945C171.062 215.923 182.361 221.254 190.954 210.752C200.912 198.581 190.354 183.332 177.825 172.614M155.157 201.203C153.406 209.327 153.617 222.226 161.713 229.863M177.825 172.614C183.815 171.416 188.96 171.436 193.341 172.261M209.551 181.511C212.007 184.415 213.515 187.458 214.227 189.865C217.609 203.789 216.614 232.473 185.583 235.814C174.05 237.056 166.502 234.38 161.713 229.863M209.551 181.511C237.367 186.285 304.574 208.245 350.882 257.894M209.551 181.511C206.126 177.459 200.859 173.676 193.341 172.261M350.882 257.894C346.307 240.389 335.844 203.829 330.592 197.623C312.292 186.086 267.934 162.057 236.903 158.238C227.554 159.829 205.753 164.861 193.341 172.261M350.882 257.894L341.866 274.006M119.344 362.921L161.713 229.863M119.344 362.921C146.596 359.739 212.556 367.337 258.386 423.192M119.344 362.921C117.952 365.905 115.764 373.424 118.151 379.63C121.135 387.388 125.532 395.742 144.518 411.258M258.386 423.192L269.072 404.097M258.386 423.192L256.596 426.773M269.072 404.097C261.73 394.947 241.916 374.259 221.388 364.711C217.012 362.921 209.572 356.357 214.824 344.422L256.596 241.185C258.585 234.82 265.905 223.521 279.272 229.25C295.981 236.411 318.528 245.959 341.866 274.006M269.072 404.097L302.797 343.825M341.866 274.006L320.448 312.283M320.448 312.283L302.797 343.825M320.448 312.283C323.042 315.629 327.562 320.153 333.576 324.298M372.364 334.874C367.988 342.831 362.578 361.608 375.945 373.066M372.364 334.874C366.013 335.593 360.006 335.077 354.462 333.764M372.364 334.874L392.654 324.298M375.945 373.066C368.065 371.427 356.404 368.525 344.532 364.711M375.945 373.066C380.147 373.808 390.055 375.243 398.025 375.432M302.797 343.825C306.263 347.629 311.903 351.25 318.657 354.584M318.657 354.584C316.469 347.13 316.39 330.637 333.576 324.298M318.657 354.584C326.357 358.384 335.505 361.812 344.532 364.711M333.576 324.298C339.306 328.247 346.392 331.851 354.462 333.764M344.532 364.711C341.278 356.014 338.708 337.649 354.462 333.764M400.411 340.842C401.767 341.22 403.676 341.61 405.782 341.819M405.782 341.819C410.168 342.255 416.605 342.506 419.507 339.648C423.16 336.052 421.844 330.134 417.626 327.116M405.782 341.819C405.216 342.553 404.616 343.267 403.992 343.944M405.782 326.16C407.062 325.817 408.459 325.526 409.959 325.326C413.014 324.919 415.641 325.697 417.626 327.116M405.782 326.16C400.955 327.451 397.774 329.471 396.831 330.1C393.449 332.288 386.686 339.648 390.267 346.212C393.422 351.998 399.359 348.976 403.992 343.944M405.782 326.16C405.811 324.672 405.938 322.971 406.19 321.149M429.652 294.892C426.998 294.892 424.619 295.316 422.491 296.073M422.491 296.073C424.082 282.551 428.1 253.717 431.442 246.556C429.254 245.959 426.31 243.214 427.265 239.395C428.22 235.576 430.249 237.008 439.797 237.605C449.345 238.201 453.403 237.247 452.925 242.975C452.925 244.567 452.806 247.749 447.554 247.749C447.753 257.487 447.674 280.785 445.764 296.073C449.941 298.265 458.057 305.753 457.102 318.165L456.506 323.536M422.491 296.073C411.823 299.866 407.449 312.029 406.19 321.149M403.992 343.944L403.289 359.341M392.654 324.298C395.113 322.652 401.264 319.717 406.19 321.149M392.654 324.298C374.035 347.823 388.477 368.189 398.025 375.432M399.708 375.453C400.656 373.312 401.802 371.431 402.798 370.082L403.289 359.341M399.708 375.453C397.438 380.576 396.295 387.188 401.008 391.565C412.943 402.306 439.797 402.306 446.958 398.129C452.686 394.787 451.732 383.608 450.538 378.437C450.596 377.911 450.663 377.304 450.735 376.646M399.708 375.453C399.158 375.453 398.596 375.446 398.025 375.432M403.289 359.341C413.668 357.55 437.887 356.476 451.732 366.502M451.732 366.502C451.732 367.316 451.152 372.823 450.735 376.646M451.732 366.502L452.859 356.357M417.626 327.116C419.048 323.337 425.355 315.659 439.2 315.182C444.637 315.182 455.67 317.21 456.307 325.326M456.307 325.326L454.238 343.944M456.307 325.326L456.506 323.536M454.238 343.944C457.978 343.904 465.457 341.796 465.457 333.681C465.457 325.565 459.489 323.536 456.506 323.536M454.238 343.944L452.859 356.357M256.596 426.773C254.965 424.783 252.959 422.533 250.628 420.142M256.596 426.773C261.212 432.159 267.901 440.182 274.809 448.853M197.514 423.192C192.068 417.425 186.984 412.656 182.599 409.467C161.594 394.191 173.847 388.78 182.599 387.984C209.319 385.107 236.186 405.325 250.628 420.142M197.514 423.192C203.998 416.517 220.401 406.642 250.628 420.142M197.514 423.192C200.602 426.464 203.807 430.056 207.066 433.863M226.162 457.628C230.936 448.128 243.942 433.334 274.809 448.853M226.162 457.628C219.891 449.413 213.376 441.235 207.066 433.863M226.162 457.628C232.888 466.439 239.333 475.292 244.945 483.237M274.809 448.853C282.507 458.514 290.478 468.979 296.161 477.496M244.064 484.06C244.327 483.794 244.621 483.518 244.945 483.237M296.161 477.496C298.563 481.096 306.524 495.686 307.916 498.382C288.218 502.167 276.969 502.511 256.596 500.173C253.446 495.447 249.466 489.637 244.945 483.237M296.161 477.496C268.623 470.237 251.155 477.853 244.945 483.237M147.181 432.74C153.02 426.256 169.471 418.157 188.567 437.634M147.181 432.74C147.988 444.564 148.063 457.311 147.796 468.545M147.181 432.74C146.649 424.945 145.798 417.552 144.518 411.258M188.567 437.634C191.278 446.736 193.195 457.542 194.063 470.335M188.567 437.634C187.603 434.399 186.54 431.38 185.387 428.563M147.796 468.545C147.597 476.865 147.211 484.356 146.795 490.028C155.388 498.144 182.202 497.388 194.534 495.995V491.818C194.681 484.1 194.513 476.952 194.063 470.335M147.796 468.545C155.502 462.975 175.546 455.536 194.063 470.335M185.387 428.563C177.844 410.127 166.497 400.371 154.552 395.742C137.304 389.059 138.613 396.14 141.424 400.516C142.66 403.497 143.681 407.142 144.518 411.258M185.387 428.563C188.635 429.71 197.518 432.375 207.066 433.863M404.589 388.581C412.943 387.388 432.397 386.91 443.377 394.549M450.735 376.646C454.051 375.652 460.683 372.23 460.683 366.502C460.683 359.341 456.373 356.954 452.859 356.357" stroke="black" stroke-width="2"/>
<path d="M403.992 358.481C412.465 356.259 433.876 354.48 451.732 365.15" stroke="#B18130"/>
<path d="M451.466 363.765C451.452 363.83 451.435 363.894 451.421 363.959C451.418 363.973 451.417 363.983 451.41 363.996C451.4 364.018 451.401 364.039 451.401 364.064C451.401 364.081 451.404 364.092 451.408 364.108C451.415 364.135 451.41 364.167 451.41 364.194C451.41 364.292 451.413 364.386 451.387 364.481C451.36 364.576 451.359 364.665 451.359 364.764C451.359 364.853 451.368 364.943 451.36 365.033C451.344 365.212 451.286 365.382 451.285 365.563C451.284 365.586 451.282 365.591 451.296 365.57C451.37 365.459 451.429 365.339 451.482 365.218C451.568 365.02 451.635 364.815 451.706 364.612C451.722 364.567 451.748 364.494 451.766 364.447C451.771 364.434 451.777 364.42 451.783 364.407C451.785 364.402 451.794 364.37 451.802 364.394C451.813 364.425 451.817 364.493 451.818 364.516C451.823 364.606 451.823 364.663 451.812 364.755C451.793 364.932 451.741 365.103 451.706 365.277C451.69 365.353 451.679 365.429 451.676 365.506C451.676 365.523 451.676 365.499 451.676 365.495" stroke="black" stroke-linecap="round"/>
<path d="M418.91 326.96C422.491 316.814 451.135 310.249 455.909 326.361" stroke="#B18130"/>
<path d="M419.193 327.63C419.254 327.63 419.09 327.564 419.041 327.528C418.985 327.485 418.905 327.462 418.844 327.428C418.788 327.398 418.728 327.379 418.67 327.352C418.602 327.32 418.538 327.284 418.471 327.25C418.394 327.211 418.315 327.172 418.235 327.138C418.2 327.123 418.158 327.098 418.119 327.098" stroke="black" stroke-linecap="round"/>
<path d="M455.909 328.152L456.506 322.184" stroke="black" stroke-width="1.8"/>
<path d="M403.905 357.356C403.991 357.717 404.008 358.141 403.956 358.512C403.921 358.765 403.892 359.013 403.892 359.269" stroke="black" stroke-linecap="round"/>
<path d="M436.396 333.584L437.123 332.902L445.318 333.53L444.591 334.212L436.396 333.584ZM436.492 341.137L444.687 341.765L443.96 342.446L435.765 341.818L436.492 341.137ZM452.923 338.623C453.488 331.245 448.504 324.68 441.578 324.15C434.652 323.619 428.726 329.348 428.16 336.725C427.595 344.103 432.579 350.668 439.505 351.199C446.431 351.729 452.358 346.001 452.923 338.623ZM444.333 337.57L444.948 338.354L436.754 337.726L436.139 336.942L444.333 337.57Z" fill="#DAB94E" stroke="#B18130" stroke-width="2"/>
<path d="M173.135 390.988C170.748 392.579 167.883 397.314 175.522 403.52C185.07 411.277 205.359 430.97 205.956 433.357C211.923 437.534 256.082 499.595 256.679 501.386C258.149 501.386 271.949 502.137 285.5 501C279.018 488.025 266.843 465.216 250.711 441.711C239.501 425.376 225.146 406.597 212.152 393.604C198.226 387.554 182.67 384.053 173.135 390.988Z" fill="black" fill-opacity="0.2"/>
<path d="M194.02 496.015C194.22 477.317 192.708 437.773 185.07 429.18C182.859 423.89 178.888 416.652 173.499 410.084C168.539 405.788 162.835 403.122 160.603 402.326C150.577 398.507 154.038 402.326 157.022 404.713C168.957 415.693 172.737 470.156 173.135 496.015H194.02Z" fill="black" fill-opacity="0.2"/>
<path d="M160.603 206.593C174.925 222.825 186.86 216.141 191.037 210.771L192.529 207.787C190.388 201.819 127.782 149.306 95.5573 157.064C69.7779 163.27 68.9256 185.509 71.7218 195.852C71.4601 191.811 71.7728 188.133 72.881 185.111C73.6766 181.331 75.7453 173.534 77.6549 172.579C80.0419 171.386 84.8159 160.048 102.121 167.208C119.427 174.369 134.943 183.32 154.635 200.626L157.619 203.61L160.603 206.593Z" fill="black" fill-opacity="0.25"/>
<path d="M119.428 362.941C125.854 362.227 136.25 362.082 148.668 363.53L194.02 234.044C192.031 231.06 188.65 222.228 191.037 210.771C186.86 216.141 174.925 222.825 160.603 206.593L157.619 203.61C155.232 212.203 158.614 224.695 160.603 229.866L119.428 362.941Z" fill="black" fill-opacity="0.2"/>
<path d="M136.734 404.713C131.562 395.364 126.112 376.069 145.685 373.682C165.258 371.295 197.999 379.849 211.923 384.424C200.833 377.68 189.178 372.876 177.908 369.515C177.111 369.278 176.315 369.047 175.522 368.823C166.058 366.156 156.917 364.492 148.668 363.53C136.25 362.082 125.854 362.227 119.428 362.941C108.925 377.74 126.589 396.955 136.734 404.713Z" fill="black" fill-opacity="0.25"/>
<path d="M374.834 373.085L398.704 376.069C392.274 371.331 382.666 360.113 383.134 346.829L367.077 350.409C355.616 349.613 329.031 343.009 314.379 322.959L302.27 344.442C309.145 354.944 353.511 367.914 374.834 373.085Z" fill="black" fill-opacity="0.2"/>
<path d="M398.704 376.069L402.285 370.102L403.233 343.845C400.327 347.071 395.344 350.624 390.946 347.425C389.726 346.018 388.675 343.468 389.308 340.264C387.042 340.264 386.388 336.286 386.344 334.297C385.673 335.898 385.013 337.683 384.382 339.668C383.608 342.102 383.216 344.497 383.134 346.829C382.666 360.113 392.274 371.331 398.704 376.069Z" fill="black" fill-opacity="0.2"/>
<path d="M53.7851 257.317L58.5591 298.492C58.8758 300.076 60.5036 303.072 64.5265 304.709C65.5569 305.128 66.7443 305.459 68.107 305.653C69.4072 305.839 71.4878 305.707 74.0745 305.266C70.2951 298.035 60.9461 278.084 58.5591 256.124L53.7851 257.317Z" fill="black" fill-opacity="0.23"/>
<path d="M350.368 259.107C346.459 254.089 342.081 249.316 337.341 244.785C307.868 298.394 248.086 406.208 244.744 408.59C250.249 413.542 255.007 418.596 257.873 423.212L302.27 344.442L314.379 322.959L320.097 312.814L350.368 259.107Z" fill="black" fill-opacity="0.2"/>
<path d="M88.9931 318.782L82.4289 303.226C80.4707 303.828 78.6008 304.322 76.8769 304.709C75.8915 304.93 74.9537 305.116 74.0745 305.266C71.4878 305.707 69.4072 305.839 68.107 305.653C68.7037 308.158 73.8358 314.388 80.0419 317.588C83.1203 318.492 84.4732 318.669 88.9931 318.782Z" fill="black" fill-opacity="0.22"/>
<path d="M111.073 308.021L114.056 312.218C114.455 311.861 114.867 311.462 115.284 311.024C117.691 306.25 120.766 293.957 113.805 282.977C110.983 287.496 106.558 291.378 101.525 294.59L111.073 308.021Z" fill="black" fill-opacity="0.22"/>
<path d="M82.4289 303.226L88.9931 318.782C92.8472 326.875 101.781 341.301 111.073 337.878C108.248 335.572 103.127 328.235 99.9367 314.837C99.6453 313.613 99.3775 312.343 99.1378 311.024C98.9388 308.624 101.047 304.663 111.073 308.021L101.525 294.59C95.4631 298.459 88.5191 301.357 82.4289 303.226Z" fill="black" fill-opacity="0.15"/>
<path d="M194.02 204.803C194.487 203.636 194.775 201.965 194.669 199.874C194.592 198.348 194.306 196.599 193.727 194.659C177.116 178.547 133.988 146.68 94.3638 148.113C54.7399 149.545 51.9949 205.4 53.7851 213.755C55.5754 222.109 58.5591 256.124 58.5591 256.124L74.0745 248.963C74.2475 249.159 74.4212 249.358 74.5955 249.559C75.1335 249.082 83.0085 243.393 86.8788 240.608C81.3629 230.378 72.6815 210.67 71.7218 195.852C68.9256 185.509 69.7779 163.27 95.5573 157.064C127.782 149.306 190.388 201.819 192.529 207.787L194.02 204.803Z" fill="black" fill-opacity="0.15"/>
<path d="M191.037 210.771C188.65 222.228 192.031 231.06 194.02 234.044C199.789 231.657 211.803 224.257 213.713 213.754C212.52 213.754 195.811 207.787 194.02 204.803L192.529 207.787L191.037 210.771Z" fill="black" fill-opacity="0.1"/>
<path d="M194.02 234.044L148.668 363.53C156.917 364.492 166.058 366.156 175.522 368.823C175.522 368.823 248.921 197.642 247.728 196.449C246.651 195.372 228.769 186.974 213.713 182.629C212.08 182.158 210.481 181.734 208.939 181.373C212.916 186.04 215.379 192.801 214.907 202.416L213.713 213.754C211.803 224.257 199.789 231.657 194.02 234.044Z" fill="black" fill-opacity="0.1"/>
<path d="M192.827 172.682C198.77 173.818 204.71 176.411 208.939 181.373C210.463 181.703 212.078 182.073 213.776 182.484C216.087 177.292 225.973 165.778 247.728 160.078C242.828 158.843 238.54 158.167 235.196 158.257C234.002 158.257 197.004 167.415 192.827 172.682Z" fill="black" fill-opacity="0.12"/>
<path d="M350.368 259.107C345.992 240.608 335.568 202.297 328.885 197.045C327.781 196.178 325.718 194.852 322.917 193.205C328.885 200.702 336.643 244.122 337.341 244.785C342.081 249.316 346.459 254.089 350.368 259.107Z" fill="black" fill-opacity="0.2"/>
<path d="M407.655 336.087C404.008 334.261 401.688 336.087 400.494 337.281C398.107 339.071 393.333 343.606 390.946 347.425C395.344 350.624 400.327 347.071 403.233 343.845C403.797 343.219 404.283 342.605 404.672 342.055C416.606 342.651 417.8 340.264 418.397 340.264C418.874 340.264 420.187 337.48 420.784 336.087C420.431 336.203 420.03 336.317 419.59 336.423C416.276 337.228 410.792 337.658 407.655 336.087Z" fill="black" fill-opacity="0.2"/>
<path d="M383.134 346.829C383.216 344.497 383.608 342.102 384.382 339.668C385.013 337.683 385.673 335.898 386.344 334.297C386.429 334.095 386.514 333.896 386.599 333.7L368.867 342.055C342.61 343.487 325.413 323.158 320.097 312.814L314.379 322.959C329.031 343.009 355.616 349.613 367.077 350.409L383.134 346.829Z" fill="black" fill-opacity="0.12"/>
<path d="M285.5 501C287.489 500.833 289.523 500.667 291.5 500.5C283.429 487.276 264.657 457.465 250.711 441.711C266.843 465.216 279.018 488.025 285.5 501Z" fill="black" fill-opacity="0.12"/>
<path d="M170.345 406.503C163.684 399.477 155.299 393.924 145.685 393.604C145.105 393.584 144.52 393.584 143.931 393.604C150.284 401.285 161.438 431.805 155.232 492.434L173.135 496.015C172.737 470.156 168.957 415.693 157.022 404.713C154.038 402.326 150.577 398.507 160.603 402.326C162.835 403.122 168.539 405.788 173.499 410.084C172.496 408.862 171.444 407.662 170.345 406.503Z" fill="black" fill-opacity="0.12"/>
<path d="M244.744 408.59C248.086 406.208 307.868 298.394 337.341 244.785C331.607 239.303 325.343 234.177 318.74 229.401C303.822 218.79 277.565 207.787 268.614 205.997C261.453 204.565 257.673 207.389 256.679 208.98C234.599 258.311 189.963 358.047 188.053 362.344C186.143 366.641 188.849 369.704 190.44 370.698C202.375 374.518 219.309 387.805 226.284 393.972C232.378 398.318 238.972 403.398 244.744 408.59Z" fill="black" fill-opacity="0.07"/>
<path d="M68.107 305.653C66.7443 305.459 65.5569 305.128 64.5265 304.709C64.6784 308.138 70.1145 314.673 80.0419 317.588C73.8358 314.388 68.7037 308.158 68.107 305.653Z" fill="black" fill-opacity="0.1"/>
<path d="M115.284 311.024C120.024 305.653 125.607 292.879 115.864 278.8C115.335 280.247 114.641 281.64 113.805 282.977C120.766 293.957 117.691 306.25 115.284 311.024Z" fill="black" fill-opacity="0.1"/>
<path d="M337.341 244.785C336.643 244.122 328.885 200.702 322.917 193.205C314.144 188.045 298.136 179.735 281.712 172.512C282.642 189.644 278.512 201.178 276.331 204.803C290.801 211.603 305.455 219.791 318.74 229.401C325.343 234.177 331.607 239.303 337.341 244.785Z" fill="black" fill-opacity="0.07"/>
<path d="M154.635 200.626C153.442 208.384 152.964 225.092 160.603 229.866C158.614 224.695 155.232 212.203 157.619 203.61L154.635 200.626Z" fill="black" fill-opacity="0.08"/>
<path d="M420.784 388.004L407.655 388.601C411.037 390.391 422.574 393.972 441.67 393.972C438.089 391.783 428.899 387.527 420.784 388.004Z" fill="black" fill-opacity="0.39"/>
<path d="M420.784 336.087C420.187 337.48 418.874 340.264 418.397 340.264C417.8 340.264 416.606 342.651 404.672 342.055C404.283 342.605 403.797 343.219 403.233 343.845L402.285 370.102L398.704 376.069C392.021 389.436 404.274 395.961 411.236 397.552C420.983 400.138 442.267 403.281 449.427 395.165C449.569 394.657 449.72 394.052 449.871 393.375C449.126 392.813 448.307 392.293 447.43 391.812C447.057 391.607 446.674 391.41 446.281 391.219C437.371 386.894 423.505 386.041 416.931 386.214C418.281 387.03 419.68 387.636 420.784 388.004C428.899 387.527 438.089 391.783 441.67 393.972C422.574 393.972 411.037 390.391 407.655 388.601L420.784 388.004C419.68 387.636 418.281 387.03 416.931 386.214C413.899 384.382 411.108 381.492 412.429 377.859C414.339 372.608 417.601 370.897 418.993 370.698L420.784 356.974L425.411 319.952L425.558 318.782C422.574 319.378 416.607 327.005 416.763 327.136C420.51 330.312 421.308 334.34 420.784 336.087Z" fill="black" fill-opacity="0.25"/>
<path d="M450.024 378.456L450.209 376.666L452.308 356.377L453.605 343.845L455.5 327.733C455.09 328.301 454.613 329.096 454.096 330.12C451.544 335.176 448.018 345.828 446.702 362.516C446.513 364.919 446.37 367.447 446.281 370.102C446.335 372.489 446.682 378.098 447.637 381.44C447.746 381.819 447.833 382.219 447.901 382.633C448.286 384.96 448.088 387.736 447.793 389.794C447.677 390.6 447.546 391.296 447.43 391.812C448.307 392.293 449.126 392.813 449.871 393.375C450.782 389.284 451.663 382.552 450.024 378.456Z" fill="black" fill-opacity="0.2"/>
<path d="M426.751 242.398C427.348 243.791 429.138 246.575 431.525 246.575C428.086 253.447 423.187 274.51 421.977 296.105C424.514 294.952 427.803 294.31 430.928 293.976C430.729 279.568 432.36 247.411 440.476 241.205C434.656 240.733 428.541 240.011 428.541 238.818C428.421 238.34 427.967 238.299 428.229 237.624C426.864 238.703 426.213 240.244 426.751 242.398Z" fill="black" fill-opacity="0.2"/>
<path d="M440.476 241.205C432.36 247.411 430.729 279.568 430.928 293.976C433.636 293.687 436.221 293.63 438.089 293.673C438.487 279.764 440.834 251.111 447.04 247.769C451.097 246.417 456.186 242.882 449.427 238.336C451.064 239.22 451.259 239.943 450.621 240.52C449.166 241.837 443.38 241.205 440.476 241.205Z" fill="black" fill-opacity="0.15"/>
<path d="M145.685 373.682C126.112 376.069 131.562 395.364 136.734 404.713L143.894 410.084C138.643 397.672 139.319 394.171 140.314 393.972C141.537 393.764 142.743 393.643 143.931 393.604C144.52 393.584 145.105 393.584 145.685 393.604C155.299 393.924 163.684 399.477 170.345 406.503C171.444 407.662 172.496 408.862 173.499 410.084C178.888 416.652 182.859 423.89 185.07 429.18L201.182 433.357H205.956C205.359 430.97 185.07 411.277 175.522 403.52C167.883 397.314 170.748 392.579 173.135 390.988C182.67 384.053 198.226 387.554 212.152 393.604C221.233 397.549 229.622 402.578 235.196 406.503L256.082 426.196L257.873 423.212C255.007 418.596 250.249 413.542 244.744 408.59C238.972 403.398 232.378 398.318 226.284 393.972C220.759 390.031 215.643 386.694 211.923 384.424C197.999 379.849 165.258 371.295 145.685 373.682Z" fill="black" fill-opacity="0.35"/>
<path d="M404.672 326.004C408.575 324.946 413.248 324.497 416.01 326.539C416.273 326.734 416.524 326.933 416.763 327.136C416.607 327.005 422.574 319.378 425.558 318.782C425.757 311.024 428.78 295.15 439.283 293.718C438.93 293.699 438.53 293.683 438.089 293.673C436.221 293.63 433.636 293.687 430.928 293.976C427.803 294.31 424.514 294.952 421.977 296.105C411.952 297.06 406.661 312.814 405.268 320.572L404.672 326.004Z" fill="black" fill-opacity="0.2"/>
<path d="M428.541 383.23C437.135 384.185 444.956 388.004 447.793 389.794C448.088 387.736 448.286 384.96 447.901 382.633C446.68 380.724 442.045 378.655 439.88 377.859C435.304 376.865 425.558 375.711 423.171 379.053C420.784 382.395 425.757 383.23 428.541 383.23Z" fill="white" fill-opacity="0.2"/>
<path d="M444.057 296.702C443.46 297.299 433.912 297.896 435.106 304.46C436.06 309.711 441.471 312.615 444.057 313.411C447.236 314.008 453.242 315.201 455.395 312.814C454.151 307.521 451.013 300.345 444.057 296.702Z" fill="white" fill-opacity="0.2"/>
<path d="M411.832 326.539C399.42 328.926 403.876 333.899 407.655 336.087C410.792 337.658 416.276 337.228 419.59 336.423C421.38 330.12 414.785 326.388 411.832 326.539Z" fill="white" fill-opacity="0.05"/>
<path d="M453.605 343.845C458.379 343.049 467.33 339.429 464.943 331.313C462.556 323.198 457.981 322.76 455.992 323.556L455.5 327.733L453.605 343.845Z" fill="black" fill-opacity="0.2"/>
<path d="M247.728 196.449C248.921 197.642 175.522 368.823 175.522 368.823C176.315 369.047 177.111 369.278 177.908 369.515L251.308 194.24C237.015 188.845 223.918 184.938 213.776 182.484C213.755 182.533 213.734 182.581 213.713 182.629C228.769 186.974 246.651 195.372 247.728 196.449Z" fill="white" fill-opacity="0.05"/>
<path d="M111.073 337.878C111.372 337.767 113.162 336.833 113.46 336.684C109.676 332.557 102.444 323.167 99.9367 314.837C103.127 328.235 108.248 335.572 111.073 337.878Z" fill="white" fill-opacity="0.1"/>
<path d="M446.702 362.516C448.018 345.828 451.544 335.176 454.096 330.12C454.798 325.943 454.963 324.031 453.605 322.362C449.706 317.572 443.707 316.228 438.089 316.497C434.27 328.037 432.917 349.108 432.718 358.201C436.921 358.905 441.563 360.133 446.702 362.516Z" fill="white" fill-opacity="0.1"/>
<path d="M428.541 238.818C428.541 240.011 434.656 240.733 440.476 241.205C443.38 241.205 449.166 241.837 450.621 240.52C446.393 240.893 440.392 240 435.71 239.302L435.398 239.256C431.644 238.697 428.805 238.289 428.541 238.818Z" fill="white" fill-opacity="0.18"/>
<path d="M450.621 240.52C449.645 239.166 438.527 239.715 435.398 239.256L435.71 239.302C440.392 240 446.393 240.893 450.621 240.52Z" fill="white" fill-opacity="0.18"/>
<path d="M58.5591 256.124C60.9461 278.084 70.2951 298.035 74.0745 305.266C74.9537 305.116 75.8915 304.93 76.8769 304.709C86.5681 301.9 103.766 293.783 102.718 290.138C97.6316 281.53 85.0024 261.57 74.5955 249.559C74.4212 249.358 74.2475 249.159 74.0745 248.963L58.5591 256.124Z" fill="black" fill-opacity="0.15"/>
<path d="M335.994 22.7676C337.311 21.1609 339.217 21.545 340.124 23.5999L340.014 24.8258C341.973 24.1803 345.829 21.879 345.589 17.8369C345.349 13.7948 341.477 12.0159 339.57 11.6318C337.856 11.3903 334.053 11.7681 332.563 15.2119C330.7 19.5166 333.834 23.2684 335.715 23.9595L335.994 22.7676Z" fill="#9396A8"/>
<path d="M333.178 54.6493C331.398 54.4138 329.85 54.506 328.515 54.8137C324.44 55.7531 322.356 58.7006 321.751 60.4589L332.442 65.1357L344.295 63.4417C343.744 61.4469 341.64 57.7332 337.248 55.7788C336.063 55.2514 334.711 54.8521 333.178 54.6493Z" fill="#9396A8"/>
<path d="M328.515 54.8137C329.85 54.506 331.398 54.4138 333.178 54.6493C334.711 54.8521 336.063 55.2514 337.248 55.7788L340.014 24.8258L340.124 23.5999C339.217 21.545 337.311 21.1609 335.994 22.7676L335.715 23.9595L328.515 54.8137Z" fill="#A7A9B8"/>
<path d="M328.515 54.8137C329.85 54.506 331.398 54.4138 333.178 54.6493C334.711 54.8521 336.063 55.2514 337.248 55.7788M328.515 54.8137C324.44 55.7531 322.356 58.7006 321.751 60.4589L332.442 65.1357L344.295 63.4417C343.744 61.4469 341.64 57.7332 337.248 55.7788M328.515 54.8137L335.715 23.9595M337.248 55.7788L340.014 24.8258M340.014 24.8258L340.124 23.5999C339.217 21.545 337.311 21.1609 335.994 22.7676L335.715 23.9595M340.014 24.8258C341.973 24.1803 345.829 21.879 345.589 17.8369C345.349 13.7948 341.477 12.0159 339.57 11.6318C337.856 11.3903 334.053 11.7681 332.563 15.2119C330.7 19.5166 333.834 23.2684 335.715 23.9595" stroke="black" stroke-width="2"/>
<path d="M344.67 114.652C358.285 126.826 382.852 133.614 394.348 127.573C396.26 126.152 398.755 123.48 399.603 120.322C385.423 103.985 367.503 109.861 348.562 108.556C347.889 110.438 346.764 112.454 344.967 114.346C344.87 114.448 344.771 114.55 344.67 114.652Z" fill="white"/>
<path d="M288.867 95.809C306.423 122.161 336.199 121.312 343.613 115.633C343.988 115.311 344.339 114.984 344.67 114.652C344.771 114.55 344.87 114.448 344.967 114.346C346.764 112.454 347.889 110.438 348.562 108.556C337.329 102.538 321.828 71.8284 288.867 95.809Z" fill="white"/>
<path d="M218.983 99.3848C194.551 133.725 231.801 168.057 253.481 180.931C277.865 196.094 300.986 204.358 315.359 204.973C329.733 205.589 339.837 203.729 350.154 195.206C339.076 193.522 324.286 187.296 314.872 179.718C307.341 173.656 280.012 163.804 272.345 163.664C266.359 164.047 254.864 162.256 256.781 152.024C258.093 146.947 264.17 137.745 277.981 141.553C282.618 142.79 301.352 153.305 310.303 156.885C319.254 160.466 324.028 162.853 344.914 162.256C349.294 161.668 362.763 162.901 377.635 169.517C379.693 164.22 382.548 148.554 378.111 139.266C375.462 140.052 367.811 141.082 358.402 138.919C355.946 134.332 349.049 124.34 341.108 121.067C342.529 119.412 343.318 117.48 343.613 115.633C336.199 121.312 306.423 122.161 288.867 95.809C321.828 71.8284 337.329 102.538 348.562 108.556C367.503 109.861 385.423 103.985 399.603 120.322C400.303 117.715 399.881 114.777 397.083 111.937C398.716 109.514 398.636 105.819 392.939 102.736C392.17 98.4115 389.203 92.4378 382.817 88.0897C375.698 83.2422 364.331 80.4151 347.025 84.1463C345.649 81.9934 343.567 79.5764 340.507 76.9621C340.439 71.3893 338.509 66.7495 335.674 62.9701C330.188 55.6581 321.312 51.5668 315.977 50.172C286.488 40.8898 265.746 64.7151 259.061 77.7879C242.264 77.1961 225.344 91.9392 218.983 99.3848Z" fill="#68984C"/>
<path d="M343.613 115.633C343.318 117.48 342.529 119.412 341.108 121.067C349.049 124.34 355.946 134.332 358.402 138.919C367.811 141.082 375.462 140.052 378.111 139.266C379.937 138.879 384.234 137.486 386.814 135.015C390.215 134.487 396.483 132.261 394.348 127.573C382.852 133.614 358.285 126.826 344.67 114.652C344.339 114.984 343.988 115.311 343.613 115.633Z" fill="#68984C"/>
<path d="M340.507 76.9621C343.567 79.5764 345.649 81.9934 347.025 84.1463C364.331 80.4151 375.698 83.2422 382.817 88.0897C381.943 77.4164 371.292 57.4499 335.674 62.9701C338.509 66.7495 340.439 71.3893 340.507 76.9621Z" fill="#68984C"/>
<path d="M256.781 152.024C254.864 162.256 266.359 164.047 272.345 163.664C280.012 163.804 307.341 173.656 314.872 179.718C324.286 187.296 339.076 193.522 350.154 195.206C353.632 195.593 359.195 197.005 363.536 194.127C362.267 193.511 361.049 192.907 359.899 192.319C357.039 190.858 354.597 189.503 352.822 188.344C347.387 188.639 340.103 185.262 337.927 182.918C333.063 178.089 325.971 173.003 323.431 171.804C328.368 170.509 339.093 169.303 346.669 169.642C352.302 169.894 357.504 171.136 360.55 174.17C361.009 174.303 361.505 174.451 362.032 174.612C365.675 175.728 370.868 177.509 376.656 179.825C380.353 176.945 385.724 170.851 377.635 169.517C362.763 162.901 349.294 161.668 344.914 162.256C324.028 162.853 319.254 160.466 310.303 156.885C301.352 153.305 282.618 142.79 277.981 141.553C264.17 137.745 258.093 146.947 256.781 152.024Z" fill="#AD683D"/>
<path d="M337.927 182.918C340.103 185.262 347.387 188.639 352.822 188.344C350.222 186.288 345.82 181.772 346.358 178.322L341.858 176.949L337.927 182.918Z" fill="white"/>
<path d="M323.431 171.804C325.971 173.003 333.063 178.089 337.927 182.918L341.858 176.949L323.431 171.804Z" fill="white"/>
<path d="M346.669 169.642C339.093 169.303 328.368 170.509 323.431 171.804L341.858 176.949L346.669 169.642Z" fill="white"/>
<path d="M346.937 176.882C347.946 174.926 352.081 171.645 360.55 174.17C357.504 171.136 352.302 169.894 346.669 169.642L341.858 176.949L346.358 178.322C346.437 177.815 346.623 177.331 346.937 176.882Z" fill="white"/>
<path d="M360.55 174.17C352.081 171.645 347.946 174.926 346.937 176.882C346.623 177.331 346.437 177.815 346.358 178.322C345.82 181.772 350.222 186.288 352.822 188.344C354.597 189.503 357.039 190.858 359.899 192.319C359.338 190.39 358.722 185.892 360.751 183.337C359.058 181.022 356.945 176.036 362.032 174.612C361.505 174.451 361.009 174.303 360.55 174.17Z" fill="#733E16"/>
<path d="M369.942 197.139C370.366 194.32 371.698 188.691 373.634 188.726C377.798 189.646 386.085 189.949 385.918 183.799C382.76 182.346 379.63 181.015 376.656 179.825C370.868 177.509 365.675 175.728 362.032 174.612C356.945 176.036 359.058 181.022 360.751 183.337C358.722 185.892 359.338 190.39 359.899 192.319C361.049 192.907 362.267 193.511 363.536 194.127C365.563 195.11 367.72 196.122 369.942 197.139Z" fill="#E3A430"/>
<path d="M403.755 211.141C400.209 201.993 406.515 197.205 410.111 195.955C404.654 192.256 392.159 186.673 385.918 183.799C386.085 189.949 377.798 189.646 373.634 188.726C371.698 188.691 370.366 194.32 369.942 197.139C379.84 201.67 397.163 208.525 403.755 211.141Z" fill="#733E16"/>
<path d="M410.111 195.955C406.515 197.205 400.209 201.993 403.755 211.141C406.779 212.349 413.357 213.49 415.477 208.394C416.389 205.449 416.593 198.838 410.111 195.955Z" fill="url(#paint0_linear_127_126)"/>
<path d="M259.061 77.7879C242.264 77.1961 225.344 91.9392 218.983 99.3848C194.551 133.725 231.801 168.057 253.481 180.931C277.865 196.094 300.986 204.358 315.359 204.973C329.733 205.589 339.837 203.729 350.154 195.206M259.061 77.7879L255.513 86.0919M259.061 77.7879C265.746 64.7151 286.488 40.8898 315.977 50.172C321.312 51.5668 330.188 55.6581 335.674 62.9701M340.507 76.9621C334.109 71.3494 316.252 62.37 296.014 71.3542M340.507 76.9621C343.567 79.5764 345.649 81.9934 347.025 84.1463M340.507 76.9621C340.439 71.3893 338.509 66.7495 335.674 62.9701M348.729 93.8166C349.654 92.3527 350.055 88.8909 347.025 84.1463M282.94 80.4702C292.882 61.1061 342.164 70.2406 351.157 98.9273C351.346 100.366 350.966 101.037 349.299 101.96M349.299 101.96C344.288 96.8271 307.915 58.5618 282.629 89.1226M349.299 101.96C349.563 103.325 349.55 105.796 348.562 108.556M343.613 115.633C336.199 121.312 306.423 122.161 288.867 95.809C321.828 71.8284 337.329 102.538 348.562 108.556M343.613 115.633C343.318 117.48 342.529 119.412 341.108 121.067M343.613 115.633C343.988 115.311 344.339 114.984 344.67 114.652M343.613 115.633C344.102 115.213 344.553 114.783 344.967 114.346M289.362 107.756C321.042 129.66 335.684 127.382 341.108 121.067M348.562 108.556C367.503 109.861 385.423 103.985 399.603 120.322M348.562 108.556C347.889 110.438 346.764 112.454 344.967 114.346M377.635 169.517C379.693 164.22 382.548 148.554 378.111 139.266M377.635 169.517C362.763 162.901 349.294 161.668 344.914 162.256C324.028 162.853 319.254 160.466 310.303 156.885C301.352 153.305 282.618 142.79 277.981 141.553C264.17 137.745 258.093 146.947 256.781 152.024C254.864 162.256 266.359 164.047 272.345 163.664C280.012 163.804 307.341 173.656 314.872 179.718C324.286 187.296 339.076 193.522 350.154 195.206M377.635 169.517C385.724 170.851 380.353 176.945 376.656 179.825M378.111 139.266C375.462 140.052 367.811 141.082 358.402 138.919M378.111 139.266C379.937 138.879 384.234 137.486 386.814 135.015M341.108 121.067C349.049 124.34 355.946 134.332 358.402 138.919M358.402 138.919C359.066 140.243 360.623 143.67 361.532 146.781M386.814 135.015C378.844 134.649 360.39 131.804 350.326 123.349M386.814 135.015C390.215 134.487 396.483 132.261 394.348 127.573M394.348 127.573C382.852 133.614 358.285 126.826 344.67 114.652M394.348 127.573C396.26 126.152 398.755 123.48 399.603 120.322M344.67 114.652C344.771 114.55 344.87 114.448 344.967 114.346M397.083 111.937C393.965 108.565 382.535 101.795 361.763 101.69M397.083 111.937C398.716 109.514 398.636 105.819 392.939 102.736M397.083 111.937C399.881 114.777 400.303 117.715 399.603 120.322M358.147 97.2219C377.045 97.4312 387.526 99.8075 392.939 102.736M392.939 102.736C392.17 98.4115 389.203 92.4378 382.817 88.0897M347.025 84.1463C364.331 80.4151 375.698 83.2422 382.817 88.0897M382.817 88.0897C381.943 77.4164 371.292 57.4499 335.674 62.9701M262.382 170.885C252.511 169.799 244.083 155.653 252.796 144.984M335.333 128.933C331.261 132.557 319.166 137.734 303.369 129.454M350.154 195.206C353.632 195.593 359.195 197.005 363.536 194.127M363.759 193.975C363.685 194.027 363.611 194.078 363.536 194.127M266.909 153.197C269.543 151.764 278.516 150.942 293.333 159.113C298.914 162.835 310.851 170.388 323.431 171.804M323.431 171.804C325.971 173.003 333.063 178.089 337.927 182.918M323.431 171.804C328.368 170.509 339.093 169.303 346.669 169.642M323.431 171.804L341.858 176.949M360.55 174.17C352.081 171.645 347.946 174.926 346.937 176.882C346.623 177.331 346.437 177.815 346.358 178.322M360.55 174.17C361.009 174.303 361.505 174.451 362.032 174.612M360.55 174.17C357.504 171.136 352.302 169.894 346.669 169.642M337.927 182.918C340.103 185.262 347.387 188.639 352.822 188.344M337.927 182.918L341.858 176.949M352.822 188.344C354.597 189.503 357.039 190.858 359.899 192.319M352.822 188.344C350.222 186.288 345.82 181.772 346.358 178.322M410.111 195.955C406.515 197.205 400.209 201.993 403.755 211.141M410.111 195.955C404.654 192.256 392.159 186.673 385.918 183.799M410.111 195.955C416.593 198.838 416.389 205.449 415.477 208.394C413.357 213.49 406.779 212.349 403.755 211.141M403.755 211.141C397.163 208.525 379.84 201.67 369.942 197.139M369.942 197.139C370.366 194.32 371.698 188.691 373.634 188.726C377.798 189.646 386.085 189.949 385.918 183.799M369.942 197.139C367.72 196.122 365.563 195.11 363.536 194.127M385.918 183.799C382.76 182.346 379.63 181.015 376.656 179.825M359.899 192.319C359.338 190.39 358.722 185.892 360.751 183.337C359.058 181.022 356.945 176.036 362.032 174.612M359.899 192.319C361.049 192.907 362.267 193.511 363.536 194.127M362.032 174.612C365.675 175.728 370.868 177.509 376.656 179.825M346.358 178.322L341.858 176.949M346.669 169.642L341.858 176.949" stroke="black" stroke-width="2"/>
<rect width="9.25635" height="6.0492" transform="matrix(-0.960168 -0.279733 -0.280497 0.959764 315.517 103.978)" fill="black"/>
<rect width="9.25635" height="6.0492" transform="matrix(-0.960168 -0.279733 -0.280497 0.959764 370.417 118.3)" fill="black"/>
<circle cx="405.782" cy="208.206" r="0.596745" fill="#2D2D2D"/>
<circle cx="408.766" cy="207.609" r="1.19349" fill="#2D2D2D"/>
<circle cx="406.975" cy="205.819" r="0.596745" fill="#2D2D2D"/>
<circle cx="410.556" cy="209.399" r="0.596745" fill="#2D2D2D"/>
<path d="M211.84 118.097C218.007 106.958 235.591 84.7988 256.596 85.2762L259.58 78.1152C246.65 78.3141 219.001 86.589 211.84 118.097Z" fill="black" fill-opacity="0.14"/>
<path d="M370.574 83.4859C372.007 73.6702 363.215 66.2676 358.64 63.7933L355.656 63.1966C362.339 68.4479 361.623 78.513 360.43 82.8892C362.817 81.6957 369.381 83.4859 370.574 83.4859Z" fill="black" fill-opacity="0.15"/>
<path d="M331.786 70.9543C331.985 67.5727 330.712 59.3774 324.028 53.6486L321.641 53.0519C325.461 60.6902 314.48 66.1803 308.513 67.9705C317.106 66.0609 327.609 69.164 331.786 70.9543Z" fill="black" fill-opacity="0.1"/>
<path d="M331.786 70.9543L340.737 76.325C340.036 70.7316 338.369 66.5206 336.345 63.347C333.5 58.884 329.95 56.4727 327.388 55.1539C325.553 54.2089 324.225 53.8248 324.028 53.6486C330.712 59.3774 331.985 67.5727 331.786 70.9543Z" fill="black" fill-opacity="0.2"/>
<path d="M349.688 106.162V104.372L350.285 102.582C336.918 87.7825 323.233 81.2978 318.061 79.9054C326.654 83.2472 342.726 98.8024 349.688 106.162Z" fill="black" fill-opacity="0.15"/>
<path d="M350.285 102.582L351.479 99.0013L350.285 94.6252C333.576 79.1894 318.26 77.1869 312.69 78.1152L318.061 79.9054C323.233 81.2978 336.918 87.7825 350.285 102.582Z" fill="black" fill-opacity="0.19"/>
<path d="M349.688 92.4371L348.495 84.0827L343.721 79.9054C335.963 73.1838 319.851 72.1478 319.254 72.1478C333.099 74.0573 345.312 86.4696 349.688 92.4371Z" fill="black" fill-opacity="0.19"/>
<path d="M351.479 127.645C350.484 125.855 348.495 121.439 348.495 118.097C348.495 117.62 346.506 115.909 345.511 115.113L341.931 121.081L351.479 127.645Z" fill="black" fill-opacity="0.25"/>
<path d="M341.931 121.081L345.511 115.113C329.996 124.661 308.513 113.92 307.916 113.92C313.287 117.5 326.535 124.661 336.56 124.661L341.931 121.081Z" fill="black" fill-opacity="0.15"/>
<path d="M371.171 140.177C371.649 140.177 376.542 139.779 378.929 139.58L387.283 135.403L373.558 133.016C367.352 135.88 358.64 133.811 355.059 132.419L359.833 139.58L371.171 140.177Z" fill="black" fill-opacity="0.2"/>
<path d="M359.236 124.661C362.817 127.048 374.036 132.18 390.267 133.612C392.256 133.214 395.996 131.583 395.041 128.242C389.869 129.833 375.468 131.345 359.236 124.661Z" fill="black" fill-opacity="0.2"/>
<path d="M368.187 102.117C374.776 101.906 386.348 102.872 396.831 110.936L397.428 111.931L398.621 109.146C386.687 99.0013 368.784 102.102 368.187 102.117Z" fill="black" fill-opacity="0.2"/>
<path d="M362.817 97.2106C368.983 95.4204 383.106 92.556 390.267 95.4204C390.267 96.0176 393.251 99.5803 393.251 102.582C386.687 100.194 371.41 95.778 362.817 97.2106Z" fill="black" fill-opacity="0.2"/>
<path d="M364.607 176.578C361.032 177.045 361.139 181.145 362.817 183.142C366.265 185.674 368.784 186.723 373.558 187.319C378.332 187.916 382.825 185.346 381.913 183.142C380.207 182.355 378.372 181.58 376.542 180.849C376.291 180.749 376.04 180.649 375.79 180.551C371.221 178.754 366.795 177.262 364.607 176.578Z" fill="#FAFF00" fill-opacity="0.15"/>
<path d="M352.076 186.723C351.827 186.542 351.591 186.362 351.365 186.182C350.882 185.783 337.157 181.352 329.996 175.384L338.35 183.142L344.946 186.723L348.244 188.513C349.746 187.884 351.08 187.247 352.076 186.723Z" fill="black" fill-opacity="0.24"/>
<path d="M328.802 172.401C335.21 170.112 347.234 172.036 352.221 173.057C353.557 173.331 354.388 173.539 354.47 173.585L356.519 171.141C344.345 168.63 329.357 171.207 328.802 171.207C328.325 171.207 328.604 172.003 328.802 172.401Z" fill="black" fill-opacity="0.24"/>
<path d="M364.01 165.24C366.994 162.256 372.603 153.066 371.171 140.177L359.833 139.58C364.123 141.967 362.416 156.885 361.027 164.047C361.623 164.444 363.056 165.24 364.01 165.24Z" fill="black" fill-opacity="0.08"/>
<path d="M287.627 197.464C302.904 206.49 328.064 197.645 338.735 192.094C336.949 191.493 335.741 191.028 335.432 190.921C335.41 190.914 335.388 190.907 335.367 190.9C316.271 198.941 289.616 197.048 278.676 195.097C281.063 195.886 286.195 197.464 287.627 197.464Z" fill="black" fill-opacity="0.08"/>
<path d="M403.395 211.189C402.649 208.949 403.313 205.345 404.019 202.835C395.036 201.713 372.654 195.741 351.365 180.755C350.005 179.798 348.649 178.804 347.302 177.771C346.733 179.098 346.815 182.556 351.365 186.182C351.591 186.362 351.827 186.542 352.076 186.723C353.904 188.053 358.873 190.627 365.204 193.695C377.053 199.438 393.672 206.911 403.395 211.189Z" fill="black" fill-opacity="0.25"/>
<path d="M403.395 211.189C407.573 212.582 415.927 213.696 415.927 207.012C412.347 207.609 405.066 207.251 404.589 201.045C404.416 201.521 404.216 202.136 404.019 202.835C403.313 205.345 402.649 208.949 403.395 211.189Z" fill="black" fill-opacity="0.25"/>
<path d="M365.204 193.695C358.873 190.627 353.904 188.053 352.076 186.723C351.08 187.247 349.746 187.884 348.244 188.513C344.076 190.257 338.606 191.932 335.432 190.921C335.741 191.028 336.949 191.493 338.735 192.094C341.565 193.046 345.843 194.34 350.285 195.097C355.842 196.044 361.654 196.151 365.204 193.695Z" fill="black" fill-opacity="0.2"/>
<path d="M376.542 180.849C377.019 180.371 380.719 175.782 382.51 173.594C380.918 173.793 374.036 173.714 359.236 171.804L361.027 174.191L364.607 176.578C366.795 177.262 371.221 178.754 375.79 180.551C376.04 180.649 376.291 180.749 376.542 180.849Z" fill="black" fill-opacity="0.2"/>
<path d="M364.01 165.24L377.735 169.417C382.509 159.869 380.52 145.547 378.929 139.58C376.542 139.779 371.649 140.177 371.171 140.177C372.603 153.066 366.994 162.256 364.01 165.24Z" fill="black" fill-opacity="0.2"/>
<path d="M338.735 192.094C328.064 197.645 302.904 206.49 287.627 197.464C295.385 202.437 316.748 210.354 340.14 202.238L350.285 195.097C345.843 194.34 341.565 193.046 338.735 192.094Z" fill="black" fill-opacity="0.2"/>
<path d="M349.688 109.146L352.075 108.549L352.672 103.179C353.866 101.587 355.298 97.3304 351.479 93.0338C352.075 91.6414 352.672 87.9018 350.285 84.0827H348.495L349.688 92.4371L350.285 94.6252L351.479 99.0013L350.285 102.582L349.688 104.372V106.162V109.146Z" fill="black" fill-opacity="0.25"/>
<path d="M348.495 84.0827H350.285C349.092 82.2924 346.108 78.1152 343.721 75.7282C343.323 72.3467 341.931 65.1062 339.544 63.1966L336.345 63.347C338.369 66.5206 340.036 70.7316 340.737 76.325L343.721 79.9054L348.495 84.0827Z" fill="black" fill-opacity="0.25"/>
<path d="M370.574 83.4859C373.956 84.0827 381.197 85.8729 383.106 88.2599C383.106 82.6903 379.645 70.4769 365.8 66.1803L358.64 63.7933C363.215 66.2676 372.007 73.6702 370.574 83.4859Z" fill="black" fill-opacity="0.25"/>
<path d="M368.187 102.117C365.025 102.219 363.01 102.592 362.817 102.582C385.42 103.712 398.927 115.009 400.296 116.711L397.428 111.931L396.831 110.936C386.348 102.872 374.776 101.906 368.187 102.117Z" fill="black" fill-opacity="0.2"/>
<path d="M336.345 63.347L339.544 63.1966L342.527 62.0031C343.482 60.0935 339.146 56.8313 338.35 55.4389C337.85 54.7721 336.736 54.4508 335.366 54.3448C334.626 54.2875 333.812 54.2932 332.979 54.3412C330.943 54.4587 328.801 54.8301 327.388 55.1539C329.95 56.4727 333.5 58.884 336.345 63.347Z" fill="black" fill-opacity="0.23"/>
<path d="M335.366 54.3448C336.736 54.4508 337.85 54.7721 338.35 55.4389L341.334 25.0049C349.45 20.7083 346.307 15.6559 343.721 13.6667C345.153 16.5311 341.533 20.4298 339.544 22.0211C338.151 32.3647 335.366 53.3105 335.366 54.3448Z" fill="black" fill-opacity="0.23"/>
<path d="M335.366 54.3448C335.366 53.3105 338.151 32.3647 339.544 22.0211C341.533 20.4298 345.153 16.5311 343.721 13.6667L341.334 11.8765C343.721 14.7408 340.737 19.8331 338.947 22.0211L332.979 54.3412C333.812 54.2932 334.626 54.2875 335.366 54.3448Z" fill="black" fill-opacity="0.15"/>
<path d="M267.934 153.902C271.515 154.499 283.45 156.289 296.578 162.256C290.412 157.88 275.095 149.605 267.934 153.902Z" fill="black" fill-opacity="0.25"/>
<path d="M351.365 180.755C350.011 179.562 348.734 176.459 354.463 173.594L354.47 173.585C354.388 173.539 353.557 173.331 352.221 173.057C350.427 173.105 348.194 176.22 347.302 177.771C348.649 178.804 350.005 179.798 351.365 180.755Z" fill="black" fill-opacity="0.34"/>
<path d="M256.596 85.2762C235.591 84.7988 218.007 106.958 211.84 118.097C205.972 126.981 218.333 146.578 218.988 147.907C206.611 121.823 238.899 95.2867 256.596 85.2762Z" fill="black" fill-opacity="0.09"/>
<path d="M335.432 190.921C338.606 191.932 344.076 190.257 348.244 188.513L344.946 186.723C344.495 188.632 338.415 190.317 335.432 190.921Z" fill="black" fill-opacity="0.11"/>
</g>
<defs>
<linearGradient id="paint0_linear_127_126" x1="407.574" y1="222.083" x2="413.248" y2="186.08" gradientUnits="userSpaceOnUse">
<stop stop-color="#3A3A3A"/>
<stop offset="1" stop-color="#D2D2D2"/>
</linearGradient>
<clipPath id="clip0_127_126">
<rect width="512" height="512" fill="white"/>
</clipPath>
</defs>
</svg>
