<svg width="512" height="512" viewBox="0 0 512 512" fill="none" xmlns="http://www.w3.org/2000/svg">
<g clip-path="url(#clip0_127_162)">
<path d="M267.222 326.956L302.906 446.777C305.708 453.294 305.61 455.755 300.462 456.59C287.196 459.833 253.832 470.996 226.506 489.704C221.764 492.916 219.243 493.355 215.503 486.744C196.259 451.017 157.782 379.224 157.82 377.876C155.709 373.718 157.217 371.635 161.95 368.11C178.611 355.562 221.072 329.374 257.636 325.001C264.382 324.122 266.498 324.541 267.222 326.956Z" fill="#9396A8"/>
<path d="M155.225 410.268C148.436 407.924 139.313 402.357 135.314 392.428C131.648 397.057 127.435 401.309 122.832 405.109C121.582 411.372 122.123 424.913 134.289 428.969C144.618 422.187 151.644 415.18 155.225 410.268Z" fill="#68984C"/>
<path d="M158.262 411.148C150.208 395.34 143.395 380.579 138.959 368.429C134.973 370.631 133.639 375.832 133.47 378.157C132.916 383.678 133.695 388.41 135.314 392.428C139.313 402.357 148.436 407.924 155.225 410.268C156.306 410.642 157.329 410.933 158.262 411.148Z" fill="#9396A8"/>
<path d="M322.371 328.503C315.363 326.298 302.02 318.533 304.71 305.111L310.406 299.671C304.618 296.028 300.624 295.396 297.924 296.446C296.258 297.094 295.084 298.382 294.286 299.999C292.778 303.052 292.609 307.276 292.988 310.567C296.53 335.539 313.127 343.026 320.982 343.648C323.625 342.437 328.43 336.964 326.509 324.763L322.371 328.503Z" fill="#9396A8"/>
<path d="M304.71 305.111C302.02 318.533 315.363 326.298 322.371 328.503L326.509 324.763L348.335 305.037C334.183 300.903 330.03 287.438 329.722 281.222L310.406 299.671L304.71 305.111Z" fill="#68984C"/>
<path d="M329.722 281.222C330.03 287.438 334.183 300.903 348.335 305.037L375.395 280.582C360.054 280.538 354.734 265.536 353.992 258.041L329.722 281.222Z" fill="#68984C"/>
<path d="M447.067 216.17C430.221 211.842 423.966 197.687 422.944 191.151L399.789 213.267C400.906 220.694 407.153 235.986 423.204 237.736L447.067 216.17Z" fill="#68984C"/>
<path d="M422.944 191.151C423.966 197.687 430.221 211.842 447.067 216.17L480.659 195.74C473.438 199.639 468.846 194.387 467.303 190.708C451.341 182.355 449.094 163.927 449.966 155.757C441.505 166.687 424.256 189.067 422.944 191.151Z" fill="#68984C"/>
<path d="M449.966 155.757C449.094 163.927 451.341 182.355 467.303 190.708C467.337 189.504 466.147 184.446 468.386 179.911C467.033 179.895 465.865 179.949 464.951 180.038C461.858 180.336 460.702 176.866 460.51 175.093C457.842 167.113 470.403 163.239 477.017 162.3C475.53 160.33 470.138 158.09 467.629 157.216L465.525 159.567C463.892 160.486 459.777 161.72 456.374 159.311C454.344 157.874 453.713 155.893 453.68 154.174C451.412 154.11 450.259 155.203 449.966 155.757Z" fill="#68984C"/>
<path d="M477.017 162.3C470.403 163.239 457.842 167.113 460.51 175.093C460.702 176.866 461.858 180.336 464.951 180.038C465.865 179.949 467.033 179.895 468.386 179.911C472.756 179.963 479.045 180.748 484.858 183.488C485.983 184.018 487.097 184.363 488.177 184.545C494.414 185.593 499.554 181.18 499.31 175.217C499.024 168.219 497.728 162.881 477.017 162.3Z" fill="#68984C"/>
<path d="M467.303 190.708C468.846 194.387 473.438 199.639 480.659 195.74C481.894 195.073 483.207 194.137 484.595 192.88C485.818 191.629 488.247 188.21 488.177 184.545C487.097 184.363 485.983 184.018 484.858 183.488C479.045 180.748 472.756 179.963 468.386 179.911C466.147 184.446 467.337 189.504 467.303 190.708Z" fill="#68984C"/>
<path d="M456.374 159.311C459.777 161.72 463.892 160.486 465.525 159.567L467.629 157.216L488.665 133.705C490.005 131.734 491.464 126.698 486.574 122.319C480.461 116.845 474.168 126.388 454.188 151.296C453.91 151.969 453.658 153.011 453.68 154.174C453.713 155.893 454.344 157.874 456.374 159.311Z" fill="#68984C"/>
<path d="M67.9871 401.999C60.1136 411.654 48.1841 413.253 43.2035 412.845C48.6851 421.435 56.2805 429.664 66.4292 435.476C70.3709 434.92 78.8325 429.63 81.1454 412.92C76.2449 410.247 71.7944 406.637 67.9871 401.999Z" fill="#68984C"/>
<path d="M81.1454 412.92C78.8325 429.63 70.3709 434.92 66.4292 435.476C74.7378 441.994 90.5044 445.35 105.383 442.921C107.817 439.2 105.929 429.403 101.42 418.31C94.0504 417.777 87.4393 416.353 81.1454 412.92Z" fill="#68984C"/>
<path d="M58.0229 382.868C54.0062 385.728 43.1674 390.067 31.9464 384.547C33.2819 392.287 36.8007 402.812 43.2035 412.845C48.1841 413.253 60.1136 411.654 67.9871 401.999C63.8038 396.903 60.397 390.566 58.0229 382.868Z" fill="#68984C"/>
<path d="M31.9464 384.547C43.1674 390.067 54.0062 385.728 58.0229 382.868L69.0786 341.001C54.9261 355.788 32.7297 356.611 18.035 347.764C17.8999 352.58 31.2712 382.841 31.9464 384.547Z" fill="#68984C"/>
<path d="M32.5624 340.941C32.847 328.921 38.828 325.182 47.9041 322.572C46.9763 320.578 45.2601 319.454 43.4288 318.863C41.3119 318.18 39.0413 318.209 37.6567 318.428C22.631 321.381 13.5832 334.624 19.1536 342.252C23.61 348.354 29.9496 343.92 32.5624 340.941Z" fill="#68984C"/>
<path d="M18.035 347.764C32.7297 356.611 54.9261 355.788 69.0786 341.001C69.8367 338.13 66.4213 336.832 64.6189 336.541C64.3078 337.136 64.1142 337.544 64.109 337.728C57.654 341.018 54.0566 338.092 53.0647 336.217C46.7886 339.522 45.0091 347.636 44.5054 349.229C37.6489 353.086 33.9556 350.138 32.9661 348.182C32.6415 345.48 32.5118 343.079 32.5624 340.941C29.9496 343.92 23.61 348.354 19.1536 342.252C16.5464 345.842 17.3215 347.422 18.035 347.764Z" fill="#68984C"/>
<path d="M32.9661 348.182C33.9556 350.138 37.6489 353.086 44.5054 349.229C45.0091 347.636 46.7886 339.522 53.0647 336.217C53.379 336.052 53.7045 335.899 54.0417 335.759C58.7562 333.802 59.2083 327.227 55.8183 323.972C54.1233 322.344 51.4677 321.547 47.9041 322.572C38.828 325.182 32.847 328.921 32.5624 340.941C32.5118 343.079 32.6415 345.48 32.9661 348.182Z" fill="#68984C"/>
<path d="M54.0417 335.759C53.7045 335.899 53.379 336.052 53.0647 336.217C54.0566 338.092 57.654 341.018 64.109 337.728C64.1142 337.544 64.3078 337.136 64.6189 336.541C66.3318 333.266 71.6054 324.295 68.5903 315.439C65.0275 304.976 41.4856 302.211 43.4288 318.863C45.2601 319.454 46.9763 320.578 47.9041 322.572C51.4677 321.547 54.1233 322.344 55.8183 323.972C59.2083 327.227 58.7562 333.802 54.0417 335.759Z" fill="#68984C"/>
<path d="M137.922 365.508C158.043 344.14 217.141 301.113 293.526 299.978L294.286 299.999C295.084 298.382 296.258 297.094 297.924 296.446L297.728 296.239C281.547 288.844 265.362 284.406 259.293 283.111C224.357 284.445 182.74 305.708 166.299 316.173C151.118 328.087 141.055 354.027 137.922 365.508Z" fill="#A7A9B8"/>
<path d="M101.42 418.31C105.929 429.403 107.817 439.2 105.383 442.921C116.853 439.059 126.508 434.078 134.289 428.969C122.123 424.913 121.582 411.372 122.832 405.109C115.239 411.309 110.687 414.389 101.42 418.31Z" fill="#68984C"/>
<path d="M353.992 258.041C354.734 265.536 360.054 280.538 375.395 280.582L398.942 259.302C384.318 255.111 378.702 250.688 376.634 236.415L353.992 258.041Z" fill="#68984C"/>
<path d="M399.789 213.267L376.634 236.415C378.702 250.688 384.318 255.111 398.942 259.302L423.204 237.736C407.153 235.986 400.906 220.694 399.789 213.267Z" fill="#68984C"/>
<path fill-rule="evenodd" clip-rule="evenodd" d="M302.906 446.777L267.222 326.956C266.498 324.541 264.382 324.122 257.636 325.001C221.072 329.374 178.611 355.562 161.95 368.11C157.217 371.635 155.709 373.718 157.82 377.876C157.782 379.224 196.259 451.017 215.503 486.744C219.243 493.355 221.764 492.916 226.506 489.704C253.832 470.996 287.196 459.833 300.462 456.59C305.61 455.755 305.708 453.294 302.906 446.777Z" fill="#9396A8"/>
<path fill-rule="evenodd" clip-rule="evenodd" d="M293.526 299.978C217.141 301.113 158.043 344.14 137.922 365.508C138.251 366.464 138.598 367.438 138.959 368.429C143.395 380.579 150.208 395.34 158.262 411.148C171.929 437.971 189.17 467.805 204.433 492.993C212.673 497.308 229.088 501.37 251.833 499.782C272.154 498.364 297.528 492.437 326.641 478.152C331.66 475.69 336.79 472.979 342.024 470L320.982 343.648C313.127 343.026 296.53 335.539 292.988 310.567C292.609 307.276 292.778 303.052 294.286 299.999L293.526 299.978ZM302.906 446.777L267.222 326.956C266.498 324.541 264.382 324.122 257.636 325.001C221.072 329.374 178.611 355.562 161.95 368.11C157.217 371.635 155.709 373.718 157.82 377.876C157.782 379.224 196.259 451.017 215.503 486.744C219.243 493.355 221.764 492.916 226.506 489.704C253.832 470.996 287.196 459.833 300.462 456.59C305.61 455.755 305.708 453.294 302.906 446.777Z" fill="#9396A8"/>
<path d="M137.922 365.508C158.043 344.14 217.141 301.113 293.526 299.978L294.286 299.999M137.922 365.508C141.055 354.027 151.118 328.087 166.299 316.173C182.74 305.708 224.357 284.445 259.293 283.111C265.362 284.406 281.547 288.844 297.728 296.239L297.924 296.446M137.922 365.508C138.251 366.464 138.598 367.438 138.959 368.429M320.982 343.648C323.625 342.437 328.43 336.964 326.509 324.763M320.982 343.648C313.127 343.026 296.53 335.539 292.988 310.567C292.609 307.276 292.778 303.052 294.286 299.999M320.982 343.648L342.024 470C336.79 472.979 331.66 475.69 326.641 478.152C297.528 492.437 272.154 498.364 251.833 499.782C229.088 501.37 212.673 497.308 204.433 492.993C189.17 467.805 171.929 437.971 158.262 411.148M422.944 191.151C423.966 197.687 430.221 211.842 447.067 216.17M422.944 191.151L399.789 213.267M422.944 191.151C424.256 189.067 441.505 166.687 449.966 155.757M447.067 216.17L423.204 237.736M447.067 216.17L480.659 195.74M326.509 324.763L322.371 328.503C315.363 326.298 302.02 318.533 304.71 305.111L310.406 299.671M326.509 324.763L348.335 305.037M310.406 299.671L329.722 281.222M310.406 299.671C304.618 296.028 300.624 295.396 297.924 296.446M294.286 299.999C295.084 298.382 296.258 297.094 297.924 296.446M297.962 296.487L297.924 296.446M158.262 411.148C150.208 395.34 143.395 380.579 138.959 368.429M158.262 411.148C157.329 410.933 156.306 410.642 155.225 410.268M138.959 368.429C134.973 370.631 133.639 375.832 133.47 378.157C132.916 383.678 133.695 388.41 135.314 392.428M329.722 281.222C330.03 287.438 334.183 300.903 348.335 305.037M329.722 281.222L353.992 258.041M348.335 305.037L375.395 280.582M353.992 258.041C354.734 265.536 360.054 280.538 375.395 280.582M353.992 258.041L376.634 236.415M375.395 280.582L398.942 259.302M376.634 236.415L399.789 213.267M376.634 236.415C378.702 250.688 384.318 255.111 398.942 259.302M398.942 259.302L423.204 237.736M399.789 213.267C400.906 220.694 407.153 235.986 423.204 237.736M449.966 155.757C449.094 163.927 451.341 182.355 467.303 190.708M449.966 155.757C450.259 155.203 451.412 154.11 453.68 154.174M467.303 190.708C468.846 194.387 473.438 199.639 480.659 195.74M467.303 190.708C467.337 189.504 466.147 184.446 468.386 179.911M480.659 195.74C481.894 195.073 483.207 194.137 484.595 192.88C485.818 191.629 488.247 188.21 488.177 184.545M453.68 154.174C453.658 153.011 453.91 151.969 454.188 151.296C474.168 126.388 480.461 116.845 486.574 122.319C491.464 126.698 490.005 131.734 488.665 133.705L467.629 157.216M453.68 154.174C453.713 155.893 454.344 157.874 456.374 159.311C459.777 161.72 463.892 160.486 465.525 159.567L467.629 157.216M467.629 157.216C470.138 158.09 475.53 160.33 477.017 162.3M477.017 162.3C470.403 163.239 457.842 167.113 460.51 175.093C460.702 176.866 461.858 180.336 464.951 180.038C465.865 179.949 467.033 179.895 468.386 179.911M477.017 162.3C497.728 162.881 499.024 168.219 499.31 175.217C499.554 181.18 494.414 185.593 488.177 184.545M468.386 179.911C472.756 179.963 479.045 180.748 484.858 183.488C485.983 184.018 487.097 184.363 488.177 184.545M58.0229 382.868C54.0062 385.728 43.1674 390.067 31.9464 384.547M58.0229 382.868L69.0786 341.001M58.0229 382.868C60.397 390.566 63.8038 396.903 67.9871 401.999M135.314 392.428C139.313 402.357 148.436 407.924 155.225 410.268M135.314 392.428C131.648 397.057 127.435 401.309 122.832 405.109M31.9464 384.547C31.2712 382.841 17.8999 352.58 18.035 347.764M31.9464 384.547C33.2819 392.287 36.8007 402.812 43.2035 412.845M155.225 410.268C151.644 415.18 144.618 422.187 134.289 428.969M18.035 347.764C32.7297 356.611 54.9261 355.788 69.0786 341.001M18.035 347.764C17.3215 347.422 16.5464 345.842 19.1536 342.252M69.0786 341.001C69.8367 338.13 66.4213 336.832 64.6189 336.541M43.2035 412.845C48.1841 413.253 60.1136 411.654 67.9871 401.999M43.2035 412.845C48.6851 421.435 56.2805 429.664 66.4292 435.476M67.9871 401.999C71.7944 406.637 76.2449 410.247 81.1454 412.92M66.4292 435.476C70.3709 434.92 78.8325 429.63 81.1454 412.92M66.4292 435.476C74.7378 441.994 90.5044 445.35 105.383 442.921M81.1454 412.92C87.4393 416.353 94.0504 417.777 101.42 418.31M105.383 442.921C107.817 439.2 105.929 429.403 101.42 418.31M105.383 442.921C116.853 439.059 126.508 434.078 134.289 428.969M101.42 418.31C110.687 414.389 115.239 411.309 122.832 405.109M122.832 405.109C121.582 411.372 122.123 424.913 134.289 428.969M47.9041 322.572C38.828 325.182 32.847 328.921 32.5624 340.941M47.9041 322.572C46.9763 320.578 45.2601 319.454 43.4288 318.863M47.9041 322.572C51.4677 321.547 54.1233 322.344 55.8183 323.972M32.5624 340.941C32.5118 343.079 32.6415 345.48 32.9661 348.182C33.9556 350.138 37.6489 353.086 44.5054 349.229C45.0091 347.636 46.7886 339.522 53.0647 336.217M32.5624 340.941C29.9496 343.92 23.61 348.354 19.1536 342.252M19.1536 342.252C13.5832 334.624 22.631 321.381 37.6567 318.428C39.0413 318.209 41.3119 318.18 43.4288 318.863M53.0647 336.217C53.379 336.052 53.7045 335.899 54.0417 335.759C58.7562 333.802 59.2083 327.227 55.8183 323.972M53.0647 336.217C54.0566 338.092 57.654 341.018 64.109 337.728C64.1142 337.544 64.3078 337.136 64.6189 336.541M43.4288 318.863C41.4856 302.211 65.0275 304.976 68.5903 315.439C71.6054 324.295 66.3318 333.266 64.6189 336.541M55.8183 323.972C56.7706 324.391 59.1152 325.007 60.8756 324.114M267.222 326.956L302.906 446.777C305.708 453.294 305.61 455.755 300.462 456.59C287.196 459.833 253.832 470.996 226.506 489.704C221.764 492.916 219.243 493.355 215.503 486.744C196.259 451.017 157.782 379.224 157.82 377.876C155.709 373.718 157.217 371.635 161.95 368.11C178.611 355.562 221.072 329.374 257.636 325.001C264.382 324.122 266.498 324.541 267.222 326.956Z" stroke="black" stroke-width="2"/>
<path d="M148.745 171.266C148.613 169.653 149.885 168.859 151.502 169.545L152.102 170.299C152.848 168.892 153.759 165.535 151.442 163.366C149.125 161.197 146.001 162.243 144.729 163.038C143.641 163.811 141.721 166.046 142.748 168.795C144.032 172.231 147.809 172.698 149.233 172.091L148.745 171.266Z" fill="#9396A8"/>
<path d="M164.39 190.879C163.269 191.691 162.454 192.566 161.874 193.45C160.105 196.149 160.533 198.931 161.145 200.252L169.642 197.229L175.348 189.969C173.963 189.129 170.783 188.136 167.274 189.359C166.327 189.689 165.356 190.18 164.39 190.879Z" fill="#9396A8"/>
<path d="M161.874 193.45C162.454 192.566 163.269 191.691 164.39 190.879C165.356 190.18 166.327 189.689 167.274 189.359L152.102 170.299L151.502 169.545C149.885 168.859 148.613 169.653 148.745 171.266L149.233 172.091L161.874 193.45Z" fill="#A7A9B8"/>
<path d="M161.874 193.45C162.454 192.566 163.269 191.691 164.39 190.879C165.356 190.18 166.327 189.689 167.274 189.359M161.874 193.45C160.105 196.149 160.533 198.931 161.145 200.252L169.642 197.229L175.348 189.969C173.963 189.129 170.783 188.136 167.274 189.359M161.874 193.45L149.233 172.091M167.274 189.359L152.102 170.299M152.102 170.299L151.502 169.545C149.885 168.859 148.613 169.653 148.745 171.266L149.233 172.091M152.102 170.299C152.848 168.892 153.759 165.535 151.442 163.366C149.125 161.197 146.001 162.243 144.729 163.038C143.641 163.811 141.721 166.046 142.748 168.795C144.032 172.231 147.809 172.698 149.233 172.091" stroke="black" stroke-width="2"/>
<path d="M268.755 264.624C273.788 260.449 280.538 249.427 267.276 238.742C265.789 240.575 263.181 243.078 259.336 246.062C262.981 247.504 272.705 255.706 233.972 272.285C195.239 288.865 177.935 288.169 173.114 287.542C169.257 287.04 174.602 285.08 177.756 284.162C180.006 283.462 182.209 282.758 184.366 282.051C211.013 273.314 230.555 264.107 244.086 256.199C250.469 252.469 255.514 249.028 259.336 246.062C263.181 243.078 265.789 240.575 267.276 238.742C269.708 236.227 273.699 230.207 270.205 226.244C269.407 225.368 267.326 224.12 265.38 226.131C265.123 226.397 264.803 226.763 264.4 227.223C260.99 231.119 251.712 241.719 225.717 254.45C202.466 265.837 186.492 271.279 181.412 272.576C173.249 274.584 157.581 280.211 160.217 286.659C163.512 294.719 168.738 297.189 180.478 298.402C192.218 299.616 246.447 286.954 268.755 264.624Z" fill="#AD683D"/>
<path d="M177.756 284.162C174.602 285.08 169.257 287.04 173.114 287.542C177.935 288.169 195.239 288.865 233.972 272.285C272.705 255.706 262.981 247.504 259.336 246.062C255.514 249.028 250.469 252.469 244.086 256.199C245.477 261.377 242.1 272.852 217.463 277.332C192.826 281.813 185.133 282.345 184.366 282.051C182.209 282.758 180.006 283.462 177.756 284.162Z" fill="black"/>
<path d="M217.463 277.332C242.1 272.852 245.477 261.377 244.086 256.199C230.555 264.107 211.013 273.314 184.366 282.051C185.133 282.345 192.826 281.813 217.463 277.332Z" fill="#7D0000"/>
<path fill-rule="evenodd" clip-rule="evenodd" d="M126.412 249.265C119.323 261.569 111.148 291.428 135.156 312.435C159.164 333.443 212.436 312.491 236.071 299.39C246.081 293.713 266.631 278.813 268.755 264.624C246.447 286.954 192.218 299.616 180.478 298.402C168.738 297.189 163.512 294.719 160.217 286.659C157.581 280.211 173.249 274.584 181.412 272.576C186.492 271.279 202.466 265.837 225.717 254.45C251.712 241.719 260.99 231.119 264.4 227.223C264.803 226.763 265.123 226.397 265.38 226.131C262.895 223.147 256.643 217.054 251.516 216.555C252.518 214.756 253.087 212.756 252.973 210.553C256.78 206.419 258.483 201.858 255.104 197.542C254.949 198.869 254.533 200.331 253.922 201.983C248.679 216.144 213.781 226.759 210.948 224.299C210.874 224.5 210.798 224.699 210.722 224.896C201.079 249.672 171.165 248.169 161.572 247.687C160.32 247.624 159.414 247.579 158.945 247.611C157.674 247.7 157.06 247.488 156.839 247.143C156.491 246.599 157.123 245.724 157.705 245.167L161.103 239.858C175.859 217.262 190.791 212.759 196.78 211.513C200.725 210.692 204.022 212.249 205.799 213.595C206.18 213.884 206.491 214.163 206.723 214.406C216.113 195.832 236.739 188.022 246.275 186.912C245.728 181.658 239.005 181.98 235.712 182.797C230.618 179.44 222.89 181.193 219.663 182.489C201.628 163.397 174.221 184.802 169.937 196.195C128.919 193.446 123.829 230.43 126.412 249.265Z" fill="#68984C"/>
<path d="M210.948 224.299C210.511 222.045 209.054 216.912 206.723 214.406C206.491 214.163 206.18 213.884 205.799 213.595C204.022 212.249 200.725 210.692 196.78 211.513C190.791 212.759 175.859 217.262 161.103 239.858L157.705 245.167C157.123 245.724 156.491 246.599 156.839 247.143C157.06 247.488 157.674 247.7 158.945 247.611C159.414 247.579 160.32 247.624 161.572 247.687C171.165 248.169 201.079 249.672 210.722 224.896C210.798 224.699 210.874 224.5 210.948 224.299Z" fill="white"/>
<path d="M246.275 186.912C236.739 188.022 216.113 195.832 206.723 214.406C209.054 216.912 210.511 222.045 210.948 224.299C213.781 226.759 248.679 216.144 253.922 201.983C254.533 200.331 254.949 198.869 255.104 197.542C255.968 190.138 249.949 187.365 246.275 186.912Z" fill="white"/>
<path d="M154.224 290.724C151.049 286.701 153.644 277.657 159.794 276.365M126.412 249.265C119.323 261.569 111.148 291.428 135.156 312.435C159.164 333.443 212.436 312.491 236.071 299.39C246.081 293.713 266.631 278.813 268.755 264.624M126.412 249.265C127.385 253.688 129.077 257.302 129.802 258.557M126.412 249.265C123.829 230.43 128.919 193.446 169.937 196.195M268.755 264.624C273.788 260.449 280.538 249.427 267.276 238.742M268.755 264.624C246.447 286.954 192.218 299.616 180.478 298.402C168.738 297.189 163.512 294.719 160.217 286.659C157.581 280.211 173.249 274.584 181.412 272.576C186.492 271.279 202.466 265.837 225.717 254.45C251.712 241.719 260.99 231.119 264.4 227.223C264.803 226.763 265.123 226.397 265.38 226.131M267.276 238.742C269.708 236.227 273.699 230.207 270.205 226.244C269.407 225.368 267.326 224.12 265.38 226.131M267.276 238.742C265.789 240.575 263.181 243.078 259.336 246.062M265.38 226.131C262.895 223.147 256.643 217.054 251.516 216.555M259.336 246.062C262.981 247.504 272.705 255.706 233.972 272.285C195.239 288.865 177.935 288.169 173.114 287.542C169.257 287.04 174.602 285.08 177.756 284.162C180.006 283.462 182.209 282.758 184.366 282.051M259.336 246.062C255.514 249.028 250.469 252.469 244.086 256.199M244.086 256.199C245.477 261.377 242.1 272.852 217.463 277.332C192.826 281.813 185.133 282.345 184.366 282.051M244.086 256.199C230.555 264.107 211.013 273.314 184.366 282.051M169.937 196.195C174.221 184.802 201.628 163.397 219.663 182.489M169.937 196.195C170.144 196.602 177.437 196.36 184.559 204.653M219.663 182.489C222.89 181.193 230.618 179.44 235.712 182.797M219.663 182.489C198.536 190.545 187.89 200.744 185.207 204.837M235.712 182.797C239.005 181.98 245.728 181.658 246.275 186.912M235.712 182.797C229.056 184.296 212.821 191.031 201.124 205.98M246.275 186.912C236.739 188.022 216.113 195.832 206.723 214.406M246.275 186.912C249.949 187.365 255.968 190.138 255.104 197.542M206.723 214.406C209.054 216.912 210.511 222.045 210.948 224.299M206.723 214.406C206.491 214.163 206.18 213.884 205.799 213.595M210.948 224.299C213.781 226.759 248.679 216.144 253.922 201.983C254.533 200.331 254.949 198.869 255.104 197.542M210.948 224.299C210.874 224.5 210.798 224.699 210.722 224.896M213.659 226.509C215.482 226.134 218.768 225.957 222.727 226.634M236.066 232.042C231.478 228.895 226.754 227.322 222.727 226.634M222.727 226.634C223.729 226.172 223.42 225.91 228.988 224.877C234.556 223.845 245.789 218.355 252.973 210.553M255.104 197.542C258.483 201.858 256.78 206.419 252.973 210.553M234.413 228.783C235.012 228.272 247.228 224.25 251.516 216.555M252.973 210.553C253.087 212.756 252.518 214.756 251.516 216.555M205.301 208.47C209.088 202.536 220.403 189.898 235.366 186.814M201.124 205.98C202.14 206.744 204.499 209.338 205.799 213.595M201.124 205.98C199.309 204.947 195.028 204.214 188.811 206.247M173.117 259.883C181.873 258.172 201.022 251.82 207.574 240.096M163.305 253.594C171.969 254.661 193.273 252.627 209.18 235.952C211.287 233.667 214.546 228.258 210.722 224.896M210.722 224.896C201.079 249.672 171.165 248.169 161.572 247.687C160.32 247.624 159.414 247.579 158.945 247.611C157.674 247.7 157.06 247.488 156.839 247.143M156.839 247.143C156.491 246.599 157.123 245.724 157.705 245.167L161.103 239.858C175.859 217.262 190.791 212.759 196.78 211.513C200.725 210.692 204.022 212.249 205.799 213.595M156.839 247.143C155.111 249.471 151.138 253.314 149.065 250.063C148.962 249.86 147.507 248.037 151.104 244.163C153.981 241.064 155.416 238.22 155.773 237.184C157.204 233.044 163.315 222.398 176.312 212.935C181.048 209.487 185.247 207.413 188.811 206.247M160.407 234.833C165.22 227.44 179.343 211.704 197.332 207.904M184.559 204.653C177.855 203.274 159.853 206.074 141.47 228.308M184.559 204.653C184.735 204.7 184.956 204.762 185.207 204.837M188.811 206.247C187.842 205.688 186.262 205.15 185.207 204.837" stroke="black" stroke-width="2"/>
<rect width="14.1718" height="6.85116" transform="matrix(0.891779 -0.45247 0.452482 0.891773 184 228.042)" fill="black"/>
<rect width="14.1718" height="6.85116" transform="matrix(0.891779 -0.45247 0.452482 0.891773 228.219 203.412)" fill="black"/>
<path d="M125.729 250.191C116.675 270.802 111.011 313.903 160.788 321.418C154.46 329.143 141.051 348.768 138.031 365.465C138.23 365.425 139.02 364.624 140.303 363.322C144.001 359.569 151.8 351.657 161.354 345.825C161.117 344.667 164.751 327.04 169.672 321.612C153.246 315.991 122.225 295.209 129.542 257.05L125.729 250.191Z" fill="black" fill-opacity="0.2"/>
<path d="M64.8303 434.835C68.4701 435.986 72.0152 433.984 77.266 434.706C101.361 438.02 122.008 439.241 150.644 407.511L147.008 406.244C149.068 406.225 153.526 405.876 154.565 403.091L158.23 411.186L154.827 410.274C127.688 440.745 106.312 454.78 64.8303 434.835Z" fill="black" fill-opacity="0.2"/>
<path d="M97.7068 419.938C123.483 414.268 137.859 398.063 138.631 397.906C137.456 396.225 136.246 394.35 135.181 391.776C117.713 413.437 98.4755 419.765 97.7068 419.938Z" fill="black" fill-opacity="0.2"/>
<path d="M138.631 397.906C139.669 393.807 142.627 385.591 145.833 383.971L139.279 368.426C130.944 374.648 132.16 384.472 135.181 391.776C136.246 394.35 137.456 396.225 138.631 397.906Z" fill="black" fill-opacity="0.2"/>
<path d="M31.6612 347.056L24.9069 345.709L21.1625 343.66L19.0228 342.489C16.4878 345.821 17.9609 347.128 18.1186 347.9C18.3214 352.039 27.4718 373.995 32.0217 384.455L34.6525 385.526C34.4947 384.754 26.825 360.995 26.9405 351.725C27.4075 349.984 28.9505 346.951 31.6612 347.056Z" fill="black" fill-opacity="0.2"/>
<path d="M19.0228 342.489L21.1625 343.66C19.9704 339.615 19.202 329.99 25.6647 323.845C21.7091 326.128 14.843 333.052 19.0228 342.489Z" fill="black" fill-opacity="0.2"/>
<path d="M28.4742 343.493C30.5147 342.255 32.4197 341.161 32.4585 341.351C32.2784 327.881 42.734 323.439 47.9844 322.902L46.7394 320.744C27.2872 323.916 28.7574 342.912 28.4742 343.493Z" fill="black" fill-opacity="0.2"/>
<path d="M32.8697 347.297C32.759 345.444 32.5216 341.66 32.4585 341.351C32.4197 341.161 30.5147 342.255 28.4742 343.493C27.1966 344.268 25.866 345.1 24.9069 345.709L31.6612 347.056C32.0411 347.071 32.4438 347.147 32.8697 347.297Z" fill="black" fill-opacity="0.2"/>
<path d="M32.4585 341.351C32.5216 341.66 32.759 345.444 32.8697 347.297C33.0286 349.838 34.4907 350.718 35.2019 350.841C35.0441 350.069 28.3041 326.924 54.0882 323.263C51.9205 322.098 49.1158 322.537 47.9844 322.902C42.734 323.439 32.2784 327.881 32.4585 341.351Z" fill="black" fill-opacity="0.1"/>
<path d="M45.4633 347.94C47.1768 345.177 51.7773 339.494 56.471 338.856L53.5248 336.242C47.9922 339.855 46.4759 342.515 45.4633 347.94Z" fill="black" fill-opacity="0.2"/>
<path d="M46.7394 320.744L47.9844 322.902C49.1158 322.537 51.9205 322.098 54.0882 323.263C54.6954 323.589 55.2867 323.838 55.8519 324.025C56.9481 324.387 57.9458 324.517 58.7692 324.53C59.4157 324.539 59.9547 324.476 60.3497 324.395C54.676 322.204 43.832 316.354 45.8466 310.475C44.411 311.974 41.8519 315.713 43.1002 318.674L46.7394 320.744Z" fill="black" fill-opacity="0.2"/>
<path d="M56.8568 338.777C58.5485 336.564 61.2994 330.615 58.7692 324.53C57.9458 324.517 56.9481 324.387 55.8519 324.025C59.4236 331.021 57.1474 332.819 53.5248 336.242L56.471 338.856L56.8568 338.777Z" fill="black" fill-opacity="0.2"/>
<path d="M34.6525 385.526L32.0217 384.455C34.119 395.015 41.4285 417.91 53.8873 425.012C42.9638 412.15 36.6965 394.516 34.6525 385.526Z" fill="black" fill-opacity="0.2"/>
<path d="M26.9405 351.725C26.825 360.995 34.4947 384.754 34.6525 385.526C36.6965 394.516 42.9638 412.15 53.8873 425.012C57.1228 428.821 60.7667 432.212 64.8303 434.835C68.4701 435.986 72.0152 433.984 77.266 434.706C56.6814 431.55 44.1068 402.784 39.8801 387.271L39.2973 353.622L41.1956 350.663C38.9101 351.303 36.5407 351.138 35.2019 350.841C34.4907 350.718 33.0286 349.838 32.8697 347.297L31.6612 347.056C28.9505 346.951 27.4075 349.984 26.9405 351.725Z" fill="black" fill-opacity="0.1"/>
<path d="M62.0311 338.524C62.8423 337.903 64.5212 336.545 64.7477 336.08C65.0309 335.498 71.0643 337.481 68.6166 343.208C66.6583 347.789 60.8563 371.46 58.2001 382.723L55.2707 384.126L63.9154 345.777C64.054 343.832 63.8711 339.658 62.0311 338.524Z" fill="black" fill-opacity="0.1"/>
<path d="M150.644 407.511L147.008 406.244L138.631 397.906C129.926 429.272 99.6061 437.778 77.266 434.706C101.361 438.02 122.008 439.241 150.644 407.511Z" fill="black" fill-opacity="0.09"/>
<path d="M169.672 321.612C164.751 327.04 161.117 344.667 161.354 345.825C160.467 349.356 159.831 358.437 164.376 366.513L181.68 355.741L186.487 352.748C181.458 347.022 180.424 337.505 180.536 333.462C178.978 330.564 182.42 322.357 184.335 318.615L169.672 321.612Z" fill="black" fill-opacity="0.1"/>
<path d="M158.559 379.36L217.264 489.573C218.148 491.032 220.544 493.184 223.724 491.673C179.527 407.603 164.532 373.833 162.559 367.457C158.768 369.713 154.461 374.137 158.559 379.36Z" fill="black" fill-opacity="0.2"/>
<path d="M181.68 355.741L164.376 366.513C163.812 366.763 163.193 367.08 162.559 367.457C164.532 373.833 179.527 407.603 223.724 491.673C224.183 491.455 224.659 491.16 225.148 490.776C225.78 489.82 236.945 483.307 244.815 478.818C205.068 413.375 186.164 369.499 181.68 355.741Z" fill="black" fill-opacity="0.1"/>
<path d="M184.335 318.615C182.42 322.357 178.978 330.564 180.536 333.462C180.424 337.505 181.458 347.022 186.487 352.748L181.68 355.741C186.164 369.499 205.068 413.375 244.815 478.818C246.129 478.069 247.351 477.376 248.417 476.774L259.5 498.822C266.586 499.379 273.433 497.114 280.77 495.108L269.002 467.341L265.687 468.823C228.697 399.293 216.303 370.477 211.15 339.668L215.93 337.485C212.818 332.091 210.411 322.935 209.979 318.199L211.908 317.804C210.54 315.833 209.238 311.781 210.567 311.244C201.081 315.182 189.127 317.799 184.335 318.615Z" fill="black" fill-opacity="0.05"/>
<path d="M129.542 257.05C122.225 295.209 153.246 315.991 169.672 321.612L184.335 318.615C144.906 317.669 131.378 277.177 129.542 257.05Z" fill="black" fill-opacity="0.1"/>
<path d="M125.729 250.191L129.542 257.05C130.042 255.821 124.372 214.101 145.635 200.841C133.881 207.424 123.969 220.659 125.729 250.191Z" fill="black" fill-opacity="0.1"/>
<path d="M183.933 204.527L181.215 201.063C172.825 201.973 154.345 207.278 147.544 221.21C154.321 216.341 171.09 206.991 183.95 208.544C185.368 207.611 187.727 206.7 188.73 206.361C188.16 205.54 186.403 204.023 183.933 204.527Z" fill="black" fill-opacity="0.2"/>
<path d="M192.02 198.855C195.5 193.587 205.222 182.408 216.272 179.828L219.683 182.749C222.56 181.089 229.662 178.86 235.057 183.225L227.576 185.96C224.48 184.583 213.035 185.233 192.02 198.855Z" fill="black" fill-opacity="0.2"/>
<path d="M295.024 299.612L297.992 296.434C287.298 291.973 264.32 283.133 257.956 283.469L255.558 285.507L251.106 289.291C258.399 290.883 274.073 295.451 278.422 300.995L295.024 299.612Z" fill="black" fill-opacity="0.1"/>
<path d="M297.992 296.434L295.024 299.612C300.4 299.164 304.846 302.432 306.398 304.122L310.397 300.088C307.479 296.825 300.911 296.292 297.992 296.434Z" fill="black" fill-opacity="0.1"/>
<path d="M278.422 300.995C274.073 295.451 258.399 290.883 251.106 289.291L243.791 294.806C247.605 295.769 256.182 298.786 259.97 303.158L260.045 303.149L278.422 300.995Z" fill="black" fill-opacity="0.05"/>
<path d="M295.024 299.612L278.422 300.995L260.045 303.149C263.211 302.784 269.535 302.753 270.099 305.51C270.667 308.288 302.024 426.595 316.5 483C320.887 482.744 324 479 329.353 477.5L295.66 322.396C298.341 323.054 304.469 323.008 307.535 317.557C306.414 315.717 304.929 312.396 304.77 309.278C304.672 307.349 305.081 305.497 306.398 304.122C304.846 302.432 300.4 299.164 295.024 299.612Z" fill="black" fill-opacity="0.03"/>
<path d="M316.918 326.092L322.644 328.54L326.337 324.971L435.335 226.862L404.751 252.28L314.28 324.985C315.224 325.654 316.131 326.079 316.918 326.092Z" fill="black" fill-opacity="0.2"/>
<path d="M310.397 300.088L306.398 304.122C305.081 305.497 304.672 307.349 304.77 309.278L422.984 191.999L310.397 300.088Z" fill="black" fill-opacity="0.2"/>
<path d="M309.745 320.499C311.105 322.157 312.74 323.895 314.28 324.985L404.751 252.28L309.745 320.499Z" fill="black" fill-opacity="0.05"/>
<path d="M450.526 165.466C451.187 163.455 453.328 159.506 456.605 159.801C454.835 158.143 453.141 154.227 454.027 153.092L450.177 155.889L422.984 191.999L423.221 193.157L450.526 165.466Z" fill="black" fill-opacity="0.1"/>
<path d="M446.492 216.541L477.234 197.796C475.14 197.554 470.649 196.328 469.441 193.359L446.492 216.541Z" fill="black" fill-opacity="0.1"/>
<path d="M468.046 180.378L467.548 184.097C473.435 183.966 485.231 185.388 485.321 192.123C485.63 192.06 487.695 187.35 488.69 185.003C483.916 182.628 473.105 178.379 468.046 180.378Z" fill="black" fill-opacity="0.2"/>
<path d="M468.046 180.378L462.091 178.78L461.004 177.395C461.787 179.915 463.062 185.497 461.897 187.664C461.974 187.506 465.179 189.078 466.773 189.884L467.548 184.097L468.046 180.378Z" fill="black" fill-opacity="0.2"/>
<path d="M486.825 164.077C491.879 165.859 500.377 172.162 493.934 183.127C498.1 181.873 501.54 173.13 495.489 167.131C493.087 165.21 490.001 164.419 486.825 164.077Z" fill="white" fill-opacity="0.2"/>
<path d="M484.549 137.206C485.997 132.488 486.839 123.231 478.623 123.945C479.441 123.182 480.029 122.84 481.088 122.235C487.025 119.816 491.391 129.376 488.163 133.251L484.549 137.206Z" fill="white" fill-opacity="0.2"/>
<path d="M255.558 285.507L257.956 283.469C264.538 276.335 267.6 268.366 268.308 265.273C265.562 267.576 259.994 272.198 259.686 272.261C260.141 277.636 257.124 283.331 255.558 285.507Z" fill="black" fill-opacity="0.1"/>
<path d="M253.004 263.174C253.776 263.017 273.211 255.829 266.733 239.866L252.103 250.896L253.004 263.174Z" fill="black" fill-opacity="0.2"/>
<path d="M265.438 225.659C264.948 226.271 263.968 227.469 263.176 228.36C265.885 227.194 271.173 226.577 270.646 233.439C271.926 231.837 273.141 227.944 267.753 225.186L265.438 225.659Z" fill="black" fill-opacity="0.2"/>
<path d="M248.96 219.78L251.574 216.834L253.171 210.879C251.58 212.277 248.322 215.086 248.013 215.15C248.707 218.545 246.676 221.721 245.574 222.884L248.96 219.78Z" fill="black" fill-opacity="0.2"/>
<path d="M265.438 225.659C262.901 222.425 256.576 216.133 251.574 216.834L248.96 219.78C251.921 219.845 258.778 221.794 262.517 229.07C262.705 228.88 262.931 228.634 263.176 228.36C263.968 227.469 264.948 226.271 265.438 225.659Z" fill="black" fill-opacity="0.2"/>
<path d="M248.013 215.15C248.322 215.086 251.58 212.277 253.171 210.879C258.392 203.38 256.546 199.201 254.971 198.049L252.681 204.547C252.947 208.996 249.68 213.469 248.013 215.15Z" fill="black" fill-opacity="0.2"/>
<path d="M203.748 240.505C204.52 240.347 206.703 237.26 207.301 232.314C207.546 231.942 209.906 227.36 211.055 225.115C211.959 225.6 213.567 227.174 212.774 229.588C211.782 232.605 205.652 241.953 203.748 240.505Z" fill="black" fill-opacity="0.2"/>
<path d="M196.448 204.784C199.936 201.525 208.347 194.553 214.086 192.737L202.166 205.223L196.448 204.784Z" fill="black" fill-opacity="0.2"/>
<path d="M162.791 191.562L149.184 170.222C147.509 169.895 143.894 168.731 142.835 166.696C142.171 168.037 142.359 171.054 148.421 172.388L161.687 193.798C161.993 193.089 162.485 192.131 162.791 191.562Z" fill="black" fill-opacity="0.2"/>
<path d="M149.184 170.222L162.791 191.562C163.1 191.499 164.101 190.758 164.563 190.396L149.412 169.372C147.5 167.886 143.691 164.591 143.748 163.293L142.835 166.696C143.894 168.731 147.509 169.895 149.184 170.222Z" fill="black" fill-opacity="0.1"/>
<path d="M169.194 189.449C167.607 194.276 163.346 194.933 161.414 194.657L160.958 196.359L169.841 196.553L173.982 189.275L169.194 189.449Z" fill="black" fill-opacity="0.2"/>
<path d="M147.544 221.21C154.345 207.278 172.825 201.973 181.215 201.063L175.717 197.764C169.564 197.816 155.098 202.702 146.465 221.833L147.544 221.21Z" fill="black" fill-opacity="0.05"/>
<path d="M192.02 198.855C195.5 193.587 205.222 182.408 216.272 179.828L211.239 176.836C205.897 180.206 193.513 190.027 186.705 202.353L192.02 198.855Z" fill="black" fill-opacity="0.05"/>
<path d="M262.517 229.07C258.778 221.794 251.921 219.845 248.96 219.78L245.574 222.884C248.743 223.309 255.506 226.241 257.21 234.576C257.194 234.499 260.741 230.873 262.517 229.07Z" fill="black" fill-opacity="0.05"/>
<path fill-rule="evenodd" clip-rule="evenodd" d="M304.831 335.798C308.947 334.957 317.127 331.838 316.918 326.092L322.644 328.54L326.337 324.971C327.585 327.798 328.266 335.592 321.01 344.15L342.407 470.263L334.339 474.5L304.831 335.798Z" fill="black" fill-opacity="0.2"/>
<path fill-rule="evenodd" clip-rule="evenodd" d="M316.918 326.092C317.127 331.838 308.947 334.957 304.831 335.798L334.339 474.5L329.353 477.5L295.66 322.396C298.341 323.054 304.469 323.008 307.535 317.557C308.087 318.37 308.858 319.417 309.745 320.499C311.105 322.157 312.74 323.895 314.28 324.985C315.224 325.654 316.131 326.079 316.918 326.092Z" fill="black" fill-opacity="0.07"/>
<path fill-rule="evenodd" clip-rule="evenodd" d="M140.303 363.322C144.001 359.569 151.8 351.657 161.354 345.825C160.467 349.356 159.831 358.437 164.376 366.513C163.812 366.763 163.193 367.08 162.559 367.457C158.768 369.713 154.461 374.137 158.559 379.36L217.264 489.573C218.148 491.032 220.544 493.184 223.724 491.673C224.183 491.455 224.659 491.16 225.148 490.776L230.241 499.5C230.048 499.169 213.209 495.272 204.813 493.365C188.872 467.082 176.077 444.171 158.23 411.186L154.565 403.091C153.526 405.876 149.068 406.225 147.008 406.244L138.631 397.906C139.669 393.807 142.627 385.591 145.833 383.971L139.279 368.426L138.031 365.465C138.23 365.425 139.02 364.624 140.303 363.322Z" fill="black" fill-opacity="0.2"/>
<path fill-rule="evenodd" clip-rule="evenodd" d="M230.241 499.5L225.148 490.776C225.78 489.82 236.945 483.307 244.815 478.818C246.129 478.069 247.351 477.376 248.417 476.774L259.5 498.822C248.196 500.17 241.81 500.528 230.241 499.5Z" fill="black" fill-opacity="0.1"/>
<path d="M277.088 375.885C277.983 377.927 277.226 380.104 275.578 380.826C273.931 381.549 271.816 380.631 270.921 378.589C270.026 376.547 270.783 374.37 272.431 373.647C274.078 372.925 276.193 373.843 277.088 375.885Z" stroke="black"/>
</g>
<defs>
<clipPath id="clip0_127_162">
<rect width="512" height="512" fill="white"/>
</clipPath>
</defs>
</svg>
